<?xml version="1.0" encoding="utf-8"?>
<!-- Generator: Adobe Illustrator 25.4.1, SVG Export Plug-In . SVG Version: 6.00 Build 0)  -->
<svg version="1.1" xmlns="http://www.w3.org/2000/svg" xmlns:xlink="http://www.w3.org/1999/xlink" x="0px" y="0px"
	 viewBox="0 0 163.94 163.94" style="enable-background:new 0 0 163.94 163.94;" xml:space="preserve">
<style type="text/css">
	.dentures-st0{fill:var(--icon-color-primary, #bce6f6);}
	.dentures-st1{fill:#FFFFFF;}
	.dentures-st2{fill:none;}
	.dentures-st3{fill:none;stroke:#313131;stroke-width:1.8;stroke-linecap:round;stroke-linejoin:round;stroke-miterlimit:10;}
</style>
<g id="Layer_20_copy_5">
	<g>
		<path class="dentures-st0" d="M47.16,81.31l0.05-0.1l14.01-29.63l0.05-0.1l0.05-0.1l12.3-26.02c-1.43,0.64-2.82,1.34-4.17,2.09l-10.73,22.7
			l-0.05,0.1l-0.05,0.1L44.61,79.98l-0.05,0.1l-0.05,0.1l-2.07,4.39c0.28,1.52,0.62,3.04,1.03,4.55l3.64-7.7L47.16,81.31z"/>
		<path class="dentures-st0" d="M52.61,47.37l0.05-0.1l5.35-11.32c-2.81,2.73-5.29,5.74-7.43,8.98l-0.53,1.11l-0.05,0.1l-0.05,0.1
			l-5.98,12.65c-1.14,3.7-1.89,7.53-2.23,11.43l10.8-22.85L52.61,47.37z"/>
		<path class="dentures-st0" d="M145.33,91.21l-0.05,0.1l-9.81,20.74c7.78-8.3,12.78-18.88,14.26-30.16l-4.35,9.21L145.33,91.21z"/>
		<path class="dentures-st0" d="M116.49,114.09l0.05-0.1l14.01-29.63l0.05-0.1l0.05-0.1l14.01-29.63l0.05-0.1l0.05-0.1l0.72-1.52
			c-0.5-1.13-1.04-2.24-1.61-3.32l-1.71,3.61l-0.05,0.1l-0.05,0.1l-14.01,29.63l-0.05,0.1l-0.05,0.1l-14.01,29.63l-0.05,0.1
			l-0.05,0.1l-7.16,15.14c1.2-0.24,2.39-0.53,3.59-0.86l6.17-13.05L116.49,114.09z"/>
		<path class="dentures-st0" d="M99.16,105.89l0.05-0.1l14.01-29.64l0.05-0.1l0.05-0.1l14.01-29.63l0.05-0.1l0.05-0.1l5.27-11.15
			c-0.73-0.68-1.49-1.33-2.25-1.96l-5.62,11.88l-0.05,0.1l-0.05,0.1l-14.01,29.64l-0.05,0.1l-0.05,0.1l-14.01,29.63l-0.05,0.1
			l-0.05,0.1l-11.07,23.41c0.98,0.19,1.96,0.36,2.95,0.5L99.11,106L99.16,105.89z"/>
		<path class="dentures-st0" d="M81.83,97.7l0.05-0.1l14.01-29.63l0.05-0.1l0.05-0.1L110,38.12l0.05-0.1l0.05-0.1l6.29-13.31
			c-0.89-0.36-1.79-0.7-2.7-1.02l-6.19,13.1l-0.05,0.1l-0.05,0.1L93.39,66.52l-0.05,0.1l-0.05,0.1L79.28,96.37l-0.05,0.1l-0.05,0.1
			L67.53,121.2c0.82,0.5,1.65,0.98,2.5,1.44L81.78,97.8L81.83,97.7z"/>
		<path class="dentures-st0" d="M64.49,89.5l0.05-0.1l14.01-29.64l0.05-0.1l0.05-0.1l14.01-29.63l0.05-0.1l0.05-0.1l4.32-9.13
			c-1.06-0.02-2.13-0.02-3.19,0.02l-3.73,7.88l-0.05,0.1l-0.05,0.1L76.05,58.33L76,58.43l-0.05,0.1L61.94,88.17l-0.05,0.1l-0.05,0.1
			l-9.18,19.41c0.65,0.85,1.32,1.68,2.01,2.48l9.77-20.66L64.49,89.5z"/>
		<path class="dentures-st0" d="M125.16,118.19l0.05-0.1l14.01-29.63l0.05-0.1l0.05-0.1l10.23-21.64c-0.25-1.58-0.56-3.15-0.95-4.72
			l-11.89,25.14l-0.05,0.1l-0.05,0.1l-14.01,29.64l-0.05,0.1l-0.05,0.1l-3.23,6.83c1.46-0.7,2.88-1.45,4.25-2.27l1.58-3.33
			L125.16,118.19z"/>
		<path class="dentures-st0" d="M107.82,109.99l0.05-0.1l14.01-29.63l0.05-0.1l0.05-0.1l14.01-29.63l0.05-0.1l0.05-0.1l3.54-7.49
			c-0.64-0.87-1.3-1.72-1.98-2.54l-4.16,8.8l-0.05,0.1l-0.05,0.1l-14.01,29.63l-0.05,0.1l-0.05,0.1l-14.01,29.64l-0.05,0.1
			l-0.05,0.1l-9.61,20.33c1.07,0.01,2.14-0.02,3.22-0.08l8.99-19.02L107.82,109.99z"/>
		<path class="dentures-st0" d="M90.49,101.8l0.05-0.1l14.01-29.63l0.05-0.1l0.05-0.1l14.01-29.63l0.05-0.1l0.05-0.1l6.15-13.01
			c-0.81-0.51-1.64-1.01-2.48-1.48l-6.27,13.26l-0.05,0.1l-0.05,0.1l-14.01,29.64l-0.05,0.1l-0.05,0.1l-14.01,29.63l-0.05,0.1
			l-0.05,0.1l-11.72,24.79c0.9,0.35,1.8,0.68,2.72,0.98l11.6-24.54L90.49,101.8z"/>
		<path class="dentures-st0" d="M73.16,93.6l0.05-0.1l14.01-29.64l0.05-0.1l0.05-0.1l14.01-29.63l0.05-0.1l0.05-0.1l5.7-12.06
			c-0.97-0.21-1.94-0.39-2.92-0.54l-5.38,11.37l-0.05,0.1l-0.05,0.1L84.72,62.43l-0.05,0.1l-0.05,0.1L70.61,92.27l-0.05,0.1
			l-0.05,0.1l-10.83,22.9c0.74,0.66,1.5,1.3,2.28,1.92l11.15-23.59L73.16,93.6z"/>
		<path class="dentures-st0" d="M55.83,85.41l0.05-0.1l14.01-29.63l0.05-0.1l0.05-0.1L84,25.83l0.05-0.1l0.05-0.1l1.96-4.15
			c-1.18,0.22-2.37,0.48-3.55,0.78l-1.01,2.14l-0.05,0.1l-0.05,0.1L67.39,54.23l-0.05,0.1l-0.05,0.1L53.28,84.07l-0.05,0.1
			l-0.05,0.1l-6.46,13.67c0.52,1.1,1.07,2.18,1.65,3.24l7.41-15.68L55.83,85.41z"/>
	</g>
</g>
<g id="Dentures">
	<path class="dentures-st1" d="M132.89,63.62c-0.1-3.84-1.22-7.12-3.76-7.95c-0.2-0.07-0.4-0.12-0.58-0.18c-0.06-0.02-0.12-0.03-0.17-0.05
		c-0.12-0.03-0.24-0.06-0.36-0.09c-0.06-0.02-0.13-0.03-0.19-0.04c-0.1-0.02-0.2-0.04-0.29-0.06c-0.06-0.01-0.12-0.02-0.18-0.03
		c-0.09-0.01-0.18-0.03-0.26-0.04c-0.06-0.01-0.11-0.01-0.16-0.01c-0.08-0.01-0.16-0.01-0.24-0.02c-0.05,0-0.09,0-0.14,0
		c-0.08,0-0.16,0-0.23,0c-0.04,0-0.08,0-0.12,0.01c-0.08,0.01-0.16,0.01-0.23,0.02c-0.03,0-0.06,0.01-0.09,0.01
		c-0.08,0.01-0.16,0.03-0.24,0.04c-0.02,0-0.03,0.01-0.05,0.01c-2.13,0.49-2.6,2.6-9.47,0.99c0,0-0.01,0-0.01,0l-0.77-0.19
		c-0.01,0-0.02-0.01-0.03-0.01c-0.29-0.07-0.58-0.15-0.88-0.24c-0.33-0.09-0.66-0.19-1.01-0.29c-1.56-0.47-3.08-0.81-4.57-1.06
		l-0.01,0c0,0-0.08-0.06-0.25-0.18c-0.11-0.08-0.26-0.18-0.45-0.3c-0.47-0.3-1.19-0.73-2.16-1.22c-0.39-0.2-0.82-0.4-1.29-0.62
		c-0.47-0.21-0.99-0.44-1.55-0.66c-5.02-2.03-13.53-4.34-26.18-4.34l0,0c0,0,0,0,0,0s0,0,0,0l0,0c-12.65,0-21.15,2.32-26.18,4.34
		c-0.56,0.23-1.07,0.45-1.55,0.66c-0.47,0.21-0.9,0.42-1.29,0.62c-0.97,0.49-1.69,0.92-2.16,1.22c-0.19,0.12-0.34,0.22-0.45,0.3
		c-0.17,0.12-0.25,0.18-0.25,0.18l0,0c-0.67,0.11-1.35,0.25-2.04,0.4c-0.15,0.03-0.31,0.07-0.46,0.11
		c-0.69,0.16-1.38,0.34-2.08,0.55c-2.78,0.84-4.77,1.21-6.25,1.3c-0.42,0.03-0.81,0.03-1.16,0.02c-0.52-0.02-0.97-0.08-1.36-0.17
		c-2.59-0.6-2.72-2.37-6.94-1c-3.38,1.1-4.25,6.58-3.52,11.9c0.09,0.67,0.21,1.33,0.35,1.98c0.14,0.65,0.3,1.29,0.49,1.92
		c0.22,0.75,0.48,1.47,0.77,2.15c0.42,1,0.9,1.91,1.43,2.67c0.15,0.21,0.3,0.41,0.46,0.6s0.32,0.36,0.48,0.52
		c0.66,0.64,1.37,1.06,2.13,1.19l0.51-0.2c-0.06,0.66-0.08,1.33-0.08,2.01c0,0.03,0,0.06,0,0.1c0.01,0.67,0.04,1.34,0.11,2
		c0.01,0.11,0.06,0.21,0.13,0.31c0.01,0.02,0.04,0.04,0.06,0.06c0.07,0.08,0.15,0.16,0.25,0.24c0.02,0.01,0.04,0.03,0.06,0.04
		c0.12,0.09,0.25,0.17,0.4,0.25c0.01,0,0.02,0.01,0.02,0.01c0.17,0.09,0.36,0.17,0.56,0.25c0,0,0,0,0,0l-0.14,1.24h0
		c-0.23,0.05-0.44,0.12-0.63,0.21c-0.01,0.01-0.03,0.01-0.04,0.02c-0.17,0.08-0.31,0.17-0.45,0.28c-0.02,0.02-0.05,0.04-0.07,0.06
		c-0.11,0.1-0.2,0.21-0.28,0.33c-0.02,0.03-0.05,0.06-0.07,0.09c-0.08,0.15-0.15,0.31-0.17,0.49c-0.03,0.21-0.06,0.45-0.08,0.69
		c0,0.03-0.01,0.07-0.01,0.1c-0.02,0.23-0.04,0.47-0.05,0.72c0,0.01,0,0.02,0,0.03c-0.03,0.57-0.03,1.19-0.01,1.83h-0.99
		c0,0-0.82,1.38-1.7,3.41c-0.38,0.87-0.77,1.86-1.11,2.92c-0.23,0.7-0.44,1.44-0.6,2.18c-0.34,1.49-0.52,3.03-0.41,4.48
		c0.08,1.09,0.72,2.26,1.96,3.45c0.82,0.79,1.91,1.59,3.27,2.38c0.34,0.2,0.7,0.39,1.07,0.59c2.25,1.16,5.12,2.29,8.65,3.29
		c2.35,0.67,5,1.29,7.95,1.84c1.48,0.27,3.03,0.53,4.66,0.77c7.33,1.06,16.23,1.72,26.81,1.72s19.48-0.65,26.81-1.72
		c1.63-0.24,3.18-0.49,4.66-0.77c2.95-0.55,5.6-1.17,7.95-1.84c3.53-1.01,6.4-2.13,8.65-3.29c0.37-0.19,0.73-0.39,1.07-0.59
		c1.36-0.78,2.45-1.58,3.27-2.38c1.23-1.19,1.88-2.36,1.96-3.45c0.03-0.36,0.04-0.73,0.03-1.1c-0.03-1.41-0.29-2.87-0.66-4.26
		c-0.12-0.44-0.24-0.88-0.38-1.3c-0.34-1.06-0.73-2.05-1.11-2.92c-0.88-2.03-1.7-3.41-1.7-3.41h-0.99c0.02-0.64,0.02-1.26-0.01-1.83
		c0-0.01,0-0.02,0-0.03c-0.01-0.26-0.03-0.5-0.05-0.73c0-0.03,0-0.07-0.01-0.1c-0.02-0.25-0.05-0.48-0.08-0.7
		c-0.03-0.17-0.08-0.33-0.16-0.48c-0.01-0.03-0.04-0.05-0.05-0.07c-0.08-0.12-0.16-0.24-0.27-0.34c-0.01-0.01-0.03-0.02-0.04-0.03
		c-0.13-0.11-0.27-0.21-0.44-0.29c0,0-0.01,0-0.01,0c-0.18-0.09-0.38-0.16-0.59-0.22c0,0,0,0,0,0c0,0,0-0.01,0-0.01c0,0,0,0,0,0
		l0.13-1.45c0,0,0,0,0,0c0.15-0.07,0.28-0.14,0.41-0.22c0.01-0.01,0.03-0.02,0.04-0.03c0.1-0.07,0.2-0.14,0.28-0.21
		c0.04-0.03,0.06-0.06,0.09-0.1c0.05-0.05,0.1-0.1,0.14-0.16c0.06-0.09,0.1-0.18,0.11-0.28c0.07-0.66,0.1-1.33,0.11-2
		c0-0.03,0-0.07,0-0.1c0.01-0.68-0.02-1.35-0.08-2.01l0.51,0.2c2.28-0.39,4.17-3.4,5.27-7.12c0.09-0.31,0.18-0.63,0.26-0.95
		c0.16-0.64,0.3-1.29,0.42-1.96c0.17-0.99,0.29-2,0.35-2.99C132.9,64.91,132.91,64.26,132.89,63.62z"/>
	<path class="dentures-st2" d="M126.53,89.77c0.04-1.3-0.03-2.52-0.16-3.38c-0.11-0.72-0.7-1.2-1.57-1.44c0,0,0-0.01,0-0.01c0,0,0,0,0,0
		l0.13-1.45c0.61-0.29,1.03-0.63,1.07-0.99c0.15-1.37,0.15-2.77,0.04-4.11l0.51,0.2c6.08-1.03,9.35-20.72,2.59-22.92
		c-6.23-2.03-3.55,2.79-13.02,0.58l-0.78-0.19c-0.59-0.15-1.23-0.33-1.91-0.53l0.12,0.09l-4.7-1.15c0,0-9.4-7.32-31.89-7.32
		c-22.48,0-31.89,7.32-31.89,7.32l0,0c-1.49,0.24-3.02,0.59-4.58,1.06c-12.69,3.82-8.94-2.06-15.7,0.15
		c-6.76,2.2-3.49,21.9,2.59,22.92l0.51-0.2c-0.11,1.34-0.11,2.74,0.04,4.11c0.05,0.43,0.64,0.83,1.48,1.16l-0.14,1.24
		c-0.95,0.22-1.59,0.72-1.71,1.47c-0.13,0.87-0.2,2.08-0.16,3.38h-0.99c0,0-4.26,7.19-3.82,12.99c0.44,5.8,16.75,14.03,54.37,14.03
		c37.62,0,53.93-8.23,54.37-14.03c0.44-5.8-3.82-12.99-3.82-12.99H126.53z"/>
	<g>
		<path class="dentures-st3" d="M74.27,91.44c1.09-0.15,1.91-1.06,1.94-2.16c0.07-2.29,0.02-6.34-0.96-10.3c-1.47-5.98-4.41-6.96-7.94-6.96
			c-3.53,0-7.04,3.42-7.05,16.75C60.26,92.95,70.1,92.02,74.27,91.44z"/>
		<path class="dentures-st3" d="M60.27,88.78c-6.56,2.65-12.29-0.77-12.65-1.43c-0.37-0.66-0.08-6.21,0.97-11.13
			c1.57-7.33,10.33-4.93,11.2,0.83C60.42,81.31,60.27,88.78,60.27,88.78z"/>
		<path class="dentures-st3" d="M47.18,78.37c0.13-2.95-1.14-6.39-4.74-7.05c-3.6-0.66-6.1,6.76-5.34,13.49c0.19,1.74,8.59,3.05,9.31,1.49
			C47.13,84.75,47.02,81.85,47.18,78.37z"/>
		<path class="dentures-st3" d="M36.95,76.57c0.12-2.72-1.02-5.89-4.24-6.5c-3.22-0.61-5.45,6.23-4.78,12.44c0.17,1.6,7.68,2.81,8.32,1.38
			C36.91,82.45,36.81,79.78,36.95,76.57z"/>
		<path class="dentures-st3" d="M76.24,93.87c0,2.83-0.1,10.38-4.11,10.58c-4.02,0.2-5.28-8.39-5.31-11.27
			C66.8,91.64,76.24,91.04,76.24,93.87z"/>
		<path class="dentures-st3" d="M66.1,93.78c-0.17,2.83-0.83,10.7-4.85,10.64s-4.37-9.61-4.68-12.46c-0.16-1.43,2.54-1.04,4.98-0.58
			C63.98,91.83,66.18,92.36,66.1,93.78z"/>
		<path class="dentures-st3" d="M55.76,91.89c-0.17,2.83-2.32,12.11-6.34,12.05c-4.02-0.05-3.76-10.26-3.75-13.59c0-1.44,2.07-1.83,4.51-1.37
			C52.61,89.43,55.85,90.47,55.76,91.89z"/>
		<path class="dentures-st3" d="M45.08,88.79c-0.17,2.83-1.12,11.16-5.14,11.1c-4.02-0.05-4.33-8.3-3.82-11.68c0.22-1.42,2.13-2.04,4.56-1.58
			C43.12,87.09,45.17,87.38,45.08,88.79z"/>
		<path class="dentures-st3" d="M35.94,86.93c-0.16,2.62-1.04,10.35-4.8,10.3c-3.75-0.05-4.05-7.7-3.57-10.84c0.2-1.32,1.99-1.89,4.26-1.47
			S36.02,85.61,35.94,86.93z"/>
		<path class="dentures-st3" d="M76.97,59.34c-7.35,0-20.03-8.77-36.46-3.82c-12.69,3.82-8.94-2.06-15.7,0.15c-6.76,2.2-3.49,21.9,2.59,22.92
			"/>
		<path class="dentures-st3" d="M45.09,54.46c0,0,9.4-7.32,31.89-7.32"/>
		<path class="dentures-st3" d="M79.67,91.44c-1.09-0.15-1.91-1.06-1.94-2.16c-0.07-2.29-0.02-6.34,0.96-10.3c1.47-5.98,4.41-6.96,7.94-6.96
			c3.53,0,7.04,3.42,7.05,16.75C93.68,92.95,83.84,92.02,79.67,91.44z"/>
		<path class="dentures-st3" d="M93.67,88.78c6.56,2.65,12.29-0.77,12.65-1.43c0.37-0.66,0.08-6.21-0.97-11.13
			c-1.57-7.33-10.33-4.93-11.2,0.83C93.52,81.31,93.67,88.78,93.67,88.78z"/>
		<path class="dentures-st3" d="M106.76,78.37c-0.13-2.95,1.14-6.39,4.74-7.05c3.6-0.66,6.1,6.76,5.34,13.49c-0.19,1.74-8.59,3.05-9.31,1.49
			C106.82,84.75,106.92,81.85,106.76,78.37z"/>
		<path class="dentures-st3" d="M116.99,76.57c-0.12-2.72,1.02-5.89,4.24-6.5c3.22-0.61,5.45,6.23,4.78,12.44c-0.17,1.6-7.68,2.81-8.32,1.38
			C117.04,82.45,117.13,79.78,116.99,76.57z"/>
		<path class="dentures-st3" d="M77.71,93.87c0,2.83,0.1,10.38,4.11,10.58c4.02,0.2,5.28-8.39,5.31-11.27
			C87.15,91.64,77.71,91.04,77.71,93.87z"/>
		<path class="dentures-st3" d="M87.85,93.78c0.17,2.83,0.83,10.7,4.85,10.64c4.02-0.05,4.37-9.61,4.68-12.46c0.16-1.43-2.54-1.04-4.98-0.58
			C89.97,91.83,87.76,92.36,87.85,93.78z"/>
		<path class="dentures-st3" d="M98.18,91.89c0.17,2.83,2.32,12.11,6.34,12.05c4.02-0.05,3.76-10.26,3.75-13.59c0-1.44-2.07-1.83-4.51-1.37
			C101.33,89.43,98.09,90.47,98.18,91.89z"/>
		<path class="dentures-st3" d="M108.86,88.79c0.17,2.83,1.12,11.16,5.14,11.1c4.02-0.05,4.33-8.3,3.82-11.68c-0.22-1.42-2.13-2.04-4.56-1.58
			C110.82,87.09,108.77,87.38,108.86,88.79z"/>
		<path class="dentures-st3" d="M118.01,86.93c0.16,2.62,1.04,10.35,4.8,10.3c3.75-0.05,4.05-7.7,3.57-10.84c-0.2-1.32-1.99-1.89-4.26-1.47
			C119.84,85.34,117.92,85.61,118.01,86.93z"/>
		<path class="dentures-st3" d="M76.97,59.34c7.35,0,20.03-8.77,36.46-3.82c12.69,3.82,8.94-2.06,15.7,0.15c6.76,2.2,3.49,21.9-2.59,22.92"/>
		<path class="dentures-st3" d="M108.86,54.46c0,0-9.4-7.32-31.89-7.32"/>
		<path class="dentures-st3" d="M127.52,89.77c0,0,4.26,7.19,3.82,12.99c-0.44,5.8-16.75,14.03-54.37,14.03c-37.62,0-53.93-8.23-54.37-14.03
			c-0.44-5.8,3.82-12.99,3.82-12.99"/>
	</g>
</g>
</svg>
