<?xml version="1.0" encoding="utf-8"?>
<!-- Generator: Adobe Illustrator 25.4.1, SVG Export Plug-In . SVG Version: 6.00 Build 0)  -->
<svg version="1.1" xmlns="http://www.w3.org/2000/svg" xmlns:xlink="http://www.w3.org/1999/xlink" x="0px" y="0px"
	 viewBox="0 0 163.94 163.94" style="enable-background:new 0 0 163.94 163.94;" xml:space="preserve">
<style type="text/css">
	.endodontics-st0{fill:var(--icon-color-primary, #bce6f6);}
	.endodontics-st1{fill:#FFFFFF;stroke:#313131;stroke-width:1.8;stroke-linecap:round;stroke-linejoin:round;stroke-miterlimit:10;}
</style>
<g id="Layer_20_copy_6">
	<g>
		<path class="endodontics-st0" d="M47.16,81.31l0.05-0.1l14.01-29.63l0.05-0.1l0.05-0.1l12.3-26.02c-1.43,0.64-2.82,1.34-4.17,2.09l-10.73,22.7
			l-0.05,0.1l-0.05,0.1L44.61,79.98l-0.05,0.1l-0.05,0.1l-2.07,4.39c0.28,1.52,0.62,3.04,1.03,4.55l3.64-7.7L47.16,81.31z"/>
		<path class="endodontics-st0" d="M52.61,47.37l0.05-0.1l5.35-11.32c-2.81,2.73-5.29,5.74-7.43,8.98l-0.53,1.11l-0.05,0.1l-0.05,0.1
			l-5.98,12.65c-1.14,3.7-1.89,7.53-2.23,11.43l10.8-22.85L52.61,47.37z"/>
		<path class="endodontics-st0" d="M145.33,91.21l-0.05,0.1l-9.81,20.74c7.78-8.3,12.78-18.88,14.26-30.16l-4.35,9.21L145.33,91.21z"/>
		<path class="endodontics-st0" d="M116.49,114.09l0.05-0.1l14.01-29.63l0.05-0.1l0.05-0.1l14.01-29.63l0.05-0.1l0.05-0.1l0.72-1.52
			c-0.5-1.13-1.04-2.24-1.61-3.32l-1.71,3.61l-0.05,0.1l-0.05,0.1l-14.01,29.63l-0.05,0.1l-0.05,0.1l-14.01,29.63l-0.05,0.1
			l-0.05,0.1l-7.16,15.14c1.2-0.24,2.39-0.53,3.59-0.86l6.17-13.05L116.49,114.09z"/>
		<path class="endodontics-st0" d="M99.16,105.89l0.05-0.1l14.01-29.64l0.05-0.1l0.05-0.1l14.01-29.63l0.05-0.1l0.05-0.1l5.27-11.15
			c-0.73-0.68-1.49-1.33-2.25-1.96l-5.62,11.88l-0.05,0.1l-0.05,0.1l-14.01,29.64l-0.05,0.1l-0.05,0.1l-14.01,29.63l-0.05,0.1
			l-0.05,0.1l-11.07,23.41c0.98,0.19,1.96,0.36,2.95,0.5L99.11,106L99.16,105.89z"/>
		<path class="endodontics-st0" d="M81.83,97.7l0.05-0.1l14.01-29.63l0.05-0.1l0.05-0.1L110,38.12l0.05-0.1l0.05-0.1l6.29-13.31
			c-0.89-0.36-1.79-0.7-2.7-1.02l-6.19,13.1l-0.05,0.1l-0.05,0.1L93.39,66.52l-0.05,0.1l-0.05,0.1L79.28,96.37l-0.05,0.1l-0.05,0.1
			L67.53,121.2c0.82,0.5,1.65,0.98,2.5,1.44L81.78,97.8L81.83,97.7z"/>
		<path class="endodontics-st0" d="M64.49,89.5l0.05-0.1l14.01-29.64l0.05-0.1l0.05-0.1l14.01-29.63l0.05-0.1l0.05-0.1l4.32-9.13
			c-1.06-0.02-2.13-0.02-3.19,0.02l-3.73,7.88l-0.05,0.1l-0.05,0.1L76.05,58.33L76,58.43l-0.05,0.1L61.94,88.17l-0.05,0.1l-0.05,0.1
			l-9.18,19.41c0.65,0.85,1.32,1.68,2.01,2.48l9.77-20.66L64.49,89.5z"/>
		<path class="endodontics-st0" d="M125.16,118.19l0.05-0.1l14.01-29.63l0.05-0.1l0.05-0.1l10.23-21.64c-0.25-1.58-0.56-3.15-0.95-4.72
			l-11.89,25.14l-0.05,0.1l-0.05,0.1l-14.01,29.64l-0.05,0.1l-0.05,0.1l-3.23,6.83c1.46-0.7,2.88-1.45,4.25-2.27l1.58-3.33
			L125.16,118.19z"/>
		<path class="endodontics-st0" d="M107.82,109.99l0.05-0.1l14.01-29.63l0.05-0.1l0.05-0.1l14.01-29.63l0.05-0.1l0.05-0.1l3.54-7.49
			c-0.64-0.87-1.3-1.72-1.98-2.54l-4.16,8.8l-0.05,0.1l-0.05,0.1l-14.01,29.63l-0.05,0.1l-0.05,0.1l-14.01,29.64l-0.05,0.1
			l-0.05,0.1l-9.61,20.33c1.07,0.01,2.14-0.02,3.22-0.08l8.99-19.02L107.82,109.99z"/>
		<path class="endodontics-st0" d="M90.49,101.8l0.05-0.1l14.01-29.63l0.05-0.1l0.05-0.1l14.01-29.63l0.05-0.1l0.05-0.1l6.15-13.01
			c-0.81-0.51-1.64-1.01-2.48-1.48l-6.27,13.26l-0.05,0.1l-0.05,0.1l-14.01,29.64l-0.05,0.1l-0.05,0.1l-14.01,29.63l-0.05,0.1
			l-0.05,0.1l-11.72,24.79c0.9,0.35,1.8,0.68,2.72,0.98l11.6-24.54L90.49,101.8z"/>
		<path class="endodontics-st0" d="M73.16,93.6l0.05-0.1l14.01-29.64l0.05-0.1l0.05-0.1l14.01-29.63l0.05-0.1l0.05-0.1l5.7-12.06
			c-0.97-0.21-1.94-0.39-2.92-0.54l-5.38,11.37l-0.05,0.1l-0.05,0.1L84.72,62.43l-0.05,0.1l-0.05,0.1L70.61,92.27l-0.05,0.1
			l-0.05,0.1l-10.83,22.9c0.74,0.66,1.5,1.3,2.28,1.92l11.15-23.59L73.16,93.6z"/>
		<path class="endodontics-st0" d="M55.83,85.41l0.05-0.1l14.01-29.63l0.05-0.1l0.05-0.1L84,25.83l0.05-0.1l0.05-0.1l1.96-4.15
			c-1.18,0.22-2.37,0.48-3.55,0.78l-1.01,2.14l-0.05,0.1l-0.05,0.1L67.39,54.23l-0.05,0.1l-0.05,0.1L53.28,84.07l-0.05,0.1
			l-0.05,0.1l-6.46,13.67c0.52,1.1,1.07,2.18,1.65,3.24l7.41-15.68L55.83,85.41z"/>
	</g>
</g>
<g id="Endo">
	<g>
		<path class="endodontics-st1" d="M50.69,97.79c0.69-3.59,1.57-6.62,2.28-8.77c1.89-5.73,1.19-11.76-1.99-17c-7.56-12.45-9.97-23.56-6.45-29.72
			c2.31-4.04,5.06-4.6,7.7-4.6c4.16,0,8.72,1.83,10.13,2.53l4.62,2.32l4.64-2.34c1.36-0.68,5.92-2.51,10.08-2.51
			c2.64,0,5.39,0.56,7.7,4.6c3.52,6.15,1.11,17.27-6.45,29.72c-3.17,5.23-3.88,11.27-1.99,17c0.71,2.15,1.59,5.18,2.28,8.78
			c0.12,0.64,0.24,1.3,0.35,1.97c-6.61-12.79-13.49-12.79-16.49-12.79h-0.29c-3,0-9.88,0-16.49,12.79
			C50.45,99.1,50.57,98.44,50.69,97.79z"/>
		<path class="endodontics-st1" d="M48.1,133.78c0.85-0.15,1.59-0.69,1.76-1.57c2.34-12.08,8.38-37.97,17.11-37.68
			c8.72-0.29,14.77,25.61,17.11,37.68c0.17,0.87,0.91,1.41,1.75,1.57c1,0.19,2.14-0.16,2.62-1.14c8.5-17.27,4.25-36.26,1.14-45.69
			c-1.27-3.84-0.83-7.95,1.33-11.5c5.13-8.46,13.16-24.9,6.55-36.47c-9.25-16.2-30.49-5.26-30.49-5.26s-21.23-10.94-30.49,5.26
			C29.87,50.56,37.9,67,43.03,75.46c2.15,3.55,2.6,7.65,1.33,11.5c-3.12,9.44-7.37,28.42,1.13,45.69
			C45.97,133.61,47.1,133.97,48.1,133.78z"/>
		<path class="endodontics-st1" d="M83.26,97.8c0.12,0.64,0.24,1.3,0.35,1.97c-6.61-12.79-13.49-12.79-16.49-12.79h-0.29
			c-3,0-9.88,0-16.49,12.79c0.11-0.68,0.23-1.34,0.36-1.98c0.69-3.59,1.57-6.62,2.28-8.77c1.89-5.73,1.19-11.76-1.99-17
			c-7.56-12.45-9.97-23.56-6.45-29.72c2.31-4.04,5.06-4.6,7.7-4.6c4.16,0,8.72,1.83,10.13,2.53l4.62,2.32l4.64-2.34
			c1.36-0.68,5.92-2.51,10.08-2.51c2.64,0,5.39,0.56,7.7,4.6c3.52,6.15,1.11,17.27-6.45,29.72c-3.17,5.23-3.88,11.27-1.99,17
			C81.68,91.18,82.56,94.2,83.26,97.8z"/>
		<path class="endodontics-st1" d="M83.21,48.76c0.39,3.02-0.92,6.06-2.36,8.32c-1.21,1.96-3.01,3.56-4.95,5.03h0
			c-4.31,3.23-4.86,8.11-4.25,12.38c0.59,4.08,2.44,7.96,5.17,11.36c1.8,2.22,4.36,6.09,6.43,11.95c2.82,7.99,4.74,19.69,2.57,35.97
			"/>
		<path class="endodontics-st1" d="M73.63,52.75c-0.84-1.2-1.97-2.27-3.51-3.02"/>
		<path class="endodontics-st1" d="M75.9,62.11c0,0,0.53-5.38-2.26-9.36"/>
		<path class="endodontics-st1" d="M73.63,52.75C73.63,52.75,73.63,52.75,73.63,52.75c0.02-0.19,0.63-6.17,3.73-7.62"/>
		<path class="endodontics-st1" d="M48.1,133.78c-2.16-16.29-0.24-28,2.59-35.99c2.07-5.86,4.63-9.73,6.43-11.94c2.73-3.39,4.56-7.28,5.17-11.36
			c0.62-4.27,0.07-9.16-4.25-12.38c-1.94-1.47-3.74-3.08-4.98-5.03c-1.41-2.26-2.73-5.3-2.33-8.32"/>
		<path class="endodontics-st1" d="M58.07,62.11c0,0-0.53-5.38,2.26-9.36c0.83-1.2,1.97-2.27,3.51-3.02"/>
		<path class="endodontics-st1" d="M60.33,52.75C60.33,52.75,60.33,52.75,60.33,52.75c-0.02-0.17-0.63-6.17-3.73-7.62"/>
	</g>
</g>
</svg>
