<?xml version="1.0" encoding="utf-8"?>
<!-- Generator: Adobe Illustrator 25.4.1, SVG Export Plug-In . SVG Version: 6.00 Build 0)  -->
<svg version="1.1" xmlns="http://www.w3.org/2000/svg" xmlns:xlink="http://www.w3.org/1999/xlink" x="0px" y="0px"
	 viewBox="0 0 163.94 163.94" style="enable-background:new 0 0 163.94 163.94;" xml:space="preserve">
<style type="text/css">
	.family-st0{fill:var(--icon-color-primary, #bce6f6);}
	.family-st1{fill:#FFFFFF;stroke:#313131;stroke-width:1.8;stroke-linecap:round;stroke-linejoin:round;stroke-miterlimit:10;}
</style>
<g id="Layer_20">
	<g>
		<path class="family-st0" d="M47.16,81.31l0.05-0.1l14.01-29.63l0.05-0.1l0.05-0.1l12.3-26.02c-1.43,0.64-2.82,1.34-4.17,2.09l-10.73,22.7
			l-0.05,0.1l-0.05,0.1L44.61,79.98l-0.05,0.1l-0.05,0.1l-2.07,4.39c0.28,1.52,0.62,3.04,1.03,4.55l3.64-7.7L47.16,81.31z"/>
		<path class="family-st0" d="M52.61,47.37l0.05-0.1l5.35-11.32c-2.81,2.73-5.29,5.74-7.43,8.98l-0.53,1.11l-0.05,0.1l-0.05,0.1
			l-5.98,12.65c-1.14,3.7-1.89,7.53-2.23,11.43l10.8-22.85L52.61,47.37z"/>
		<path class="family-st0" d="M145.33,91.21l-0.05,0.1l-9.81,20.74c7.78-8.3,12.78-18.88,14.26-30.16l-4.35,9.21L145.33,91.21z"/>
		<path class="family-st0" d="M116.49,114.09l0.05-0.1l14.01-29.63l0.05-0.1l0.05-0.1l14.01-29.63l0.05-0.1l0.05-0.1l0.72-1.52
			c-0.5-1.13-1.04-2.24-1.61-3.32l-1.71,3.61l-0.05,0.1l-0.05,0.1l-14.01,29.63l-0.05,0.1l-0.05,0.1l-14.01,29.63l-0.05,0.1
			l-0.05,0.1l-7.16,15.14c1.2-0.24,2.39-0.53,3.59-0.86l6.17-13.05L116.49,114.09z"/>
		<path class="family-st0" d="M99.16,105.89l0.05-0.1l14.01-29.64l0.05-0.1l0.05-0.1l14.01-29.63l0.05-0.1l0.05-0.1l5.27-11.15
			c-0.73-0.68-1.49-1.33-2.25-1.96l-5.62,11.88l-0.05,0.1l-0.05,0.1l-14.01,29.64l-0.05,0.1l-0.05,0.1l-14.01,29.63l-0.05,0.1
			l-0.05,0.1l-11.07,23.41c0.98,0.19,1.96,0.36,2.95,0.5L99.11,106L99.16,105.89z"/>
		<path class="family-st0" d="M81.83,97.7l0.05-0.1l14.01-29.63l0.05-0.1l0.05-0.1L110,38.12l0.05-0.1l0.05-0.1l6.29-13.31
			c-0.89-0.36-1.79-0.7-2.7-1.02l-6.19,13.1l-0.05,0.1l-0.05,0.1L93.39,66.52l-0.05,0.1l-0.05,0.1L79.28,96.37l-0.05,0.1l-0.05,0.1
			L67.53,121.2c0.82,0.5,1.65,0.98,2.5,1.44L81.78,97.8L81.83,97.7z"/>
		<path class="family-st0" d="M64.49,89.5l0.05-0.1l14.01-29.64l0.05-0.1l0.05-0.1l14.01-29.63l0.05-0.1l0.05-0.1l4.32-9.13
			c-1.06-0.02-2.13-0.02-3.19,0.02l-3.73,7.88l-0.05,0.1l-0.05,0.1L76.05,58.33L76,58.43l-0.05,0.1L61.94,88.17l-0.05,0.1l-0.05,0.1
			l-9.18,19.41c0.65,0.85,1.32,1.68,2.01,2.48l9.77-20.66L64.49,89.5z"/>
		<path class="family-st0" d="M125.16,118.19l0.05-0.1l14.01-29.63l0.05-0.1l0.05-0.1l10.23-21.64c-0.25-1.58-0.56-3.15-0.95-4.72
			l-11.89,25.14l-0.05,0.1l-0.05,0.1l-14.01,29.64l-0.05,0.1l-0.05,0.1l-3.23,6.83c1.46-0.7,2.88-1.45,4.25-2.27l1.58-3.33
			L125.16,118.19z"/>
		<path class="family-st0" d="M107.82,109.99l0.05-0.1l14.01-29.63l0.05-0.1l0.05-0.1l14.01-29.63l0.05-0.1l0.05-0.1l3.54-7.49
			c-0.64-0.87-1.3-1.72-1.98-2.54l-4.16,8.8l-0.05,0.1l-0.05,0.1l-14.01,29.63l-0.05,0.1l-0.05,0.1l-14.01,29.64l-0.05,0.1
			l-0.05,0.1l-9.61,20.33c1.07,0.01,2.14-0.02,3.22-0.08l8.99-19.02L107.82,109.99z"/>
		<path class="family-st0" d="M90.49,101.8l0.05-0.1l14.01-29.63l0.05-0.1l0.05-0.1l14.01-29.63l0.05-0.1l0.05-0.1l6.15-13.01
			c-0.81-0.51-1.64-1.01-2.48-1.48l-6.27,13.26l-0.05,0.1l-0.05,0.1l-14.01,29.64l-0.05,0.1l-0.05,0.1l-14.01,29.63l-0.05,0.1
			l-0.05,0.1l-11.72,24.79c0.9,0.35,1.8,0.68,2.72,0.98l11.6-24.54L90.49,101.8z"/>
		<path class="family-st0" d="M73.16,93.6l0.05-0.1l14.01-29.64l0.05-0.1l0.05-0.1l14.01-29.63l0.05-0.1l0.05-0.1l5.7-12.06
			c-0.97-0.21-1.94-0.39-2.92-0.54l-5.38,11.37l-0.05,0.1l-0.05,0.1L84.72,62.43l-0.05,0.1l-0.05,0.1L70.61,92.27l-0.05,0.1
			l-0.05,0.1l-10.83,22.9c0.74,0.66,1.5,1.3,2.28,1.92l11.15-23.59L73.16,93.6z"/>
		<path class="family-st0" d="M55.83,85.41l0.05-0.1l14.01-29.63l0.05-0.1l0.05-0.1L84,25.83l0.05-0.1l0.05-0.1l1.96-4.15
			c-1.18,0.22-2.37,0.48-3.55,0.78l-1.01,2.14l-0.05,0.1l-0.05,0.1L67.39,54.23l-0.05,0.1l-0.05,0.1L53.28,84.07l-0.05,0.1
			l-0.05,0.1l-6.46,13.67c0.52,1.1,1.07,2.18,1.65,3.24l7.41-15.68L55.83,85.41z"/>
	</g>
</g>
<g id="Family">
	<g>
		<g>
			<path class="family-st1" d="M55.48,49.92c6.24,0,11.32-5.5,11.32-12.26c0-6.76-5.08-12.26-11.32-12.26s-11.32,5.5-11.32,12.26
				C44.17,44.42,49.24,49.92,55.48,49.92z"/>
			<path class="family-st1" d="M102.48,83.13c5.2,0,9.43-4.57,9.43-10.19s-4.23-10.19-9.43-10.19c-5.2,0-9.43,4.57-9.43,10.19
				S97.28,83.13,102.48,83.13z"/>
		</g>
		<g>
			<g>
				<path class="family-st1" d="M109.69,138.54c-1.71,0-3.18-1.16-3.58-2.82l-3.91-15.34l-4.02,15.34c-0.4,1.66-1.87,2.82-3.58,2.82
					c-2.03,0-3.69-1.65-3.69-3.69c0-0.15,0.01-0.36,0.02-0.41l3.37-30.14l-2.78-2.01c-4.78,2.19-6.13,2.3-6.35,2.3
					c-0.85,0-3.07-1.23-6.61-3.65l-1.65-0.27c-0.36,0.1-0.76,0.15-1.18,0.15c-3.84,0-6.95-14.18-9.99-24.55l-1.41,57.65
					c0,2.55-2.08,4.63-4.63,4.63c-2.2,0-4.1-1.56-4.54-3.7c-0.03-0.17-5.8-30.04-5.8-30.04l-5.88,30.04
					c-0.43,2.15-2.34,3.7-4.54,3.7c-2.55,0-4.63-2.08-4.63-4.63l0.48-58.02c0,0-8.04,24.93-11.88,24.93c-1.59,0-2.67-0.7-3.22-2.07
					c-0.47-1.16-0.47-2.52-0.47-3.5c0.03-1.03,1.67-8.85,3.85-16.8c3.79-13.83,6.29-17.83,7.44-18.98c1.83-1.83,5.63-5.63,18.8-5.63
					c13.17,0,16.97,3.8,18.8,5.63c1.15,1.15,3.65,5.15,7.44,18.98c1.57,5.71,2.91,11.56,3.49,14.58l1.36,1.51
					c1.71,0.52,3.31,0.79,4.75,0.79c1.73,0,3.39-1.49,5.32-3.21c2.25-2.01,4.81-4.3,7.89-4.3l0.31,0c1.99-0.03,3.69-0.04,5.08-0.04
					c1.46,0,2.58,0.01,3.36,0.04c3.34,0.13,6.4,2.06,7.96,5.05l9.17,17.63c0.29,0.53,0.44,1.11,0.44,1.72
					c0,2.03-1.65,3.69-3.69,3.69c-1.27,0-2.45-0.66-3.15-1.77l-7.3-10.67l2.81,30.98c0,0.05,0.02,0.25,0.02,0.41
					C113.38,136.89,111.73,138.54,109.69,138.54z"/>
			</g>
		</g>
		<path class="family-st1" d="M80.43,94.54c0,0-4.57-0.32-2.42,6.13"/>
	</g>
</g>
</svg>
