<?xml version="1.0" encoding="utf-8"?>
<!-- Generator: Adobe Illustrator 25.4.1, SVG Export Plug-In . SVG Version: 6.00 Build 0)  -->
<svg version="1.1" xmlns="http://www.w3.org/2000/svg" xmlns:xlink="http://www.w3.org/1999/xlink" x="0px" y="0px"
	 viewBox="0 0 163.94 163.94" style="enable-background:new 0 0 163.94 163.94;" xml:space="preserve">
<style type="text/css">
	.hands-st0{fill:var(--icon-color-primary, #bce6f6);}
	.hands-st1{fill:#FFFFFF;}
	.hands-st2{fill:none;stroke:#333333;stroke-width:1.8;stroke-miterlimit:10;}
</style>
<g id="Layer_20_copy_10">
	<g>
		<path class="hands-st0" d="M47.16,81.31l0.05-0.1l14.01-29.63l0.05-0.1l0.05-0.1l12.3-26.02c-1.43,0.64-2.82,1.34-4.17,2.09l-10.73,22.7
			l-0.05,0.1l-0.05,0.1L44.61,79.98l-0.05,0.1l-0.05,0.1l-2.07,4.39c0.28,1.52,0.62,3.04,1.03,4.55l3.64-7.7L47.16,81.31z"/>
		<path class="hands-st0" d="M52.61,47.37l0.05-0.1l5.35-11.32c-2.81,2.73-5.29,5.74-7.43,8.98l-0.53,1.11l-0.05,0.1l-0.05,0.1
			l-5.98,12.65c-1.14,3.7-1.89,7.53-2.23,11.43l10.8-22.85L52.61,47.37z"/>
		<path class="hands-st0" d="M145.33,91.21l-0.05,0.1l-9.81,20.74c7.78-8.3,12.78-18.88,14.26-30.16l-4.35,9.21L145.33,91.21z"/>
		<path class="hands-st0" d="M116.49,114.09l0.05-0.1l14.01-29.63l0.05-0.1l0.05-0.1l14.01-29.63l0.05-0.1l0.05-0.1l0.72-1.52
			c-0.5-1.13-1.04-2.24-1.61-3.32l-1.71,3.61l-0.05,0.1l-0.05,0.1l-14.01,29.63l-0.05,0.1l-0.05,0.1l-14.01,29.63l-0.05,0.1
			l-0.05,0.1l-7.16,15.14c1.2-0.24,2.39-0.53,3.59-0.86l6.17-13.05L116.49,114.09z"/>
		<path class="hands-st0" d="M130.44,33l-5.62,11.88l-0.05,0.1l-0.05,0.1l-14.01,29.64l-0.05,0.1l-0.05,0.1l-14.01,29.63l-0.05,0.1
			l-0.05,0.1l-5.81,12.28c0.06,2.15,0.17,4.23,0.2,6.3l8.2-17.35l0.05-0.1l0.05-0.1l14.01-29.64l0.05-0.1l0.05-0.1l14.01-29.63
			l0.05-0.1l0.05-0.1l5.27-11.15C131.96,34.28,131.21,33.63,130.44,33z"/>
		<path class="hands-st0" d="M81.83,97.7l0.05-0.1l14.01-29.63l0.05-0.1l0.05-0.1L110,38.12l0.05-0.1l0.05-0.1l6.29-13.31
			c-0.89-0.36-1.79-0.7-2.7-1.02l-6.19,13.1l-0.05,0.1l-0.05,0.1L93.39,66.52l-0.05,0.1l-0.05,0.1L79.28,96.37l-0.05,0.1l-0.05,0.1
			L67.53,121.2c0.82,0.5,1.65,0.98,2.5,1.44L81.78,97.8L81.83,97.7z"/>
		<path class="hands-st0" d="M93.89,20.61l-3.73,7.88l-0.05,0.1l-0.05,0.1L76.05,58.33L76,58.43l-0.05,0.1L61.94,88.17l-0.05,0.1
			l-0.05,0.1l-1.57,3.32c0.73,0.74,1.49,1.46,2.07,2.35l2.1-4.44l0.05-0.1l0.05-0.1l14.01-29.64l0.05-0.1l0.05-0.1l14.01-29.63
			l0.05-0.1l0.05-0.1l4.32-9.13C96.02,20.56,94.96,20.57,93.89,20.61z"/>
		<path class="hands-st0" d="M125.16,118.19l0.05-0.1l14.01-29.63l0.05-0.1l0.05-0.1l10.23-21.64c-0.25-1.58-0.56-3.15-0.95-4.72
			l-11.89,25.14l-0.05,0.1l-0.05,0.1l-14.01,29.64l-0.05,0.1l-0.05,0.1l-3.23,6.83c1.46-0.7,2.88-1.45,4.25-2.27l1.58-3.33
			L125.16,118.19z"/>
		<path class="hands-st0" d="M107.82,109.99l0.05-0.1l14.01-29.63l0.05-0.1l0.05-0.1l14.01-29.63l0.05-0.1l0.05-0.1l3.54-7.49
			c-0.64-0.87-1.3-1.72-1.98-2.54l-4.16,8.8l-0.05,0.1l-0.05,0.1l-14.01,29.63l-0.05,0.1l-0.05,0.1l-14.01,29.64l-0.05,0.1
			l-0.05,0.1l-9.61,20.33c1.07,0.01,2.14-0.02,3.22-0.08l8.99-19.02L107.82,109.99z"/>
		<path class="hands-st0" d="M122.43,27.52l-6.27,13.26l-0.05,0.1l-0.05,0.1l-14.01,29.64l-0.05,0.1l-0.05,0.1l-9.22,19.5
			c2.42-1.97,4.55-4.19,6.31-6.63l4.72-9.99c0.58-2.27,0.9-4.64,0.9-7.12c0.57,0.57,1.13,1.14,1.65,1.73l12.34-26.1l0.05-0.1
			l0.05-0.1l6.15-13.01C124.1,28.48,123.27,27.99,122.43,27.52z"/>
		<path class="hands-st0" d="M73.16,93.6l0.05-0.1l14.01-29.64l0.05-0.1l0.05-0.1l14.01-29.63l0.05-0.1l0.05-0.1l5.7-12.06
			c-0.97-0.21-1.94-0.39-2.92-0.54l-5.38,11.37l-0.05,0.1l-0.05,0.1L84.72,62.43l-0.05,0.1l-0.05,0.1L70.61,92.27l-0.05,0.1
			l-0.05,0.1l-10.83,22.9c0.74,0.66,1.5,1.3,2.28,1.92l11.15-23.59L73.16,93.6z"/>
		<path class="hands-st0" d="M82.51,22.25l-1.01,2.14l-0.05,0.1l-0.05,0.1L67.39,54.23l-0.05,0.1l-0.05,0.1L53.28,84.07l-0.05,0.1
			l-0.05,0.1l-0.25,0.53c0.8,0.59,1.53,1.3,2.22,2.04l0.63-1.34l0.05-0.1l0.05-0.1l14.01-29.63l0.05-0.1l0.05-0.1L84,25.83l0.05-0.1
			l0.05-0.1l1.96-4.15C84.87,21.69,83.69,21.95,82.51,22.25z"/>
	</g>
</g>
<g id="Caring">
	<g>
		<g>
			<g>
				<path class="hands-st1" d="M100.41,45.98c-2.02,0.18-4.02,1.73-4.14,4.4c-0.21,4.29-0.29,12.32-0.33,19.72"/>
				<g>
					<path class="hands-st1" d="M69.52,123.65c0,0,0.16-9.28,0.36-12.99c0-0.03-0.6-3.4-0.72-4.44c0,0-0.15-2.2-0.1-3.35
						c0.16-3.16,0.66-4.68,1.48-6.64c1.65-3.92,3.53-5.58,8.26-9.32c2.39-1.89,13.42-12.93,15.22-14.88
						c0.84-0.92,1.45-1.48,2.28-2.1c0.42-0.31,0.87-0.58,1.25-0.7c1.89-0.55,3.46-0.25,4.8,1.3c1.13,1.31,1.53,3.39,0.86,5.41
						c-0.25,0.75-0.66,1.43-1.15,2.05c0,0-10.21,13.44-15.15,18.16"/>
					<path class="hands-st1" d="M100.35,69.15l0.06-23.59l0,0.03c0.14-3.15,2.39-5.32,4.91-5.59c2.46-0.26,5.18,1.57,5.56,4.9
						c3.44,17.55-0.19,42.49-0.19,42.49l0,0c-0.58,3.02-2.03,5.8-4.16,8.01c-3.56,3.69-10.02,9.02-14.26,13
						c-0.87,0.82-1.28,2.36-1.54,3.81c-0.22,1.23-0.33,2.49-0.38,3.74l-0.31,8.02"/>
				</g>
			</g>
		</g>
		<g>
			<g>
				<path class="hands-st1" d="M33.53,45.98c2.02,0.18,4.02,1.73,4.14,4.4c0.21,4.29,0.29,12.32,0.33,19.72"/>
				<g>
					<path class="hands-st1" d="M64.42,123.65c0,0-0.16-9.28-0.36-12.99c0-0.03,0.6-3.4,0.72-4.44c0,0,0.15-2.2,0.1-3.35
						c-0.16-3.16-0.66-4.68-1.48-6.64c-1.65-3.92-3.53-5.58-8.26-9.32c-2.39-1.89-13.42-12.93-15.22-14.88
						c-0.84-0.92-1.45-1.48-2.28-2.1c-0.42-0.31-0.87-0.58-1.25-0.7c-1.89-0.55-3.46-0.25-4.8,1.3c-1.13,1.31-1.53,3.39-0.86,5.41
						c0.25,0.75,0.66,1.43,1.15,2.05c0,0,10.21,13.44,15.15,18.16"/>
					<path class="hands-st1" d="M33.59,69.15l-0.06-23.59l0,0.03c-0.14-3.15-2.39-5.32-4.91-5.59c-2.46-0.26-5.18,1.57-5.56,4.9
						c-3.44,17.55,0.19,42.49,0.19,42.49l0,0c0.58,3.02,2.03,5.8,4.16,8.01c3.56,3.69,10.02,9.02,14.26,13
						c0.87,0.82,1.28,2.36,1.54,3.81c0.22,1.23,0.33,2.49,0.38,3.74l0.31,8.02"/>
				</g>
			</g>
		</g>
	</g>
	<g>
		<g>
			<g>
				<path class="hands-st2" d="M100.41,45.98c-2.02,0.18-4.02,1.73-4.14,4.4c-0.21,4.29-0.29,12.32-0.33,19.72"/>
				<g>
					<path class="hands-st2" d="M69.52,123.65c0,0,0.16-9.28,0.36-12.99c0-0.03-0.6-3.4-0.72-4.44c0,0-0.15-2.2-0.1-3.35
						c0.16-3.16,0.66-4.68,1.48-6.64c1.65-3.92,3.53-5.58,8.26-9.32c2.39-1.89,13.42-12.93,15.22-14.88
						c0.84-0.92,1.45-1.48,2.28-2.1c0.42-0.31,0.87-0.58,1.25-0.7c1.89-0.55,3.46-0.25,4.8,1.3c1.13,1.31,1.53,3.39,0.86,5.41
						c-0.25,0.75-0.66,1.43-1.15,2.05c0,0-10.21,13.44-15.15,18.16"/>
					<path class="hands-st2" d="M100.35,69.15l0.06-23.59l0,0.03c0.14-3.15,2.39-5.32,4.91-5.59c2.46-0.26,5.18,1.57,5.56,4.9
						c3.44,17.55-0.19,42.49-0.19,42.49c-0.58,3.02-2.03,5.8-4.16,8.01c-3.56,3.69-10.02,9.02-14.26,13
						c-0.87,0.82-1.28,2.36-1.54,3.81c-0.22,1.23-0.33,2.49-0.38,3.74l-0.31,8.02"/>
				</g>
			</g>
		</g>
		<g>
			<g>
				<path class="hands-st2" d="M33.53,45.98c2.02,0.18,4.02,1.73,4.14,4.4c0.21,4.29,0.29,12.32,0.33,19.72"/>
				<g>
					<path class="hands-st2" d="M64.42,123.65c0,0-0.16-9.28-0.36-12.99c0-0.03,0.6-3.4,0.72-4.44c0,0,0.15-2.2,0.1-3.35
						c-0.16-3.16-0.66-4.68-1.48-6.64c-1.65-3.92-3.53-5.58-8.26-9.32c-2.39-1.89-13.42-12.93-15.22-14.88
						c-0.84-0.92-1.45-1.48-2.28-2.1c-0.42-0.31-0.87-0.58-1.25-0.7c-1.89-0.55-3.46-0.25-4.8,1.3c-1.13,1.31-1.53,3.39-0.86,5.41
						c0.25,0.75,0.66,1.43,1.15,2.05c0,0,10.21,13.44,15.15,18.16"/>
					<path class="hands-st2" d="M33.59,69.15l-0.06-23.59l0,0.03c-0.14-3.15-2.39-5.32-4.91-5.59c-2.46-0.26-5.18,1.57-5.56,4.9
						c-3.44,17.55,0.19,42.49,0.19,42.49l0,0c0.58,3.02,2.03,5.8,4.16,8.01c3.56,3.69,10.02,9.02,14.26,13
						c0.87,0.82,1.28,2.36,1.54,3.81c0.22,1.23,0.33,2.49,0.38,3.74l0.31,8.02"/>
				</g>
			</g>
		</g>
	</g>
</g>
</svg>
