<?xml version="1.0" encoding="utf-8"?>
<!-- Generator: Adobe Illustrator 25.4.1, SVG Export Plug-In . SVG Version: 6.00 Build 0)  -->
<svg version="1.1" xmlns="http://www.w3.org/2000/svg" xmlns:xlink="http://www.w3.org/1999/xlink" x="0px" y="0px"
	 viewBox="0 0 163.94 163.94" style="enable-background:new 0 0 163.94 163.94;" xml:space="preserve">
<style type="text/css">
	.shining-tooth-st0{fill:var(--icon-color-primary, #bce6f6);}
	.shining-tooth-st1{fill:#FFFFFF;}
	.shining-tooth-st2{fill:#FFFFFF;stroke:#313131;stroke-width:1.8;stroke-linecap:round;stroke-linejoin:round;stroke-miterlimit:10;}
</style>
<g id="Layer_20_copy_14">
	<g>
		<path class="shining-tooth-st0" d="M47.16,81.31l0.05-0.1l14.01-29.63l0.05-0.1l0.05-0.1l12.3-26.02c-1.43,0.64-2.82,1.34-4.17,2.09l-10.73,22.7
			l-0.05,0.1l-0.05,0.1L44.61,79.98l-0.05,0.1l-0.05,0.1l-2.07,4.39c0.28,1.52,0.62,3.04,1.03,4.55l3.64-7.7L47.16,81.31z"/>
		<path class="shining-tooth-st0" d="M52.61,47.37l0.05-0.1l5.35-11.32c-2.81,2.73-5.29,5.74-7.43,8.98l-0.53,1.11l-0.05,0.1l-0.05,0.1
			l-5.98,12.65c-1.14,3.7-1.89,7.53-2.23,11.43l10.8-22.85L52.61,47.37z"/>
		<path class="shining-tooth-st0" d="M145.33,91.21l-0.05,0.1l-9.81,20.74c7.78-8.3,12.78-18.88,14.26-30.16l-4.35,9.21L145.33,91.21z"/>
		<path class="shining-tooth-st0" d="M116.49,114.09l0.05-0.1l14.01-29.63l0.05-0.1l0.05-0.1l14.01-29.63l0.05-0.1l0.05-0.1l0.72-1.52
			c-0.5-1.13-1.04-2.24-1.61-3.32l-1.71,3.61l-0.05,0.1l-0.05,0.1l-14.01,29.63l-0.05,0.1l-0.05,0.1l-14.01,29.63l-0.05,0.1
			l-0.05,0.1l-7.16,15.14c1.2-0.24,2.39-0.53,3.59-0.86l6.17-13.05L116.49,114.09z"/>
		<path class="shining-tooth-st0" d="M99.16,105.89l0.05-0.1l14.01-29.64l0.05-0.1l0.05-0.1l14.01-29.63l0.05-0.1l0.05-0.1l5.27-11.15
			c-0.73-0.68-1.49-1.33-2.25-1.96l-5.62,11.88l-0.05,0.1l-0.05,0.1l-14.01,29.64l-0.05,0.1l-0.05,0.1l-14.01,29.63l-0.05,0.1
			l-0.05,0.1l-11.07,23.41c0.98,0.19,1.96,0.36,2.95,0.5L99.11,106L99.16,105.89z"/>
		<path class="shining-tooth-st0" d="M81.83,97.7l0.05-0.1l14.01-29.63l0.05-0.1l0.05-0.1L110,38.12l0.05-0.1l0.05-0.1l6.29-13.31
			c-0.89-0.36-1.79-0.7-2.7-1.02l-6.19,13.1l-0.05,0.1l-0.05,0.1L93.39,66.52l-0.05,0.1l-0.05,0.1L79.28,96.37l-0.05,0.1l-0.05,0.1
			L67.53,121.2c0.82,0.5,1.65,0.98,2.5,1.44L81.78,97.8L81.83,97.7z"/>
		<path class="shining-tooth-st0" d="M64.49,89.5l0.05-0.1l14.01-29.64l0.05-0.1l0.05-0.1l14.01-29.63l0.05-0.1l0.05-0.1l4.32-9.13
			c-1.06-0.02-2.13-0.02-3.19,0.02l-3.73,7.88l-0.05,0.1l-0.05,0.1L76.05,58.33L76,58.43l-0.05,0.1L61.94,88.17l-0.05,0.1l-0.05,0.1
			l-9.18,19.41c0.65,0.85,1.32,1.68,2.01,2.48l9.77-20.66L64.49,89.5z"/>
		<path class="shining-tooth-st0" d="M125.16,118.19l0.05-0.1l14.01-29.63l0.05-0.1l0.05-0.1l10.23-21.64c-0.25-1.58-0.56-3.15-0.95-4.72
			l-11.89,25.14l-0.05,0.1l-0.05,0.1l-14.01,29.64l-0.05,0.1l-0.05,0.1l-3.23,6.83c1.46-0.7,2.88-1.45,4.25-2.27l1.58-3.33
			L125.16,118.19z"/>
		<path class="shining-tooth-st0" d="M107.82,109.99l0.05-0.1l14.01-29.63l0.05-0.1l0.05-0.1l14.01-29.63l0.05-0.1l0.05-0.1l3.54-7.49
			c-0.64-0.87-1.3-1.72-1.98-2.54l-4.16,8.8l-0.05,0.1l-0.05,0.1l-14.01,29.63l-0.05,0.1l-0.05,0.1l-14.01,29.64l-0.05,0.1
			l-0.05,0.1l-9.61,20.33c1.07,0.01,2.14-0.02,3.22-0.08l8.99-19.02L107.82,109.99z"/>
		<path class="shining-tooth-st0" d="M90.49,101.8l0.05-0.1l14.01-29.63l0.05-0.1l0.05-0.1l14.01-29.63l0.05-0.1l0.05-0.1l6.15-13.01
			c-0.81-0.51-1.64-1.01-2.48-1.48l-6.27,13.26l-0.05,0.1l-0.05,0.1l-14.01,29.64l-0.05,0.1l-0.05,0.1l-14.01,29.63l-0.05,0.1
			l-0.05,0.1l-11.72,24.79c0.9,0.35,1.8,0.68,2.72,0.98l11.6-24.54L90.49,101.8z"/>
		<path class="shining-tooth-st0" d="M73.16,93.6l0.05-0.1l14.01-29.64l0.05-0.1l0.05-0.1l14.01-29.63l0.05-0.1l0.05-0.1l5.7-12.06
			c-0.97-0.21-1.94-0.39-2.92-0.54l-5.38,11.37l-0.05,0.1l-0.05,0.1L84.72,62.43l-0.05,0.1l-0.05,0.1L70.61,92.27l-0.05,0.1
			l-0.05,0.1l-10.83,22.9c0.74,0.66,1.5,1.3,2.28,1.92l11.15-23.59L73.16,93.6z"/>
		<path class="shining-tooth-st0" d="M55.83,85.41l0.05-0.1l14.01-29.63l0.05-0.1l0.05-0.1L84,25.83l0.05-0.1l0.05-0.1l1.96-4.15
			c-1.18,0.22-2.37,0.48-3.55,0.78l-1.01,2.14l-0.05,0.1l-0.05,0.1L67.39,54.23l-0.05,0.1l-0.05,0.1L53.28,84.07l-0.05,0.1
			l-0.05,0.1l-6.46,13.67c0.52,1.1,1.07,2.18,1.65,3.24l7.41-15.68L55.83,85.41z"/>
	</g>
</g>
<g id="Whitening">
	<g id="XMLID_00000037695086936744821440000013917437659090085257_">
		<g>
			<path class="shining-tooth-st1" d="M34.54,76.95C34.54,76.95,34.54,76.95,34.54,76.95c1.84,2.95,2.3,6.31,1.21,9.5
				c-2.68,7.82-6.44,23.76,0.69,38.36c0.81,1.65,3.77,1.33,4.12-0.42c2.1-10.41,7.29-31.57,14.74-31.33
				c7.45-0.24,12.64,20.93,14.74,31.33c0.35,1.75,3.32,2.07,4.12,0.42c6.78-13.87,3.72-28.97,1.09-37.14
				c-0.14-0.42-0.27-0.83-0.4-1.21c-0.71-2.09-0.76-4.26-0.19-6.33c0.3-1.09,0.77-2.15,1.4-3.17c4.45-7.14,11.43-21.05,5.69-30.84
				c-8.03-13.69-26.45-4.44-26.45-4.44s-18.42-9.25-26.45,4.44C23.11,55.9,30.09,69.8,34.54,76.95z"/>
		</g>
	</g>
	<g>
		<line class="shining-tooth-st2" x1="55.93" y1="41.12" x2="64.62" y2="45.42"/>
		<g id="XMLID_00000044856961119237124760000003005016991846316935_">
			<g>
				<path class="shining-tooth-st2" d="M35.17,76.39C35.17,76.39,35.17,76.39,35.17,76.39c1.84,2.95,2.3,6.31,1.21,9.5
					c-2.68,7.82-6.44,23.76,0.69,38.36c0.81,1.65,3.77,1.33,4.12-0.42c2.1-10.41,7.29-31.57,14.74-31.33
					c7.45-0.24,12.64,20.93,14.74,31.33c0.35,1.75,3.32,2.07,4.12,0.42c6.78-13.87,3.72-28.97,1.09-37.14
					c-0.14-0.42-0.27-0.83-0.4-1.21c-0.71-2.09-0.76-4.26-0.19-6.33c0.3-1.09,0.77-2.15,1.4-3.17c4.45-7.14,11.43-21.05,5.69-30.84
					c-8.03-13.69-26.45-4.44-26.45-4.44s-18.42-9.25-26.45,4.44C23.74,55.34,30.72,69.25,35.17,76.39z"/>
			</g>
		</g>
	</g>
	<polygon class="shining-tooth-st2" points="116.14,80.23 105.64,74.92 95.31,80.56 97.12,68.93 88.56,60.85 100.18,58.98 105.22,48.34
		110.59,58.81 122.26,60.32 113.97,68.67 	"/>
</g>
</svg>
