<?xml version="1.0" encoding="utf-8"?>
<!-- Generator: Adobe Illustrator 25.4.1, SVG Export Plug-In . SVG Version: 6.00 Build 0)  -->
<svg version="1.1" xmlns="http://www.w3.org/2000/svg" xmlns:xlink="http://www.w3.org/1999/xlink" x="0px" y="0px"
	 viewBox="0 0 163.94 163.94" style="enable-background:new 0 0 163.94 163.94;" xml:space="preserve">
<style type="text/css">
	.veneer-st0{fill:var(--icon-color-primary, #bce6f6);}
	.veneer-st1{fill:#FFFFFF;}
	.veneer-st2{fill:#FFFFFF;stroke:#010101;stroke-width:1.8;stroke-linecap:round;stroke-linejoin:round;stroke-miterlimit:10;}
</style>
<g id="Layer_20_copy_18">
	<g>
		<path class="veneer-st0" d="M47.16,81.31l0.05-0.1l14.01-29.63l0.05-0.1l0.05-0.1l12.3-26.02c-1.43,0.64-2.82,1.34-4.17,2.09l-10.73,22.7
			l-0.05,0.1l-0.05,0.1L44.61,79.98l-0.05,0.1l-0.05,0.1l-2.07,4.39c0.28,1.52,0.62,3.04,1.03,4.55l3.64-7.7L47.16,81.31z"/>
		<path class="veneer-st0" d="M52.61,47.37l0.05-0.1l5.35-11.32c-2.81,2.73-5.29,5.74-7.43,8.98l-0.53,1.11l-0.05,0.1l-0.05,0.1
			l-5.98,12.65c-1.14,3.7-1.89,7.53-2.23,11.43l10.8-22.85L52.61,47.37z"/>
		<path class="veneer-st0" d="M145.33,91.21l-0.05,0.1l-9.81,20.74c7.78-8.3,12.78-18.88,14.26-30.16l-4.35,9.21L145.33,91.21z"/>
		<path class="veneer-st0" d="M116.49,114.09l0.05-0.1l14.01-29.63l0.05-0.1l0.05-0.1l14.01-29.63l0.05-0.1l0.05-0.1l0.72-1.52
			c-0.5-1.13-1.04-2.24-1.61-3.32l-1.71,3.61l-0.05,0.1l-0.05,0.1l-14.01,29.63l-0.05,0.1l-0.05,0.1l-14.01,29.63l-0.05,0.1
			l-0.05,0.1l-7.16,15.14c1.2-0.24,2.39-0.53,3.59-0.86l6.17-13.05L116.49,114.09z"/>
		<path class="veneer-st0" d="M99.16,105.89l0.05-0.1l14.01-29.64l0.05-0.1l0.05-0.1l14.01-29.63l0.05-0.1l0.05-0.1l5.27-11.15
			c-0.73-0.68-1.49-1.33-2.25-1.96l-5.62,11.88l-0.05,0.1l-0.05,0.1l-14.01,29.64l-0.05,0.1l-0.05,0.1l-14.01,29.63l-0.05,0.1
			l-0.05,0.1l-11.07,23.41c0.98,0.19,1.96,0.36,2.95,0.5L99.11,106L99.16,105.89z"/>
		<path class="veneer-st0" d="M81.83,97.7l0.05-0.1l14.01-29.63l0.05-0.1l0.05-0.1L110,38.12l0.05-0.1l0.05-0.1l6.29-13.31
			c-0.89-0.36-1.79-0.7-2.7-1.02l-6.19,13.1l-0.05,0.1l-0.05,0.1L93.39,66.52l-0.05,0.1l-0.05,0.1L79.28,96.37l-0.05,0.1l-0.05,0.1
			L67.53,121.2c0.82,0.5,1.65,0.98,2.5,1.44L81.78,97.8L81.83,97.7z"/>
		<path class="veneer-st0" d="M64.49,89.5l0.05-0.1l14.01-29.64l0.05-0.1l0.05-0.1l14.01-29.63l0.05-0.1l0.05-0.1l4.32-9.13
			c-1.06-0.02-2.13-0.02-3.19,0.02l-3.73,7.88l-0.05,0.1l-0.05,0.1L76.05,58.33L76,58.43l-0.05,0.1L61.94,88.17l-0.05,0.1l-0.05,0.1
			l-9.18,19.41c0.65,0.85,1.32,1.68,2.01,2.48l9.77-20.66L64.49,89.5z"/>
		<path class="veneer-st0" d="M125.16,118.19l0.05-0.1l14.01-29.63l0.05-0.1l0.05-0.1l10.23-21.64c-0.25-1.58-0.56-3.15-0.95-4.72
			l-11.89,25.14l-0.05,0.1l-0.05,0.1l-14.01,29.64l-0.05,0.1l-0.05,0.1l-3.23,6.83c1.46-0.7,2.88-1.45,4.25-2.27l1.58-3.33
			L125.16,118.19z"/>
		<path class="veneer-st0" d="M107.82,109.99l0.05-0.1l14.01-29.63l0.05-0.1l0.05-0.1l14.01-29.63l0.05-0.1l0.05-0.1l3.54-7.49
			c-0.64-0.87-1.3-1.72-1.98-2.54l-4.16,8.8l-0.05,0.1l-0.05,0.1l-14.01,29.63l-0.05,0.1l-0.05,0.1l-14.01,29.64l-0.05,0.1
			l-0.05,0.1l-9.61,20.33c1.07,0.01,2.14-0.02,3.22-0.08l8.99-19.02L107.82,109.99z"/>
		<path class="veneer-st0" d="M90.49,101.8l0.05-0.1l14.01-29.63l0.05-0.1l0.05-0.1l14.01-29.63l0.05-0.1l0.05-0.1l6.15-13.01
			c-0.81-0.51-1.64-1.01-2.48-1.48l-6.27,13.26l-0.05,0.1l-0.05,0.1l-14.01,29.64l-0.05,0.1l-0.05,0.1l-14.01,29.63l-0.05,0.1
			l-0.05,0.1l-11.72,24.79c0.9,0.35,1.8,0.68,2.72,0.98l11.6-24.54L90.49,101.8z"/>
		<path class="veneer-st0" d="M73.16,93.6l0.05-0.1l14.01-29.64l0.05-0.1l0.05-0.1l14.01-29.63l0.05-0.1l0.05-0.1l5.7-12.06
			c-0.97-0.21-1.94-0.39-2.92-0.54l-5.38,11.37l-0.05,0.1l-0.05,0.1L84.72,62.43l-0.05,0.1l-0.05,0.1L70.61,92.27l-0.05,0.1
			l-0.05,0.1l-10.83,22.9c0.74,0.66,1.5,1.3,2.28,1.92l11.15-23.59L73.16,93.6z"/>
		<path class="veneer-st0" d="M55.83,85.41l0.05-0.1l14.01-29.63l0.05-0.1l0.05-0.1L84,25.83l0.05-0.1l0.05-0.1l1.96-4.15
			c-1.18,0.22-2.37,0.48-3.55,0.78l-1.01,2.14l-0.05,0.1l-0.05,0.1L67.39,54.23l-0.05,0.1l-0.05,0.1L53.28,84.07l-0.05,0.1
			l-0.05,0.1l-6.46,13.67c0.52,1.1,1.07,2.18,1.65,3.24l7.41-15.68L55.83,85.41z"/>
	</g>
</g>
<g id="Cos">
	<g>
		<g>
			<path class="veneer-st1" d="M122.8,74.82l0.38,0.4c5.78-0.11,11.55-1.67,11.55-4.62c0-19.13-3.01-34.66-11.55-34.66
				S110.1,53.8,110.1,61.35l0.09,0.09c-0.44-0.05-0.9-0.08-1.37-0.09l0.21-0.07c-1.07-11.04-4.74-25.35-16.68-25.35
				c-13.46,0-15.38,20.37-15.39,31.38c-0.01-11.01-1.92-31.38-15.38-31.38c-15.27,0-16.86,23.53-16.97,33.62
				c-0.04,3.39,2.4,6.1,5.87,6.53c6.7,0.82,17.27,2.15,22.75,0.97c2.05-0.44,3.64-2.16,3.73-4.21c0.09,2.04,1.68,3.76,3.73,4.21
				c3.53,0.76,9.15,0.48,14.49-0.04l-1.48-0.69l1.76,0.38c-1.2,5.4-1.56,11.3-1.65,16.03l0,0l0,0.03c-0.02,0.87-0.02,1.71-0.02,2.49
				l0.01-0.01l0,0.19l-0.01,0c0,0.25,0,0.49,0.01,0.73l-0.01,1l0.02,0c0.02,1.03,0.05,1.98,0.09,2.77c0.09,2.13,1.6,3.93,3.68,4.39
				c5.55,1.23,15.61,1.13,22.39,0.27c1.55-0.2,2.89-0.9,3.91-1.92h0l0.23-23.29l0,0l0,0C123.73,77.85,123.3,76.31,122.8,74.82z"/>
			<path class="veneer-st1" d="M31.12,35.93c-8.82,0-11.93,15.93-11.93,35.36c0,4.32,13.37,4.09,19.41,3.77c1.9-0.1,3.55-1.3,4.21-3.05
				c0.85-2.25,1.8-5.7,1.8-9.92C44.61,54.42,39.94,35.93,31.12,35.93z"/>
		</g>
		<g>
			<path class="veneer-st2" d="M123.88,102.68c-1.02,1.03-2.35,1.73-3.91,1.92c-6.78,0.86-16.84,0.96-22.39-0.27
				c-2.08-0.46-3.59-2.26-3.68-4.39c-0.05-1.22-0.1-2.75-0.1-4.5"/>
			<path class="veneer-st2" d="M93.8,95.26c0.01-11.49,1.31-33.91,14.94-33.91c8.9,0,13.26,8.99,15.38,18.04"/>
			<path class="veneer-st2" d="M76.98,68.54c0,1.67-0.06,3.15,0,4.32c0.09,2.04,1.68,3.76,3.73,4.21c3.53,0.76,9.15,0.48,14.49-0.04"/>
			<path class="veneer-st2" d="M76.98,72.86c-0.09,2.04-1.68,3.76-3.73,4.21c-5.48,1.18-16.06-0.16-22.75-0.97
				c-3.47-0.43-5.91-3.14-5.87-6.53c0.11-10.09,1.7-33.62,16.97-33.62c13.46,0,15.37,20.37,15.38,31.38
				c0.01-11.01,1.93-31.38,15.39-31.38c11.95,0,15.61,14.31,16.68,25.35"/>
			<path class="veneer-st2" d="M110.13,61.35c0-7.55,4.53-25.42,13.07-25.42s11.55,15.53,11.55,34.66c0,2.96-5.77,4.51-11.55,4.62"/>
			<path class="veneer-st2" d="M38.62,75.06c1.9-0.1,3.55-1.3,4.21-3.05c0.85-2.25,1.8-5.7,1.8-9.92c0-7.67-4.67-26.15-13.49-26.15
				c-8.82,0-11.93,15.93-11.93,35.36C19.22,75.61,32.59,75.38,38.62,75.06z"/>
			<path class="veneer-st2" d="M104.71,96.01l-13.67,4.59c-3.51,1.18-6.7,3.13-9.36,5.72l-16.66,21.68"/>
			<polyline class="veneer-st2" points="76.58,128.01 93.16,112.19 101.06,105.2 			"/>
			<path class="veneer-st2" d="M105.2,70.59c0,0-1.32,2.77-1.4,3.58"/>
			<line class="veneer-st2" x1="103" y1="81.4" x2="102.4" y2="89.79"/>
			<line class="veneer-st2" x1="127.82" y1="84.46" x2="127.82" y2="86.77"/>
			<line class="veneer-st2" x1="127.82" y1="96.01" x2="127.82" y2="98.32"/>
			<line class="veneer-st2" x1="134.75" y1="91.39" x2="132.44" y2="91.39"/>
			<line class="veneer-st2" x1="123.2" y1="91.39" x2="120.89" y2="91.39"/>
		</g>
	</g>
</g>
</svg>
