<?xml version="1.0" encoding="utf-8"?>
<!-- Generator: Adobe Illustrator 25.2.0, SVG Export Plug-In . SVG Version: 6.00 Build 0)  -->
<svg version="1.1" xmlns="http://www.w3.org/2000/svg" xmlns:xlink="http://www.w3.org/1999/xlink" x="0px" y="0px"
	 viewBox="0 0 163.9 163.9" style="enable-background:new 0 0 163.9 163.9;" xml:space="preserve">
<style type="text/css">
	.dental-chair-st0{fill:var(--icon-color-secondary, #caced6);}
	.dental-chair-st1{fill:none;stroke:#333333;stroke-width:1.8;stroke-miterlimit:10;}
</style>
<g id="Layer_35_copy_23">
	<path class="dental-chair-st0" d="M116,27H26v90h0C75.7,117,116,76.7,116,27L116,27z"/>
</g>
<g id="Preventative_00000082364635790348002270000011044247084748590753_">
	<g>
		<g>
			<g>
				<path class="dental-chair-st1" d="M124.8,110.9c-1.4,0-2.7-0.3-4-1.1L94.1,94.5H62.6c-2.8,0-5.3-1.4-6.8-3.7l-22.5-37
					c-3.6-6.6-4.9-7.3,1.6-11.7c2.4-1.7,10.6,6.9,12.9,10.6l19.2,26.2h29.2c1.4,0,2.8,0.4,4,1.1c0,0,33.7,23.3,31.5,27.1
					C130.2,109.5,127.6,110.9,124.8,110.9z"/>
			</g>
			<rect x="74.6" y="94.6" class="dental-chair-st1" width="11.9" height="21.1"/>
			<polygon class="dental-chair-st1" points="100.7,129.6 60.4,129.6 74.6,115.7 86.5,115.7 			"/>
			<path class="dental-chair-st1" d="M81.2,40.2c0.3-1.4,1-2.7,2-3.6c1.4-1.4,3.3-2.2,5.4-2.2c4.2,0,7.6,3.4,7.6,7.5v37.1"/>
			<path class="dental-chair-st1" d="M68.3,46.4c1.8-5.2,7.5-8,12.8-6.3s8.2,7.4,6.4,12.6L68.3,46.4z"/>
		</g>
	</g>
</g>
</svg>
