<?xml version="1.0" encoding="utf-8"?>
<!-- Generator: Adobe Illustrator 25.2.0, SVG Export Plug-In . SVG Version: 6.00 Build 0)  -->
<svg version="1.1" xmlns="http://www.w3.org/2000/svg" xmlns:xlink="http://www.w3.org/1999/xlink" x="0px" y="0px"
	 viewBox="0 0 163.9 163.9" style="enable-background:new 0 0 163.9 163.9;" xml:space="preserve">
<style type="text/css">
	.shining-tooth-st0{fill:var(--icon-color-secondary, #caced6);}
	.shining-tooth-st1{fill:none;}
	.shining-tooth-st2{fill:none;stroke:#313131;stroke-width:1.8;stroke-linecap:round;stroke-linejoin:round;stroke-miterlimit:10;}
</style>
<g id="Layer_35_copy_16">
	<path class="shining-tooth-st0" d="M127,27H37v90h0C86.7,117,127,76.7,127,27L127,27z"/>
</g>
<g id="Whitening">
	<g id="XMLID_00000142869284632286133760000010227343896939757732_">
		<g>
			<path class="shining-tooth-st1" d="M49.5,76.9C49.5,76.9,49.5,76.9,49.5,76.9c1.8,2.9,2.3,6.3,1.2,9.5c-2.7,7.8-6.4,23.8,0.7,38.4
				c0.8,1.6,3.8,1.3,4.1-0.4c2.1-10.4,7.3-31.6,14.7-31.3c7.4-0.2,12.6,20.9,14.7,31.3c0.4,1.7,3.3,2.1,4.1,0.4
				c6.8-13.9,3.7-29,1.1-37.1c-0.1-0.4-0.3-0.8-0.4-1.2c-0.7-2.1-0.8-4.3-0.2-6.3C90,79,90.4,78,91.1,77c4.4-7.1,11.4-21.1,5.7-30.8
				c-8-13.7-26.5-4.4-26.5-4.4s-18.4-9.2-26.4,4.4C38.1,55.9,45.1,69.8,49.5,76.9z"/>
		</g>
	</g>
	<g>
		<line class="shining-tooth-st2" x1="70.9" y1="41.1" x2="79.6" y2="45.4"/>
		<g id="XMLID_00000108284235348583356180000014452830115278876091_">
			<g>
				<path class="shining-tooth-st2" d="M50.2,76.4C50.2,76.4,50.2,76.4,50.2,76.4c1.8,2.9,2.3,6.3,1.2,9.5c-2.7,7.8-6.4,23.8,0.7,38.4
					c0.8,1.6,3.8,1.3,4.1-0.4c2.1-10.4,7.3-31.6,14.7-31.3c7.4-0.2,12.6,20.9,14.7,31.3c0.4,1.7,3.3,2.1,4.1,0.4
					c6.8-13.9,3.7-29,1.1-37.1c-0.1-0.4-0.3-0.8-0.4-1.2c-0.7-2.1-0.8-4.3-0.2-6.3c0.3-1.1,0.8-2.2,1.4-3.2
					c4.4-7.1,11.4-21.1,5.7-30.8c-8-13.7-26.5-4.4-26.5-4.4s-18.4-9.2-26.4,4.4C38.7,55.3,45.7,69.2,50.2,76.4z"/>
			</g>
		</g>
	</g>
	<polygon class="shining-tooth-st2" points="131.1,80.2 120.6,74.9 110.3,80.6 112.1,68.9 103.6,60.9 115.2,59 120.2,48.3 125.6,58.8 137.3,60.3 
		129,68.7 	"/>
</g>
</svg>
