<?xml version="1.0" encoding="utf-8"?>
<!-- Generator: Adobe Illustrator 25.2.0, SVG Export Plug-In . SVG Version: 6.00 Build 0)  -->
<svg version="1.1" xmlns="http://www.w3.org/2000/svg" xmlns:xlink="http://www.w3.org/1999/xlink" x="0px" y="0px"
	 viewBox="0 0 163.9 163.9" style="enable-background:new 0 0 163.9 163.9;" xml:space="preserve">
<style type="text/css">
	.snoring-st0{fill:var(--icon-color-secondary, #caced6);}
	.snoring-st1{fill:none;stroke:#333333;stroke-width:1.8;stroke-miterlimit:10;}
</style>
<g id="Layer_35_copy_29">
	<path class="snoring-st0" d="M44.1,29.5h90v90h0C84.4,119.5,44.1,79.2,44.1,29.5L44.1,29.5z"/>
</g>
<g id="snoring">
	<g>
		<path class="snoring-st1" d="M82,36.9c-24.9,0-45,20.2-45,45c0,7.5,1.8,14.5,5,20.7L39.7,116l13.6,0.7C61,123.1,71,127,82,127
			c24.9,0,45-20.2,45-45C127,57.1,106.8,36.9,82,36.9z"/>
		<polyline class="snoring-st1" points="61,87.3 71.2,87.3 61.5,103.7 71.2,103.7 		"/>
		<polyline class="snoring-st1" points="77.3,75.2 87.6,75.2 77.9,91.5 87.6,91.5 		"/>
		<polyline class="snoring-st1" points="94.2,62.9 104.5,62.9 94.8,79.2 104.5,79.2 		"/>
	</g>
</g>
</svg>
