<?xml version="1.0" encoding="utf-8"?>
<!-- Generator: Adobe Illustrator 25.4.1, SVG Export Plug-In . SVG Version: 6.00 Build 0)  -->
<svg version="1.1" id="Layer_35" xmlns="http://www.w3.org/2000/svg" xmlns:xlink="http://www.w3.org/1999/xlink" x="0px" y="0px"
	 viewBox="0 0 163.94 163.94" style="enable-background:new 0 0 163.94 163.94;" xml:space="preserve">
<style type="text/css">
	.icon-fill{fill:var(--icon-color-primary, #d5dae2);}
	.crown-st1{fill:none;stroke:#333333;stroke-width:1.8;stroke-miterlimit:10;}
</style>
<g id="Layer_33_copy_18">
	<path class="icon-fill" d="M47.74,41.04l-0.01,0l-0.17,0.77c-0.06,0.27-0.13,0.54-0.18,0.81l-15.57,70.19c-0.37,1.13-0.62,2.28-0.76,3.43
		l0,0l0,0c-0.9,7.67,3.35,15.3,10.86,18.32c4.53,1.82,9.38,1.62,13.53-0.18l0,0l64.43-20.47l0.02-0.09
		c5.18-1.36,9.69-5.05,11.84-10.41c2.68-6.67,0.97-14.01-3.76-18.84l0-0.01l-0.15-0.15c0,0,0,0-0.01-0.01L78.25,34.56
		c-0.73-0.89-1.54-1.72-2.45-2.46l0,0l0,0c-1.35-1.11-2.89-2.03-4.59-2.72c-8.99-3.62-19.21,0.74-22.83,9.73
		C48.12,39.75,47.92,40.39,47.74,41.04z"/>
</g>
<g>
	<path class="crown-st1" d="M105.2,99.5V85.17c0-3.24-8.83-5.86-19.73-5.86c-10.89,0-19.73,2.62-19.73,5.86v14.31
		c-3.15,1.38-4.99,3.04-4.9,4.71c0.15,2.87,0.5,7.78,0.5,10.17c0,20.13,8.06,22.45,11.07,21.41c3.3-1.15,1.3-8.24,3.36-16.74
		c1.01-4.18,5.21-7.86,9.69-7.86c4.48,0,8.65,3.84,9.69,7.86c2.21,8.47,0.06,15.6,3.36,16.74c3.01,1.04,11.07-1.28,11.07-21.41
		c0-2.4,0.35-7.26,0.51-10.14C110.18,102.55,108.34,100.88,105.2,99.5z"/>
	<path class="crown-st1" d="M72.44,90.18c3.17,1.07,7.83,1.75,13.02,1.75c5.09,0,9.67-0.65,12.83-1.69"/>
	<path class="crown-st1" d="M114.41,41.66c-2.72-14.7-19.93-15.59-28.95-11.76c-9.02-3.82-26.15-2.92-28.95,11.76
		c-1.7,8.91,3.22,17.12,4.09,25.32c0.43,4.06,11.13,7.39,24.87,7.39c13.73,0,24.42-3.33,24.87-7.39
		C111.22,58.97,116.15,51.05,114.41,41.66z"/>
</g>
</svg>
