<?xml version="1.0" encoding="utf-8"?>
<!-- Generator: Adobe Illustrator 25.2.0, SVG Export Plug-In . SVG Version: 6.00 Build 0)  -->
<svg version="1.1" xmlns="http://www.w3.org/2000/svg" xmlns:xlink="http://www.w3.org/1999/xlink" x="0px" y="0px"
	 viewBox="0 0 163.9 163.9" style="enable-background:new 0 0 163.9 163.9;" xml:space="preserve">
<style type="text/css">
	.icon-fill{fill:var(--icon-color-primary, #d5dae2);}
	.dentures-st1{fill:none;}
	.dentures-st2{fill:none;stroke:#313131;stroke-width:1.8;stroke-linecap:round;stroke-linejoin:round;stroke-miterlimit:10;}
</style>
<g id="Layer_33_copy_19">
</g>
<g id="Layer_37">
	<path class="icon-fill" d="M30,53.1L30,53.1l0.3,0.7c0.1,0.3,0.2,0.5,0.3,0.8l26.7,66.8c0.3,1.1,0.8,2.2,1.3,3.3l0,0l0,0
		c3.6,6.8,11.4,10.7,19.3,9c4.8-1,8.7-3.9,11.1-7.8l0,0l41.7-53.2l0-0.1c3.5-4,5.2-9.6,3.9-15.3c-1.5-7-7.1-12.1-13.7-13.4l0,0
		l-0.2,0c0,0,0,0,0,0l-69-13.3c-1.1-0.3-2.2-0.6-3.4-0.7l0,0l0,0c-1.7-0.2-3.5-0.1-5.3,0.3c-9.5,2.1-15.5,11.4-13.4,20.9
		C29.6,51.8,29.8,52.5,30,53.1z"/>
	<path class="dentures-st1" d="M131.5,89.8c0-1.3,0-2.5-0.2-3.4c-0.1-0.7-0.7-1.2-1.6-1.4c0,0,0,0,0,0c0,0,0,0,0,0l0.1-1.4
		c0.6-0.3,1-0.6,1.1-1c0.1-1.4,0.1-2.8,0-4.1l0.5,0.2c6.1-1,9.3-20.7,2.6-22.9c-6.2-2-3.5,2.8-13,0.6l-0.8-0.2
		c-0.6-0.2-1.2-0.3-1.9-0.5l0.1,0.1l-4.7-1.2c0,0-9.4-7.3-31.9-7.3c-22.5,0-31.9,7.3-31.9,7.3l0,0c-1.5,0.2-3,0.6-4.6,1.1
		c-12.7,3.8-8.9-2.1-15.7,0.1c-6.8,2.2-3.5,21.9,2.6,22.9l0.5-0.2c-0.1,1.3-0.1,2.7,0,4.1c0,0.4,0.6,0.8,1.5,1.2l-0.1,1.2
		c-0.9,0.2-1.6,0.7-1.7,1.5c-0.1,0.9-0.2,2.1-0.2,3.4h-1c0,0-4.3,7.2-3.8,13c0.4,5.8,16.8,14,54.4,14c37.6,0,53.9-8.2,54.4-14
		c0.4-5.8-3.8-13-3.8-13H131.5z"/>
	<g>
		<path class="dentures-st2" d="M79.3,91.4c1.1-0.2,1.9-1.1,1.9-2.2c0.1-2.3,0-6.3-1-10.3c-1.5-6-4.4-7-7.9-7c-3.5,0-7,3.4-7.1,16.8
			C65.3,92.9,75.1,92,79.3,91.4z"/>
		<path class="dentures-st2" d="M65.3,88.8C58.7,91.4,53,88,52.6,87.3c-0.4-0.7-0.1-6.2,1-11.1c1.6-7.3,10.3-4.9,11.2,0.8
			C65.4,81.3,65.3,88.8,65.3,88.8z"/>
		<path class="dentures-st2" d="M52.2,78.4c0.1-3-1.1-6.4-4.7-7.1c-3.6-0.7-6.1,6.8-5.3,13.5c0.2,1.7,8.6,3,9.3,1.5
			C52.1,84.8,52,81.9,52.2,78.4z"/>
		<path class="dentures-st2" d="M42,76.6c0.1-2.7-1-5.9-4.2-6.5c-3.2-0.6-5.5,6.2-4.8,12.4c0.2,1.6,7.7,2.8,8.3,1.4
			C41.9,82.4,41.8,79.8,42,76.6z"/>
		<path class="dentures-st2" d="M81.2,93.9c0,2.8-0.1,10.4-4.1,10.6c-4,0.2-5.3-8.4-5.3-11.3C71.8,91.6,81.2,91,81.2,93.9z"/>
		<path class="dentures-st2" d="M71.1,93.8c-0.2,2.8-0.8,10.7-4.8,10.6c-4-0.1-4.4-9.6-4.7-12.5c-0.2-1.4,2.5-1,5-0.6
			C69,91.8,71.2,92.4,71.1,93.8z"/>
		<path class="dentures-st2" d="M60.8,91.9c-0.2,2.8-2.3,12.1-6.3,12.1c-4-0.1-3.8-10.3-3.7-13.6c0-1.4,2.1-1.8,4.5-1.4
			C57.6,89.4,60.8,90.5,60.8,91.9z"/>
		<path class="dentures-st2" d="M50.1,88.8c-0.2,2.8-1.1,11.2-5.1,11.1c-4-0.1-4.3-8.3-3.8-11.7c0.2-1.4,2.1-2,4.6-1.6
			C48.1,87.1,50.2,87.4,50.1,88.8z"/>
		<path class="dentures-st2" d="M40.9,86.9c-0.2,2.6-1,10.3-4.8,10.3c-3.8,0-4.1-7.7-3.6-10.8c0.2-1.3,2-1.9,4.3-1.5
			C39.1,85.3,41,85.6,40.9,86.9z"/>
		<path class="dentures-st2" d="M82,59.3c-7.3,0-20-8.8-36.5-3.8c-12.7,3.8-8.9-2.1-15.7,0.1c-6.8,2.2-3.5,21.9,2.6,22.9"/>
		<path class="dentures-st2" d="M50.1,54.5c0,0,9.4-7.3,31.9-7.3"/>
		<path class="dentures-st2" d="M84.7,91.4c-1.1-0.2-1.9-1.1-1.9-2.2c-0.1-2.3,0-6.3,1-10.3c1.5-6,4.4-7,7.9-7c3.5,0,7,3.4,7.1,16.8
			C98.7,92.9,88.8,92,84.7,91.4z"/>
		<path class="dentures-st2" d="M98.7,88.8c6.6,2.6,12.3-0.8,12.7-1.4c0.4-0.7,0.1-6.2-1-11.1c-1.6-7.3-10.3-4.9-11.2,0.8
			C98.5,81.3,98.7,88.8,98.7,88.8z"/>
		<path class="dentures-st2" d="M111.8,78.4c-0.1-3,1.1-6.4,4.7-7.1c3.6-0.7,6.1,6.8,5.3,13.5c-0.2,1.7-8.6,3-9.3,1.5
			C111.8,84.8,111.9,81.9,111.8,78.4z"/>
		<path class="dentures-st2" d="M122,76.6c-0.1-2.7,1-5.9,4.2-6.5c3.2-0.6,5.5,6.2,4.8,12.4c-0.2,1.6-7.7,2.8-8.3,1.4
			C122,82.4,122.1,79.8,122,76.6z"/>
		<path class="dentures-st2" d="M82.7,93.9c0,2.8,0.1,10.4,4.1,10.6c4,0.2,5.3-8.4,5.3-11.3C92.1,91.6,82.7,91,82.7,93.9z"/>
		<path class="dentures-st2" d="M92.8,93.8c0.2,2.8,0.8,10.7,4.8,10.6c4-0.1,4.4-9.6,4.7-12.5c0.2-1.4-2.5-1-5-0.6
			C95,91.8,92.8,92.4,92.8,93.8z"/>
		<path class="dentures-st2" d="M103.2,91.9c0.2,2.8,2.3,12.1,6.3,12.1c4-0.1,3.8-10.3,3.7-13.6c0-1.4-2.1-1.8-4.5-1.4
			C106.3,89.4,103.1,90.5,103.2,91.9z"/>
		<path class="dentures-st2" d="M113.9,88.8c0.2,2.8,1.1,11.2,5.1,11.1c4-0.1,4.3-8.3,3.8-11.7c-0.2-1.4-2.1-2-4.6-1.6
			C115.8,87.1,113.8,87.4,113.9,88.8z"/>
		<path class="dentures-st2" d="M123,86.9c0.2,2.6,1,10.3,4.8,10.3c3.8,0,4.1-7.7,3.6-10.8c-0.2-1.3-2-1.9-4.3-1.5
			C124.8,85.3,122.9,85.6,123,86.9z"/>
		<path class="dentures-st2" d="M82,59.3c7.3,0,20-8.8,36.5-3.8c12.7,3.8,8.9-2.1,15.7,0.1c6.8,2.2,3.5,21.9-2.6,22.9"/>
		<path class="dentures-st2" d="M113.9,54.5c0,0-9.4-7.3-31.9-7.3"/>
		<path class="dentures-st2" d="M132.5,89.8c0,0,4.3,7.2,3.8,13c-0.4,5.8-16.8,14-54.4,14c-37.6,0-53.9-8.2-54.4-14c-0.4-5.8,3.8-13,3.8-13"
			/>
	</g>
</g>
</svg>
