<?xml version="1.0" encoding="utf-8"?>
<!-- Generator: Adobe Illustrator 25.2.0, SVG Export Plug-In . SVG Version: 6.00 Build 0)  -->
<svg version="1.1" xmlns="http://www.w3.org/2000/svg" xmlns:xlink="http://www.w3.org/1999/xlink" x="0px" y="0px"
	 viewBox="0 0 163.9 163.9" style="enable-background:new 0 0 163.9 163.9;" xml:space="preserve">
<style type="text/css">
	.icon-fill{fill:var(--icon-color-primary, #d5dae2);}
	.emergency-st1{fill:none;stroke:#313131;stroke-width:1.8;stroke-linecap:round;stroke-linejoin:round;stroke-miterlimit:10;}
</style>
<g id="Layer_33_copy_19">
</g>
<g id="Layer_37">
	<path class="icon-fill" d="M54.2,134L54.2,134l0.7-0.3c0.3-0.1,0.5-0.2,0.8-0.3l65.8-29c1.1-0.4,2.2-0.8,3.2-1.4l0,0l0,0
		c6.7-3.8,10.3-11.8,8.3-19.6c-1.2-4.7-4.3-8.5-8.2-10.8l0,0L70.2,32.7l-0.1,0c-4.2-3.4-9.8-4.8-15.4-3.4c-7,1.8-11.9,7.5-12.9,14.2
		l0,0l0,0.2c0,0,0,0,0,0l-10.8,69.5c-0.3,1.1-0.5,2.3-0.5,3.4l0,0l0,0c-0.1,1.7,0.1,3.5,0.5,5.3c2.4,9.4,12,15,21.4,12.6
		C53,134.4,53.6,134.2,54.2,134z"/>
	<polygon class="emergency-st1" points="120,68.7 95.2,68.7 95.2,43.9 68.7,43.9 68.7,68.7 43.9,68.7 43.9,95.2 68.7,95.2 68.7,120 95.2,120
		95.2,95.2 120,95.2 	"/>
</g>
</svg>
