<?xml version="1.0" encoding="utf-8"?>
<!-- Generator: Adobe Illustrator 25.2.0, SVG Export Plug-In . SVG Version: 6.00 Build 0)  -->
<svg version="1.1" xmlns="http://www.w3.org/2000/svg" xmlns:xlink="http://www.w3.org/1999/xlink" x="0px" y="0px"
	 viewBox="0 0 163.9 163.9" style="enable-background:new 0 0 163.9 163.9;" xml:space="preserve">
<style type="text/css">
	.icon-fill{fill:var(--icon-color-primary, #d5dae2);}
	.medication-st1{fill:none;stroke:#313131;stroke-width:1.8;stroke-linecap:round;stroke-linejoin:round;stroke-miterlimit:10;}
</style>
<g id="Layer_33_copy_19">
</g>
<g id="Layer_37">
	<path class="icon-fill" d="M54.2,134L54.2,134l0.7-0.3c0.3-0.1,0.5-0.2,0.8-0.3l65.8-29c1.1-0.4,2.2-0.8,3.2-1.4l0,0l0,0
		c6.7-3.8,10.3-11.8,8.3-19.6c-1.2-4.7-4.3-8.5-8.2-10.8l0,0L70.2,32.7l-0.1,0c-4.2-3.4-9.8-4.8-15.4-3.4c-7,1.8-11.9,7.5-12.9,14.2
		l0,0l0,0.2c0,0,0,0,0,0l-10.8,69.5c-0.3,1.1-0.5,2.3-0.5,3.4l0,0l0,0c-0.1,1.7,0.1,3.5,0.5,5.3c2.4,9.4,12,15,21.4,12.6
		C53,134.4,53.6,134.2,54.2,134z"/>
	<g>
		<g>
			<path class="medication-st1" d="M76.4,97.9c0-5.7,10.9-10.3,24.3-10.3c13.4,0,24.3,4.6,24.3,10.3"/>
			<path class="medication-st1" d="M124.9,97.5v14.9c0,5.6-10.9,10.7-24.3,10.7c-13.4,0-24.3-5.1-24.3-10.7V97.5"/>
			<path class="medication-st1" d="M76.4,97.5c0,5.6,10.9,10.7,24.3,10.7c13.4,0,24.3-5.1,24.3-10.7"/>
			<line class="medication-st1" x1="92" y1="88.3" x2="110.8" y2="107.1"/>
		</g>
		<g>
			<path class="medication-st1" d="M91,90.5l21.7-19.8c3.6-3.6,4.7-8.3,4.7-13c0-4.3-1.5-8.6-4.7-11.9l0,0c-3.4-3.4-7.7-4.9-12.1-4.9
				c-4.4,0-9.3,1.4-12.8,4.9L66,67.7"/>
			<path class="medication-st1" d="M90.8,90.6c-7-7-24.8-22.9-24.8-22.9L44.1,89.6c-3.6,3.6-5.1,8.3-5.1,13c0,4.3,1.9,8.6,5.1,11.9l0,0
				c3.2,3.2,7.4,4.9,11.7,4.9c4.7,0,9.5-1.3,13.2-4.9l21.1-23"/>
		</g>
	</g>
</g>
</svg>
