<?xml version="1.0" encoding="utf-8"?>
<!-- Generator: Adobe Illustrator 25.2.0, SVG Export Plug-In . SVG Version: 6.00 Build 0)  -->
<svg version="1.1" xmlns="http://www.w3.org/2000/svg" xmlns:xlink="http://www.w3.org/1999/xlink" x="0px" y="0px"
	 viewBox="0 0 163.9 163.9" style="enable-background:new 0 0 163.9 163.9;" xml:space="preserve">
<style type="text/css">
	.icon-fill{fill:var(--icon-color-primary, #d5dae2);}
	.periodontics-st1{fill:none;}
	.periodontics-st2{fill:none;stroke:#313131;stroke-width:1.8;stroke-linecap:round;stroke-linejoin:round;stroke-miterlimit:10;}
</style>
<g id="Layer_33_copy_19">
</g>
<g id="Layer_37">
	<path class="icon-fill" d="M132.5,116.6L132.5,116.6l-0.1-0.8c0-0.3-0.1-0.6-0.1-0.8l-11.8-70.9c-0.1-1.2-0.3-2.3-0.6-3.5l0,0l0,0
		c-2-7.5-8.8-12.9-16.9-12.9c-4.9,0-9.3,2-12.5,5.2l0,0L38.4,76l0,0.1c-4.3,3.2-7.1,8.3-7.1,14.1c0,7.2,4.3,13.4,10.5,16.1l0,0
		l0.2,0.1c0,0,0,0,0,0l64.6,27.7c1,0.6,2.1,1,3.2,1.4l0,0l0,0c1.7,0.5,3.4,0.8,5.3,0.8c9.7,0,17.5-7.9,17.5-17.5
		C132.6,118,132.6,117.3,132.5,116.6z"/>
	<g>
		<g>
			<g>
				<line class="periodontics-st1" x1="95.2" y1="33" x2="101.8" y2="38"/>
				<g id="XMLID_00000119115768915901741790000015543742294442430367_">
					<g>
						<path class="periodontics-st1" d="M72.7,61.7C72.7,61.8,72.7,61.8,72.7,61.7c1.1,2.9,1,6-0.4,8.7c-3.4,6.7-8.9,20.4-5.2,34.6
							c0.4,1.6,2.9,1.7,3.5,0.2c3.3-9.1,10.8-27.3,17-26.1c6.2,0.8,7.3,20.6,7.5,30.2c0,1.6,2.4,2.3,3.4,1
							c7.7-11.5,7.5-25.5,6.5-33.2c0-0.4-0.1-0.8-0.2-1.1c-0.3-2,0-3.9,0.8-5.7c0.4-0.9,1-1.8,1.6-2.6c4.8-5.8,12.7-17.3,9.4-26.9
							C111.9,27.2,95.2,33,95.2,33s-13.9-10.9-22.6,0.3C66.4,41.2,70.1,54.7,72.7,61.7z"/>
					</g>
				</g>
			</g>
			<g>
				<line class="periodontics-st2" x1="95.9" y1="32.5" x2="102.4" y2="37.6"/>
				<g id="XMLID_00000077314605059689131320000006297055479317649290_">
					<g>
						<path class="periodontics-st2" d="M73.3,61.3C73.3,61.3,73.3,61.3,73.3,61.3c1.1,2.9,1,6-0.4,8.7c-3.4,6.7-8.9,20.4-5.2,34.6
							c0.4,1.6,2.9,1.7,3.5,0.2c3.3-9.1,10.8-27.3,17-26.1c6.2,0.8,7.3,20.6,7.5,30.2c0,1.6,2.4,2.3,3.4,1
							c7.7-11.5,7.5-25.5,6.5-33.2c0-0.4-0.1-0.8-0.2-1.1c-0.3-2,0-3.9,0.8-5.7c0.4-0.9,1-1.8,1.6-2.6c4.8-5.8,12.7-17.3,9.4-26.9
							c-4.6-13.4-21.3-7.7-21.3-7.7S82,21.7,73.2,32.8C67,40.8,70.7,54.3,73.3,61.3z"/>
					</g>
				</g>
			</g>
			<g>
				<path class="periodontics-st2" d="M59.2,136.1h44.7c5.7,0,10.5-4.6,11.3-10.9c2.2-16.6,6.2-43.8,6.5-48.4c0.1-2.1-0.6-4-2-5.2
					c-0.8-0.7-1.7-1-2.7-1c-2.8,0-5,4.7-5.3,7.2c-0.1,0.8-0.2,1.8-0.3,2.8c-0.8,8.9-2.1,23.8-11.2,33.1c-9.1,9.3-12.9,5.6-15.6,2.9
					c-0.9-0.9-1.8-1.7-2.6-1.7c-1.4,0-2.5,0.4-3.6,0.8c-3.7,1.5-6.4,1.8-13.2-9.2c0,0,0,0,0,0c-0.9-1.2-1.8-2.6-2.5-4.1c0,0,0,0,0,0
					c-2.2-3.2-4.1-8.9-6-14.9c-2.5-7.6-5.2-16.2-8.4-16.9c-0.5-0.1-1.1-0.1-1.7,0.1c-2.8,0.8-4.6,4-4.1,7.4
					c1.7,10,4.1,31.9,5.5,46.6C48.5,131.2,53.4,136.1,59.2,136.1z"/>
			</g>
		</g>
	</g>
</g>
</svg>
