<?xml version="1.0" encoding="utf-8"?>
<!-- Generator: Adobe Illustrator 25.2.0, SVG Export Plug-In . SVG Version: 6.00 Build 0)  -->
<svg version="1.1" xmlns="http://www.w3.org/2000/svg" xmlns:xlink="http://www.w3.org/1999/xlink" x="0px" y="0px"
	 viewBox="0 0 163.9 163.9" style="enable-background:new 0 0 163.9 163.9;" xml:space="preserve">
<style type="text/css">
	.icon-fill{fill:var(--icon-color-primary, #d5dae2);}
	.shining-tooth-st1{fill:none;}
	.shining-tooth-st2{fill:none;stroke:#313131;stroke-width:1.8;stroke-linecap:round;stroke-linejoin:round;stroke-miterlimit:10;}
</style>
<g id="Layer_33_copy_19">
</g>
<g id="Layer_37">
	<path class="icon-fill" d="M132.5,116.6L132.5,116.6l-0.1-0.8c0-0.3-0.1-0.6-0.1-0.8l-11.8-70.9c-0.1-1.2-0.3-2.3-0.6-3.5l0,0l0,0
		c-2-7.5-8.8-12.9-16.9-12.9c-4.9,0-9.3,2-12.5,5.2l0,0L38.4,76l0,0.1c-4.3,3.2-7.1,8.3-7.1,14.1c0,7.2,4.3,13.4,10.5,16.1l0,0
		l0.2,0.1c0,0,0,0,0,0l64.6,27.7c1,0.6,2.1,1,3.2,1.4l0,0l0,0c1.7,0.5,3.4,0.8,5.3,0.8c9.7,0,17.5-7.9,17.5-17.5
		C132.6,118,132.6,117.3,132.5,116.6z"/>
	<g>
		<g id="XMLID_00000142869284632286133760000010227343896939757732_">
			<g>
				<path class="shining-tooth-st1" d="M49.5,76.9C49.5,76.9,49.5,76.9,49.5,76.9c1.8,2.9,2.3,6.3,1.2,9.5c-2.7,7.8-6.4,23.8,0.7,38.4
					c0.8,1.6,3.8,1.3,4.1-0.4c2.1-10.4,7.3-31.6,14.7-31.3c7.4-0.2,12.6,20.9,14.7,31.3c0.4,1.7,3.3,2.1,4.1,0.4
					c6.8-13.9,3.7-29,1.1-37.1c-0.1-0.4-0.3-0.8-0.4-1.2c-0.7-2.1-0.8-4.3-0.2-6.3C90,79,90.4,78,91.1,77
					c4.4-7.1,11.4-21.1,5.7-30.8c-8-13.7-26.5-4.4-26.5-4.4s-18.4-9.2-26.4,4.4C38.1,55.9,45.1,69.8,49.5,76.9z"/>
			</g>
		</g>
		<g>
			<line class="shining-tooth-st2" x1="70.9" y1="41.1" x2="79.6" y2="45.4"/>
			<g id="XMLID_00000108284235348583356180000014452830115278876091_">
				<g>
					<path class="shining-tooth-st2" d="M50.2,76.4C50.2,76.4,50.2,76.4,50.2,76.4c1.8,2.9,2.3,6.3,1.2,9.5c-2.7,7.8-6.4,23.8,0.7,38.4
						c0.8,1.6,3.8,1.3,4.1-0.4c2.1-10.4,7.3-31.6,14.7-31.3c7.4-0.2,12.6,20.9,14.7,31.3c0.4,1.7,3.3,2.1,4.1,0.4
						c6.8-13.9,3.7-29,1.1-37.1c-0.1-0.4-0.3-0.8-0.4-1.2c-0.7-2.1-0.8-4.3-0.2-6.3c0.3-1.1,0.8-2.2,1.4-3.2
						c4.4-7.1,11.4-21.1,5.7-30.8c-8-13.7-26.5-4.4-26.5-4.4s-18.4-9.2-26.4,4.4C38.7,55.3,45.7,69.2,50.2,76.4z"/>
				</g>
			</g>
		</g>
		<polygon class="shining-tooth-st2" points="116.1,80.2 105.6,74.9 95.3,80.6 97.1,68.9 88.6,60.9 100.2,59 105.2,48.3 110.6,58.8 122.3,60.3
			114,68.7 		"/>
	</g>
</g>
</svg>
