<?xml version="1.0" encoding="utf-8"?>
<!-- Generator: Adobe Illustrator 25.2.0, SVG Export Plug-In . SVG Version: 6.00 Build 0)  -->
<svg version="1.1" xmlns="http://www.w3.org/2000/svg" xmlns:xlink="http://www.w3.org/1999/xlink" x="0px" y="0px"
	 viewBox="0 0 163.9 163.9" style="enable-background:new 0 0 163.9 163.9;" xml:space="preserve">
<style type="text/css">
	.icon-fill{fill:var(--icon-color-primary, #d5dae2);}
	.skip-rope-st1{fill:none;stroke:#313131;stroke-width:1.8;stroke-linecap:round;stroke-linejoin:round;stroke-miterlimit:10;}
</style>
<g id="Layer_33_copy_19">
</g>
<g id="Layer_37">
	<path class="icon-fill" d="M47.7,41L47.7,41l-0.2,0.8c-0.1,0.3-0.1,0.5-0.2,0.8l-15.6,70.2c-0.4,1.1-0.6,2.3-0.8,3.4l0,0l0,0
		c-0.9,7.7,3.4,15.3,10.9,18.3c4.5,1.8,9.4,1.6,13.5-0.2l0,0l64.4-20.5l0-0.1c5.2-1.4,9.7-5.1,11.8-10.4c2.7-6.7,1-14-3.8-18.8l0,0
		l-0.1-0.1c0,0,0,0,0,0L78.3,34.6c-0.7-0.9-1.5-1.7-2.4-2.5l0,0l0,0c-1.3-1.1-2.9-2-4.6-2.7c-9-3.6-19.2,0.7-22.8,9.7
		C48.1,39.7,47.9,40.4,47.7,41z"/>
	<g>
		<path class="skip-rope-st1" d="M114.9,79.7c-1.5-0.7-12-6.8-21-16.8c-3-3.3-7.3-4.7-11.9-4.7c-4.8,0-9.1,1.8-11.6,4.7
			C61.5,73.1,50.6,79,49,79.7c-2.8,1.3-4.2,3.3-3.4,5.9c0.8,2.5,2.8,3.5,6.3,2.9c4.9-0.8,11.9-4.7,19.3-10.4l-2,31.1
			c0.2,3.2,2.1,5.2,5.7,5.2c5.9,0,6.1-7.4,6-9.8l1.4,25.7c0.4,3.2,2.4,5.4,5.4,5.4c3,0,5-2.3,5.4-5.5l-0.6-52.1
			c7.3,5.7,14.5,9.6,19.3,10.4c3.5,0.6,5.6-0.5,6.3-2.9C119.1,83,117.7,81,114.9,79.7z"/>
		<path class="skip-rope-st1" d="M82,53.2c6.9,0,12.5-5.6,12.5-12.5c0-6.9-5.6-12.5-12.5-12.5c-6.9,0-12.5,5.6-12.5,12.5
			C69.5,47.6,75.1,53.2,82,53.2z"/>
		<path class="skip-rope-st1" d="M93.2,129.3c12.4-4.3,21.3-16.2,21.3-30.1V88.6"/>
		<path class="skip-rope-st1" d="M50.8,88.6v10.6c0,17.6,14.3,31.9,31.9,31.9"/>
	</g>
</g>
</svg>
