<?xml version="1.0" encoding="utf-8"?>
<!-- Generator: Adobe Illustrator 25.4.1, SVG Export Plug-In . SVG Version: 6.00 Build 0)  -->
<svg version="1.1" id="Layer_35" xmlns="http://www.w3.org/2000/svg" xmlns:xlink="http://www.w3.org/1999/xlink" x="0px" y="0px"
	 viewBox="0 0 163.94 163.94" style="enable-background:new 0 0 163.94 163.94;" xml:space="preserve">
<style type="text/css">
	.icon-fill{fill:var(--icon-color-primary, #d5dae2);}
	.snoring-st1{fill:none;stroke:#333333;stroke-width:1.8;stroke-miterlimit:10;}
</style>
<g id="Layer_33_copy_20">
	<path class="icon-fill" d="M132.52,116.65L132.52,116.65l-0.12-0.78c-0.04-0.27-0.08-0.55-0.14-0.82L120.5,44.11
		c-0.08-1.19-0.27-2.35-0.57-3.46l0,0l0,0c-2.03-7.45-8.82-12.94-16.92-12.94c-4.89,0-9.3,2-12.48,5.22l-0.01,0L38.39,75.98
		l0.01,0.09c-4.3,3.2-7.1,8.3-7.1,14.07c0,7.19,4.33,13.36,10.52,16.07l0,0.01l0.19,0.08c0,0,0,0,0.01,0l64.61,27.74
		c1.01,0.56,2.07,1.02,3.19,1.37l0,0l0,0c1.67,0.52,3.44,0.81,5.27,0.81c9.69,0,17.55-7.86,17.55-17.55
		C132.64,117.99,132.59,117.32,132.52,116.65z"/>
</g>
<g>
	<path class="snoring-st1" d="M85.47,36.94c-24.87,0-45.03,20.16-45.03,45.03c0,7.46,1.82,14.49,5.04,20.68l-2.3,13.3l13.56,0.68
		c7.8,6.47,17.81,10.36,28.73,10.36c24.87,0,45.03-20.16,45.03-45.03C130.5,57.1,110.34,36.94,85.47,36.94z"/>
	<polyline class="snoring-st1" points="64.46,87.33 74.72,87.33 64.98,103.66 74.72,103.66 	"/>
	<polyline class="snoring-st1" points="80.84,75.2 91.11,75.2 81.37,91.53 91.11,91.53 	"/>
	<polyline class="snoring-st1" points="97.73,62.86 107.99,62.86 98.26,79.19 107.99,79.19 	"/>
</g>
</svg>
