<?xml version="1.0" encoding="utf-8"?>
<!-- Generator: Adobe Illustrator 25.2.0, SVG Export Plug-In . SVG Version: 6.00 Build 0)  -->
<svg version="1.1" xmlns="http://www.w3.org/2000/svg" xmlns:xlink="http://www.w3.org/1999/xlink" x="0px" y="0px"
	 viewBox="0 0 163.9 163.9" style="enable-background:new 0 0 163.9 163.9;" xml:space="preserve">
<style type="text/css">
	.icon-fill{fill:var(--icon-color-primary, #d5dae2);}
	.veneer-st1{fill:none;}
	.veneer-st2{fill:none;stroke:#010101;stroke-width:1.8;stroke-linecap:round;stroke-linejoin:round;stroke-miterlimit:10;}
</style>
<g id="Layer_33_copy_19">
</g>
<g id="Layer_37">
	<path class="icon-fill" d="M30,53.1L30,53.1l0.3,0.7c0.1,0.3,0.2,0.5,0.3,0.8l26.7,66.8c0.3,1.1,0.8,2.2,1.3,3.3l0,0l0,0
		c3.6,6.8,11.4,10.7,19.3,9c4.8-1,8.7-3.9,11.1-7.8l0,0l41.7-53.2l0-0.1c3.5-4,5.2-9.6,3.9-15.3c-1.5-7-7.1-12.1-13.7-13.4l0,0
		l-0.2,0c0,0,0,0,0,0l-69-13.3c-1.1-0.3-2.2-0.6-3.4-0.7l0,0l0,0c-1.7-0.2-3.5-0.1-5.3,0.3c-9.5,2.1-15.5,11.4-13.4,20.9
		C29.6,51.8,29.8,52.5,30,53.1z"/>
	<g>
		<g>
			<path class="veneer-st1" d="M127.8,74.8l0.4,0.4c5.8-0.1,11.6-1.7,11.6-4.6c0-19.1-3-34.7-11.6-34.7c-8.5,0-13.1,17.9-13.1,25.4l0.1,0.1
				c-0.4-0.1-0.9-0.1-1.4-0.1l0.2-0.1c-1.1-11-4.7-25.3-16.7-25.3C83.9,35.9,82,56.3,82,67.3c0-11-1.9-31.4-15.4-31.4
				c-15.3,0-16.9,23.5-17,33.6c0,3.4,2.4,6.1,5.9,6.5c6.7,0.8,17.3,2.2,22.8,1c2-0.4,3.6-2.2,3.7-4.2c0.1,2,1.7,3.8,3.7,4.2
				c3.5,0.8,9.2,0.5,14.5,0l-1.5-0.7l1.8,0.4c-1.2,5.4-1.6,11.3-1.6,16l0,0l0,0c0,0.9,0,1.7,0,2.5l0,0l0,0.2l0,0c0,0.3,0,0.5,0,0.7
				l0,1l0,0c0,1,0,2,0.1,2.8c0.1,2.1,1.6,3.9,3.7,4.4c5.5,1.2,15.6,1.1,22.4,0.3c1.6-0.2,2.9-0.9,3.9-1.9h0l0.2-23.3l0,0l0,0
				C128.7,77.8,128.3,76.3,127.8,74.8z"/>
			<path class="veneer-st1" d="M36.1,35.9c-8.8,0-11.9,15.9-11.9,35.4c0,4.3,13.4,4.1,19.4,3.8c1.9-0.1,3.6-1.3,4.2-3.1
				c0.8-2.2,1.8-5.7,1.8-9.9C49.6,54.4,44.9,35.9,36.1,35.9z"/>
		</g>
		<g>
			<path class="veneer-st2" d="M128.9,102.7c-1,1-2.4,1.7-3.9,1.9c-6.8,0.9-16.8,1-22.4-0.3c-2.1-0.5-3.6-2.3-3.7-4.4
				c-0.1-1.2-0.1-2.8-0.1-4.5"/>
			<path class="veneer-st2" d="M98.8,95.3c0-11.5,1.3-33.9,14.9-33.9c8.9,0,13.3,9,15.4,18"/>
			<path class="veneer-st2" d="M82,68.5c0,1.7-0.1,3.1,0,4.3c0.1,2,1.7,3.8,3.7,4.2c3.5,0.8,9.2,0.5,14.5,0"/>
			<path class="veneer-st2" d="M82,72.9c-0.1,2-1.7,3.8-3.7,4.2c-5.5,1.2-16.1-0.2-22.8-1c-3.5-0.4-5.9-3.1-5.9-6.5
				c0.1-10.1,1.7-33.6,17-33.6C80.1,35.9,82,56.3,82,67.3c0-11,1.9-31.4,15.4-31.4c11.9,0,15.6,14.3,16.7,25.3"/>
			<path class="veneer-st2" d="M115.1,61.4c0-7.6,4.5-25.4,13.1-25.4s11.6,15.5,11.6,34.7c0,3-5.8,4.5-11.6,4.6"/>
			<path class="veneer-st2" d="M43.6,75.1c1.9-0.1,3.6-1.3,4.2-3.1c0.8-2.2,1.8-5.7,1.8-9.9c0-7.7-4.7-26.2-13.5-26.2
				c-8.8,0-11.9,15.9-11.9,35.4C24.2,75.6,37.6,75.4,43.6,75.1z"/>
			<path class="veneer-st2" d="M109.7,96L96,100.6c-3.5,1.2-6.7,3.1-9.4,5.7L70,128"/>
			<polyline class="veneer-st2" points="81.6,128 98.2,112.2 106.1,105.2 			"/>
			<path class="veneer-st2" d="M110.2,70.6c0,0-1.3,2.8-1.4,3.6"/>
			<line class="veneer-st2" x1="108" y1="81.4" x2="107.4" y2="89.8"/>
			<line class="veneer-st2" x1="132.8" y1="84.5" x2="132.8" y2="86.8"/>
			<line class="veneer-st2" x1="132.8" y1="96" x2="132.8" y2="98.3"/>
			<line class="veneer-st2" x1="139.8" y1="91.4" x2="137.4" y2="91.4"/>
			<line class="veneer-st2" x1="128.2" y1="91.4" x2="125.9" y2="91.4"/>
		</g>
	</g>
</g>
</svg>
