<?xml version="1.0" encoding="utf-8"?>
<!-- Generator: Adobe Illustrator 25.2.0, SVG Export Plug-In . SVG Version: 6.00 Build 0)  -->
<svg version="1.1" xmlns="http://www.w3.org/2000/svg" xmlns:xlink="http://www.w3.org/1999/xlink" x="0px" y="0px"
	 viewBox="0 0 163.9 163.9" style="enable-background:new 0 0 163.9 163.9;" xml:space="preserve">
<style type="text/css">
	.icon-fill{fill:var(--icon-color-primary, #d5dae2);}
	.wisdom-teeth-st1{fill:none;}
	.wisdom-teeth-st2{fill:none;stroke:#313131;stroke-width:1.8;stroke-linecap:round;stroke-linejoin:round;stroke-miterlimit:10;}
</style>
<g id="Layer_33_copy_19">
</g>
<g id="Layer_37">
	<path class="icon-fill" d="M132.5,116.6L132.5,116.6l-0.1-0.8c0-0.3-0.1-0.6-0.1-0.8l-11.8-70.9c-0.1-1.2-0.3-2.3-0.6-3.5l0,0l0,0
		c-2-7.5-8.8-12.9-16.9-12.9c-4.9,0-9.3,2-12.5,5.2l0,0L38.4,76l0,0.1c-4.3,3.2-7.1,8.3-7.1,14.1c0,7.2,4.3,13.4,10.5,16.1l0,0
		l0.2,0.1c0,0,0,0,0,0l64.6,27.7c1,0.6,2.1,1,3.2,1.4l0,0l0,0c1.7,0.5,3.4,0.8,5.3,0.8c9.7,0,17.5-7.9,17.5-17.5
		C132.6,118,132.6,117.3,132.5,116.6z"/>
	<g>
		<g>
			<line class="wisdom-teeth-st1" x1="50.3" y1="38.2" x2="57.9" y2="42.3"/>
			<g id="XMLID_00000076567463665422481750000009707500535649292937_">
				<g>
					<path class="wisdom-teeth-st1" d="M32.1,71.7C32.1,71.7,32.1,71.7,32.1,71.7c1.6,2.8,2,6,1.1,9c-2.3,7.4-5.6,22.6,0.6,36.4
						c0.7,1.6,3.3,1.3,3.6-0.4c1.8-9.9,6.4-30,12.9-29.7c6.5-0.2,11.1,19.9,12.9,29.7c0.3,1.7,2.9,2,3.6,0.4
						c5.9-13.2,3.3-27.5,1-35.3c-0.1-0.4-0.2-0.8-0.4-1.2c-0.6-2-0.7-4-0.2-6c0.3-1,0.7-2,1.2-3c3.9-6.8,10-20,5-29.3
						c-7-13-23.2-4.2-23.2-4.2s-16.1-8.8-23.2,4.2C22,51.7,28.2,64.9,32.1,71.7z"/>
				</g>
			</g>
		</g>
		<g>
			<line class="wisdom-teeth-st2" x1="50.6" y1="38.3" x2="58.2" y2="42.4"/>
			<g id="XMLID_6_">
				<g>
					<path class="wisdom-teeth-st2" d="M18.6,71.8h13.8c0,0,0,0,0,0c1.6,2.8,2,6,1.1,9c-2.3,7.4-5.6,22.6,0.6,36.4c0.7,1.6,3.3,1.3,3.6-0.4
						c1.8-9.9,6.4-30,12.9-29.7c6.5-0.2,11.1,19.9,12.9,29.7c0.3,1.7,2.9,2,3.6,0.4c5.9-13.2,3.3-27.5,1-35.3
						c3.2,8.2,14.9,13.7,21.5,16.2c2.9,1.1,5.2,3.1,6.4,5.6c3.1,6.3,10.4,18.3,23.4,24.6c1.5,0.7,3.1-0.8,2.2-2.1
						c-5-7.7-14.6-23.7-10-26.9c4.3-3.4,20.1,8,27.7,13.8c1.3,1,3.2-0.1,2.7-1.5c-4.5-12.6-16.3-21.3-22.6-25.2
						c-2.6-1.6-4.3-4-5-6.7c-0.8-3.2-2.1-7.6-4.4-11.8c0,0,12.6-17.1,35.3-16"/>
				</g>
				<g>
					<path class="wisdom-teeth-st2" d="M32.4,71.8C32.4,71.8,32.4,71.8,32.4,71.8c1.6,2.8,2,6,1.1,9c-2.3,7.4-5.6,22.6,0.6,36.4
						c0.7,1.6,3.3,1.3,3.6-0.4c1.8-9.9,6.4-30,12.9-29.7c6.5-0.2,11.1,19.9,12.9,29.7c0.3,1.7,2.9,2,3.6,0.4
						c5.9-13.2,3.3-27.5,1-35.3c-0.1-0.4-0.2-0.8-0.4-1.2c-0.6-2-0.7-4-0.2-6c0.3-1,0.7-2,1.2-3c3.9-6.8,10-20,5-29.3
						c-7-13-23.2-4.2-23.2-4.2s-16.1-8.8-23.2,4.2C22.3,51.8,28.5,65,32.4,71.8z"/>
					<path class="wisdom-teeth-st2" d="M68.1,82c3.2,8.2,14.9,13.7,21.5,16.2c2.9,1.1,5.2,3.1,6.4,5.6c3.1,6.3,10.4,18.3,23.4,24.6
						c1.5,0.7,3.1-0.8,2.2-2.1c-5-7.7-14.6-23.7-10-26.9c4.3-3.4,20.1,8,27.7,13.8c1.3,1,3.2-0.1,2.7-1.5
						c-4.5-12.6-16.3-21.3-22.6-25.2c-2.6-1.6-4.3-4-5-6.7c-0.8-3.2-2.1-7.6-4.4-11.8c-2.4-4.5-5.9-8.8-10.7-10.8
						c-13-5.3-18.5,8.8-18.5,8.8s-11.1,1.4-13.3,8.8c-0.5,1.6-0.5,3.6,0.1,5.8C67.7,81.1,67.9,81.5,68.1,82z"/>
					<line class="wisdom-teeth-st2" x1="80.8" y1="66.1" x2="88.6" y2="65"/>
					<path class="wisdom-teeth-st2" d="M145.4,52c-22.6-1.1-35.3,16-35.3,16"/>
					<line class="wisdom-teeth-st2" x1="32.4" y1="71.8" x2="18.6" y2="71.8"/>
				</g>
			</g>
		</g>
	</g>
</g>
</svg>
