<?xml version="1.0" encoding="utf-8"?>
<!-- Generator: Adobe Illustrator 26.0.2, SVG Export Plug-In . SVG Version: 6.00 Build 0)  -->
<svg version="1.1" id="Layer_1" xmlns="http://www.w3.org/2000/svg" xmlns:xlink="http://www.w3.org/1999/xlink" x="0px" y="0px"
	 viewBox="0 0 223.4 38.8" style="enable-background:new 0 0 223.4 38.8;" xml:space="preserve">
<style type="text/css">
	.st0{fill:#F7CD49;}
</style>
<polygon class="st0" points="20.4,0 25.8,14 40.8,14.8 29.2,24.3 33,38.8 20.4,30.7 7.8,38.8 11.6,24.3 0,14.8 15,14 "/>
<polygon class="st0" points="66.1,0 71.5,14 86.5,14.8 74.8,24.3 78.7,38.8 66.1,30.7 53.5,38.8 57.3,24.3 45.7,14.8 60.6,14 "/>
<polygon class="st0" points="111.7,0 117.1,14 132.1,14.8 120.5,24.3 124.3,38.8 111.7,30.7 99.1,38.8 103,24.3 91.3,14.8 106.3,14
	"/>
<polygon class="st0" points="157.4,0 162.8,14 177.8,14.8 166.1,24.3 170,38.8 157.4,30.7 144.8,38.8 148.6,24.3 137,14.8 152,14
	"/>
<polygon class="st0" points="203,0 208.4,14 223.4,14.8 211.8,24.3 215.6,38.8 203,30.7 190.4,38.8 194.3,24.3 182.6,14.8 197.6,14
	"/>
</svg>
