<?xml version="1.0" encoding="utf-8"?>
<!-- Generator: Adobe Illustrator 25.4.1, SVG Export Plug-In . SVG Version: 6.00 Build 0)  -->
<svg version="1.1" xmlns="http://www.w3.org/2000/svg" xmlns:xlink="http://www.w3.org/1999/xlink" x="0px" y="0px"
	 viewBox="0 0 163.94 163.94" style="enable-background:new 0 0 163.94 163.94;" xml:space="preserve">
<style type="text/css">
	.dental-tools-st0{fill:var(--icon-color-primary, #d1e3e5);}
	.dental-tools-st1{fill:var(--icon-color-secondary, rgba(129,130,133,0.3))}
	.dental-tools-st2{fill:none;stroke:#313131;stroke-width:1.8;stroke-linecap:round;stroke-linejoin:round;stroke-miterlimit:10;}
	.dental-tools-st3{fill:#FFFFFF;stroke:#313131;stroke-width:1.8;stroke-linecap:round;stroke-linejoin:round;stroke-miterlimit:10;}
</style>
<g id="Layer_4_copy_5">
</g>
<g id="In">
	<circle class="dental-tools-st0" cx="45.61" cy="106.16" r="43.07"/>
	<circle class="dental-tools-st1" cx="97.56" cy="72.7" r="60.41"/>
	<g>
		<polyline class="dental-tools-st2" points="59.42,80.31 59.42,59.7 46.74,47.01 59.42,34.34 		"/>
		<line class="dental-tools-st3" x1="104.66" y1="80.31" x2="104.66" y2="59.7"/>
		<path class="dental-tools-st3" d="M117.09,48.69c-0.72,5.65-5.3,10.21-10.95,10.91c-8.3,1.02-15.25-5.97-14.18-14.26
			c0.73-5.65,5.29-10.2,10.94-10.9C111.19,33.41,118.15,40.39,117.09,48.69z"/>
		<path class="dental-tools-st3" d="M67.16,126.53c0,1.7-1.38,3.07-3.07,3.07h-9.33c-1.69,0-3.07-1.37-3.07-3.07V83.38c0-1.7,1.37-3.07,3.07-3.07
			h9.32c1.7,0,3.07,1.38,3.07,3.07V126.53z"/>
		<path class="dental-tools-st3" d="M112.26,126.53c0,1.7-1.38,3.07-3.07,3.07h-9.33c-1.69,0-3.07-1.37-3.07-3.07V83.38
			c0-1.7,1.38-3.07,3.07-3.07h9.33c1.7,0,3.07,1.37,3.07,3.07V126.53z"/>
	</g>
</g>
</svg>
