<?xml version="1.0" encoding="utf-8"?>
<!-- Generator: Adobe Illustrator 25.4.1, SVG Export Plug-In . SVG Version: 6.00 Build 0)  -->
<svg version="1.1" xmlns="http://www.w3.org/2000/svg" xmlns:xlink="http://www.w3.org/1999/xlink" x="0px" y="0px"
	 viewBox="0 0 163.94 163.94" style="enable-background:new 0 0 163.94 163.94;" xml:space="preserve">
<style type="text/css">
	.insurance-st0{fill:var(--icon-color-primary, #d1e3e5);}
	.insurance-st1{fill:var(--icon-color-secondary, rgba(129,130,133,0.3));}
	.insurance-st2{fill:#FFFFFF;stroke:#313131;stroke-width:1.8;stroke-linecap:round;stroke-linejoin:round;stroke-miterlimit:10;}
</style>
<g id="Layer_4_copy_5">
	<circle class="insurance-st0" cx="46.69" cy="55.08" r="44.16"/>
	<circle class="insurance-st1" cx="106.98" cy="95.27" r="54.99"/>
</g>
<g id="In">
	<g>
		<path class="insurance-st2" d="M102.9,32.4c-1.96,0-3.89,0.9-5.12,2.61l-6.11,8.41c-2.27,3.09-6.03,4.87-9.81,4.87
			c-1.22,0-2.43-0.18-3.61-0.57c-2.44-0.79-4.53-2.33-6.04-4.43c-0.04-0.06-0.09-0.11-0.14-0.15L66.17,35
			c-1.23-1.7-3.17-2.6-5.12-2.6c-1.29,0-2.59,0.39-3.71,1.2c-1.37,0.99-2.27,2.46-2.53,4.13c-0.27,1.67,0.14,3.34,1.13,4.71
			l15.59,21.45c2.6,3.58,6.41,5.64,10.45,5.64c4.04,0,7.85-2.05,10.45-5.64l15.59-21.45c2.05-2.82,1.42-6.79-1.4-8.84
			C105.49,32.79,104.19,32.4,102.9,32.4L102.9,32.4z"/>
		<path class="insurance-st2" d="M81.97,28c-3.59,0-6.74,2.29-7.85,5.7c-0.68,2.1-0.51,4.34,0.49,6.3c1,1.96,2.71,3.42,4.8,4.1
			c0.83,0.27,1.69,0.41,2.55,0.41c3.58,0,6.74-2.29,7.85-5.71c1.4-4.33-0.97-8.99-5.3-10.4l0,0C83.69,28.13,82.83,28,81.97,28
			L81.97,28z"/>
		<path class="insurance-st2" d="M43.55,82.51L43.55,82.51L43.55,82.51 M47.11,42.52c-1.29,0-2.59,0.39-3.71,1.21
			c-1.37,0.99-2.27,2.46-2.53,4.13C40.6,49.52,41,51.19,42,52.56l6.11,8.41c2.21,3.09,2.83,7.11,1.66,10.73
			c-0.39,1.2-0.97,2.33-1.72,3.36c-1.51,2.07-3.61,3.59-6.08,4.37c-0.07,0.02-0.13,0.05-0.19,0.09l-9.55,3.1
			c-1.61,0.52-2.91,1.64-3.68,3.14c-0.77,1.5-0.9,3.22-0.38,4.83c0.87,2.67,3.35,4.37,6.02,4.37c0.64,0,1.3-0.1,1.95-0.31l25.22-8.2
			c4.21-1.37,7.34-4.36,8.59-8.2c1.25-3.84,0.47-8.1-2.13-11.68L52.23,45.13C50.99,43.43,49.06,42.52,47.11,42.52L47.11,42.52z"/>
		<path class="insurance-st2" d="M38.31,59.73c-2.56,0-5.08,1.18-6.69,3.4c-0.51,0.71-0.91,1.48-1.17,2.3c-1.11,3.41,0.09,7.12,3,9.23
			c1.46,1.06,3.16,1.57,4.84,1.57c2.56,0,5.08-1.18,6.69-3.4c0.51-0.71,0.91-1.48,1.17-2.3c1.11-3.41-0.1-7.12-3-9.23
			C41.69,60.24,39.99,59.73,38.31,59.73L38.31,59.73z"/>
		<path class="insurance-st2" d="M67.26,90.09c-1.47,0-2.98,0.24-4.48,0.73l-25.22,8.19c-3.32,1.08-5.14,4.65-4.06,7.97
			c0.87,2.67,3.35,4.37,6.02,4.37c0.65,0,1.31-0.1,1.95-0.31l9.89-3.21c1.18-0.38,2.4-0.56,3.62-0.56c2.52,0,5.02,0.79,7.1,2.3
			c1.03,0.75,1.92,1.64,2.67,2.67c1.51,2.08,2.3,4.55,2.28,7.14c0,0.07,0.01,0.14,0.02,0.2l0,10.05c0,3.49,2.84,6.32,6.32,6.32
			c3.49,0,6.33-2.84,6.33-6.33l0-26.52c0-4.43-1.87-8.33-5.14-10.7C72.44,90.87,69.91,90.09,67.26,90.09L67.26,90.09z"/>
		<path class="insurance-st2" d="M54.99,111.06c-1.7,0-3.4,0.53-4.86,1.58c-3.68,2.67-4.5,7.85-1.83,11.53l0,0c0.51,0.71,1.13,1.32,1.82,1.82
			c1.45,1.05,3.15,1.58,4.85,1.58s3.4-0.53,4.85-1.58c1.78-1.3,2.96-3.21,3.3-5.39c0.35-2.18-0.18-4.36-1.47-6.14
			c-0.51-0.7-1.13-1.32-1.83-1.83C58.39,111.59,56.69,111.06,54.99,111.06L54.99,111.06z"/>
		<path class="insurance-st2" d="M96.69,90.09c-2.66,0-5.18,0.78-7.28,2.31c-3.27,2.37-5.15,6.27-5.15,10.7v26.52c0,3.49,2.84,6.32,6.33,6.32
			c3.49,0,6.32-2.84,6.32-6.33v-10.39c0.03-3.8,1.88-7.41,4.97-9.66c1.02-0.74,2.15-1.32,3.36-1.71c1.2-0.39,2.44-0.58,3.68-0.58
			c1.28,0,2.56,0.21,3.81,0.62c0.07,0.02,0.13,0.04,0.2,0.04l9.55,3.1c0.64,0.21,1.31,0.31,1.96,0.31c0.98,0,1.96-0.23,2.86-0.69
			c1.5-0.77,2.62-2.07,3.14-3.68c1.08-3.32-0.74-6.89-4.06-7.97l-25.22-8.19C99.68,90.33,98.16,90.09,96.69,90.09L96.69,90.09z"/>
		<path class="insurance-st2" d="M108.97,111.06c-0.85,0-1.7,0.13-2.55,0.41c-0.83,0.27-1.6,0.66-2.3,1.17c-2.9,2.11-4.11,5.82-3,9.23
			c0.68,2.1,2.14,3.8,4.1,4.81c1.18,0.6,2.45,0.9,3.74,0.9c0.86,0,1.72-0.13,2.56-0.41h0c0.83-0.27,1.6-0.67,2.3-1.17
			c2.9-2.11,4.11-5.82,3-9.23C115.68,113.29,112.45,111.06,108.97,111.06L108.97,111.06z"/>
		<path class="insurance-st2" d="M116.84,42.52c-1.96,0-3.89,0.9-5.12,2.6L96.13,66.58c-2.6,3.58-3.38,7.84-2.13,11.68
			c1.25,3.84,4.38,6.83,8.59,8.2l25.22,8.2c0.65,0.21,1.3,0.31,1.95,0.31c2.67,0,5.15-1.7,6.02-4.37l0,0
			c1.07-3.31-0.75-6.89-4.06-7.97l-9.88-3.21c-3.61-1.2-6.47-4.08-7.65-7.71c-0.39-1.2-0.59-2.46-0.59-3.72
			c0-2.57,0.82-5.03,2.35-7.12c0.04-0.06,0.08-0.12,0.1-0.18l5.9-8.12c2.05-2.82,1.42-6.78-1.4-8.83
			C119.43,42.92,118.13,42.52,116.84,42.52L116.84,42.52z"/>
		<path class="insurance-st2" d="M125.65,59.73c-4.55,0-8.25,3.7-8.25,8.25c0,0.88,0.14,1.73,0.4,2.55c1.11,3.41,4.26,5.7,7.85,5.7
			c0,0,0,0,0.01,0c2.2,0,4.27-0.86,5.83-2.41c1.56-1.56,2.42-3.63,2.42-5.84v0c0-0.87-0.14-1.73-0.4-2.55
			C132.39,62.02,129.23,59.73,125.65,59.73L125.65,59.73z"/>
	</g>
</g>
</svg>
