<?xml version="1.0" encoding="utf-8"?>
<!-- Generator: Adobe Illustrator 25.4.1, SVG Export Plug-In . SVG Version: 6.00 Build 0)  -->
<svg version="1.1" xmlns="http://www.w3.org/2000/svg" xmlns:xlink="http://www.w3.org/1999/xlink" x="0px" y="0px"
	 viewBox="0 0 163.94 163.94" style="enable-background:new 0 0 163.94 163.94;" xml:space="preserve">
<style type="text/css">
	.skip-rope-st0{fill:var(--icon-color-primary, #d1e3e5);}
	.skip-rope-st1{fill:var(--icon-color-secondary, rgba(129,130,133,0.3));}
	.skip-rope-st2{fill:#FFFFFF;stroke:#313131;stroke-width:1.8;stroke-linecap:round;stroke-linejoin:round;stroke-miterlimit:10;}
	.skip-rope-st3{fill:none;stroke:#313131;stroke-width:1.8;stroke-linecap:round;stroke-linejoin:round;stroke-miterlimit:10;}
</style>
<g id="Layer_4_copy_5">
</g>
<g id="In">
	<circle class="skip-rope-st0" cx="46.69" cy="55.08" r="44.16"/>
	<circle class="skip-rope-st1" cx="106.98" cy="95.27" r="54.99"/>
	<g>
		<path class="skip-rope-st2" d="M114.9,79.7c-1.49-0.67-11.97-6.76-20.97-16.84c-2.97-3.32-7.26-4.69-11.88-4.69
			c-4.79,0-9.08,1.83-11.55,4.67c-8.95,10.3-19.94,16.18-21.45,16.86c-2.79,1.27-4.2,3.31-3.38,5.88c0.8,2.49,2.8,3.5,6.34,2.95
			c4.86-0.76,11.91-4.7,19.28-10.42l-2,31.12c0.16,3.22,2.06,5.24,5.7,5.24c5.86,0,6.1-7.4,6.03-9.82l1.41,25.66
			c0.41,3.2,2.42,5.38,5.43,5.38c3.04,0,5.03-2.33,5.36-5.54l-0.61-52.07c7.33,5.67,14.5,9.59,19.32,10.43
			c3.49,0.61,5.56-0.47,6.34-2.95C119.09,83.01,117.69,80.97,114.9,79.7z"/>
		<path class="skip-rope-st2" d="M81.97,53.2c6.89,0,12.47-5.58,12.47-12.48c0-6.89-5.58-12.48-12.47-12.48c-6.89,0-12.47,5.59-12.47,12.48
			C69.49,47.62,75.08,53.2,81.97,53.2z"/>
		<path class="skip-rope-st3" d="M93.21,129.3c12.42-4.35,21.33-16.17,21.33-30.08V88.64"/>
		<path class="skip-rope-st3" d="M50.83,88.65v10.58c0,17.59,14.26,31.86,31.86,31.86"/>
	</g>
</g>
</svg>
