<?xml version="1.0" encoding="utf-8"?>
<!-- Generator: Adobe Illustrator 25.4.1, SVG Export Plug-In . SVG Version: 6.00 Build 0)  -->
<svg version="1.1" xmlns="http://www.w3.org/2000/svg" xmlns:xlink="http://www.w3.org/1999/xlink" x="0px" y="0px"
	 viewBox="0 0 163.94 163.94" style="enable-background:new 0 0 163.94 163.94;" xml:space="preserve">
<style type="text/css">
	.tmj-st0{fill:var(--icon-color-primary, #d1e3e5);}
	.tmj-st1{fill:var(--icon-color-secondary, rgba(129,130,133,0.3))}
	.tmj-st2{fill:#FFFFFF;stroke:#313131;stroke-width:2.2677;stroke-linecap:round;stroke-linejoin:round;stroke-miterlimit:10;}
	.tmj-st3{fill:none;stroke:#313131;stroke-width:2.2677;stroke-linecap:round;stroke-linejoin:round;stroke-miterlimit:10;}
</style>
<g id="Layer_4_copy_4">
	<circle class="tmj-st0" cx="46.69" cy="55.08" r="44.16"/>
	<circle class="tmj-st1" cx="106.98" cy="95.27" r="54.99"/>
</g>
<g id="TMJ">
	<g>
		<g>
			<path class="tmj-st2" d="M106.8,129.96c-0.61-3.4-1.55-13.08-1.59-16.4c-0.01-0.66-0.02-1.25-0.04-1.82
				c-0.09-3.4-0.14-5.11,1.69-8.65c0.75-1.45,1.83-3.26,3.08-5.35c3.48-5.81,8.24-13.78,9.87-21.13c1.99-9.01,1.1-17.68-2.58-25.06
				c-3.44-6.9-9.15-12.2-16.1-14.93c-7.25-2.85-14.38-3.73-21.19-2.63c-7.28,1.18-13.99,4.62-19.95,10.21
				c-9.26,8.69-7.68,18.48-7.09,22.17c0.08,0.47,0.16,1.01,0.15,1.16c-0.05,1.01-0.79,2-1.92,3.51c-0.28,0.38-0.57,0.77-0.89,1.2
				c-0.93,1.29-2.13,2.66-3.28,3.98c-2.72,3.12-4.51,5.18-3.65,6.69c0.85,1.49,2.75,2.42,4.44,3.24c0.7,0.34,1.72,0.84,2.03,1.15
				c-0.13,1.62-1.08,2.42-1.92,3.13c-0.71,0.6-1.51,1.28-1.38,2.37c0.13,1.14,1.33,2.36,2.34,3.21c-0.6,0.46-1.25,1.14-1.64,2.08
				c-0.87,2.09,0.44,3.56,1.3,4.53c0.26,0.3,0.7,0.79,0.73,0.97c0.01,0.65-0.18,1.4-0.38,2.2c-0.48,1.87-1.07,4.2,0.39,6.98
				c1.1,2.1,4.55,2.42,8.12,2.45c7.48,0.06,9.49,2.64,10.14,3.48c0.06,0.07,0.11,0.14,0.15,0.19c1.18,1.42,1.5,9.01,1.52,11.52
				L106.8,129.96z"/>
		</g>
		<circle class="tmj-st3" cx="88.15" cy="95.91" r="14.09"/>
		<circle class="tmj-st3" cx="88.15" cy="95.91" r="8.96"/>
	</g>
</g>
</svg>
