<?xml version="1.0" encoding="utf-8"?>
<!-- Generator: Adobe Illustrator 25.4.1, SVG Export Plug-In . SVG Version: 6.00 Build 0)  -->
<svg version="1.1" xmlns="http://www.w3.org/2000/svg" xmlns:xlink="http://www.w3.org/1999/xlink" x="0px" y="0px"
	 viewBox="0 0 163.94 163.94" style="enable-background:new 0 0 163.94 163.94;" xml:space="preserve">
<style type="text/css">
	.veneer-st0{fill:var(--icon-color-primary, #d1e3e5);}
	.veneer-st1{fill:var(--icon-color-secondary, rgba(129,130,133,0.3));}
	.veneer-st2{fill:#FFFFFF;}
	.veneer-st3{fill:none;stroke:#010101;stroke-width:1.8;stroke-linecap:round;stroke-linejoin:round;stroke-miterlimit:10;}
</style>
<g id="Layer_4_copy_5">
</g>
<g id="In">
	<circle class="veneer-st0" cx="46.69" cy="55.08" r="44.16"/>
	<circle class="veneer-st1" cx="106.98" cy="95.27" r="54.99"/>
	<g>
		<g>
			<path class="veneer-st2" d="M127.8,74.82l0.38,0.4c5.78-0.11,11.55-1.67,11.55-4.62c0-19.13-3.01-34.66-11.55-34.66
				c-8.54,0-13.07,17.87-13.07,25.42l0.09,0.09c-0.44-0.05-0.9-0.08-1.37-0.09l0.21-0.07c-1.07-11.04-4.74-25.35-16.68-25.35
				c-13.46,0-15.38,20.37-15.39,31.38c-0.01-11.01-1.92-31.38-15.38-31.38c-15.27,0-16.86,23.53-16.97,33.62
				c-0.04,3.39,2.4,6.1,5.87,6.53c6.7,0.82,17.27,2.15,22.75,0.97c2.05-0.44,3.64-2.16,3.73-4.21c0.09,2.04,1.68,3.76,3.73,4.21
				c3.53,0.76,9.15,0.48,14.49-0.04l-1.48-0.69l1.76,0.38c-1.2,5.4-1.56,11.3-1.65,16.03l0,0l0,0.03c-0.02,0.87-0.02,1.71-0.02,2.49
				l0.01-0.01l0,0.19l-0.01,0c0,0.25,0,0.49,0.01,0.73l-0.01,1l0.02,0c0.02,1.03,0.05,1.98,0.09,2.77c0.09,2.13,1.6,3.93,3.68,4.39
				c5.55,1.23,15.61,1.13,22.39,0.27c1.55-0.2,2.89-0.9,3.91-1.92h0l0.23-23.29l0,0l0,0C128.73,77.85,128.3,76.31,127.8,74.82z"/>
			<path class="veneer-st2" d="M36.12,35.93c-8.82,0-11.93,15.93-11.93,35.36c0,4.32,13.37,4.09,19.41,3.77c1.9-0.1,3.55-1.3,4.21-3.05
				c0.85-2.25,1.8-5.7,1.8-9.92C49.61,54.42,44.94,35.93,36.12,35.93z"/>
		</g>
		<g>
			<path class="veneer-st3" d="M128.88,102.68c-1.02,1.03-2.35,1.73-3.91,1.92c-6.78,0.86-16.84,0.96-22.39-0.27
				c-2.08-0.46-3.59-2.26-3.68-4.39c-0.05-1.22-0.1-2.75-0.1-4.5"/>
			<path class="veneer-st3" d="M98.8,95.26c0.01-11.49,1.31-33.91,14.94-33.91c8.9,0,13.26,8.99,15.38,18.04"/>
			<path class="veneer-st3" d="M81.98,68.54c0,1.67-0.06,3.15,0,4.32c0.09,2.04,1.68,3.76,3.73,4.21c3.53,0.76,9.15,0.48,14.49-0.04"/>
			<path class="veneer-st3" d="M81.98,72.86c-0.09,2.04-1.68,3.76-3.73,4.21c-5.48,1.18-16.06-0.16-22.75-0.97
				c-3.47-0.43-5.91-3.14-5.87-6.53c0.11-10.09,1.7-33.62,16.97-33.62c13.46,0,15.37,20.37,15.38,31.38
				c0.01-11.01,1.93-31.38,15.39-31.38c11.95,0,15.61,14.31,16.68,25.35"/>
			<path class="veneer-st3" d="M115.13,61.35c0-7.55,4.53-25.42,13.07-25.42s11.55,15.53,11.55,34.66c0,2.96-5.77,4.51-11.55,4.62"/>
			<path class="veneer-st3" d="M43.62,75.06c1.9-0.1,3.55-1.3,4.21-3.05c0.85-2.25,1.8-5.7,1.8-9.92c0-7.67-4.67-26.15-13.49-26.15
				c-8.82,0-11.93,15.93-11.93,35.36C24.22,75.61,37.59,75.38,43.62,75.06z"/>
			<path class="veneer-st3" d="M109.71,96.01l-13.67,4.59c-3.51,1.18-6.7,3.13-9.36,5.72l-16.66,21.68"/>
			<polyline class="veneer-st3" points="81.58,128.01 98.16,112.19 106.06,105.2 			"/>
			<path class="veneer-st3" d="M110.2,70.59c0,0-1.32,2.77-1.4,3.58"/>
			<line class="veneer-st3" x1="108" y1="81.4" x2="107.4" y2="89.79"/>
			<line class="veneer-st3" x1="132.82" y1="84.46" x2="132.82" y2="86.77"/>
			<line class="veneer-st3" x1="132.82" y1="96.01" x2="132.82" y2="98.32"/>
			<line class="veneer-st3" x1="139.75" y1="91.39" x2="137.44" y2="91.39"/>
			<line class="veneer-st3" x1="128.2" y1="91.39" x2="125.89" y2="91.39"/>
		</g>
	</g>
</g>
</svg>
