<?xml version="1.0" encoding="utf-8"?>
<!-- Generator: Adobe Illustrator 25.4.1, SVG Export Plug-In . SVG Version: 6.00 Build 0)  -->
<svg version="1.1" xmlns="http://www.w3.org/2000/svg" xmlns:xlink="http://www.w3.org/1999/xlink" x="0px" y="0px"
	 viewBox="0 0 163.94 163.94" style="enable-background:new 0 0 163.94 163.94;" xml:space="preserve">
<style type="text/css">
	.wisdom-teeth-st0{fill:var(--icon-color-primary, #d1e3e5);}
	.wisdom-teeth-st1{fill:var(--icon-color-secondary, rgba(129,130,133,0.3));}
	.wisdom-teeth-st2{fill:#FFFFFF;}
	.wisdom-teeth-st3{fill:#FFFFFF;stroke:#313131;stroke-width:1.8;stroke-linecap:round;stroke-linejoin:round;stroke-miterlimit:10;}
	.wisdom-teeth-st4{fill:none;stroke:#313131;stroke-width:1.8;stroke-linecap:round;stroke-linejoin:round;stroke-miterlimit:10;}
</style>
<g id="Layer_4_copy_5">
</g>
<g id="In">
	<circle class="wisdom-teeth-st0" cx="46.69" cy="55.08" r="44.16"/>
	<circle class="wisdom-teeth-st1" cx="106.98" cy="95.27" r="54.99"/>
	<g>
		<g>
			<line class="wisdom-teeth-st2" x1="50.27" y1="38.21" x2="57.89" y2="42.3"/>
			<g id="XMLID_00000076567463665422481750000009707500535649292937_">
				<g>
					<path class="wisdom-teeth-st2" d="M32.06,71.7C32.06,71.71,32.07,71.71,32.06,71.7c1.61,2.8,2.02,6,1.06,9.02
						c-2.35,7.42-5.65,22.56,0.6,36.42c0.71,1.56,3.3,1.26,3.61-0.4c1.84-9.88,6.39-29.97,12.92-29.75
						c6.53-0.23,11.08,19.87,12.93,29.75c0.31,1.66,2.91,1.96,3.61,0.4c5.95-13.17,3.26-27.51,0.96-35.26
						c-0.12-0.4-0.24-0.79-0.35-1.15c-0.63-1.98-0.67-4.04-0.17-6.01c0.26-1.03,0.67-2.04,1.23-3.01
						c3.9-6.78,10.02-19.99,4.99-29.28c-7.04-13-23.19-4.22-23.19-4.22s-16.15-8.78-23.19,4.22C22.05,51.72,28.16,64.92,32.06,71.7z
						"/>
				</g>
			</g>
		</g>
		<g>
			<line class="wisdom-teeth-st3" x1="50.56" y1="38.31" x2="58.18" y2="42.4"/>
			<g id="XMLID_6_">
				<g>
					<path class="wisdom-teeth-st4" d="M18.58,71.8h13.78c0,0,0,0,0,0.01c1.61,2.79,2.01,5.99,1.06,9.01c-2.35,7.42-5.65,22.56,0.6,36.42
						c0.71,1.56,3.3,1.26,3.61-0.4c1.84-9.88,6.39-29.97,12.92-29.75c6.53-0.23,11.08,19.87,12.93,29.75
						c0.31,1.66,2.91,1.96,3.61,0.4c5.95-13.17,3.26-27.51,0.96-35.26c3.23,8.17,14.88,13.67,21.48,16.21
						c2.87,1.1,5.17,3.09,6.42,5.64c3.08,6.27,10.39,18.3,23.44,24.63c1.47,0.72,3.06-0.8,2.22-2.1
						c-4.98-7.69-14.57-23.75-9.96-26.89c4.33-3.45,20.15,8.01,27.65,13.84c1.26,0.98,3.23-0.12,2.73-1.55
						c-4.48-12.64-16.31-21.34-22.61-25.24c-2.56-1.58-4.31-3.98-4.97-6.7c-0.78-3.18-2.14-7.62-4.37-11.8
						c0,0,12.64-17.09,35.28-16.01"/>
				</g>
				<g>
					<path class="wisdom-teeth-st4" d="M32.36,71.8C32.36,71.8,32.36,71.8,32.36,71.8c1.61,2.8,2.02,6,1.06,9.02c-2.35,7.42-5.65,22.56,0.6,36.42
						c0.71,1.56,3.3,1.26,3.61-0.4c1.84-9.88,6.39-29.97,12.92-29.75c6.53-0.23,11.08,19.87,12.93,29.75
						c0.31,1.66,2.91,1.96,3.61,0.4c5.95-13.17,3.26-27.51,0.96-35.26c-0.12-0.4-0.24-0.79-0.35-1.15
						c-0.63-1.98-0.67-4.04-0.17-6.01c0.26-1.03,0.67-2.04,1.23-3.01c3.9-6.78,10.02-19.99,4.99-29.28
						c-7.04-13-23.19-4.22-23.19-4.22s-16.15-8.78-23.19,4.22C22.34,51.82,28.46,65.02,32.36,71.8z"/>
					<path class="wisdom-teeth-st3" d="M68.06,81.98c3.23,8.17,14.88,13.67,21.48,16.21c2.87,1.1,5.17,3.09,6.42,5.64
						c3.08,6.27,10.39,18.3,23.44,24.63c1.47,0.72,3.06-0.8,2.22-2.1c-4.98-7.69-14.57-23.75-9.96-26.89
						c4.33-3.45,20.15,8.01,27.65,13.84c1.26,0.98,3.23-0.12,2.73-1.55c-4.48-12.64-16.31-21.34-22.61-25.24
						c-2.56-1.58-4.31-3.98-4.97-6.7c-0.78-3.18-2.14-7.62-4.37-11.8c-2.42-4.54-5.87-8.77-10.72-10.76
						c-13.03-5.35-18.54,8.82-18.54,8.82s-11.09,1.43-13.29,8.75c-0.5,1.64-0.54,3.57,0.08,5.85
						C67.73,81.11,67.88,81.54,68.06,81.98z"/>
					<line class="wisdom-teeth-st3" x1="80.82" y1="66.06" x2="88.62" y2="65.01"/>
					<path class="wisdom-teeth-st4" d="M145.36,52c-22.63-1.08-35.28,16.01-35.28,16.01"/>
					<line class="wisdom-teeth-st3" x1="32.36" y1="71.8" x2="18.58" y2="71.8"/>
				</g>
			</g>
		</g>
	</g>
</g>
</svg>
