<?xml version="1.0" encoding="utf-8"?>
<!-- Generator: Adobe Illustrator 25.4.1, SVG Export Plug-In . SVG Version: 6.00 Build 0)  -->
<svg version="1.1" xmlns="http://www.w3.org/2000/svg" xmlns:xlink="http://www.w3.org/1999/xlink" x="0px" y="0px"
	 viewBox="0 0 163.94 163.94" style="enable-background:new 0 0 163.94 163.94;" xml:space="preserve">
<style type="text/css">
	.hands-st0{fill:var(--icon-color-primary, #d1e3e5);}
	.hands-st1{fill:var(--icon-color-secondary, rgba(129,130,133,0.3));}
	.hands-st2{fill:none;stroke:#333333;stroke-width:1.8;stroke-miterlimit:10;}
</style>
<g id="Layer_4_copy_5">
</g>
<g id="In">
	<circle class="hands-st0" cx="46.69" cy="55.08" r="44.16"/>
	<circle class="hands-st1" cx="106.98" cy="95.27" r="54.99"/>
	<g>
		<g>
			<g>
				<path class="hands-st2" d="M115.41,45.98c-2.02,0.18-4.02,1.73-4.14,4.4c-0.21,4.29-0.29,12.32-0.33,19.72"/>
				<g>
					<path class="hands-st2" d="M84.52,123.65c0,0,0.16-9.28,0.36-12.99c0-0.03-0.6-3.4-0.72-4.44c0,0-0.15-2.2-0.1-3.35
						c0.16-3.16,0.66-4.68,1.48-6.64c1.65-3.92,3.53-5.58,8.26-9.32c2.39-1.89,13.42-12.93,15.22-14.88
						c0.84-0.92,1.45-1.48,2.28-2.1c0.42-0.31,0.87-0.58,1.25-0.7c1.89-0.55,3.46-0.25,4.8,1.3c1.13,1.31,1.53,3.39,0.86,5.41
						c-0.25,0.75-0.66,1.43-1.15,2.05c0,0-10.21,13.44-15.15,18.16"/>
					<path class="st2" d="M115.35,69.15l0.06-23.59l0,0.03c0.14-3.15,2.39-5.32,4.91-5.59c2.46-0.26,5.18,1.57,5.56,4.9
						c3.44,17.55-0.19,42.49-0.19,42.49l0,0c-0.58,3.02-2.03,5.8-4.16,8.01c-3.56,3.69-10.02,9.02-14.26,13
						c-0.87,0.82-1.28,2.36-1.54,3.81c-0.22,1.23-0.33,2.49-0.38,3.74l-0.31,8.02"/>
				</g>
			</g>
		</g>
		<g>
			<g>
				<path class="hands-st2" d="M48.53,45.98c2.02,0.18,4.02,1.73,4.14,4.4c0.21,4.29,0.29,12.32,0.33,19.72"/>
				<g>
					<path class="hands-st2" d="M79.42,123.65c0,0-0.16-9.28-0.36-12.99c0-0.03,0.6-3.4,0.72-4.44c0,0,0.15-2.2,0.1-3.35
						c-0.16-3.16-0.66-4.68-1.48-6.64c-1.65-3.92-3.53-5.58-8.26-9.32c-2.39-1.89-13.42-12.93-15.22-14.88
						c-0.84-0.92-1.45-1.48-2.28-2.1c-0.42-0.31-0.87-0.58-1.25-0.7c-1.89-0.55-3.46-0.25-4.8,1.3c-1.13,1.31-1.53,3.39-0.86,5.41
						c0.25,0.75,0.66,1.43,1.15,2.05c0,0,10.21,13.44,15.15,18.16"/>
					<path class="hands-st2" d="M48.59,69.15l-0.06-23.59l0,0.03c-0.14-3.15-2.39-5.32-4.91-5.59c-2.46-0.26-5.18,1.57-5.56,4.9
						c-3.44,17.55,0.19,42.49,0.19,42.49l0,0c0.58,3.02,2.03,5.8,4.16,8.01c3.56,3.69,10.02,9.02,14.26,13
						c0.87,0.82,1.28,2.36,1.54,3.81c0.22,1.23,0.33,2.49,0.38,3.74l0.31,8.02"/>
				</g>
			</g>
		</g>
	</g>
</g>
</svg>
