<?xml version="1.0" encoding="utf-8"?>
<!-- Generator: Adobe Illustrator 25.4.1, SVG Export Plug-In . SVG Version: 6.00 Build 0)  -->
<svg version="1.1" xmlns="http://www.w3.org/2000/svg" xmlns:xlink="http://www.w3.org/1999/xlink" x="0px" y="0px"
	 viewBox="0 0 163.94 163.94" style="enable-background:new 0 0 163.94 163.94;" xml:space="preserve">
<style type="text/css">
	.implant-st0{fill:var(--icon-color-primary, #d1e3e5);}
	.implant-st1{fill:var(--icon-color-secondary, rgba(129,130,133,0.3));}
	.implant-st2{fill:#FFFFFF;stroke:#313131;stroke-width:1.8011;stroke-linecap:round;stroke-linejoin:round;stroke-miterlimit:10;}
	.implant-st3{fill:#FFFFFF;stroke:#313131;stroke-width:1.8;stroke-linecap:round;stroke-linejoin:round;stroke-miterlimit:10;}
</style>
<g id="Layer_4_copy_5">
</g>
<g id="In">
	<circle class="implant-st0" cx="46.69" cy="55.08" r="44.16"/>
	<circle class="implant-st1" cx="106.98" cy="95.27" r="54.99"/>
	<g>
		<polyline class="implant-st2" points="64.8,81.97 71.24,133.49 92.71,133.49 99.15,81.97 		"/>
		<path class="implant-st3" d="M103.55,81.97c1.97,0,3.65-1.35,4.16-3.25c2-7.55,6.46-15.83,6.46-28.95c0-15.85-10.4-19.32-14.54-19.32
			c-7.3,0-9.76,2.68-17.67,2.68s-10.36-2.68-17.67-2.68c-4.13,0-14.54,3.47-14.54,19.32c0,13.12,4.47,21.4,6.46,28.95
			c0.5,1.91,2.19,3.25,4.16,3.25H103.55z"/>
		<line class="implant-st2" x1="62.65" y1="90.56" x2="101.29" y2="90.56"/>
		<line class="implant-st2" x1="63.72" y1="99.15" x2="100.22" y2="99.15"/>
		<line class="implant-st2" x1="64.8" y1="107.73" x2="99.15" y2="107.73"/>
		<line class="implant-st2" x1="65.87" y1="116.32" x2="98.07" y2="116.32"/>
		<line class="implant-st2" x1="66.94" y1="124.91" x2="97" y2="124.91"/>
	</g>
</g>
</svg>
