<?xml version="1.0" encoding="utf-8"?>
<!-- Generator: Adobe Illustrator 25.4.1, SVG Export Plug-In . SVG Version: 6.00 Build 0)  -->
<svg version="1.1" xmlns="http://www.w3.org/2000/svg" xmlns:xlink="http://www.w3.org/1999/xlink" x="0px" y="0px"
	 viewBox="0 0 163.94 163.94" style="enable-background:new 0 0 163.94 163.94;" xml:space="preserve">
<style type="text/css">
	.restoration-st0{fill:var(--icon-color-primary, #d1e3e5);}
	.restoration-st1{fill:var(--icon-color-secondary, rgba(129,130,133,0.3))}
	.restoration-st2{fill:#FFFFFF;stroke:#313131;stroke-width:2.2677;stroke-linecap:round;stroke-linejoin:round;stroke-miterlimit:10;}
</style>
<g id="Layer_4_copy_6">
	<circle class="restoration-st0" cx="46.69" cy="55.08" r="44.16"/>
	<circle class="restoration-st1" cx="106.98" cy="95.27" r="54.99"/>
</g>
<g id="New_Restorations">
	<g>
		<path class="restoration-st2" d="M101.7,99.5V85.17c0-3.24-8.83-5.86-19.73-5.86c-10.89,0-19.73,2.62-19.73,5.86v14.31
			c-3.15,1.38-4.99,3.04-4.9,4.71c0.15,2.87,0.5,7.78,0.5,10.17c0,20.13,8.06,22.45,11.07,21.41c3.3-1.15,1.3-8.24,3.36-16.74
			c1.01-4.18,5.21-7.86,9.69-7.86c4.48,0,8.65,3.84,9.69,7.86c2.21,8.47,0.06,15.6,3.36,16.74c3.01,1.04,11.07-1.28,11.07-21.41
			c0-2.4,0.35-7.26,0.51-10.14C106.68,102.55,104.84,100.88,101.7,99.5z"/>
		<path class="restoration-st2" d="M68.94,90.18c3.17,1.07,7.83,1.75,13.02,1.75c5.09,0,9.67-0.65,12.83-1.69"/>
		<path class="restoration-st2" d="M110.91,41.66c-2.72-14.7-19.93-15.59-28.95-11.76c-9.02-3.82-26.15-2.92-28.95,11.76
			c-1.7,8.91,3.22,17.12,4.09,25.32c0.43,4.06,11.13,7.39,24.87,7.39c13.73,0,24.42-3.33,24.87-7.39
			C107.72,58.97,112.65,51.05,110.91,41.66z"/>
	</g>
</g>
</svg>
