<?xml version="1.0" encoding="utf-8"?>
<!-- Generator: Adobe Illustrator 25.2.0, SVG Export Plug-In . SVG Version: 6.00 Build 0)  -->
<svg version="1.1" xmlns="http://www.w3.org/2000/svg" xmlns:xlink="http://www.w3.org/1999/xlink" x="0px" y="0px"
	 viewBox="0 0 163.9 163.9" style="enable-background:new 0 0 163.9 163.9;" xml:space="preserve">
<style type="text/css">
	.icon-fill{fill:var(--icon-color-primary, #d5dae2);}
	.dental-tools-st1{fill:none;stroke:#313131;stroke-width:1.8;stroke-linecap:round;stroke-linejoin:round;stroke-miterlimit:10;}
</style>
<g id="Layer_33_copy_19">
</g>
<g id="Layer_37">
	<path class="icon-fill" d="M30,53.1L30,53.1l0.3,0.7c0.1,0.3,0.2,0.5,0.3,0.8l26.7,66.8c0.3,1.1,0.8,2.2,1.3,3.3l0,0l0,0
		c3.6,6.8,11.4,10.7,19.3,9c4.8-1,8.7-3.9,11.1-7.8l0,0l41.7-53.2l0-0.1c3.5-4,5.2-9.6,3.9-15.3c-1.5-7-7.1-12.1-13.7-13.4l0,0
		l-0.2,0c0,0,0,0,0,0l-69-13.3c-1.1-0.3-2.2-0.6-3.4-0.7l0,0l0,0c-1.7-0.2-3.5-0.1-5.3,0.3c-9.5,2.1-15.5,11.4-13.4,20.9
		C29.6,51.8,29.8,52.5,30,53.1z"/>
	<g>
		<polyline class="dental-tools-st1" points="59.4,80.3 59.4,59.7 46.7,47 59.4,34.3 		"/>
		<line class="dental-tools-st1" x1="104.7" y1="80.3" x2="104.7" y2="59.7"/>
		<path class="dental-tools-st1" d="M117.1,48.7c-0.7,5.7-5.3,10.2-11,10.9c-8.3,1-15.2-6-14.2-14.3c0.7-5.6,5.3-10.2,10.9-10.9
			C111.2,33.4,118.1,40.4,117.1,48.7z"/>
		<path class="dental-tools-st1" d="M67.2,126.5c0,1.7-1.4,3.1-3.1,3.1h-9.3c-1.7,0-3.1-1.4-3.1-3.1V83.4c0-1.7,1.4-3.1,3.1-3.1h9.3
			c1.7,0,3.1,1.4,3.1,3.1V126.5z"/>
		<path class="dental-tools-st1" d="M112.3,126.5c0,1.7-1.4,3.1-3.1,3.1h-9.3c-1.7,0-3.1-1.4-3.1-3.1V83.4c0-1.7,1.4-3.1,3.1-3.1h9.3
			c1.7,0,3.1,1.4,3.1,3.1V126.5z"/>
	</g>
</g>
</svg>
