<?xml version="1.0" encoding="utf-8"?>
<!-- Generator: Adobe Illustrator 25.2.0, SVG Export Plug-In . SVG Version: 6.00 Build 0)  -->
<svg version="1.1" xmlns="http://www.w3.org/2000/svg" xmlns:xlink="http://www.w3.org/1999/xlink" x="0px" y="0px"
	 viewBox="0 0 163.9 163.9" style="enable-background:new 0 0 163.9 163.9;" xml:space="preserve">
<style type="text/css">
	.icon-fill{fill:var(--icon-color-primary, #d5dae2);}
	.dental-chair-st1{fill:none;stroke:#313131;stroke-width:1.8;stroke-linecap:round;stroke-linejoin:round;stroke-miterlimit:10;}
</style>
<g id="Layer_33_copy_19">
</g>
<g id="Layer_37">
	<path class="icon-fill" d="M30,53.1L30,53.1l0.3,0.7c0.1,0.3,0.2,0.5,0.3,0.8l26.7,66.8c0.3,1.1,0.8,2.2,1.3,3.3l0,0l0,0
		c3.6,6.8,11.4,10.7,19.3,9c4.8-1,8.7-3.9,11.1-7.8l0,0l41.7-53.2l0-0.1c3.5-4,5.2-9.6,3.9-15.3c-1.5-7-7.1-12.1-13.7-13.4l0,0
		l-0.2,0c0,0,0,0,0,0l-69-13.3c-1.1-0.3-2.2-0.6-3.4-0.7l0,0l0,0c-1.7-0.2-3.5-0.1-5.3,0.3c-9.5,2.1-15.5,11.4-13.4,20.9
		C29.6,51.8,29.8,52.5,30,53.1z"/>
	<g>
		<path class="dental-chair-st1" d="M131.7,105c0,0-9.1-9.1-14.4-14.4c-5.3-5.3-8.6-5.5-14.8-5.5c-5.5,0-28-0.3-32.9-0.4
			C66.3,81.6,43,57.9,41.6,56.9c-2.9-2.2-6.8-2.6-9.3,0c-2.6,2.6-2.6,6.8,0,9.3c0,0,23.4,23.4,28.7,28.7c5.3,5.3,9.5,3.7,15.6,3.7
			c3,0,10.5,0,17.2,0l12.3-0.1l16.3,15.8c2.6,2.6,6.8,2.6,9.3,0C134.2,111.8,134.2,107.6,131.7,105z"/>
		<line class="dental-chair-st1" x1="82.9" y1="85.1" x2="91.6" y2="73.2"/>
		<line class="dental-chair-st1" x1="77.6" y1="73.2" x2="105.7" y2="73.2"/>
		<line class="dental-chair-st1" x1="73.7" y1="98.8" x2="73.7" y2="115"/>
		<line class="dental-chair-st1" x1="95.2" y1="98.8" x2="95.2" y2="115"/>
		<path class="dental-chair-st1" d="M105.1,128.7c3.8,0,6.8-3.1,6.8-6.8c0-3.8-3.1-6.8-6.8-6.8H63.8c-3.8,0-6.8,3.1-6.8,6.8
			c0,3.8,3.1,6.8,6.8,6.8H105.1z"/>
		<path class="dental-chair-st1" d="M120.1,77.4V54.1V46c0-5.9-4.8-10.8-10.8-10.8c0,0-11.9,0-19.6,0c-7.7,0-13.4,6.5-13.4,6.5"/>
		<path class="dental-chair-st1" d="M60.2,41.8c4.5-4.5,11.7-4.5,16.1,0c4.5,4.5,4.5,11.7,0,16.1L60.2,41.8z"/>
	</g>
</g>
</svg>
