<?xml version="1.0" encoding="utf-8"?>
<!-- Generator: Adobe Illustrator 25.2.0, SVG Export Plug-In . SVG Version: 6.00 Build 0)  -->
<svg version="1.1" xmlns="http://www.w3.org/2000/svg" xmlns:xlink="http://www.w3.org/1999/xlink" x="0px" y="0px"
	 viewBox="0 0 163.9 163.9" style="enable-background:new 0 0 163.9 163.9;" xml:space="preserve">
<style type="text/css">
	.icon-fill{fill:var(--icon-color-primary, #d5dae2);}
	.family-st1{fill:none;stroke:#313131;stroke-width:1.8;stroke-linecap:round;stroke-linejoin:round;stroke-miterlimit:10;}
</style>
<g id="Layer_33_copy_19">
</g>
<g id="Layer_37">
	<path class="icon-fill" d="M54.2,134L54.2,134l0.7-0.3c0.3-0.1,0.5-0.2,0.8-0.3l65.8-29c1.1-0.4,2.2-0.8,3.2-1.4l0,0l0,0
		c6.7-3.8,10.3-11.8,8.3-19.6c-1.2-4.7-4.3-8.5-8.2-10.8l0,0L70.2,32.7l-0.1,0c-4.2-3.4-9.8-4.8-15.4-3.4c-7,1.8-11.9,7.5-12.9,14.2
		l0,0l0,0.2c0,0,0,0,0,0l-10.8,69.5c-0.3,1.1-0.5,2.3-0.5,3.4l0,0l0,0c-0.1,1.7,0.1,3.5,0.5,5.3c2.4,9.4,12,15,21.4,12.6
		C53,134.4,53.6,134.2,54.2,134z"/>
	<g>
		<g>
			<path class="family-st1" d="M65.5,49.9c6.2,0,11.3-5.5,11.3-12.3c0-6.8-5.1-12.3-11.3-12.3s-11.3,5.5-11.3,12.3
				C54.2,44.4,59.2,49.9,65.5,49.9z"/>
			<path class="family-st1" d="M112.5,83.1c5.2,0,9.4-4.6,9.4-10.2s-4.2-10.2-9.4-10.2c-5.2,0-9.4,4.6-9.4,10.2S107.3,83.1,112.5,83.1z"/>
		</g>
		<g>
			<g>
				<path class="family-st1" d="M119.7,138.5c-1.7,0-3.2-1.2-3.6-2.8l-3.9-15.3l-4,15.3c-0.4,1.7-1.9,2.8-3.6,2.8c-2,0-3.7-1.7-3.7-3.7
					c0-0.2,0-0.4,0-0.4l3.4-30.1l-2.8-2c-4.8,2.2-6.1,2.3-6.4,2.3c-0.9,0-3.1-1.2-6.6-3.7l-1.6-0.3c-0.4,0.1-0.8,0.2-1.2,0.2
					c-3.8,0-7-14.2-10-24.6l-1.4,57.7c0,2.6-2.1,4.6-4.6,4.6c-2.2,0-4.1-1.6-4.5-3.7c0-0.2-5.8-30-5.8-30l-5.9,30
					c-0.4,2.1-2.3,3.7-4.5,3.7c-2.6,0-4.6-2.1-4.6-4.6l0.5-58c0,0-8,24.9-11.9,24.9c-1.6,0-2.7-0.7-3.2-2.1
					c-0.5-1.2-0.5-2.5-0.5-3.5c0-1,1.7-8.8,3.9-16.8c3.8-13.8,6.3-17.8,7.4-19c1.8-1.8,5.6-5.6,18.8-5.6c13.2,0,17,3.8,18.8,5.6
					c1.2,1.2,3.6,5.1,7.4,19c1.6,5.7,2.9,11.6,3.5,14.6l1.4,1.5c1.7,0.5,3.3,0.8,4.7,0.8c1.7,0,3.4-1.5,5.3-3.2
					c2.3-2,4.8-4.3,7.9-4.3l0.3,0c2,0,3.7,0,5.1,0c1.5,0,2.6,0,3.4,0c3.3,0.1,6.4,2.1,8,5l9.2,17.6c0.3,0.5,0.4,1.1,0.4,1.7
					c0,2-1.7,3.7-3.7,3.7c-1.3,0-2.5-0.7-3.2-1.8l-7.3-10.7l2.8,31c0,0,0,0.3,0,0.4C123.4,136.9,121.7,138.5,119.7,138.5z"/>
			</g>
		</g>
		<path class="family-st1" d="M90.4,94.5c0,0-4.6-0.3-2.4,6.1"/>
	</g>
</g>
</svg>
