<?xml version="1.0" encoding="utf-8"?>
<!-- Generator: Adobe Illustrator 25.2.0, SVG Export Plug-In . SVG Version: 6.00 Build 0)  -->
<svg version="1.1" xmlns="http://www.w3.org/2000/svg" xmlns:xlink="http://www.w3.org/1999/xlink" x="0px" y="0px"
	 viewBox="0 0 163.9 163.9" style="enable-background:new 0 0 163.9 163.9;" xml:space="preserve">
<style type="text/css">
	.icon-fill{fill:var(--icon-color-primary, #d5dae2);}
	.financial-st1{fill:none;stroke:#313131;stroke-width:1.8;stroke-linecap:round;stroke-linejoin:round;stroke-miterlimit:10;}
</style>
<g id="Layer_33_copy_19">
</g>
<g id="Layer_37">
	<path class="icon-fill" d="M47.7,41L47.7,41l-0.2,0.8c-0.1,0.3-0.1,0.5-0.2,0.8l-15.6,70.2c-0.4,1.1-0.6,2.3-0.8,3.4l0,0l0,0
		c-0.9,7.7,3.4,15.3,10.9,18.3c4.5,1.8,9.4,1.6,13.5-0.2l0,0l64.4-20.5l0-0.1c5.2-1.4,9.7-5.1,11.8-10.4c2.7-6.7,1-14-3.8-18.8l0,0
		l-0.1-0.1c0,0,0,0,0,0L78.3,34.6c-0.7-0.9-1.5-1.7-2.4-2.5l0,0l0,0c-1.3-1.1-2.9-2-4.6-2.7c-9-3.6-19.2,0.7-22.8,9.7
		C48.1,39.7,47.9,40.4,47.7,41z"/>
	<g>
		<g>
			<g>
				<path class="financial-st1" d="M105.3,91.6c0,0,11.1-8.4,18.7-14.1c6.9-5.2,12.5-4,17.1-0.3c1.1,0.9,1.2,2.6,0.1,3.6l-34.5,32.5
					c-1,1-2.4,1.5-3.8,1.5H55.8"/>
				<path class="financial-st1" d="M38.6,97.5c9.3-11.7,15.7-15.2,25-15.2c7.7,0,11.8,0.9,18.4,5.3c5,0,11.8,0,14.1,0c2.1,0,8.7,0.9,9.6,9.9
					c0.1,1.1-0.8,2.1-1.9,2.1H76.1"/>
				<polyline class="financial-st1" points="21.9,103 33,91.9 64.7,123.5 53.5,134.6 				"/>
				<polyline class="financial-st1" points="21.9,103 33,91.9 64.7,123.5 53.5,134.6 				"/>
				<polyline class="financial-st1" points="21.9,103 33,91.9 64.7,123.5 53.5,134.6 				"/>
			</g>
			<circle class="financial-st1" cx="34.6" cy="108.6" r="2.9"/>
		</g>
		<g>
			<g>
				<circle class="financial-st1" cx="93.1" cy="51.6" r="22.3"/>
				<circle class="financial-st1" cx="93.1" cy="51.6" r="22.3"/>
			</g>
			<g>
				<path class="financial-st1" d="M99.6,45.9c-2.1-5.7-11.8-5-11.9,0.9c0,2.7,3.1,3.9,5.7,4.3c9.5,1.5,6.9,10.5,0,10.1
					c-5.2-0.3-6.7-3.8-6.9-4.6"/>
				<line class="financial-st1" x1="93.6" y1="37.2" x2="93.6" y2="42"/>
				<line class="financial-st1" x1="93.6" y1="61.3" x2="93.6" y2="66.1"/>
			</g>
		</g>
	</g>
</g>
</svg>
