<?xml version="1.0" encoding="utf-8"?>
<!-- Generator: Adobe Illustrator 25.2.0, SVG Export Plug-In . SVG Version: 6.00 Build 0)  -->
<svg version="1.1" xmlns="http://www.w3.org/2000/svg" xmlns:xlink="http://www.w3.org/1999/xlink" x="0px" y="0px"
	 viewBox="0 0 163.9 163.9" style="enable-background:new 0 0 163.9 163.9;" xml:space="preserve">
<style type="text/css">
	.icon-fill{fill:var(--icon-color-primary, #d5dae2);}
	.implant-st1{fill:none;stroke:#313131;stroke-width:1.8011;stroke-linecap:round;stroke-linejoin:round;stroke-miterlimit:10;}
	.implant-st2{fill:none;stroke:#313131;stroke-width:1.8;stroke-linecap:round;stroke-linejoin:round;stroke-miterlimit:10;}
</style>
<g id="Layer_33_copy_19">
</g>
<g id="Layer_37">
	<path class="icon-fill" d="M54.2,134L54.2,134l0.7-0.3c0.3-0.1,0.5-0.2,0.8-0.3l65.8-29c1.1-0.4,2.2-0.8,3.2-1.4l0,0l0,0
		c6.7-3.8,10.3-11.8,8.3-19.6c-1.2-4.7-4.3-8.5-8.2-10.8l0,0L70.2,32.7l-0.1,0c-4.2-3.4-9.8-4.8-15.4-3.4c-7,1.8-11.9,7.5-12.9,14.2
		l0,0l0,0.2c0,0,0,0,0,0l-10.8,69.5c-0.3,1.1-0.5,2.3-0.5,3.4l0,0l0,0c-0.1,1.7,0.1,3.5,0.5,5.3c2.4,9.4,12,15,21.4,12.6
		C53,134.4,53.6,134.2,54.2,134z"/>
	<g>
		<polyline class="implant-st1" points="64.8,82 71.2,133.5 92.7,133.5 99.1,82 		"/>
		<path class="implant-st2" d="M103.6,82c2,0,3.7-1.3,4.2-3.3c2-7.6,6.5-15.8,6.5-29c0-15.8-10.4-19.3-14.5-19.3c-7.3,0-9.8,2.7-17.7,2.7
			s-10.4-2.7-17.7-2.7c-4.1,0-14.5,3.5-14.5,19.3c0,13.1,4.5,21.4,6.5,29c0.5,1.9,2.2,3.3,4.2,3.3H103.6z"/>
		<line class="implant-st1" x1="62.7" y1="90.6" x2="101.3" y2="90.6"/>
		<line class="implant-st1" x1="63.7" y1="99.1" x2="100.2" y2="99.1"/>
		<line class="implant-st1" x1="64.8" y1="107.7" x2="99.1" y2="107.7"/>
		<line class="implant-st1" x1="65.9" y1="116.3" x2="98.1" y2="116.3"/>
		<line class="implant-st1" x1="66.9" y1="124.9" x2="97" y2="124.9"/>
	</g>
</g>
</svg>
