<?xml version="1.0" encoding="utf-8"?>
<!-- Generator: Adobe Illustrator 25.4.1, SVG Export Plug-In . SVG Version: 6.00 Build 0)  -->
<svg version="1.1" id="Layer_35" xmlns="http://www.w3.org/2000/svg" xmlns:xlink="http://www.w3.org/1999/xlink" x="0px" y="0px"
	 viewBox="0 0 163.94 163.94" style="enable-background:new 0 0 163.94 163.94;" xml:space="preserve">
<style type="text/css">
	.icon-fill{fill:var(--icon-color-primary, #d5dae2);}
	.leaf-st1{fill:none;stroke:#333333;stroke-width:1.8;stroke-miterlimit:10;}
</style>
<g id="Layer_33_copy_21">
	<path class="icon-fill" d="M47.74,41.04l-0.01,0l-0.17,0.77c-0.06,0.27-0.13,0.54-0.18,0.81l-15.57,70.19c-0.37,1.13-0.62,2.28-0.76,3.43
		l0,0l0,0c-0.9,7.67,3.35,15.3,10.86,18.32c4.53,1.82,9.38,1.62,13.53-0.18l0,0l64.43-20.47l0.02-0.09
		c5.18-1.36,9.69-5.05,11.84-10.41c2.68-6.67,0.97-14.01-3.76-18.84l0-0.01l-0.15-0.15c0,0,0,0-0.01-0.01L78.25,34.56
		c-0.73-0.89-1.54-1.72-2.45-2.46l0,0l0,0c-1.35-1.11-2.89-2.03-4.59-2.72c-8.99-3.62-19.21,0.74-22.83,9.73
		C48.12,39.75,47.92,40.39,47.74,41.04z"/>
</g>
<g>
	<path class="leaf-st1" d="M53.14,102.91c30.24,16.36,72.06-3.39,72.06-60.67c-14.15,10.02-36.76,4.16-56.28,9.94
		C48.96,58.09,37.28,81.99,53.14,102.91z"/>
	<path class="leaf-st1" d="M45.74,121.7c10.8-46.35,63.1-62.61,63.1-62.61"/>
</g>
</svg>
