<?xml version="1.0" encoding="utf-8"?>
<!-- Generator: Adobe Illustrator 25.2.0, SVG Export Plug-In . SVG Version: 6.00 Build 0)  -->
<svg version="1.1" xmlns="http://www.w3.org/2000/svg" xmlns:xlink="http://www.w3.org/1999/xlink" x="0px" y="0px"
	 viewBox="0 0 163.9 163.9" style="enable-background:new 0 0 163.9 163.9;" xml:space="preserve">
<style type="text/css">
	.icon-fill{fill:var(--icon-color-primary, #d5dae2);}
	.restoration-st1{fill:none;stroke:#313131;stroke-width:1.8;stroke-linecap:round;stroke-linejoin:round;stroke-miterlimit:10;}
</style>
<g id="Layer_33_copy_19">
</g>
<g id="Layer_37">
	<path class="icon-fill" d="M47.7,41L47.7,41l-0.2,0.8c-0.1,0.3-0.1,0.5-0.2,0.8l-15.6,70.2c-0.4,1.1-0.6,2.3-0.8,3.4l0,0l0,0
		c-0.9,7.7,3.4,15.3,10.9,18.3c4.5,1.8,9.4,1.6,13.5-0.2l0,0l64.4-20.5l0-0.1c5.2-1.4,9.7-5.1,11.8-10.4c2.7-6.7,1-14-3.8-18.8l0,0
		l-0.1-0.1c0,0,0,0,0,0L78.3,34.6c-0.7-0.9-1.5-1.7-2.4-2.5l0,0l0,0c-1.3-1.1-2.9-2-4.6-2.7c-9-3.6-19.2,0.7-22.8,9.7
		C48.1,39.7,47.9,40.4,47.7,41z"/>
	<g>
		<path class="restoration-st1" d="M100.4,79.3c-0.3,1.5-0.4,3-0.1,4.6c0.1,0.7,0.3,1.5,0.6,2.2c3.3,9.2,7.9,28-2.1,44.7
			c-0.3,0.5-0.9,0.8-1.5,0.8c-0.8,0-1.6-0.4-1.7-1.1c-2.1-10.5-8.5-37.5-18-37.2c-9.4-0.3-15.8,26.7-18,37.2
			c-0.1,0.7-0.9,1.1-1.7,1.1c-0.6,0-1.2-0.2-1.5-0.8c-9.9-16.7-5.4-35.5-2.1-44.7c0.3-0.7,0.4-1.4,0.6-2.2c0.3-1.5,0.2-3.1-0.1-4.6
			c-0.3-1.4-0.9-2.8-1.8-4.1c-2.1-3.2-4.8-7.7-6.7-12.6l0,0L60,59.3l2.7-6.2l6.3-5.6l-0.8-14.6c5.3,1,9.3,2.8,9.3,2.8
			s21.9-10.4,31.4,5c6.8,10.9-1.5,26.4-6.7,34.4C101.3,76.5,100.7,77.9,100.4,79.3z"/>
		<path class="restoration-st1" d="M68.2,32.9L68.2,32.9c5.3,1,9.3,2.8,9.3,2.8s21.9-10.4,31.4,5c6.8,10.9-1.5,26.4-6.7,34.4
			c-0.9,1.3-1.5,2.7-1.8,4.1c-0.3,1.5-0.4,3-0.1,4.6c0.1,0.7,0.3,1.5,0.6,2.2c3.3,9.2,7.9,28-2.1,44.7c-0.3,0.5-0.9,0.8-1.5,0.8
			c-0.8,0-1.6-0.4-1.7-1.1c-2.1-10.5-8.5-37.5-18-37.2c-9.4-0.3-15.8,26.7-18,37.2c-0.1,0.7-0.9,1.1-1.7,1.1c-0.6,0-1.2-0.2-1.5-0.8
			c-9.9-16.7-5.4-35.5-2.1-44.7c0.3-0.7,0.4-1.4,0.6-2.2c0.3-1.5,0.2-3.1-0.1-4.6c-0.3-1.4-0.9-2.8-1.8-4.1
			c-2.1-3.2-4.8-7.7-6.7-12.6"/>
		<polyline class="restoration-st1" points="46.2,62.6 60,59.3 62.7,53.1 69,47.5 68.2,32.9 68.2,32.9 		"/>
		<polyline class="restoration-st1" points="69,47.5 74,56.7 88.6,57.3 91.4,67.6 		"/>
		<polyline class="restoration-st1" points="144.8,79.3 100.4,79.3 100.2,79.3 100.2,79.3 		"/>
		<polyline class="restoration-st1" points="54.8,79.3 54.8,79.3 54.6,79.3 19.2,79.3 		"/>
	</g>
</g>
</svg>
