<?xml version="1.0" encoding="utf-8"?>
<!-- Generator: Adobe Illustrator 25.4.1, SVG Export Plug-In . SVG Version: 6.00 Build 0)  -->
<svg version="1.1" id="Layer_35" xmlns="http://www.w3.org/2000/svg" xmlns:xlink="http://www.w3.org/1999/xlink" x="0px" y="0px"
	 viewBox="0 0 163.94 163.94" style="enable-background:new 0 0 163.94 163.94;" xml:space="preserve">
<style type="text/css">
	.icon-fill{fill:var(--icon-color-primary, #d5dae2);}
	.tmj-st1{fill:none;stroke:#333333;stroke-width:1.8;stroke-miterlimit:10;}
</style>
<g id="Layer_33_copy_21">
	<path class="icon-fill" d="M47.74,41.04l-0.01,0l-0.17,0.77c-0.06,0.27-0.13,0.54-0.18,0.81l-15.57,70.19c-0.37,1.13-0.62,2.28-0.76,3.43
		l0,0l0,0c-0.9,7.67,3.35,15.3,10.86,18.32c4.53,1.82,9.38,1.62,13.53-0.18l0,0l64.43-20.47l0.02-0.09
		c5.18-1.36,9.69-5.05,11.84-10.41c2.68-6.67,0.97-14.01-3.76-18.84l0-0.01l-0.15-0.15c0,0,0,0-0.01-0.01L78.25,34.56
		c-0.73-0.89-1.54-1.72-2.45-2.46l0,0l0,0c-1.35-1.11-2.89-2.03-4.59-2.72c-8.99-3.62-19.21,0.74-22.83,9.73
		C48.12,39.75,47.92,40.39,47.74,41.04z"/>
</g>
<g>
	<g>
		<path class="tmj-st1" d="M110.3,129.96c-0.61-3.4-1.55-13.08-1.59-16.4c-0.01-0.66-0.02-1.25-0.04-1.82c-0.09-3.4-0.14-5.11,1.69-8.65
			c0.75-1.45,1.83-3.26,3.08-5.35c3.48-5.81,8.24-13.78,9.87-21.13c1.99-9.01,1.1-17.68-2.58-25.06c-3.44-6.9-9.15-12.2-16.1-14.93
			c-7.25-2.85-14.38-3.73-21.19-2.63c-7.28,1.18-13.99,4.62-19.95,10.21c-9.26,8.69-7.68,18.48-7.09,22.17
			c0.08,0.47,0.16,1.01,0.15,1.16c-0.05,1.01-0.79,2-1.92,3.51c-0.28,0.38-0.57,0.77-0.89,1.2c-0.93,1.29-2.13,2.66-3.28,3.98
			c-2.72,3.12-4.51,5.18-3.65,6.69c0.85,1.49,2.75,2.42,4.44,3.24c0.7,0.34,1.72,0.84,2.03,1.15c-0.13,1.62-1.08,2.42-1.92,3.13
			c-0.71,0.6-1.51,1.28-1.38,2.37c0.13,1.14,1.33,2.36,2.34,3.21c-0.6,0.46-1.25,1.14-1.64,2.08c-0.87,2.09,0.44,3.56,1.3,4.53
			c0.26,0.3,0.7,0.79,0.73,0.97c0.01,0.65-0.18,1.4-0.38,2.2c-0.48,1.87-1.07,4.2,0.39,6.98c1.1,2.1,4.55,2.42,8.12,2.45
			c7.48,0.06,9.49,2.64,10.14,3.48c0.06,0.07,0.11,0.14,0.15,0.19c1.18,1.42,1.5,9.01,1.52,11.52L110.3,129.96z"/>
	</g>
	<circle class="tmj-st1" cx="91.65" cy="95.91" r="14.09"/>
	<circle class="tmj-st1" cx="91.65" cy="95.91" r="8.96"/>
</g>
</svg>
