<?xml version="1.0" encoding="utf-8"?>
<!-- Generator: Adobe Illustrator 26.2.0, SVG Export Plug-In . SVG Version: 6.00 Build 0)  -->
<svg version="1.1" id="Layer_1" xmlns="http://www.w3.org/2000/svg" xmlns:xlink="http://www.w3.org/1999/xlink" x="0px" y="0px"
	 viewBox="0 0 130 100.8" style="enable-background:new 0 0 130 100.8;" xml:space="preserve">
<style type="text/css">
	.st0{fill:none;stroke:#000000;stroke-width:4;stroke-miterlimit:10;}
</style>
<g>
	<path class="st0" d="M4,19.6c0,9.8,7.4,16,7.4,16"/>
	<path class="st0" d="M118.6,35.5c0,0,7.4-6.1,7.4-16"/>
	<path class="st0" d="M2.4,72.7L2.4,72.7c-1.9-16.1,8.2-21.4,8.2-21.4"/>
	<path class="st0" d="M119.4,51.3c0,0,10.1,5.3,8.2,21.4"/>
	<g>
		<path class="st0" d="M11.9,47.2c-1.6,2.6-4,10.5-0.1,12c1.8,0.7,3.7-1.8,4.6-3.3"/>
		<g>
			<g>
				<path class="st0" d="M47.8,54.5c3.2,2.6,14.3,2.1,17.2,0.7c0,0,0.6-10.4-2.8-17.3c-2.1-4.2-7.8-4.7-10.5-0.8
					C49.5,40.2,47.4,45.6,47.8,54.5z"/>
			</g>
			<g>
				<path class="st0" d="M65,55.9c0,0,0.4,7.6-1.8,12c-1.3,2.7-5,3-6.7,0.5c-1.4-2-2.7-6.9-2.5-12.6"/>
			</g>
			<g>
				<path class="st0" d="M52.9,57c0,0-0.1,6.8-2.6,10.6c-1.5,2.3-5.1,2.3-6.6-0.1c-1.2-1.9-0.8-8.8-0.2-13.9"/>
			</g>
			<path class="st0" d="M48.3,45.6c0,0-1.4-8.3-7.9-8.9c0,0-5.1,4-3.4,15.4c0,0,0.7,2.6,10.8,2.3"/>
			<path class="st0" d="M36.7,45.3c0,0-1.6-10.3-8.2-10.9c0,0-4.3,4.7-2.6,16.1l2.1,0.6c2.8,0.9,5.7,0.8,8.6-0.4"/>
			<path class="st0" d="M25.8,43.1c0,0-3.8-8.1-6.5-7.5c-1.7,0.4-1.6,7.3-0.7,11.1c0.4,1.9,2.2,3.2,4.1,3.2l1.7-0.1"/>
			<path class="st0" d="M18,42.7c0,0-4.2-9.5-6.8-8.9c-1.7,0.4-1.5,7.1-0.7,10.8c0.4,1.9,2.1,3.2,4,3.1h3.4"/>
			<path class="st0" d="M35.7,52.7c-2,3.2-4.8,13,0.7,14.6c2.6,0.7,4.9-2.5,6.1-4.3"/>
			<path class="st0" d="M27,50.5c-1.8,3.2-4.3,13.1,0.6,14.7c2.3,0.8,4.5-2.5,5.5-4.3"/>
			<path class="st0" d="M18.9,48.3C17,51.5,14.1,61,18.8,62.9c2.2,0.9,4.5-2.2,5.6-4"/>
			<g>
				<path class="st0" d="M82.2,54.5C79,57.1,67.9,56.6,65,55.2c0,0-0.6-10.4,2.8-17.3c2.1-4.2,7.8-4.7,10.5-0.8
					C80.5,40.2,82.6,45.6,82.2,54.5z"/>
			</g>
			<g>
				<path class="st0" d="M65,55.9c0,0-0.4,7.6,1.8,12c1.3,2.7,5,3,6.7,0.5c1.4-2,2.7-6.9,2.5-12.6"/>
			</g>
			<g>
				<path class="st0" d="M77.1,57c0,0,0.1,6.8,2.6,10.6c1.5,2.3,5.1,2.3,6.6-0.1c1.2-1.9,0.8-8.8,0.2-13.9"/>
			</g>
			<path class="st0" d="M81.7,45.6c0,0,1.4-8.3,7.9-8.9c0,0,5.1,4,3.4,15.4c0,0-0.7,2.6-10.8,2.3"/>
			<path class="st0" d="M93.3,45.3c0,0,1.6-10.3,8.2-10.9c0,0,4.3,4.7,2.6,16.1l-2.1,0.6c-2.8,0.9-5.7,0.8-8.6-0.4"/>
			<path class="st0" d="M104.2,43.1c0,0,3.8-8.1,6.5-7.5c1.7,0.4,1.6,7.3,0.7,11.1c-0.4,1.9-2.2,3.2-4.1,3.2l-1.7-0.1"/>
			<path class="st0" d="M112,42.7c0,0,4.2-9.5,6.8-8.9c1.7,0.4,1.5,7.1,0.7,10.8c-0.4,1.9-2.1,3.2-4,3.1h-3.4"/>
			<path class="st0" d="M94.3,52.7c2,3.2,4.8,13-0.7,14.6C91,68,88.7,64.8,87.5,63"/>
			<path class="st0" d="M103,50.5c1.8,3.2,4.3,13.1-0.6,14.7c-2.3,0.8-4.5-2.5-5.5-4.3"/>
			<path class="st0" d="M111.1,48.3c1.9,3.1,4.8,12.7,0.2,14.5c-2.2,0.9-4.5-2.2-5.6-4"/>
			<path class="st0" d="M118.1,47.2c1.6,2.6,4,10.5,0.1,12c-1.8,0.7-3.7-1.8-4.6-3.3"/>
		</g>
	</g>
</g>
</svg>
