<?xml version="1.0" encoding="utf-8"?>
<!-- Generator: Adobe Illustrator 26.2.0, SVG Export Plug-In . SVG Version: 6.00 Build 0)  -->
<svg version="1.1" id="Layer_1" xmlns="http://www.w3.org/2000/svg" xmlns:xlink="http://www.w3.org/1999/xlink" x="0px" y="0px"
	 viewBox="0 0 260 100.8" style="enable-background:new 0 0 260 100.8;" xml:space="preserve">
<style type="text/css">
	.st0{fill:none;stroke:#000000;stroke-width:4;stroke-miterlimit:10;}
</style>
<g>
	<path class="st0" d="M51.9,16.4c0,12.6,9.5,20.4,9.5,20.4"/>
	<path class="st0" d="M198.6,36.8c0,0,9.5-7.8,9.5-20.4"/>
	<path class="st0" d="M49.9,84.4L49.9,84.4C47.4,63.8,60.3,57,60.3,57"/>
	<path class="st0" d="M199.7,57c0,0,12.9,6.8,10.5,27.4"/>
	<g>
		<path class="st0" d="M62,51.7c-2.1,3.3-5.1,13.5-0.2,15.4c2.3,0.9,4.7-2.3,5.9-4.2"/>
		<g>
			<g>
				<path class="st0" d="M107.9,61c4.1,3.3,18.3,2.7,22.1,1c0,0,0.8-13.4-3.6-22.2c-2.7-5.4-10-6-13.5-1
					C110.2,42.8,107.5,49.6,107.9,61z"/>
			</g>
			<g>
				<path class="st0" d="M130,62.9c0,0,0.5,9.8-2.3,15.4c-1.7,3.5-6.4,3.8-8.6,0.6c-1.8-2.5-3.5-8.9-3.2-16.2"/>
			</g>
			<g>
				<path class="st0" d="M114.5,64.3c0,0-0.2,8.7-3.3,13.5c-1.9,2.9-6.5,2.9-8.5-0.1c-1.5-2.4-1.1-11.3-0.3-17.8"/>
			</g>
			<path class="st0" d="M108.7,49.7c0,0-1.7-10.6-10.1-11.3c0,0-6.6,5.1-4.4,19.7c0,0,0.9,3.3,13.8,2.9"/>
			<path class="st0" d="M93.8,49.3c0,0-2.1-13.2-10.5-13.9c0,0-5.5,6-3.4,20.7l2.7,0.8c3.5,1.1,7.4,1,11.1-0.5"/>
			<path class="st0" d="M79.8,46.4c0,0-4.8-10.4-8.3-9.6c-2.2,0.5-2,9.3-0.9,14.2c0.6,2.4,2.8,4.2,5.3,4.1l2.2-0.1"/>
			<path class="st0" d="M69.9,45.9c0,0-5.4-12.1-8.8-11.4c-2.1,0.5-2,9.1-0.9,13.9c0.5,2.4,2.7,4.1,5.2,4h4.4"/>
			<path class="st0" d="M92.4,58.7c-2.6,4.1-6.1,16.7,0.9,18.7c3.3,1,6.3-3.2,7.8-5.5"/>
			<path class="st0" d="M81.4,56c-2.3,4.1-5.5,16.7,0.8,18.8c3,1,5.7-3.2,7.1-5.5"/>
			<path class="st0" d="M71,53.2c-2.5,4-6.2,16.2-0.2,18.6c2.8,1.1,5.7-2.8,7.2-5.1"/>
			<g>
				<path class="st0" d="M152.1,61c-4.1,3.3-18.3,2.7-22.1,1c0,0-0.8-13.4,3.6-22.2c2.7-5.4,10-6,13.5-1
					C149.8,42.8,152.5,49.6,152.1,61z"/>
			</g>
			<g>
				<path class="st0" d="M130,62.9c0,0-0.5,9.8,2.3,15.4c1.7,3.5,6.4,3.8,8.6,0.6c1.8-2.5,3.5-8.9,3.2-16.2"/>
			</g>
			<g>
				<path class="st0" d="M145.5,64.3c0,0,0.2,8.7,3.3,13.5c1.9,2.9,6.5,2.9,8.5-0.1c1.5-2.4,1.1-11.3,0.3-17.8"/>
			</g>
			<path class="st0" d="M151.3,49.7c0,0,1.7-10.6,10.1-11.3c0,0,6.6,5.1,4.4,19.7c0,0-0.9,3.3-13.8,2.9"/>
			<path class="st0" d="M166.2,49.3c0,0,2.1-13.2,10.5-13.9c0,0,5.5,6,3.4,20.7l-2.7,0.8c-3.5,1.1-7.4,1-11.1-0.5"/>
			<path class="st0" d="M180.2,46.4c0,0,4.8-10.4,8.3-9.6c2.2,0.5,2,9.3,0.9,14.2c-0.6,2.4-2.8,4.2-5.3,4.1l-2.2-0.1"/>
			<path class="st0" d="M190.1,45.9c0,0,5.4-12.1,8.8-11.4c2.1,0.5,2,9.1,0.9,13.9c-0.5,2.4-2.7,4.1-5.2,4h-4.4"/>
			<path class="st0" d="M167.6,58.7c2.6,4.1,6.1,16.7-0.9,18.7c-3.3,1-6.3-3.2-7.8-5.5"/>
			<path class="st0" d="M178.6,56c2.3,4.1,5.5,16.7-0.8,18.8c-3,1-5.7-3.2-7.1-5.5"/>
			<path class="st0" d="M189,53.2c2.5,4,6.2,16.2,0.2,18.6c-2.8,1.1-5.7-2.8-7.2-5.1"/>
			<path class="st0" d="M198,51.7c2.1,3.3,5.1,13.5,0.2,15.4c-2.3,0.9-4.7-2.3-5.9-4.2"/>
		</g>
	</g>
</g>
</svg>
