<?xml version="1.0" encoding="utf-8"?>
<!-- Generator: Adobe Illustrator 24.3.0, SVG Export Plug-In . SVG Version: 6.00 Build 0)  -->
<svg version="1.1" id="Layer_1" xmlns="http://www.w3.org/2000/svg" xmlns:xlink="http://www.w3.org/1999/xlink" x="0px" y="0px"
	 viewBox="0 0 130 126.1" style="enable-background:new 0 0 130 126.1;" xml:space="preserve">
<style type="text/css">
	.st0{fill:none;stroke:#292E34;stroke-miterlimit:10;}
	.st1{fill:none;stroke:#292E34;stroke-width:4;}
</style>
<g>
	<polygon class="st0" points="76.5,68.7 76.4,68.7 76.5,68.7 	"/>
	<path class="st0" d="M78,68.7c-1.1-0.1-2.1-0.1-3.2-0.1l0,0C75.9,68.6,77,68.7,78,68.7z"/>
	<g>
		<rect x="2" y="8.4" class="st1" width="94.3" height="21.3"/>
		<line class="st1" x1="96.2" y1="54.6" x2="96.2" y2="37.4"/>
		<polyline class="st1" points="2.1,37.4 2.1,88.8 67.8,88.8 		"/>
		<g>
			<line class="st1" x1="14.2" y1="0" x2="14.2" y2="18.6"/>
			<line class="st1" x1="75.9" y1="0" x2="75.9" y2="18.6"/>
		</g>
	</g>
	<g>
		<line class="st1" x1="17.3" y1="45" x2="22.8" y2="45"/>
		<line class="st1" x1="28.9" y1="45" x2="34.4" y2="45"/>
		<line class="st1" x1="40.6" y1="45" x2="46.1" y2="45"/>
		<line class="st1" x1="52.2" y1="45" x2="57.7" y2="45"/>
		<line class="st1" x1="63.8" y1="45" x2="69.3" y2="45"/>
		<line class="st1" x1="75.5" y1="45" x2="81" y2="45"/>
	</g>
	<g>
		<line class="st1" x1="17.3" y1="56.5" x2="22.8" y2="56.5"/>
		<line class="st1" x1="28.9" y1="56.5" x2="34.4" y2="56.5"/>
		<line class="st1" x1="40.6" y1="56.5" x2="46.1" y2="56.5"/>
		<line class="st1" x1="52.2" y1="56.5" x2="57.7" y2="56.5"/>
		<line class="st1" x1="63.8" y1="56.5" x2="69.3" y2="56.5"/>
		<line class="st1" x1="75.5" y1="56.5" x2="81" y2="56.5"/>
	</g>
	<g>
		<line class="st1" x1="17.3" y1="68" x2="22.8" y2="68"/>
		<line class="st1" x1="28.9" y1="68" x2="34.4" y2="68"/>
		<line class="st1" x1="40.6" y1="68" x2="46.1" y2="68"/>
		<line class="st1" x1="52.2" y1="68" x2="57.7" y2="68"/>
		<line class="st1" x1="63.8" y1="68" x2="69.3" y2="68"/>
	</g>
	<path class="st1" d="M120.8,64.5c-6-3.5-7.6-3.7-16-1.4c-1.3,0.3-2.4,0.5-3.4,0.6c-1-0.1-2.1-0.3-3.4-0.6c-8.4-2.2-10-2.1-16,1.4
		c-5.3,2.8-8.3,10.9-6.8,20c1.7,10.5,5.8,11.3,5.8,22.7c0,11.3,4.1,17,7.4,17c3.3,0,4.9-3.9,8.6-13.6c2.5-6.7,6.2-7.7,9,0
		c3.6,9.7,5.3,13.6,8.6,13.6c3.3,0,7.4-5.7,7.4-17c0-11.4,4-12,5.8-22.7C129.1,75.4,126.1,67.3,120.8,64.5z"/>
</g>
</svg>
