<?xml version="1.0" encoding="utf-8"?>
<!-- Generator: Adobe Illustrator 24.3.0, SVG Export Plug-In . SVG Version: 6.00 Build 0)  -->
<svg version="1.1" id="Layer_1" xmlns="http://www.w3.org/2000/svg" xmlns:xlink="http://www.w3.org/1999/xlink" x="0px" y="0px"
	 viewBox="0 0 130 129.8" style="enable-background:new 0 0 130 129.8;" xml:space="preserve">
<style type="text/css">
	.st0{fill:none;stroke:#292E34;stroke-width:4;}
</style>
<g>
	<g>
		<g>
			<path class="st0" d="M23.7,76.1V58.7C23,54.3,19.9,50,15.5,50l-2.6,0c-0.1,0-0.2,0-0.3,0"/>
			<path class="st0" d="M25.7,111.8L2.4,72.1L2,40.8c0.1,0,0.2,0,0.3,0l2.6,0c4.4,0,7.5,4.2,8.2,8.7v17.4l6.4,6.9L38,92.3l0,0
				L26.6,80.8c-2.8-3-1.9-8.6,1.1-11.5c0,0,0.7-0.6,0.8-0.7l20.3,20.6l2.6,13.2v13.7"/>
			<line class="st0" x1="59.8" y1="116.9" x2="18.9" y2="116.9"/>
		</g>
		<g>
			<path class="st0" d="M106.3,76.1V58.7c0.7-4.4,3.8-8.7,8.2-8.7l2.6,0c0.1,0,0.2,0,0.3,0"/>
			<path class="st0" d="M104.3,111.8l23.4-39.7l0.3-31.3c-0.1,0-0.2,0-0.3,0l-2.6,0c-4.4,0-7.5,4.2-8.2,8.7v17.4l-6.4,6.9L92,92.3
				l0,0l11.4-11.5c2.8-3,1.9-8.6-1.1-11.5c0,0-0.7-0.6-0.8-0.7L81.2,89.1l-2.6,13.2v13.7"/>
			<line class="st0" x1="70.2" y1="116.9" x2="111.1" y2="116.9"/>
		</g>
	</g>
	<line class="st0" x1="50.1" y1="124.5" x2="50.1" y2="129.8"/>
	<line class="st0" x1="79.5" y1="124.5" x2="79.5" y2="129.8"/>
	<path class="st0" d="M90.5,16c-1.3-2.7-3.1-4.7-5.3-5.9c-6.3-3.7-7.9-3.8-16.7-1.5C67.2,8.9,66,9.2,65,9.3c-1-0.1-2.2-0.3-3.5-0.7
		C52.7,6.3,51,6.4,44.8,10.1c-5.5,2.9-8.7,11.4-7.1,21c1.8,11,6,11.8,6,23.7c0,11.9,4.3,17.8,7.7,17.8c3.4,0,5.2-4.1,8.9-14.2
		c2.6-7,6.4-8.1,9.4,0c3.8,10.2,5.5,14.2,8.9,14.2c3.4,0,7.7-5.9,7.7-17.8c0-11.9,4.2-12.6,6-23.7"/>
	<polygon class="st0" points="104.3,5.6 109.1,18.2 121.6,23.1 109.1,28 104.3,40.6 99.4,28 87,23.1 99.4,18.2 	"/>
	<g>
		<line class="st0" x1="17.8" y1="28.6" x2="27.4" y2="38.3"/>
		<line class="st0" x1="27.4" y1="28.6" x2="17.8" y2="38.3"/>
	</g>
</g>
</svg>
