<?xml version="1.0" encoding="utf-8"?>
<!-- Generator: Adobe Illustrator 26.2.0, SVG Export Plug-In . SVG Version: 6.00 Build 0)  -->
<svg version="1.1" id="Layer_1" xmlns="http://www.w3.org/2000/svg" xmlns:xlink="http://www.w3.org/1999/xlink" x="0px" y="0px"
	 viewBox="0 0 130 100.8" style="enable-background:new 0 0 130 100.8;" xml:space="preserve">
<style type="text/css">
	.st0{fill:none;stroke:#000000;stroke-width:4;}
</style>
<g>
	<path class="st0" d="M81.6,26.2c-5.1-3-6.5-3.1-13.6-1.3c-1,0.2-2.1,0.5-2.9,0.6c-0.8-0.1-1.8-0.2-2.9-0.6
		c-7.2-1.8-8.5-1.7-13.6,1.3c-4.5,2.4-7,9.2-5.8,17c1.5,9,5,9.6,5,19.3s3.5,14.4,6.2,14.4c2.8,0,4.2-3.3,7.3-11.6
		c2.1-5.7,5.2-6.6,7.6,0c3.1,8.3,4.5,11.6,7.3,11.6s6.2-4.9,6.2-14.4c0-9.7,3.5-10.3,5-19.3C88.6,35.6,86.1,28.7,81.6,26.2z"/>
	<path class="st0" d="M128.4,25.1c-3.5-1.7-5.4-1.6-11.4,0c-1,0.2-2.1,0.5-2.9,0.6c-0.8-0.1-1.8-0.2-2.9-0.6
		c-7.2-1.8-8.5-1.7-13.6,1.3c-4.5,2.4-7,9.2-5.8,17c1.5,9,5,9.6,5,19.3s3.5,14.4,6.2,14.4c2.8,0,4.2-3.3,7.3-11.6
		c2.1-5.7,5.2-6.6,7.6,0c3.1,8.3,4.5,11.6,7.3,11.6c0.9,0,1.8-0.5,2.8-1.5"/>
	<path class="st0" d="M1.6,74.9c1,1.5,2.2,2.2,3.3,2.2c2.8,0,4.2-3.3,7.3-11.6c2.1-5.7,5.2-6.6,7.6,0c3.1,8.3,4.5,11.6,7.3,11.6
		s6.2-4.9,6.2-14.4c0-9.7,3.5-10.3,5-19.3c1.3-7.7-1.3-14.7-5.8-17c-5.1-3-6.5-3.1-13.6-1.3c-1,0.2-2.1,0.5-2.9,0.6
		c-0.8-0.1-1.8-0.2-2.9-0.6C7.3,23.5,5.3,23.3,2,25"/>
</g>
</svg>
