<?xml version="1.0" encoding="utf-8"?>
<!-- Generator: Adobe Illustrator 24.3.0, SVG Export Plug-In . SVG Version: 6.00 Build 0)  -->
<svg version="1.1" id="Layer_1" xmlns="http://www.w3.org/2000/svg" xmlns:xlink="http://www.w3.org/1999/xlink" x="0px" y="0px"
	 viewBox="0 0 118.2 130" style="enable-background:new 0 0 118.2 130;" xml:space="preserve">
<style type="text/css">
	.st0{fill:none;stroke:#292E34;stroke-width:4;}
</style>
<g>
	<path class="st0" d="M21.8,58.3c-0.6,3.9-0.7,8.2,0.1,12.6c2.5,15.1,8.2,16.2,8.2,32.6c0,16.3,5.8,24.5,10.5,24.5
		c4.7,0,7-5.6,12.1-19.6c3.5-9.6,8.7-11.1,12.8,0c5.1,14,7.5,19.6,12.1,19.6c4.7,0,10.5-8.1,10.5-24.5c0-16.4,5.7-17.3,8.2-32.6
		c0.7-4.2,0.7-8.2,0.2-11.9"/>
	<g>
		<polyline class="st0" points="23.2,42.8 23.2,50.8 59.1,50.8 95,50.8 95,42.8 		"/>
		<g>
			<polyline class="st0" points="22.7,19.1 32.2,7.2 43.7,19.1 			"/>
		</g>
		<g>
			<polyline class="st0" points="95.8,19.1 86.4,7.2 74.8,19.1 			"/>
		</g>
		<polygon class="st0" points="83.9,31.3 59.1,3 34.3,31.3 10.8,11.4 22.3,41.6 59.1,41.6 95.8,41.6 107.3,11.4 		"/>
	</g>
	<g>
		<g>
			<g>
				<line class="st0" x1="105.7" y1="103.4" x2="97.5" y2="97"/>
			</g>
			<g>
				<line class="st0" x1="115.3" y1="84.8" x2="105.5" y2="81.7"/>
			</g>
			<g>
				<line class="st0" x1="118.1" y1="64.1" x2="107.7" y2="64.5"/>
			</g>
			<g>
				<line class="st0" x1="113.6" y1="43.7" x2="104" y2="47.6"/>
			</g>
		</g>
		<g>
			<g>
				<line class="st0" x1="12.5" y1="103.4" x2="20.7" y2="97"/>
			</g>
			<g>
				<line class="st0" x1="2.8" y1="84.8" x2="12.7" y2="81.7"/>
			</g>
			<g>
				<line class="st0" x1="0.1" y1="64.1" x2="10.4" y2="64.5"/>
			</g>
			<g>
				<line class="st0" x1="4.6" y1="43.7" x2="14.2" y2="47.6"/>
			</g>
		</g>
	</g>
</g>
</svg>
