<?xml version="1.0" encoding="utf-8"?>
<!-- Generator: Adobe Illustrator 26.2.0, SVG Export Plug-In . SVG Version: 6.00 Build 0)  -->
<svg version="1.1" id="Layer_1" xmlns="http://www.w3.org/2000/svg" xmlns:xlink="http://www.w3.org/1999/xlink" x="0px" y="0px"
	 viewBox="0 0 260 100.8" style="enable-background:new 0 0 260 100.8;" xml:space="preserve">
<style type="text/css">
	.st0{fill:none;stroke:#000000;stroke-width:4;}
</style>
<g>
	<path class="st0" d="M153.4,16.2c-7.2-4.3-9.2-4.3-19.2-1.8c-1.4,0.2-3,0.7-4.1,0.8c-1.1-0.2-2.5-0.2-4.1-0.8
		c-10.2-2.5-12-2.4-19.2,1.8c-6.4,3.4-9.9,13-8.2,24c2.1,12.7,7.1,13.5,7.1,27.2s4.9,20.3,8.8,20.3s5.9-4.7,10.3-16.4
		c3-8,7.4-9.3,10.7,0c4.3,11.7,6.4,16.4,10.3,16.4c3.9,0,8.8-6.9,8.8-20.3c0-13.7,4.9-14.5,7.1-27.2
		C163.4,29.5,159.8,19.7,153.4,16.2z"/>
	<path class="st0" d="M219.5,14.6c-4.9-2.4-7.6-2.3-16.1,0c-1.4,0.2-3,0.7-4.1,0.8c-1.1-0.2-2.5-0.2-4.1-0.8
		c-10.2-2.5-12-2.4-19.2,1.8c-6.4,3.4-9.9,13-8.2,24c2.1,12.7,7.1,13.5,7.1,27.2s4.9,20.3,8.8,20.3c3.9,0,5.9-4.7,10.3-16.4
		c3-8,7.4-9.3,10.7,0c4.3,11.7,6.4,16.4,10.3,16.4c1.3,0,2.5-0.7,3.9-2.1"/>
	<path class="st0" d="M40.5,85c1.4,2.1,3.1,3.1,4.7,3.1c3.9,0,5.9-4.7,10.3-16.4c3-8,7.4-9.3,10.7,0c4.3,11.7,6.4,16.4,10.3,16.4
		s8.8-6.9,8.8-20.3c0-13.7,4.9-14.5,7.1-27.2c1.7-10.9-1.9-20.8-8.3-24.1c-7.2-4.3-9.2-4.3-19.2-1.8c-1.4,0.2-3,0.7-4.1,0.8
		c-1.1-0.2-2.5-0.2-4.1-0.8c-8.2-2.3-11-2.5-15.7-0.2"/>
</g>
</svg>
