<?xml version="1.0" encoding="utf-8"?>
<!-- Generator: Adobe Illustrator 24.3.0, SVG Export Plug-In . SVG Version: 6.00 Build 0)  -->
<svg version="1.1" id="Layer_1" xmlns="http://www.w3.org/2000/svg" xmlns:xlink="http://www.w3.org/1999/xlink" x="0px" y="0px"
	 viewBox="0 0 131.3 129.9" style="enable-background:new 0 0 131.3 129.9;" xml:space="preserve">
<style type="text/css">
	.st0{fill:none;stroke:#292E34;stroke-width:4;}
</style>
<g>
	<g>
		<polyline class="st0" points="41.1,41.8 22.6,23.5 7.5,23.5 7.5,1.5 		"/>
		<path class="st0" d="M76.3,84.8l42.4,41.9c1.2,1.1,3,1.1,4.2,0l4.2-4.1c1.2-1.1,1.2-3,0-4.1L85.2,77"/>
		<path class="st0" d="M64.7,77.4l7.9,7.8c1.2,1.1,3,1.1,4.2,0l8.3-8.2c1.2-1.1,1.2-3,0-4.1l-8.8-8.7"/>
		<path class="st0" d="M66.4,54.4L49.7,37.9c-1.2-1.1-3-1.1-4.2,0l-8.3,8.2c-1.1,1.1-1.1,3,0,4.1l16,15.8"/>
	</g>
	<g>
		<line class="st0" x1="97" y1="33.9" x2="86.9" y2="44"/>
		<path class="st0" d="M16.7,127.1c-1,1.1-3,1-4.3-0.3c-3.2-3-6.3-6.1-9.4-9.3c-1.3-1.3-1.4-3.2-0.3-4.2
			c25.5-23.6,50.9-47.1,76.4-70.7c1.1-1,2.7-1.2,3.5-0.3c2,2,4,4,6,5.9c0.8,0.8,0.7,2.3-0.3,3.4C64.4,76.8,40.6,101.9,16.7,127.1z"
			/>
		<line class="st0" x1="74.1" y1="48.6" x2="83.8" y2="58.3"/>
		<line class="st0" x1="12.6" y1="113.3" x2="22.3" y2="122.9"/>
		<path class="st0" d="M123.8,33.9c-7.4,7.3-19.3,7.3-26.7,0c-7.4-7.3-7.4-19.1,0-26.4c7.4-7.3,19.3-7.3,26.7,0
			C131.1,14.8,131.1,26.6,123.8,33.9z"/>
	</g>
</g>
</svg>
