<?xml version="1.0" encoding="utf-8"?>
<!-- Generator: Adobe Illustrator 24.3.0, SVG Export Plug-In . SVG Version: 6.00 Build 0)  -->
<svg version="1.1" id="Layer_1" xmlns="http://www.w3.org/2000/svg" xmlns:xlink="http://www.w3.org/1999/xlink" x="0px" y="0px"
	 viewBox="0 0 122.4 130" style="enable-background:new 0 0 122.4 130;" xml:space="preserve">
<style type="text/css">
	.st0{fill:none;stroke:#292E34;stroke-width:4;}
</style>
<g>
	<g>
		<polyline class="st0" points="53.2,7.1 48.8,9.2 19.1,23.4 		"/>
		<polyline class="st0" points="59.7,55.5 71.5,31.6 73.6,27.2 		"/>
	</g>
	<polyline class="st0" points="66.2,12.6 76.9,2 120.4,2 	"/>
	<g>
		<path class="st0" d="M111.7,114.5c-2.2,0-4.5-0.8-6.2-2.5L82.2,88.9H46.5L18.1,60.8c-3.4-3.4-3.4-8.8,0-12.2
			c3.4-3.4,8.9-3.4,12.3,0l23.3,23.1h35.7l28.4,28.1c3.4,3.4,3.4,8.8,0,12.2C116.2,113.7,113.9,114.5,111.7,114.5z"/>
	</g>
	<g>
		<path class="st0" d="M13,49c-3.4,0-6.6-2-8-5.3l-2.3-5.5C0.8,33.9,2.9,28.8,7.3,27c4.4-1.8,9.5,0.2,11.4,4.6L21,37
			c1.9,4.4-0.2,9.4-4.6,11.3C15.3,48.8,14.2,49,13,49z"/>
	</g>
	<polyline class="st0" points="50.1,118.1 50.1,96.7 78.7,96.7 78.7,118.1 	"/>
	<polyline class="st0" points="72.4,118.3 84,118.3 84,128 44.8,128 44.8,118.3 62.6,118.3 65.3,118.3 	"/>
	<line class="st0" x1="52.7" y1="60.9" x2="84.8" y2="60.9"/>
	<g>
		<line class="st0" x1="58.9" y1="80.3" x2="58.9" y2="63.1"/>
		<line class="st0" x1="78.7" y1="80.3" x2="78.7" y2="63.1"/>
	</g>
	<path class="st0" d="M47.9,3.1L77.1,32c1.8-7.8-0.4-16.3-6.5-22.4C64.4,3.5,55.8,1.4,47.9,3.1z"/>
</g>
</svg>
