<?xml version="1.0" encoding="utf-8"?>
<!-- Generator: Adobe Illustrator 24.3.0, SVG Export Plug-In . SVG Version: 6.00 Build 0)  -->
<svg version="1.1" id="Layer_1" xmlns="http://www.w3.org/2000/svg" xmlns:xlink="http://www.w3.org/1999/xlink" x="0px" y="0px"
	 viewBox="0 0 130 124.9" style="enable-background:new 0 0 130 124.9;" xml:space="preserve">
<style type="text/css">
	.st0{fill:none;stroke:#292E34;stroke-width:4;}
	.st1{fill:none;stroke:#292E34;stroke-width:4;stroke-dasharray:3.7635,3.7635;}
</style>
<g>
	<path class="st0" d="M56.3,21.5c-1.1,0.3-2.3,0.6-3.6,0.9c-2.1,0.5-4,0.9-5.7,1.1c-1.7-0.2-3.6-0.5-5.7-1.1
		c-14.3-3.7-16.9-3.4-27.1,2.4C5.2,29.3,0.1,42.7,2.7,57.6c3,17.3,9.8,18.5,9.8,37.3c0,18.7,6.9,28,12.5,28c5.6,0,8.4-6.4,14.5-22.4
		c4.2-11,10.4-12.7,15.3,0c6.1,16,8.9,22.4,14.5,22.4c5.6,0,12.5-9.3,12.5-28c0-7.3,1-11.9,2.5-15.9"/>
	<g>
		<g>
			<g>
				<g>
					<g>
						<path class="st0" d="M89.7,2C68.5,2,51.4,19.3,51.4,40.7c0,9.5,3.4,18.3,9.1,25l-3.9,12l11.2-5.3c6.2,4.4,13.7,7,21.9,7
							c21.2,0,38.3-17.3,38.3-38.7"/>
					</g>
				</g>
			</g>
		</g>
		<g>
			<path class="st0" d="M128,40.7c0-0.7,0-1.3-0.1-2"/>
			<path class="st1" d="M127.6,34.9C125,17.6,111,4,93.6,2.2"/>
			<path class="st0" d="M91.7,2.1C91,2,90.4,2,89.7,2"/>
		</g>
	</g>
	<polygon class="st0" points="107.8,34.9 95.5,34.9 95.5,22.4 83.9,22.4 83.9,34.9 71.6,34.9 71.6,46.5 83.9,46.5 83.9,58.9 
		95.5,58.9 95.5,46.5 107.8,46.5 	"/>
</g>
</svg>
