<?xml version="1.0" encoding="utf-8"?>
<!-- Generator: Adobe Illustrator 24.3.0, SVG Export Plug-In . SVG Version: 6.00 Build 0)  -->
<svg version="1.1" id="Layer_1" xmlns="http://www.w3.org/2000/svg" xmlns:xlink="http://www.w3.org/1999/xlink" x="0px" y="0px"
	 viewBox="0 0 121.1 130" style="enable-background:new 0 0 121.1 130;" xml:space="preserve">
<style type="text/css">
	.st0{fill:none;stroke:#292E34;stroke-width:4;}
	.st1{fill:none;stroke:#292E34;stroke-width:4;stroke-dasharray:4.0248,4.0248;}
</style>
<g>
	<path class="st0" d="M79.5,117.1c4.6,0,10.3-8.1,10.3-24.2c0-16.2,5.6-17.1,8.1-32.3c2.1-13-2.1-24.5-9.5-28.5
		c-8.4-5-10.6-5.2-22.4-2c-1.8,0.5-3.3,0.8-4.7,0.9c-1.4-0.2-3-0.4-4.7-0.9c-11.8-3.2-14-3-22.4,2c-7.4,4-11.6,15.5-9.5,28.5
		c2.4,15,8.1,16,8.1,32.3c0,16.1,5.7,24.2,10.3,24.2"/>
	<polygon class="st0" points="53.2,128 46.9,80.2 53.2,74.3 69.4,74.3 75.7,80.2 69.4,128 	"/>
	<g>
		<line class="st0" x1="68.7" y1="88.7" x2="80.3" y2="86.5"/>
		<line class="st0" x1="43.7" y1="93.4" x2="61" y2="90.1"/>
	</g>
	<g>
		<line class="st0" x1="67.8" y1="100.5" x2="77.9" y2="98.2"/>
		<line class="st0" x1="46" y1="105.5" x2="61.1" y2="102"/>
	</g>
	<g>
		<line class="st0" x1="66.8" y1="112.3" x2="75" y2="109.9"/>
		<line class="st0" x1="48.9" y1="117.6" x2="61.3" y2="113.9"/>
	</g>
	<line class="st0" x1="47.8" y1="81.9" x2="61.7" y2="81.9"/>
	<g>
		<path class="st0" d="M96,106c0.5-0.4,1.1-0.8,1.6-1.2"/>
		<path class="st1" d="M100.6,102.2C112,91.6,119.1,76.6,119.1,60c0-32-26.2-58-58.5-58C28.2,2,2,27.9,2,60
			c0,17.4,7.7,32.9,19.9,43.6"/>
		<path class="st0" d="M23.5,104.8c0.5,0.4,1,0.8,1.6,1.2"/>
	</g>
</g>
</svg>
