<?xml version="1.0" encoding="utf-8"?>
<!-- Generator: Adobe Illustrator 24.3.0, SVG Export Plug-In . SVG Version: 6.00 Build 0)  -->
<svg version="1.1" id="Layer_1" xmlns="http://www.w3.org/2000/svg" xmlns:xlink="http://www.w3.org/1999/xlink" x="0px" y="0px"
	 viewBox="0 0 117.6 130" style="enable-background:new 0 0 117.6 130;" xml:space="preserve">
<style type="text/css">
	.st0{fill:none;stroke:#292E34;stroke-width:4;}
</style>
<g>
	<path class="st0" d="M74.4,42.6c-4.8-2.8-6.1-2.9-12.9-1.1c-1,0.3-1.9,0.4-2.7,0.5c-0.8-0.1-1.7-0.2-2.7-0.5
		c-6.8-1.8-8-1.7-12.9,1.1c-4.2,2.2-6.7,8.6-5.5,15.8c1.4,8.3,4.6,8.9,4.6,17.9c0,9,3.3,13.4,5.9,13.4c2.6,0,4-3.1,6.9-10.7
		c2-5.3,4.9-6.1,7.2,0c2.9,7.7,4.2,10.7,6.9,10.7c2.6,0,5.9-4.5,5.9-13.4c0-9,3.2-9.5,4.6-17.9C81.1,51.2,78.6,44.8,74.4,42.6z"/>
	<path class="st0" d="M55.2,126.9C32.3,120.3,2,107,2,67.9V17.2L58.8,2.1l56.8,15.2v50.6c0,39.1-30.3,52.4-53.2,59l-3.6,1
		L55.2,126.9z"/>
	<path class="st0" d="M33.3,104c-13-8.7-18.8-20.3-18.8-36.5V26"/>
	<path class="st0" d="M57.5,13.1l46,12.3v42.5c0,31.7-24.3,42.7-45.5,48.8l-0.6,0.2l-0.6-0.2"/>
</g>
</svg>
