<?xml version="1.0" encoding="utf-8"?>
<!-- Generator: Adobe Illustrator 24.3.0, SVG Export Plug-In . SVG Version: 6.00 Build 0)  -->
<svg version="1.1" id="Layer_1" xmlns="http://www.w3.org/2000/svg" xmlns:xlink="http://www.w3.org/1999/xlink" x="0px" y="0px"
	 viewBox="0 0 130 95.5" style="enable-background:new 0 0 130 95.5;" xml:space="preserve">
<style type="text/css">
	.st0{fill:none;stroke:#292E34;stroke-width:4;}
</style>
<g>
	<g>
		<g>
			<line class="st0" x1="130" y1="32.5" x2="115.9" y2="32.5"/>
			<line class="st0" x1="124.6" y1="1.9" x2="111.3" y2="6.7"/>
			<line class="st0" x1="124.7" y1="63.1" x2="111.4" y2="58.2"/>
			<line class="st0" x1="130" y1="32.5" x2="115.9" y2="32.5"/>
		</g>
		<g>
			<line class="st0" x1="0" y1="32.5" x2="14.1" y2="32.5"/>
			<line class="st0" x1="5.4" y1="1.9" x2="18.7" y2="6.7"/>
			<line class="st0" x1="5.3" y1="63.1" x2="18.6" y2="58.2"/>
			<line class="st0" x1="0" y1="32.5" x2="14.1" y2="32.5"/>
		</g>
	</g>
	<path class="st0" d="M90.8,13.9C82.8,9.2,80.7,9,69.5,12c-1.7,0.4-3.2,0.7-4.5,0.9c-1.3-0.1-2.8-0.4-4.5-0.9
		c-11.2-3-13.3-2.8-21.3,1.9c-7,3.7-11.1,14.5-9.1,26.7c2.3,14,7.7,15,7.7,30.2c0,15.1,5.4,22.7,9.8,22.7s6.6-5.2,11.4-18.1
		c3.3-8.9,8.2-10.3,12,0c4.8,13,7,18.1,11.4,18.1c4.4,0,9.8-7.5,9.8-22.7c0-15.2,5.4-16,7.7-30.2C101.9,28.4,97.9,17.6,90.8,13.9z"
		/>
	<g>
		<line class="st0" x1="52" y1="23.9" x2="42.3" y2="23.9"/>
		<line class="st0" x1="87.7" y1="23.9" x2="78" y2="23.9"/>
		<path class="st0" d="M46.5,37c0.5,11.5,8.7,20.7,18.8,20.7c10.1,0,18.4-9.2,18.8-20.7H46.5z"/>
	</g>
</g>
</svg>
