<?xml version="1.0" encoding="utf-8"?>
<!-- Generator: Adobe Illustrator 26.2.1, SVG Export Plug-In . SVG Version: 6.00 Build 0)  -->
<svg version="1.1" id="Layer_1" xmlns="http://www.w3.org/2000/svg" xmlns:xlink="http://www.w3.org/1999/xlink" x="0px" y="0px"
	 viewBox="0 0 131.3 129.9" style="enable-background:new 0 0 131.3 129.9;" xml:space="preserve">
<style type="text/css">
	.st0{fill:none;stroke:#000000;stroke-width:4;stroke-miterlimit:10;}
</style>
<g>
	<g>
		<g>
			<g>
				<rect x="61.7" y="4.5" class="st0" width="39" height="11.6"/>
			</g>
		</g>
		<path class="st0" d="M54.1,36.9c7.7-5.2,17-8.3,27.1-8.3c26.7,0,48.4,21.7,48.4,48.4s-21.7,48.4-48.4,48.4
			c-11.8,0-22.6-4.2-31-11.2"/>
		<line class="st0" x1="129.6" y1="39.1" x2="119.1" y2="28.6"/>
		<line class="st0" x1="32.8" y1="39.1" x2="43.3" y2="28.6"/>
		<line class="st0" x1="81.2" y1="77" x2="107.7" y2="50.5"/>
		<line class="st0" x1="81.2" y1="16" x2="81.2" y2="28.7"/>
	</g>
	<line class="st0" x1="61.7" y1="66.8" x2="22.2" y2="66.8"/>
	<line class="st0" x1="11.8" y1="66.8" x2="1.7" y2="66.8"/>
	<line class="st0" x1="25" y1="100.4" x2="67.1" y2="100.4"/>
	<line class="st0" x1="10.7" y1="100.4" x2="15.8" y2="100.4"/>
	<line class="st0" x1="50.2" y1="83.6" x2="15.8" y2="83.6"/>
	<line class="st0" x1="73.6" y1="50.1" x2="19.4" y2="50.1"/>
</g>
</svg>
