<?xml version="1.0" encoding="utf-8"?>
<!-- Generator: Adobe Illustrator 24.3.0, SVG Export Plug-In . SVG Version: 6.00 Build 0)  -->
<svg version="1.1" id="Layer_1" xmlns="http://www.w3.org/2000/svg" xmlns:xlink="http://www.w3.org/1999/xlink" x="0px" y="0px"
	 viewBox="0 0 130 124.3" style="enable-background:new 0 0 130 124.3;" xml:space="preserve">
<style type="text/css">
	.st0{fill:none;stroke:#292E34;stroke-width:4;}
</style>
<g>
	<polyline class="st0" points="66.1,70.6 40.3,70.6 40.3,88.1 20.8,70.6 2,70.6 2,2 86.9,2 86.9,50.7 	"/>
	<line class="st0" x1="68.7" y1="22.9" x2="18.8" y2="22.9"/>
	<line class="st0" x1="68.7" y1="36.3" x2="18.8" y2="36.3"/>
	<line class="st0" x1="68.7" y1="49.6" x2="18.8" y2="49.6"/>
	<path class="st0" d="M120.5,60c-6.3-3.7-7.9-3.8-16.6-1.5c-1.3,0.3-2.5,0.6-3.5,0.7c-1-0.1-2.2-0.3-3.5-0.7
		c-8.7-2.3-10.4-2.2-16.6,1.5c-5.5,2.9-8.6,11.4-7.1,20.9c1.8,11,6,11.8,6,23.6c0,11.8,4.2,17.7,7.7,17.7s5.1-4.1,8.9-14.2
		c2.6-7,6.4-8.1,9.4,0c3.7,10.1,5.5,14.2,8.9,14.2c3.4,0,7.7-5.9,7.7-17.7c0-11.9,4.2-12.5,6-23.6C129.2,71.4,126,63,120.5,60z"/>
</g>
</svg>
