<?xml version="1.0" encoding="utf-8"?>
<!-- Generator: Adobe Illustrator 24.3.0, SVG Export Plug-In . SVG Version: 6.00 Build 0)  -->
<svg version="1.1" id="Layer_1" xmlns="http://www.w3.org/2000/svg" xmlns:xlink="http://www.w3.org/1999/xlink" x="0px" y="0px"
	 viewBox="0 0 130 116.4" style="enable-background:new 0 0 130 116.4;" xml:space="preserve">
<style type="text/css">
	.st0{fill:none;stroke:#292E34;stroke-width:2.5;}
</style>
<g>
	<g>
		<g>
			<g>
				<path class="st0" d="M35.6,5.7c-2.8,2.9-3.9,6.8-3.2,10.5c3.7,0.5,7.6-0.6,10.4-3.5c2.8-2.9,3.9-6.8,3.2-10.5
					C42.3,1.6,38.4,2.8,35.6,5.7z"/>
				<path class="st0" d="M15.4,21.6c0.4,3.9,2.6,7.2,5.7,9c2.7-2.4,4.3-6,3.9-10c-0.4-3.9-2.6-7.2-5.7-9
					C16.7,14.1,15.1,17.7,15.4,21.6z"/>
				<path class="st0" d="M5.5,46.8c2,3.4,5.4,5.4,9,5.8c1.5-3.3,1.4-7.3-0.6-10.7c-2-3.4-5.4-5.4-9-5.8C3.4,39.5,3.5,43.5,5.5,46.8z
					"/>
				<path class="st0" d="M7.1,73.9c3.2,2.2,7.1,2.6,10.5,1.4c-0.1-3.6-1.8-7.2-5-9.4C9.4,63.7,5.4,63.3,2,64.5
					C2.1,68.1,3.9,71.7,7.1,73.9z"/>
				<path class="st0" d="M19.8,97.8c3.8,0.7,7.6-0.7,10.1-3.2c-1.6-3.3-4.7-5.8-8.5-6.4c-3.8-0.7-7.6,0.7-10.1,3.2
					C12.9,94.6,16,97.1,19.8,97.8z"/>
				<path class="st0" d="M41.4,114c3.8-1,6.6-3.8,7.8-7.2c-2.8-2.3-6.6-3.2-10.4-2.2c-3.8,1-6.6,3.8-7.8,7.2
					C33.8,114.1,37.6,115,41.4,114z"/>
				<path class="st0" d="M58,105.8c-25.3-4.4-43.6-27.5-41.8-53.9c1-14.1,7.5-26.4,17.3-35"/>
			</g>
			<g>
				<path class="st0" d="M94.4,5.7c2.8,2.9,3.9,6.8,3.2,10.5c-3.7,0.5-7.6-0.6-10.4-3.5C84.4,9.8,83.4,5.8,84,2.1
					C87.7,1.6,91.6,2.8,94.4,5.7z"/>
				<path class="st0" d="M114.6,21.7c-0.4,3.9-2.6,7.2-5.7,9c-2.7-2.4-4.3-6-3.9-10c0.4-3.9,2.6-7.2,5.7-9
					C113.3,14.1,114.9,17.7,114.6,21.7z"/>
				<path class="st0" d="M124.5,46.8c-2,3.4-5.4,5.4-9,5.8c-1.5-3.3-1.4-7.3,0.6-10.7c2-3.4,5.4-5.4,9-5.8
					C126.6,39.5,126.5,43.5,124.5,46.8z"/>
				<path class="st0" d="M122.9,73.9c-3.2,2.2-7.1,2.6-10.5,1.4c0.1-3.6,1.8-7.2,5-9.4c3.2-2.2,7.1-2.6,10.5-1.4
					C127.9,68.1,126.2,71.7,122.9,73.9z"/>
				<path class="st0" d="M110.2,97.8c-3.8,0.7-7.6-0.7-10.1-3.2c1.6-3.3,4.7-5.8,8.5-6.4c3.8-0.7,7.6,0.7,10.1,3.2
					C117.1,94.6,114,97.1,110.2,97.8z"/>
				<path class="st0" d="M88.6,114c-3.8-1-6.6-3.8-7.8-7.2c2.8-2.3,6.6-3.2,10.4-2.2c3.8,1,6.6,3.8,7.8,7.2
					C96.2,114.1,92.4,115,88.6,114z"/>
				<path class="st0" d="M72,105.8c25.3-4.4,43.6-27.5,41.8-53.9c-1-14.1-7.5-26.4-17.3-35"/>
			</g>
		</g>
	</g>
</g>
</svg>
