<?xml version="1.0" encoding="utf-8"?>
<!-- Generator: Adobe Illustrator 24.3.0, SVG Export Plug-In . SVG Version: 6.00 Build 0)  -->
<svg version="1.1" id="Layer_1" xmlns="http://www.w3.org/2000/svg" xmlns:xlink="http://www.w3.org/1999/xlink" x="0px" y="0px"
	 viewBox="0 0 130 100.8" style="enable-background:new 0 0 130 100.8;" xml:space="preserve">
<style type="text/css">
	.st0{fill:none;stroke:#292E34;stroke-width:4;}
</style>
<g>
	<rect x="10" y="10.1" class="st0" width="110" height="80.7"/>
	<path class="st0" d="M79.3,28.3c-4.4-2.6-5.6-2.7-11.8-1.1c-0.9,0.2-1.8,0.4-2.5,0.5c-0.7-0.1-1.6-0.2-2.5-0.5
		c-6.2-1.6-7.4-1.5-11.8,1.1c-3.9,2.1-6.1,8-5,14.7c1.3,7.8,4.3,8.3,4.3,16.7c0,8.4,3,12.5,5.4,12.5c2.4,0,3.6-2.9,6.3-10
		c1.8-4.9,4.5-5.7,6.6,0c2.7,7.2,3.9,10,6.3,10c2.4,0,5.4-4.2,5.4-12.5c0-8.4,3-8.9,4.3-16.7C85.4,36.4,83.2,30.4,79.3,28.3z"/>
	<path class="st0" d="M119.8,27.3c-3-1.5-4.7-1.4-9.9,0c-0.9,0.2-1.8,0.4-2.5,0.5c-0.7-0.1-1.6-0.2-2.5-0.5
		c-6.2-1.6-7.4-1.5-11.8,1.1c-3.9,2.1-6.1,8-5,14.7c1.3,7.8,4.3,8.3,4.3,16.7c0,8.4,3,12.5,5.4,12.5c2.4,0,3.6-2.9,6.3-10
		c1.8-4.9,4.5-5.7,6.6,0c2.7,7.2,3.9,10,6.3,10c0.8,0,1.6-0.4,2.4-1.3"/>
	<path class="st0" d="M10.1,70.4c0.9,1.3,1.9,1.9,2.9,1.9c2.4,0,3.6-2.9,6.3-10c1.8-4.9,4.5-5.7,6.6,0c2.7,7.2,3.9,10,6.3,10
		c2.4,0,5.4-4.2,5.4-12.5c0-8.4,3-8.9,4.3-16.7c1.1-6.7-1.1-12.7-5-14.7c-4.4-2.6-5.6-2.7-11.8-1.1c-0.9,0.2-1.8,0.4-2.5,0.5
		c-0.7-0.1-1.6-0.2-2.5-0.5c-5.1-1.4-6.8-1.5-9.7-0.1"/>
	<line class="st0" x1="16.4" y1="82.1" x2="40.5" y2="82.1"/>
	<line class="st0" x1="50.9" y1="82.1" x2="44.9" y2="82.1"/>
	<rect x="2" y="2" class="st0" width="126" height="96.8"/>
</g>
</svg>
