<?xml version="1.0" encoding="utf-8"?>
<!-- Generator: Adobe Illustrator 25.2.0, SVG Export Plug-In . SVG Version: 6.00 Build 0)  -->
<svg version="1.1" xmlns="http://www.w3.org/2000/svg" xmlns:xlink="http://www.w3.org/1999/xlink" x="0px" y="0px"
	 viewBox="0 0 163.9 163.9" style="enable-background:new 0 0 163.9 163.9;" xml:space="preserve">
<style type="text/css">
	.dental-tools-st0{fill:var(--icon-color-primary, #e1edf3);}
	.dental-tools-st1{fill:none;stroke:#313131;stroke-width:1.8;stroke-linecap:round;stroke-linejoin:round;stroke-miterlimit:10;}
</style>
<g id="Layer_35_copy_2">
	<path class="dental-tools-st0" d="M30.1,116.5h90v-90h0C70.4,26.5,30.1,66.8,30.1,116.5L30.1,116.5z"/>
</g>
<g id="Preventative">
	<g>
		<polyline class="dental-tools-st1" points="59.4,80.3 59.4,59.7 46.7,47 59.4,34.3 		"/>
		<line class="dental-tools-st1" x1="104.7" y1="80.3" x2="104.7" y2="59.7"/>
		<path class="dental-tools-st1" d="M117.1,48.7c-0.7,5.7-5.3,10.2-11,10.9c-8.3,1-15.2-6-14.2-14.3c0.7-5.6,5.3-10.2,10.9-10.9
			C111.2,33.4,118.1,40.4,117.1,48.7z"/>
		<path class="dental-tools-st1" d="M67.2,126.5c0,1.7-1.4,3.1-3.1,3.1h-9.3c-1.7,0-3.1-1.4-3.1-3.1V83.4c0-1.7,1.4-3.1,3.1-3.1h9.3
			c1.7,0,3.1,1.4,3.1,3.1V126.5z"/>
		<path class="dental-tools-st1" d="M112.3,126.5c0,1.7-1.4,3.1-3.1,3.1h-9.3c-1.7,0-3.1-1.4-3.1-3.1V83.4c0-1.7,1.4-3.1,3.1-3.1h9.3
			c1.7,0,3.1,1.4,3.1,3.1V126.5z"/>
	</g>
</g>
</svg>
