<?xml version="1.0" encoding="utf-8"?>
<!-- Generator: Adobe Illustrator 25.2.0, SVG Export Plug-In . SVG Version: 6.00 Build 0)  -->
<svg version="1.1" xmlns="http://www.w3.org/2000/svg" xmlns:xlink="http://www.w3.org/1999/xlink" x="0px" y="0px"
	 viewBox="0 0 163.9 163.9" style="enable-background:new 0 0 163.9 163.9;" xml:space="preserve">
<style type="text/css">
	.hands-st0{fill:var(--icon-color-secondary, #caced6);}
	.hands-st1{fill:none;stroke:#333333;stroke-width:1.8;stroke-miterlimit:10;}
</style>
<g id="Layer_35_copy_3">
	<path class="hands-st0" d="M22.1,28.5h90v90h0C62.4,118.5,22.1,78.2,22.1,28.5L22.1,28.5z"/>
</g>
<g id="Caring">
	<g>
		<g>
			<g>
				<path class="hands-st1" d="M115.4,46c-2,0.2-4,1.7-4.1,4.4c-0.2,4.3-0.3,12.3-0.3,19.7"/>
				<g>
					<path class="hands-st1" d="M84.5,123.7c0,0,0.2-9.3,0.4-13c0,0-0.6-3.4-0.7-4.4c0,0-0.2-2.2-0.1-3.4c0.2-3.2,0.7-4.7,1.5-6.6
						c1.6-3.9,3.5-5.6,8.3-9.3C96.2,85,107.2,74,109,72c0.8-0.9,1.4-1.5,2.3-2.1c0.4-0.3,0.9-0.6,1.3-0.7c1.9-0.6,3.5-0.3,4.8,1.3
						c1.1,1.3,1.5,3.4,0.9,5.4c-0.2,0.7-0.7,1.4-1.1,2.1c0,0-10.2,13.4-15.2,18.2"/>
					<path class="hands-st1" d="M115.4,69.2l0.1-23.6l0,0c0.1-3.1,2.4-5.3,4.9-5.6c2.5-0.3,5.2,1.6,5.6,4.9c3.4,17.6-0.2,42.5-0.2,42.5
						l0,0c-0.6,3-2,5.8-4.2,8c-3.6,3.7-10,9-14.3,13c-0.9,0.8-1.3,2.4-1.5,3.8c-0.2,1.2-0.3,2.5-0.4,3.7l-0.3,8"/>
				</g>
			</g>
		</g>
		<g>
			<g>
				<path class="hands-st1" d="M48.5,46c2,0.2,4,1.7,4.1,4.4c0.2,4.3,0.3,12.3,0.3,19.7"/>
				<g>
					<path class="hands-st1" d="M79.4,123.7c0,0-0.2-9.3-0.4-13c0,0,0.6-3.4,0.7-4.4c0,0,0.2-2.2,0.1-3.4c-0.2-3.2-0.7-4.7-1.5-6.6
						c-1.6-3.9-3.5-5.6-8.3-9.3C67.7,85,56.7,74,54.9,72c-0.8-0.9-1.4-1.5-2.3-2.1c-0.4-0.3-0.9-0.6-1.3-0.7
						c-1.9-0.6-3.5-0.3-4.8,1.3c-1.1,1.3-1.5,3.4-0.9,5.4c0.2,0.7,0.7,1.4,1.1,2.1c0,0,10.2,13.4,15.2,18.2"/>
					<path class="hands-st1" d="M48.6,69.2l-0.1-23.6l0,0c-0.1-3.1-2.4-5.3-4.9-5.6c-2.5-0.3-5.2,1.6-5.6,4.9c-3.4,17.6,0.2,42.5,0.2,42.5
						l0,0c0.6,3,2,5.8,4.2,8c3.6,3.7,10,9,14.3,13c0.9,0.8,1.3,2.4,1.5,3.8c0.2,1.2,0.3,2.5,0.4,3.7l0.3,8"/>
				</g>
			</g>
		</g>
	</g>
</g>
</svg>
