<?xml version="1.0" encoding="utf-8"?>
<!-- Generator: Adobe Illustrator 25.2.0, SVG Export Plug-In . SVG Version: 6.00 Build 0)  -->
<svg version="1.1" xmlns="http://www.w3.org/2000/svg" xmlns:xlink="http://www.w3.org/1999/xlink" x="0px" y="0px"
	 viewBox="0 0 163.9 163.9" style="enable-background:new 0 0 163.9 163.9;" xml:space="preserve">
<style type="text/css">
	.medication-st0{fill:var(--icon-color-primary, #e1edf3);}
	.medication-st1{fill:none;stroke:#313131;stroke-width:1.8;stroke-linecap:round;stroke-linejoin:round;stroke-miterlimit:10;}
</style>
<g id="Layer_35_copy_5">
	<path class="medication-st0" d="M19,123h90V33h0C59.3,33,19,73.3,19,123L19,123z"/>
</g>
<g id="Sedation">
	<g>
		<path class="medication-st1" d="M86.4,103.9c0-5.7,10.9-10.3,24.3-10.3c13.4,0,24.3,4.6,24.3,10.3"/>
		<path class="medication-st1" d="M134.9,103.5v14.9c0,5.6-10.9,10.7-24.3,10.7c-13.4,0-24.3-5.1-24.3-10.7v-14.9"/>
		<path class="medication-st1" d="M86.4,103.5c0,5.6,10.9,10.7,24.3,10.7c13.4,0,24.3-5.1,24.3-10.7"/>
		<line class="medication-st1" x1="102" y1="94.3" x2="120.8" y2="113.1"/>
	</g>
	<g>
		<path class="medication-st1" d="M91,90.5l21.7-19.8c3.6-3.6,4.7-8.3,4.7-13c0-4.3-1.5-8.6-4.7-11.9l0,0c-3.4-3.4-7.7-4.9-12.1-4.9
			c-4.4,0-9.3,1.4-12.8,4.9L66,67.7"/>
		<path class="medication-st1" d="M90.8,90.6c-7-7-24.8-22.9-24.8-22.9L44.1,89.6c-3.6,3.6-5.1,8.3-5.1,13c0,4.3,1.9,8.6,5.1,11.9l0,0
			c3.2,3.2,7.4,4.9,11.7,4.9c4.7,0,9.5-1.3,13.2-4.9l21.1-23"/>
	</g>
</g>
</svg>
