<?xml version="1.0" encoding="utf-8"?>
<!-- Generator: Adobe Illustrator 25.4.1, SVG Export Plug-In . SVG Version: 6.00 Build 0)  -->
<svg version="1.1" xmlns="http://www.w3.org/2000/svg" xmlns:xlink="http://www.w3.org/1999/xlink" x="0px" y="0px"
	 viewBox="0 0 163.94 163.94" style="enable-background:new 0 0 163.94 163.94;" xml:space="preserve">
<style type="text/css">
	.restoration-st0{fill:var(--icon-color-primary, #bce6f6);}
	.restoration-st1{fill:#FFFFFF;stroke:#313131;stroke-width:1.8;stroke-linecap:round;stroke-linejoin:round;stroke-miterlimit:10;}
</style>
<g id="Layer_20_copy_3">
	<g>
		<path class="restoration-st0" d="M47.16,81.31l0.05-0.1l14.01-29.63l0.05-0.1l0.05-0.1l12.3-26.02c-1.43,0.64-2.82,1.34-4.17,2.09l-10.73,22.7
			l-0.05,0.1l-0.05,0.1L44.61,79.98l-0.05,0.1l-0.05,0.1l-2.07,4.39c0.28,1.52,0.62,3.04,1.03,4.55l3.64-7.7L47.16,81.31z"/>
		<path class="restoration-st0" d="M52.61,47.37l0.05-0.1l5.35-11.32c-2.81,2.73-5.29,5.74-7.43,8.98l-0.53,1.11l-0.05,0.1l-0.05,0.1
			l-5.98,12.65c-1.14,3.7-1.89,7.53-2.23,11.43l10.8-22.85L52.61,47.37z"/>
		<path class="restoration-st0" d="M145.33,91.21l-0.05,0.1l-9.81,20.74c7.78-8.3,12.78-18.88,14.26-30.16l-4.35,9.21L145.33,91.21z"/>
		<path class="restoration-st0" d="M116.49,114.09l0.05-0.1l14.01-29.63l0.05-0.1l0.05-0.1l14.01-29.63l0.05-0.1l0.05-0.1l0.72-1.52
			c-0.5-1.13-1.04-2.24-1.61-3.32l-1.71,3.61l-0.05,0.1l-0.05,0.1l-14.01,29.63l-0.05,0.1l-0.05,0.1l-14.01,29.63l-0.05,0.1
			l-0.05,0.1l-7.16,15.14c1.2-0.24,2.39-0.53,3.59-0.86l6.17-13.05L116.49,114.09z"/>
		<path class="restoration-st0" d="M99.16,105.89l0.05-0.1l14.01-29.64l0.05-0.1l0.05-0.1l14.01-29.63l0.05-0.1l0.05-0.1l5.27-11.15
			c-0.73-0.68-1.49-1.33-2.25-1.96l-5.62,11.88l-0.05,0.1l-0.05,0.1l-14.01,29.64l-0.05,0.1l-0.05,0.1l-14.01,29.63l-0.05,0.1
			l-0.05,0.1l-11.07,23.41c0.98,0.19,1.96,0.36,2.95,0.5L99.11,106L99.16,105.89z"/>
		<path class="restoration-st0" d="M81.83,97.7l0.05-0.1l14.01-29.63l0.05-0.1l0.05-0.1L110,38.12l0.05-0.1l0.05-0.1l6.29-13.31
			c-0.89-0.36-1.79-0.7-2.7-1.02l-6.19,13.1l-0.05,0.1l-0.05,0.1L93.39,66.52l-0.05,0.1l-0.05,0.1L79.28,96.37l-0.05,0.1l-0.05,0.1
			L67.53,121.2c0.82,0.5,1.65,0.98,2.5,1.44L81.78,97.8L81.83,97.7z"/>
		<path class="restoration-st0" d="M64.49,89.5l0.05-0.1l14.01-29.64l0.05-0.1l0.05-0.1l14.01-29.63l0.05-0.1l0.05-0.1l4.32-9.13
			c-1.06-0.02-2.13-0.02-3.19,0.02l-3.73,7.88l-0.05,0.1l-0.05,0.1L76.05,58.33L76,58.43l-0.05,0.1L61.94,88.17l-0.05,0.1l-0.05,0.1
			l-9.18,19.41c0.65,0.85,1.32,1.68,2.01,2.48l9.77-20.66L64.49,89.5z"/>
		<path class="restoration-st0" d="M125.16,118.19l0.05-0.1l14.01-29.63l0.05-0.1l0.05-0.1l10.23-21.64c-0.25-1.58-0.56-3.15-0.95-4.72
			l-11.89,25.14l-0.05,0.1l-0.05,0.1l-14.01,29.64l-0.05,0.1l-0.05,0.1l-3.23,6.83c1.46-0.7,2.88-1.45,4.25-2.27l1.58-3.33
			L125.16,118.19z"/>
		<path class="restoration-st0" d="M107.82,109.99l0.05-0.1l14.01-29.63l0.05-0.1l0.05-0.1l14.01-29.63l0.05-0.1l0.05-0.1l3.54-7.49
			c-0.64-0.87-1.3-1.72-1.98-2.54l-4.16,8.8l-0.05,0.1l-0.05,0.1l-14.01,29.63l-0.05,0.1l-0.05,0.1l-14.01,29.64l-0.05,0.1
			l-0.05,0.1l-9.61,20.33c1.07,0.01,2.14-0.02,3.22-0.08l8.99-19.02L107.82,109.99z"/>
		<path class="restoration-st0" d="M90.49,101.8l0.05-0.1l14.01-29.63l0.05-0.1l0.05-0.1l14.01-29.63l0.05-0.1l0.05-0.1l6.15-13.01
			c-0.81-0.51-1.64-1.01-2.48-1.48l-6.27,13.26l-0.05,0.1l-0.05,0.1l-14.01,29.64l-0.05,0.1l-0.05,0.1l-14.01,29.63l-0.05,0.1
			l-0.05,0.1l-11.72,24.79c0.9,0.35,1.8,0.68,2.72,0.98l11.6-24.54L90.49,101.8z"/>
		<path class="restoration-st0" d="M73.16,93.6l0.05-0.1l14.01-29.64l0.05-0.1l0.05-0.1l14.01-29.63l0.05-0.1l0.05-0.1l5.7-12.06
			c-0.97-0.21-1.94-0.39-2.92-0.54l-5.38,11.37l-0.05,0.1l-0.05,0.1L84.72,62.43l-0.05,0.1l-0.05,0.1L70.61,92.27l-0.05,0.1
			l-0.05,0.1l-10.83,22.9c0.74,0.66,1.5,1.3,2.28,1.92l11.15-23.59L73.16,93.6z"/>
		<path class="restoration-st0" d="M55.83,85.41l0.05-0.1l14.01-29.63l0.05-0.1l0.05-0.1L84,25.83l0.05-0.1l0.05-0.1l1.96-4.15
			c-1.18,0.22-2.37,0.48-3.55,0.78l-1.01,2.14l-0.05,0.1l-0.05,0.1L67.39,54.23l-0.05,0.1l-0.05,0.1L53.28,84.07l-0.05,0.1
			l-0.05,0.1l-6.46,13.67c0.52,1.1,1.07,2.18,1.65,3.24l7.41-15.68L55.83,85.41z"/>
	</g>
</g>
<g id="Restoration">
	<g>
		<path class="restoration-st1" d="M85.39,79.32c-0.35,1.5-0.39,3.04-0.14,4.56c0.12,0.73,0.31,1.46,0.57,2.18c3.31,9.21,7.87,28.03-2.06,44.74
			c-0.31,0.52-0.93,0.77-1.54,0.77c-0.79,0-1.59-0.4-1.74-1.13c-2.13-10.5-8.52-37.49-17.96-37.19
			c-9.44-0.3-15.83,26.68-17.96,37.19c-0.15,0.73-0.94,1.13-1.74,1.13c-0.61,0-1.23-0.24-1.54-0.77
			c-9.93-16.71-5.37-35.54-2.06-44.74c0.26-0.72,0.45-1.45,0.57-2.18c0.25-1.52,0.21-3.06-0.14-4.56c-0.33-1.42-0.92-2.81-1.79-4.11
			c-2.13-3.22-4.76-7.66-6.68-12.56l0.01,0l13.78-3.34l2.75-6.16l6.31-5.59l-0.82-14.6c5.31,0.96,9.32,2.85,9.32,2.85
			s21.89-10.35,31.41,4.98c6.82,10.91-1.47,26.45-6.75,34.43C86.31,76.51,85.72,77.9,85.39,79.32z"/>
		<path class="restoration-st1" d="M53.2,32.95L53.2,32.95c5.31,0.96,9.32,2.85,9.32,2.85s21.89-10.35,31.41,4.98
			c6.82,10.91-1.47,26.45-6.75,34.43c-0.87,1.31-1.46,2.69-1.79,4.11c-0.35,1.5-0.39,3.04-0.14,4.56c0.12,0.73,0.31,1.46,0.57,2.18
			c3.31,9.21,7.87,28.03-2.06,44.74c-0.31,0.52-0.93,0.77-1.54,0.77c-0.79,0-1.59-0.4-1.74-1.13c-2.13-10.5-8.52-37.49-17.96-37.19
			c-9.44-0.3-15.83,26.68-17.96,37.19c-0.15,0.73-0.94,1.13-1.74,1.13c-0.61,0-1.23-0.24-1.54-0.77
			c-9.93-16.71-5.37-35.54-2.06-44.74c0.26-0.72,0.45-1.45,0.57-2.18c0.25-1.52,0.21-3.06-0.14-4.56c-0.33-1.42-0.92-2.81-1.79-4.11
			c-2.13-3.22-4.76-7.66-6.68-12.56"/>
		<polyline class="restoration-st1" points="31.18,62.64 44.96,59.3 47.71,53.14 54.03,47.55 53.2,32.95 53.2,32.94 		"/>
		<polyline class="restoration-st1" points="54.03,47.55 59.04,56.66 73.61,57.29 76.36,67.6 		"/>
		<polyline class="restoration-st1" points="129.75,79.32 85.39,79.32 85.25,79.32 85.22,79.32 		"/>
		<polyline class="restoration-st1" points="39.79,79.32 39.79,79.32 39.65,79.32 4.19,79.32 		"/>
	</g>
</g>
</svg>
