<?xml version="1.0" encoding="utf-8"?>
<!-- Generator: Adobe Illustrator 24.3.0, SVG Export Plug-In . SVG Version: 6.00 Build 0)  -->
<svg version="1.1" id="Layer_1" xmlns="http://www.w3.org/2000/svg" xmlns:xlink="http://www.w3.org/1999/xlink" x="0px" y="0px"
	 viewBox="0 0 2855.3 2252.3" style="enable-background:new 0 0 2855.3 2252.3;" xml:space="preserve">
<g>
	<path d="M162.2,901.5c48.7-5.3,100.6,0,144.2,4.5c93.7,9.8,177.3,46.7,224.5,132.2c0,0,314,567.7,314,567.7
		c6.2,11.2,22,12,29.3,1.6C973.4,1466.1,1537.5,699,2523.9,77c68.6-43.3,170.6-96,254-70.1c42.6,13.2,73.1,52,77,96.3
		c7.5,86.8-104,141.7-162.9,187.7c-70.6,55.1-140.2,111.4-209,168.8c-160.8,134.2-316.4,274.7-465.4,421.9
		c-332.1,328.3-638.2,693.2-858.7,1106.8c-14.3,26.8-28.2,53.8-41.7,81c-55.6,112.1-169.9,182.9-294.9,182.9
		c-120.3,0-231.1-65.6-288.8-171.2c0,0-513.1-937.7-513.7-938.7c-32.9-60.1-24-135.5,21.7-186.6C72.1,921.4,115.7,906.6,162.2,901.5
		"/>
</g>
</svg>
