<?xml version="1.0" encoding="utf-8"?>
<!-- Generator: Adobe Illustrator 25.4.1, SVG Export Plug-In . SVG Version: 6.00 Build 0)  -->
<svg version="1.1" id="Logo__x2014__FIXED" xmlns="http://www.w3.org/2000/svg" xmlns:xlink="http://www.w3.org/1999/xlink" x="0px"
	 y="0px" viewBox="0 0 250 203.18" style="enable-background:new 0 0 250 203.18;" xml:space="preserve">
<g>
	<path d="M78.62,203.18c94.34,0,145.94-78.16,145.94-145.94c0-2.22-0.05-4.43-0.15-6.63c10.01-7.24,18.72-16.27,25.59-26.56
		c-9.19,4.08-19.08,6.83-29.46,8.07c10.59-6.35,18.72-16.4,22.55-28.37c-9.91,5.88-20.89,10.15-32.57,12.45
		C201.17,6.24,187.84,0,173.09,0c-28.33,0-51.3,22.97-51.3,51.29c0,4.03,0.45,7.94,1.33,11.69C80.5,60.84,42.69,40.43,17.4,9.39
		c-4.41,7.58-6.95,16.39-6.95,25.78c0,17.8,9.06,33.5,22.82,42.69c-8.41-0.26-16.32-2.57-23.23-6.42c-0.01,0.21-0.01,0.43-0.01,0.65
		c0,24.84,17.68,45.58,41.15,50.28c-4.31,1.17-8.84,1.8-13.52,1.8c-3.3,0-6.52-0.33-9.64-0.93c6.53,20.38,25.46,35.21,47.92,35.62
		c-17.56,13.76-39.67,21.96-63.7,21.96c-4.14,0-8.22-0.24-12.24-0.71C22.7,194.69,49.65,203.18,78.62,203.18"/>
</g>
</svg>
