<?xml version="1.0" encoding="utf-8"?>
<!-- Generator: Adobe Illustrator 25.4.1, SVG Export Plug-In . SVG Version: 6.00 Build 0)  -->
<svg version="1.1" xmlns="http://www.w3.org/2000/svg" xmlns:xlink="http://www.w3.org/1999/xlink" x="0px" y="0px"
	 viewBox="0 0 163.94 163.94" style="enable-background:new 0 0 163.94 163.94;" xml:space="preserve">
<style type="text/css">
	.dentures-st0{fill:var(--icon-color-primary, #d1e3e5);}
	.dentures-st1{fill:var(--icon-color-secondary, rgba(129,130,133,0.3))}
	.dentures-st2{fill:#FFFFFF;}
	.dentures-st3{fill:none;stroke:#313131;stroke-width:2.2677;stroke-linecap:round;stroke-linejoin:round;stroke-miterlimit:10;}
</style>
<g id="Layer_5">
	<circle class="dentures-st0" cx="62.95" cy="88.83" r="60.41"/>
	<circle class="dentures-st1" cx="114.89" cy="55.36" r="43.07"/>
</g>
<g id="Dentures">
	<path class="dentures-st2" d="M131.53,89.77c0.04-1.3-0.03-2.52-0.16-3.38c-0.11-0.72-0.7-1.2-1.57-1.44c0,0,0-0.01,0-0.01c0,0,0,0,0,0
		l0.13-1.45c0.61-0.29,1.03-0.63,1.07-0.99c0.15-1.37,0.15-2.77,0.04-4.11l0.51,0.2c6.08-1.03,9.35-20.72,2.59-22.92
		c-6.23-2.03-3.55,2.79-13.02,0.58l-0.78-0.19c-0.59-0.15-1.23-0.33-1.91-0.53l0.12,0.09l-4.7-1.15c0,0-9.4-7.32-31.89-7.32
		c-22.48,0-31.89,7.32-31.89,7.32l0,0c-1.49,0.24-3.02,0.59-4.58,1.06c-12.69,3.82-8.94-2.06-15.7,0.15
		c-6.76,2.2-3.49,21.9,2.59,22.92l0.51-0.2c-0.11,1.34-0.11,2.74,0.04,4.11c0.05,0.43,0.64,0.83,1.48,1.16l-0.14,1.24
		c-0.95,0.22-1.59,0.72-1.71,1.47c-0.13,0.87-0.2,2.08-0.16,3.38h-0.99c0,0-4.26,7.19-3.82,12.99c0.44,5.8,16.75,14.03,54.37,14.03
		c37.62,0,53.93-8.23,54.37-14.03c0.44-5.8-3.82-12.99-3.82-12.99H131.53z"/>
	<g>
		<path class="dentures-st3" d="M79.27,91.44c1.09-0.15,1.91-1.06,1.94-2.16c0.07-2.29,0.02-6.34-0.96-10.3c-1.47-5.98-4.41-6.96-7.94-6.96
			c-3.53,0-7.04,3.42-7.05,16.75C65.26,92.95,75.1,92.02,79.27,91.44z"/>
		<path class="dentures-st3" d="M65.27,88.78c-6.56,2.65-12.29-0.77-12.65-1.43c-0.37-0.66-0.08-6.21,0.97-11.13
			c1.57-7.33,10.33-4.93,11.2,0.83C65.42,81.31,65.27,88.78,65.27,88.78z"/>
		<path class="dentures-st3" d="M52.18,78.37c0.13-2.95-1.14-6.39-4.74-7.05c-3.6-0.66-6.1,6.76-5.34,13.49c0.19,1.74,8.59,3.05,9.31,1.49
			C52.13,84.75,52.02,81.85,52.18,78.37z"/>
		<path class="dentures-st3" d="M41.95,76.57c0.12-2.72-1.02-5.89-4.24-6.5c-3.22-0.61-5.45,6.23-4.78,12.44c0.17,1.6,7.68,2.81,8.32,1.38
			C41.91,82.45,41.81,79.78,41.95,76.57z"/>
		<path class="dentures-st3" d="M81.24,93.87c0,2.83-0.1,10.38-4.11,10.58c-4.02,0.2-5.28-8.39-5.31-11.27
			C71.8,91.64,81.24,91.04,81.24,93.87z"/>
		<path class="dentures-st3" d="M71.1,93.78c-0.17,2.83-0.83,10.7-4.85,10.64c-4.02-0.05-4.37-9.61-4.68-12.46
			c-0.16-1.43,2.54-1.04,4.98-0.58C68.98,91.83,71.18,92.36,71.1,93.78z"/>
		<path class="dentures-st3" d="M60.76,91.89c-0.17,2.83-2.32,12.11-6.34,12.05c-4.02-0.05-3.76-10.26-3.75-13.59c0-1.44,2.07-1.83,4.51-1.37
			C57.61,89.43,60.85,90.47,60.76,91.89z"/>
		<path class="dentures-st3" d="M50.08,88.79c-0.17,2.83-1.12,11.16-5.14,11.1c-4.02-0.05-4.33-8.3-3.82-11.68c0.22-1.42,2.13-2.04,4.56-1.58
			C48.12,87.09,50.17,87.38,50.08,88.79z"/>
		<path class="dentures-st3" d="M40.94,86.93c-0.16,2.62-1.04,10.35-4.8,10.3c-3.75-0.05-4.05-7.7-3.57-10.84c0.2-1.32,1.99-1.89,4.26-1.47
			C39.1,85.34,41.02,85.61,40.94,86.93z"/>
		<path class="dentures-st3" d="M81.97,59.34c-7.35,0-20.03-8.77-36.46-3.82c-12.69,3.82-8.94-2.06-15.7,0.15c-6.76,2.2-3.49,21.9,2.59,22.92
			"/>
		<path class="dentures-st3" d="M50.09,54.46c0,0,9.4-7.32,31.89-7.32"/>
		<path class="dentures-st3" d="M84.67,91.44c-1.09-0.15-1.91-1.06-1.94-2.16c-0.07-2.29-0.02-6.34,0.96-10.3c1.47-5.98,4.41-6.96,7.94-6.96
			c3.53,0,7.04,3.42,7.05,16.75C98.68,92.95,88.84,92.02,84.67,91.44z"/>
		<path class="dentures-st3" d="M98.67,88.78c6.56,2.65,12.29-0.77,12.65-1.43c0.37-0.66,0.08-6.21-0.97-11.13
			c-1.57-7.33-10.33-4.93-11.2,0.83C98.52,81.31,98.67,88.78,98.67,88.78z"/>
		<path class="dentures-st3" d="M111.76,78.37c-0.13-2.95,1.14-6.39,4.74-7.05c3.6-0.66,6.1,6.76,5.34,13.49c-0.19,1.74-8.59,3.05-9.31,1.49
			C111.82,84.75,111.92,81.85,111.76,78.37z"/>
		<path class="dentures-st3" d="M121.99,76.57c-0.12-2.72,1.02-5.89,4.24-6.5c3.22-0.61,5.45,6.23,4.78,12.44c-0.17,1.6-7.68,2.81-8.32,1.38
			C122.04,82.45,122.13,79.78,121.99,76.57z"/>
		<path class="dentures-st3" d="M82.71,93.87c0,2.83,0.1,10.38,4.11,10.58c4.02,0.2,5.28-8.39,5.31-11.27
			C92.15,91.64,82.71,91.04,82.71,93.87z"/>
		<path class="dentures-st3" d="M92.85,93.78c0.17,2.83,0.83,10.7,4.85,10.64c4.02-0.05,4.37-9.61,4.68-12.46c0.16-1.43-2.54-1.04-4.98-0.58
			C94.97,91.83,92.76,92.36,92.85,93.78z"/>
		<path class="dentures-st3" d="M103.18,91.89c0.17,2.83,2.32,12.11,6.34,12.05c4.02-0.05,3.76-10.26,3.75-13.59c0-1.44-2.07-1.83-4.51-1.37
			C106.33,89.43,103.09,90.47,103.18,91.89z"/>
		<path class="dentures-st3" d="M113.86,88.79c0.17,2.83,1.12,11.16,5.14,11.1c4.02-0.05,4.33-8.3,3.82-11.68c-0.22-1.42-2.13-2.04-4.56-1.58
			C115.82,87.09,113.77,87.38,113.86,88.79z"/>
		<path class="dentures-st3" d="M123.01,86.93c0.16,2.62,1.04,10.35,4.8,10.3c3.75-0.05,4.05-7.7,3.57-10.84c-0.2-1.32-1.99-1.89-4.26-1.47
			C124.84,85.34,122.92,85.61,123.01,86.93z"/>
		<path class="dentures-st3" d="M81.97,59.34c7.35,0,20.03-8.77,36.46-3.82c12.69,3.82,8.94-2.06,15.7,0.15c6.76,2.2,3.49,21.9-2.59,22.92"/>
		<path class="dentures-st3" d="M113.86,54.46c0,0-9.4-7.32-31.89-7.32"/>
		<path class="dentures-st3" d="M132.52,89.77c0,0,4.26,7.19,3.82,12.99c-0.44,5.8-16.75,14.03-54.37,14.03c-37.62,0-53.93-8.23-54.37-14.03
			c-0.44-5.8,3.82-12.99,3.82-12.99"/>
	</g>
</g>
</svg>
