<?xml version="1.0" encoding="utf-8"?>
<!-- Generator: Adobe Illustrator 25.4.1, SVG Export Plug-In . SVG Version: 6.00 Build 0)  -->
<svg version="1.1" xmlns="http://www.w3.org/2000/svg" xmlns:xlink="http://www.w3.org/1999/xlink" x="0px" y="0px"
	 viewBox="0 0 163.94 163.94" style="enable-background:new 0 0 163.94 163.94;" xml:space="preserve">
<style type="text/css">
	.endodontics-st0{fill:var(--icon-color-primary, #d1e3e5);}
	.endodontics-st1{fill:var(--icon-color-secondary, rgba(129,130,133,0.3))}
	.endodontics-st2{fill:none;stroke:#313131;stroke-width:2.0818;stroke-linecap:round;stroke-linejoin:round;stroke-miterlimit:10;}
	.endodontics-st3{fill:#FFFFFF;stroke:#313131;stroke-width:2.0818;stroke-linecap:round;stroke-linejoin:round;stroke-miterlimit:10;}
</style>
<g id="Layer_5_copy_2">
	<circle class="endodontics-st0" cx="45.61" cy="106.16" r="43.07"/>
	<circle class="endodontics-st1" cx="97.56" cy="72.7" r="60.41"/>
</g>
<g id="Endo">
	<g>
		<path class="endodontics-st2" d="M65.69,97.79c0.69-3.59,1.57-6.62,2.28-8.77c1.89-5.73,1.19-11.76-1.99-17c-7.56-12.45-9.97-23.56-6.45-29.72
			c2.31-4.04,5.06-4.6,7.7-4.6c4.16,0,8.72,1.83,10.13,2.53l4.62,2.32l4.64-2.34c1.36-0.68,5.92-2.51,10.08-2.51
			c2.64,0,5.39,0.56,7.7,4.6c3.52,6.15,1.11,17.27-6.45,29.72c-3.17,5.23-3.88,11.27-1.99,17c0.71,2.15,1.59,5.18,2.28,8.78
			c0.12,0.64,0.24,1.3,0.35,1.97c-6.61-12.79-13.49-12.79-16.49-12.79h-0.29c-3,0-9.88,0-16.49,12.79
			C65.45,99.1,65.57,98.44,65.69,97.79z"/>
		<path class="endodontics-st3" d="M63.1,133.78c0.85-0.15,1.59-0.69,1.76-1.57c2.34-12.08,8.38-37.97,17.11-37.68
			c8.72-0.29,14.77,25.61,17.11,37.68c0.17,0.87,0.91,1.41,1.75,1.57c1,0.19,2.14-0.16,2.62-1.14c8.5-17.27,4.25-36.26,1.14-45.69
			c-1.27-3.84-0.83-7.95,1.33-11.5c5.13-8.46,13.16-24.9,6.55-36.47c-9.25-16.2-30.49-5.26-30.49-5.26s-21.23-10.94-30.49,5.26
			C44.87,50.56,52.9,67,58.03,75.46c2.15,3.55,2.6,7.65,1.33,11.5c-3.12,9.44-7.37,28.42,1.13,45.69
			C60.97,133.61,62.1,133.97,63.1,133.78z"/>
		<path class="endodontics-st2" d="M98.26,97.8c0.12,0.64,0.24,1.3,0.35,1.97c-6.61-12.79-13.49-12.79-16.49-12.79h-0.29
			c-3,0-9.88,0-16.49,12.79c0.11-0.68,0.23-1.34,0.36-1.98c0.69-3.59,1.57-6.62,2.28-8.77c1.89-5.73,1.19-11.76-1.99-17
			c-7.56-12.45-9.97-23.56-6.45-29.72c2.31-4.04,5.06-4.6,7.7-4.6c4.16,0,8.72,1.83,10.13,2.53l4.62,2.32l4.64-2.34
			c1.36-0.68,5.92-2.51,10.08-2.51c2.64,0,5.39,0.56,7.7,4.6c3.52,6.15,1.11,17.27-6.45,29.72c-3.17,5.23-3.88,11.27-1.99,17
			C96.68,91.18,97.56,94.2,98.26,97.8z"/>
		<path class="endodontics-st2" d="M98.21,48.76c0.39,3.02-0.92,6.06-2.36,8.32c-1.21,1.96-3.01,3.56-4.95,5.03h0
			c-4.31,3.23-4.86,8.11-4.25,12.38c0.59,4.08,2.44,7.96,5.17,11.36c1.8,2.22,4.36,6.09,6.43,11.95c2.82,7.99,4.74,19.69,2.57,35.97
			"/>
		<path class="endodontics-st2" d="M88.63,52.75c-0.84-1.2-1.97-2.27-3.51-3.02"/>
		<path class="endodontics-st2" d="M90.9,62.11c0,0,0.53-5.38-2.26-9.36"/>
		<path class="endodontics-st2" d="M88.63,52.75C88.63,52.75,88.63,52.75,88.63,52.75c0.02-0.19,0.63-6.17,3.73-7.62"/>
		<path class="endodontics-st2" d="M63.1,133.78c-2.16-16.29-0.24-28,2.59-35.99c2.07-5.86,4.63-9.73,6.43-11.94c2.73-3.39,4.56-7.28,5.17-11.36
			c0.62-4.27,0.07-9.16-4.25-12.38c-1.94-1.47-3.74-3.08-4.98-5.03c-1.41-2.26-2.73-5.3-2.33-8.32"/>
		<path class="endodontics-st2" d="M73.07,62.11c0,0-0.53-5.38,2.26-9.36c0.83-1.2,1.97-2.27,3.51-3.02"/>
		<path class="endodontics-st2" d="M75.33,52.75C75.33,52.75,75.33,52.75,75.33,52.75c-0.02-0.17-0.63-6.17-3.73-7.62"/>
	</g>
</g>
</svg>
