<?xml version="1.0" encoding="utf-8"?>
<!-- Generator: Adobe Illustrator 25.4.1, SVG Export Plug-In . SVG Version: 6.00 Build 0)  -->
<svg version="1.1" xmlns="http://www.w3.org/2000/svg" xmlns:xlink="http://www.w3.org/1999/xlink" x="0px" y="0px"
	 viewBox="0 0 163.94 163.94" style="enable-background:new 0 0 163.94 163.94;" xml:space="preserve">
<style type="text/css">
	.family-st0{fill:var(--icon-color-primary, #d1e3e5);}
	.family-st1{fill:var(--icon-color-secondary, rgba(129,130,133,0.3))}
	.family-st2{fill:#FFFFFF;stroke:#313131;stroke-width:2.0545;stroke-linecap:round;stroke-linejoin:round;stroke-miterlimit:10;}
	.family-st3{fill:none;stroke:#313131;stroke-width:2.0545;stroke-linecap:round;stroke-linejoin:round;stroke-miterlimit:10;}
</style>
<g id="Layer_5_copy_5">
	<circle class="family-st0" cx="62.95" cy="88.83" r="60.41"/>
	<circle class="family-st1" cx="114.89" cy="55.36" r="43.07"/>
</g>
<g id="Family">
	<g>
		<g>
			<path class="family-st2" d="M65.48,49.92c6.24,0,11.32-5.5,11.32-12.26c0-6.76-5.08-12.26-11.32-12.26s-11.32,5.5-11.32,12.26
				C54.17,44.42,59.24,49.92,65.48,49.92z"/>
			<path class="family-st2" d="M112.48,83.13c5.2,0,9.43-4.57,9.43-10.19s-4.23-10.19-9.43-10.19c-5.2,0-9.43,4.57-9.43,10.19
				S107.28,83.13,112.48,83.13z"/>
		</g>
		<g>
			<g>
				<path class="family-st2" d="M119.69,138.54c-1.71,0-3.18-1.16-3.58-2.82l-3.91-15.34l-4.02,15.34c-0.4,1.66-1.87,2.82-3.58,2.82
					c-2.03,0-3.69-1.65-3.69-3.69c0-0.15,0.01-0.36,0.02-0.41l3.37-30.14l-2.78-2.01c-4.78,2.19-6.13,2.3-6.35,2.3
					c-0.85,0-3.07-1.23-6.61-3.65l-1.65-0.27c-0.36,0.1-0.76,0.15-1.18,0.15c-3.84,0-6.95-14.18-9.99-24.55l-1.41,57.65
					c0,2.55-2.08,4.63-4.63,4.63c-2.2,0-4.1-1.56-4.54-3.7c-0.03-0.17-5.8-30.04-5.8-30.04l-5.88,30.04
					c-0.43,2.15-2.34,3.7-4.54,3.7c-2.55,0-4.63-2.08-4.63-4.63l0.48-58.02c0,0-8.04,24.93-11.88,24.93c-1.59,0-2.67-0.7-3.22-2.07
					c-0.47-1.16-0.47-2.52-0.47-3.5c0.03-1.03,1.67-8.85,3.85-16.8c3.79-13.83,6.29-17.83,7.44-18.98c1.83-1.83,5.63-5.63,18.8-5.63
					c13.17,0,16.97,3.8,18.8,5.63c1.15,1.15,3.65,5.15,7.44,18.98c1.57,5.71,2.91,11.56,3.49,14.58l1.36,1.51
					c1.71,0.52,3.31,0.79,4.75,0.79c1.73,0,3.39-1.49,5.32-3.21c2.25-2.01,4.81-4.3,7.89-4.3l0.31,0c1.99-0.03,3.69-0.04,5.08-0.04
					c1.46,0,2.58,0.01,3.36,0.04c3.34,0.13,6.4,2.06,7.96,5.05l9.17,17.63c0.29,0.53,0.44,1.11,0.44,1.72
					c0,2.03-1.65,3.69-3.69,3.69c-1.27,0-2.45-0.66-3.15-1.77l-7.3-10.67l2.81,30.98c0,0.05,0.02,0.25,0.02,0.41
					C123.38,136.89,121.73,138.54,119.69,138.54z"/>
			</g>
		</g>
		<path class="family-st3" d="M90.43,94.54c0,0-4.57-0.32-2.42,6.13"/>
	</g>
</g>
</svg>
