<?xml version="1.0" encoding="utf-8"?>
<!-- Generator: Adobe Illustrator 25.4.1, SVG Export Plug-In . SVG Version: 6.00 Build 0)  -->
<svg version="1.1" xmlns="http://www.w3.org/2000/svg" xmlns:xlink="http://www.w3.org/1999/xlink" x="0px" y="0px"
	 viewBox="0 0 163.94 163.94" style="enable-background:new 0 0 163.94 163.94;" xml:space="preserve">
<style type="text/css">
	.financial-st0{fill:var(--icon-color-primary, #d1e3e5);}
	.financial-st1{fill:var(--icon-color-secondary, rgba(129,130,133,0.3))}
	.financial-st2{fill:#FFFFFF;stroke:#313131;stroke-width:2.2677;stroke-linecap:round;stroke-linejoin:round;stroke-miterlimit:10;}
</style>
<g id="Layer_5_copy_6">
	<circle class="financial-st0" cx="45.61" cy="106.16" r="43.07"/>
	<circle class="financial-st1" cx="97.56" cy="72.7" r="60.41"/>
</g>
<g id="Fin">
	<g>
		<path class="financial-st2" d="M95.93,93.22c-0.3,0.46-21.9,20.4-21.9,20.4s-24.65,1.88-24.91,1.09c-0.26-0.79-9.15-17.41-9.15-17.41
			L95.93,93.22z"/>
		<g>
			<g>
				<path class="financial-st2" d="M105.34,91.59c0,0,11.14-8.42,18.71-14.11c6.92-5.2,12.5-3.97,17.12-0.28c1.13,0.9,1.19,2.62,0.13,3.61
					l-34.49,32.47c-1.03,0.97-2.39,1.51-3.8,1.51H57.83"/>
				<path class="financial-st2" d="M37.6,98.48c9.33-11.71,16.73-16.17,25.95-16.17c7.71,0,11.82,0.91,18.4,5.33c5.04,0,11.85,0,14.11,0
					c2.11,0,8.74,0.87,9.65,9.89c0.11,1.14-0.76,2.15-1.9,2.15H76.1"/>
				<polyline class="financial-st2" points="21.89,103 33.03,91.86 64.65,123.49 53.51,134.63 				"/>
				<polyline class="financial-st2" points="21.89,103 33.03,91.86 64.65,123.49 53.51,134.63 				"/>
				<polyline class="financial-st2" points="21.89,103 33.03,91.86 64.65,123.49 53.51,134.63 				"/>
			</g>
			<circle class="financial-st2" cx="34.59" cy="108.59" r="2.91"/>
		</g>
		<g>
			<g>
				<circle class="financial-st2" cx="93.09" cy="51.62" r="22.3"/>
				<circle class="financial-st2" cx="93.09" cy="51.62" r="22.3"/>
			</g>
			<g>
				<path class="financial-st2" d="M99.64,45.91c-2.15-5.72-11.83-5.04-11.9,0.92c-0.03,2.67,3.09,3.89,5.71,4.31c9.52,1.5,6.89,10.46,0,10.12
					c-5.23-0.26-6.74-3.79-6.9-4.64"/>
				<line class="financial-st2" x1="93.55" y1="37.17" x2="93.55" y2="41.97"/>
				<line class="financial-st2" x1="93.55" y1="61.27" x2="93.55" y2="66.07"/>
			</g>
		</g>
	</g>
</g>
</svg>
