<?xml version="1.0" encoding="utf-8"?>
<!-- Generator: Adobe Illustrator 25.4.1, SVG Export Plug-In . SVG Version: 6.00 Build 0)  -->
<svg version="1.1" xmlns="http://www.w3.org/2000/svg" xmlns:xlink="http://www.w3.org/1999/xlink" x="0px" y="0px"
	 viewBox="0 0 163.94 163.94" style="enable-background:new 0 0 163.94 163.94;" xml:space="preserve">
<style type="text/css">
	.medication-st0{fill:var(--icon-color-primary, #d1e3e5);}
	.medication-st1{fill:var(--icon-color-secondary, rgba(129,130,133,0.3))}
	.medication-st2{fill:#FFFFFF;stroke:#313131;stroke-width:2.1224;stroke-linecap:round;stroke-linejoin:round;stroke-miterlimit:10;}
</style>
<g id="Layer_4_copy_7">
	<circle class="medication-st0" cx="46.69" cy="55.08" r="44.16"/>
	<circle class="medication-st1" cx="106.98" cy="95.27" r="54.99"/>
</g>
<g id="Sedation">
	<g>
		<g>
			<path class="medication-st2" d="M76.37,97.85c0-5.68,10.87-10.28,24.29-10.28c13.41,0,24.29,4.6,24.29,10.28"/>
			<path class="medication-st2" d="M124.94,97.46v14.95c0,5.59-10.87,10.66-24.29,10.66c-13.41,0-24.29-5.08-24.29-10.66V97.46"/>
			<path class="medication-st2" d="M76.37,97.46c0,5.59,10.87,10.66,24.29,10.66c13.41,0,24.29-5.08,24.29-10.66"/>
			<line class="medication-st2" x1="91.99" y1="88.25" x2="110.84" y2="107.1"/>
		</g>
		<g>
			<path class="medication-st2" d="M91.04,90.45l21.68-19.81c3.57-3.57,4.74-8.28,4.74-12.96c0-4.32-1.45-8.58-4.74-11.87l0,0
				c-3.36-3.35-7.67-4.94-12.07-4.94c-4.41,0-9.26,1.44-12.76,4.94L66.02,67.69"/>
			<path class="medication-st2" d="M90.83,90.63c-7.02-7.02-24.81-22.94-24.81-22.94L44.14,89.56C40.58,93.13,39,97.88,39,102.52
				c0,4.31,1.85,8.58,5.14,11.87l0,0c3.24,3.24,7.44,4.94,11.67,4.94c4.74,0,9.54-1.33,13.16-4.94l21.1-22.97"/>
		</g>
	</g>
</g>
</svg>
