<?xml version="1.0" encoding="utf-8"?>
<!-- Generator: Adobe Illustrator 25.4.1, SVG Export Plug-In . SVG Version: 6.00 Build 0)  -->
<svg version="1.1" xmlns="http://www.w3.org/2000/svg" xmlns:xlink="http://www.w3.org/1999/xlink" x="0px" y="0px"
	 viewBox="0 0 163.94 163.94" style="enable-background:new 0 0 163.94 163.94;" xml:space="preserve">
<style type="text/css">
	.perio-st0{fill:var(--icon-color-primary, #d1e3e5);}
	.perio-st1{fill:var(--icon-color-secondary, rgba(129,130,133,0.3))}
	.perio-st2{fill:#FFFFFF;}
	.perio-st3{fill:#FFFFFF;stroke:#313131;stroke-width:2.2677;stroke-linecap:round;stroke-linejoin:round;stroke-miterlimit:10;}
	.perio-st4{fill:none;stroke:#313131;stroke-width:2.2677;stroke-linecap:round;stroke-linejoin:round;stroke-miterlimit:10;}
</style>
<g id="Layer_4_copy_2">
	<circle class="perio-st0" cx="46.69" cy="55.08" r="44.16"/>
	<circle class="perio-st1" cx="106.98" cy="95.27" r="54.99"/>
</g>
<g id="Perio">
	<g>
		<g>
			<g>
				<line class="perio-st2" x1="95.25" y1="32.95" x2="101.81" y2="38.03"/>
				<g id="XMLID_00000119115768915901741790000015543742294442430367_">
					<g>
						<path class="perio-st2" d="M72.7,61.75C72.7,61.75,72.71,61.75,72.7,61.75c1.08,2.9,0.96,5.99-0.43,8.7
							c-3.4,6.65-8.93,20.45-5.21,34.55c0.42,1.59,2.93,1.72,3.48,0.2c3.31-9.06,10.81-27.35,16.95-26.09
							c6.21,0.82,7.33,20.56,7.5,30.2c0.03,1.62,2.44,2.32,3.35,0.95c7.72-11.52,7.46-25.51,6.51-33.21
							c-0.05-0.4-0.1-0.78-0.15-1.15c-0.28-1.98,0.01-3.93,0.8-5.71c0.41-0.94,0.96-1.83,1.64-2.65
							c4.77-5.79,12.66-17.32,9.37-26.91c-4.59-13.42-21.27-7.67-21.27-7.67s-13.88-10.87-22.61,0.31
							C66.4,41.25,70.09,54.71,72.7,61.75z"/>
					</g>
				</g>
			</g>
			<g>
				<line class="perio-st3" x1="95.86" y1="32.54" x2="102.42" y2="37.62"/>
				<g id="XMLID_00000077314605059689131320000006297055479317649290_">
					<g>
						<path class="perio-st4" d="M73.31,61.34C73.31,61.34,73.32,61.34,73.31,61.34c1.08,2.9,0.96,5.99-0.43,8.7
							c-3.4,6.65-8.93,20.45-5.21,34.55c0.42,1.59,2.93,1.72,3.48,0.2c3.31-9.06,10.81-27.35,16.95-26.09
							c6.21,0.82,7.33,20.56,7.5,30.2c0.03,1.62,2.44,2.32,3.35,0.95c7.72-11.52,7.46-25.51,6.51-33.21
							c-0.05-0.4-0.1-0.78-0.15-1.15c-0.28-1.98,0.01-3.93,0.8-5.71c0.41-0.94,0.96-1.83,1.64-2.65
							c4.77-5.79,12.66-17.32,9.37-26.91c-4.59-13.42-21.27-7.67-21.27-7.67s-13.88-10.87-22.61,0.31
							C67.01,40.84,70.7,54.3,73.31,61.34z"/>
					</g>
				</g>
			</g>
			<g>
				<path class="perio-st3" d="M59.22,136.15h44.68c5.66,0,10.47-4.64,11.31-10.92c2.21-16.59,6.18-43.82,6.47-48.38
					c0.13-2.06-0.61-3.99-1.98-5.17c-0.84-0.72-1.67-1.05-2.69-1.05c-2.82,0-5.04,4.68-5.31,7.23c-0.09,0.82-0.17,1.76-0.26,2.79
					c-0.79,8.9-2.11,23.79-11.23,33.14c-9.1,9.34-12.88,5.64-15.63,2.93c-0.94-0.92-1.75-1.72-2.55-1.73
					c-1.41-0.03-2.53,0.42-3.61,0.84c-3.72,1.46-6.35,1.8-13.25-9.18c-0.01-0.01-0.01-0.03-0.02-0.04
					c-0.91-1.21-1.75-2.61-2.51-4.15c-0.01-0.02-0.03-0.03-0.04-0.04c-2.23-3.17-4.08-8.88-6.03-14.92
					c-2.45-7.6-5.23-16.22-8.41-16.88c-0.51-0.11-1.08-0.07-1.69,0.1c-2.84,0.79-4.64,4.04-4.08,7.4
					c1.65,10.04,4.1,31.89,5.48,46.57C48.47,131.2,53.37,136.15,59.22,136.15z"/>
			</g>
		</g>
	</g>
</g>
</svg>
