<?xml version="1.0" encoding="utf-8"?>
<!-- Generator: Adobe Illustrator 25.4.1, SVG Export Plug-In . SVG Version: 6.00 Build 0)  -->
<svg version="1.1" xmlns="http://www.w3.org/2000/svg" xmlns:xlink="http://www.w3.org/1999/xlink" x="0px" y="0px"
	 viewBox="0 0 163.94 163.94" style="enable-background:new 0 0 163.94 163.94;" xml:space="preserve">
<style type="text/css">
	.shining-tooth-st0{fill:var(--icon-color-primary, #d1e3e5);}
	.shining-tooth-st1{fill:var(--icon-color-secondary, rgba(129,130,133,0.3))}
	.shining-tooth-st2{fill:#FFFFFF;}
	.shining-tooth-st3{fill:#FFFFFF;stroke:#313131;stroke-width:2.4855;stroke-linecap:round;stroke-linejoin:round;stroke-miterlimit:10;}
	.shining-tooth-st4{fill:none;stroke:#313131;stroke-width:2.4855;stroke-linecap:round;stroke-linejoin:round;stroke-miterlimit:10;}
</style>
<g id="Layer_5_copy_7">
	<circle class="shining-tooth-st0" cx="62.95" cy="88.83" r="60.41"/>
	<circle class="shining-tooth-st1" cx="114.89" cy="55.36" r="43.07"/>
</g>
<g id="Whitening">
	<g>
		<g id="XMLID_00000142869284632286133760000010227343896939757732_">
			<g>
				<path class="shining-tooth-st2" d="M49.54,76.95C49.54,76.95,49.54,76.95,49.54,76.95c1.84,2.95,2.3,6.31,1.21,9.5
					c-2.68,7.82-6.44,23.76,0.69,38.36c0.81,1.65,3.77,1.33,4.12-0.42c2.1-10.41,7.29-31.57,14.74-31.33
					c7.45-0.24,12.64,20.93,14.74,31.33c0.35,1.75,3.32,2.07,4.12,0.42c6.78-13.87,3.72-28.97,1.09-37.14
					c-0.14-0.42-0.27-0.83-0.4-1.21c-0.71-2.09-0.76-4.26-0.19-6.33c0.3-1.09,0.77-2.15,1.4-3.17c4.45-7.14,11.43-21.05,5.69-30.84
					c-8.03-13.69-26.45-4.44-26.45-4.44s-18.42-9.25-26.45,4.44C38.11,55.9,45.09,69.8,49.54,76.95z"/>
			</g>
		</g>
		<g>
			<line class="shining-tooth-st3" x1="70.93" y1="41.12" x2="79.62" y2="45.42"/>
			<g id="XMLID_00000108284235348583356180000014452830115278876091_">
				<g>
					<path class="shining-tooth-st4" d="M50.17,76.39C50.17,76.39,50.17,76.39,50.17,76.39c1.84,2.95,2.3,6.31,1.21,9.5
						c-2.68,7.82-6.44,23.76,0.69,38.36c0.81,1.65,3.77,1.33,4.12-0.42c2.1-10.41,7.29-31.57,14.74-31.33
						c7.45-0.24,12.64,20.93,14.74,31.33c0.35,1.75,3.32,2.07,4.12,0.42c6.78-13.87,3.72-28.97,1.09-37.14
						c-0.14-0.42-0.27-0.83-0.4-1.21c-0.71-2.09-0.76-4.26-0.19-6.33c0.3-1.09,0.77-2.15,1.4-3.17c4.45-7.14,11.43-21.05,5.69-30.84
						c-8.03-13.69-26.45-4.44-26.45-4.44s-18.42-9.25-26.45,4.44C38.74,55.34,45.72,69.25,50.17,76.39z"/>
				</g>
			</g>
		</g>
		<polygon class="shining-tooth-st3" points="116.14,80.23 105.64,74.92 95.31,80.56 97.12,68.93 88.56,60.85 100.18,58.98 105.22,48.34
			110.59,58.81 122.26,60.32 113.97,68.67 		"/>
	</g>
</g>
</svg>
