<?xml version="1.0" encoding="utf-8"?>
<!-- Generator: Adobe Illustrator 25.3.1, SVG Export Plug-In . SVG Version: 6.00 Build 0)  -->
<svg version="1.1" xmlns="http://www.w3.org/2000/svg" xmlns:xlink="http://www.w3.org/1999/xlink" x="0px" y="0px"
	 viewBox="0 0 163.94 163.94" style="enable-background:new 0 0 163.94 163.94;" xml:space="preserve">
<style type="text/css">
	.skip-rope-st0{fill:var(--icon-color-primary, #d1e3e5);}
	.skip-rope-st1{fill:var(--icon-color-secondary, rgba(129,130,133,0.3));}
	.skip-rope-st2{fill:#FFFFFF;stroke:#091821;stroke-width:2.8346;}
	.skip-rope-st3{fill:none;stroke:#091821;stroke-width:2.8346;}
</style>
<g id="Layer_4">
	<circle class="skip-rope-st0" cx="46.69" cy="55.08" r="44.16"/>
	<circle class="skip-rope-st1" cx="106.98" cy="95.27" r="54.99"/>
</g>
<g id="Layer_2">
	<g>
		<path class="skip-rope-st2" d="M118.56,79.44c-1.66-0.75-13.3-7.51-23.3-18.71c-3.3-3.69-8.06-5.21-13.2-5.21c-5.32,0-10.09,2.03-12.84,5.19
			c-9.95,11.44-22.16,17.97-23.83,18.73c-3.1,1.42-4.67,3.68-3.75,6.53c0.89,2.77,3.12,3.89,7.05,3.27
			c5.4-0.85,13.24-5.23,21.42-11.57l-2.23,34.58c0.18,3.58,2.28,5.82,6.34,5.82c6.52,0,6.78-8.22,6.7-10.91l1.57,28.51
			c0.46,3.55,2.69,5.98,6.03,5.98c3.38,0,5.59-2.59,5.96-6.15L93.8,77.66c8.14,6.3,16.11,10.66,21.47,11.59
			c3.88,0.67,6.17-0.52,7.05-3.27C123.22,83.12,121.65,80.86,118.56,79.44z"/>
		<path class="skip-rope-st2" d="M81.97,50c7.65,0,13.86-6.2,13.86-13.86c0-7.66-6.2-13.86-13.86-13.86c-7.66,0-13.86,6.21-13.86,13.86
			C68.11,43.8,74.31,50,81.97,50z"/>
		<path class="skip-rope-st3" d="M94.46,134.56c13.8-4.83,23.7-17.97,23.7-33.42V89.38"/>
		<path class="skip-rope-st3" d="M47.37,89.39v11.75c0,19.55,15.85,35.4,35.4,35.4"/>
	</g>
</g>
</svg>
