<?xml version="1.0" encoding="utf-8"?>
<!-- Generator: Adobe Illustrator 26.3.1, SVG Export Plug-In . SVG Version: 6.00 Build 0)  -->
<svg version="1.1" id="Layer_1" xmlns="http://www.w3.org/2000/svg" xmlns:xlink="http://www.w3.org/1999/xlink" x="0px" y="0px"
	 viewBox="0 0 120.6 122.4" style="enable-background:new 0 0 120.6 122.4;" xml:space="preserve">
<style type="text/css">
	.checklist-st0{fill:none;stroke:var(--icon-color,#243133);stroke-width:2;stroke-linecap:square;stroke-miterlimit:10;}
	.checklist-st1{fill:none;stroke:var(--icon-color,#243133);stroke-width:2;stroke-miterlimit:10;}
</style>
<g>
	<g>
		<g>
			<path class="checklist-st0" d="M53.3,13.5c9.8,9.8,9.8,25.6,0,35.4c-9.8,9.8-25.6,9.8-35.4,0c-9.8-9.8-9.8-25.6,0-35.4
				C27.7,3.8,43.6,3.8,53.3,13.5z"/>
			<path class="checklist-st0" d="M18.9,46.1l0-1.1c0-2.5,1.7-4.7,4.1-5.4l5.2-1.4l0.4-0.1c4.7-0.7,9.5-0.7,14.2,0.1l0,0l5.5,1.5
				c2.4,0.7,4.1,2.9,4.1,5.4v1"/>
			<path class="checklist-st1" d="M43.8,27.6c0,4.5-3.6,8.1-8.1,8.1s-8.1-3.6-8.1-8.1c0-4.5,3.6-8.1,8.1-8.1S43.8,23.1,43.8,27.6z"/>
		</g>
		<g>
			<path class="checklist-st0" d="M53.3,73.5c9.8,9.8,9.8,25.6,0,35.4c-9.8,9.8-25.6,9.8-35.4,0c-9.8-9.8-9.8-25.6,0-35.4
				C27.7,63.8,43.6,63.8,53.3,73.5z"/>
			<path class="checklist-st0" d="M18.9,106.1l0-1.1c0-2.5,1.7-4.7,4.1-5.4l5.2-1.4l0.4-0.1c4.7-0.7,9.5-0.7,14.2,0.1l0,0l5.5,1.5
				c2.4,0.7,4.1,2.9,4.1,5.4v1"/>
			<path class="checklist-st1" d="M43.8,87.6c0,4.5-3.6,8.1-8.1,8.1s-8.1-3.6-8.1-8.1c0-4.5,3.6-8.1,8.1-8.1S43.8,83.1,43.8,87.6z"/>
		</g>
		<path class="checklist-st1" d="M53.3,12.4h55.1c0.8,0,1.4,0.6,1.4,1.4v34.8c0,0.8-0.6,1.4-1.4,1.4H53.3"/>
		<polyline class="checklist-st1" points="97,26.2 87,36.2 82,31.2 		"/>
		<path class="checklist-st1" d="M53.3,73.8h53.5c0.8,0,1.4,0.6,1.4,1.4v31.9c0,0.8-0.6,1.4-1.4,1.4H53.3"/>
		<g>
			<path class="checklist-st1" d="M83.3,97.4"/>
		</g>
	</g>
	<polyline class="checklist-st1" points="97,86 87,96 82,91 	"/>
</g>
</svg>
