<?xml version="1.0" encoding="utf-8"?>
<!-- Generator: Adobe Illustrator 26.3.1, SVG Export Plug-In . SVG Version: 6.00 Build 0)  -->
<svg version="1.1" id="Layer_1" xmlns="http://www.w3.org/2000/svg" xmlns:xlink="http://www.w3.org/1999/xlink" x="0px" y="0px"
	 viewBox="0 0 120.6 122.4" style="enable-background:new 0 0 120.6 122.4;" xml:space="preserve">
<style type="text/css">
	.dental-chair-st0{fill:none;stroke:var(--icon-color,#243133);stroke-width:2;stroke-linecap:square;stroke-miterlimit:10;}
	.dental-chair-st1{fill:none;stroke:var(--icon-color,#243133);stroke-width:2;stroke-miterlimit:10;}
</style>
<g>
	<path class="dental-chair-st0" d="M88.4,100.4l-17.3-15H45c-2.5,0-4.9-0.9-6.7-2.6L9.7,57l2.8-3c2.2-2.4,5.9-2.6,8.3-0.4l22.8,20.7
		c0.9,0.8,2.1,1.3,3.4,1.3h24.2c2.4,0,4.7,0.9,6.5,2.4l17.3,15c2.1,1.8,2.3,5,0.5,7.1l0,0C93.6,102,90.4,102.3,88.4,100.4z"/>
	<path class="dental-chair-st0" d="M8.9,40.6c2.8,0,5-2.2,5-5v-5c0-2.8-2.2-5-5-5c-2.8,0-5,2.2-5,5v10H8.9z"/>
	<path class="dental-chair-st0" d="M3.9,33.4v13c0,3.5,1.5,6.8,4,9.1l4.1,3.8"/>
	<path class="dental-chair-st1" d="M56.1,85.5h12c0,12.4-10,22.4-22.4,22.4h-3.9"/>
	<path class="dental-chair-st1" d="M76.7,117.9H29.4v-5l3.4-3.4c1-1,2.3-1.6,3.7-1.6h32.9c1.4,0,2.8,0.6,3.7,1.6l3.4,3.4V117.9z"/>
	<line class="dental-chair-st1" x1="68.1" y1="75.5" x2="68.1" y2="56.9"/>
	<line class="dental-chair-st1" x1="50.6" y1="56.9" x2="85.6" y2="56.9"/>
	<line class="dental-chair-st1" x1="9.4" y1="117.9" x2="116.6" y2="117.9"/>
	<path class="dental-chair-st1" d="M106.6,117.9V14.5c0-5.5-4.5-10-10-10H62.1c-2.7,0-5.2,1.1-7.1,2.9L44.8,17.7"/>
	<path class="dental-chair-st1" d="M45,30.1c-3.4,3.4-8.8,3.4-12.1,0c-3.4-3.4-3.4-8.8,0-12.1c3.4-3.4,8.8-3.4,12.1,0
		C48.4,21.3,48.4,26.8,45,30.1z"/>
	<line class="dental-chair-st1" x1="55.9" y1="57" x2="55.9" y2="47"/>
	<line class="dental-chair-st1" x1="78.1" y1="57" x2="78.1" y2="47"/>
</g>
</svg>
