<?xml version="1.0" encoding="utf-8"?>
<!-- Generator: Adobe Illustrator 26.3.1, SVG Export Plug-In . SVG Version: 6.00 Build 0)  -->
<svg version="1.1" id="Layer_1" xmlns="http://www.w3.org/2000/svg" xmlns:xlink="http://www.w3.org/1999/xlink" x="0px" y="0px"
	 viewBox="0 0 120.6 122.4" style="enable-background:new 0 0 120.6 122.4;" xml:space="preserve">
<style type="text/css">
	.family-st0{fill:none;stroke:var(--icon-color,#243133);stroke-width:2;stroke-linejoin:round;stroke-miterlimit:10;}
</style>
<g>
	<line class="family-st0" x1="86.6" y1="93.9" x2="86.6" y2="110.3"/>
	<path class="family-st0" d="M55.3,21.6c0,9.9,8,18,18,18c9.9,0,18-8,18-18c0-9.9-8-18-18-18C63.4,3.6,55.3,11.7,55.3,21.6z"/>
	<path class="family-st0" d="M37.7,89.7c2,1.4,3.3,3.4,4,5.4c0.6,2,0.6,4.1-0.1,5.7c-0.6,1.2-1.5,2.2-2,2.7c-3.6,4-6.4,1.9-10.7-1.1
		c-2.7-1.9-5.3-3.7-6-5.8c-0.3-0.8-0.2-1.7,0.2-2.6c0.4-0.8,0.6-1,1.8-2.3C28.1,88.1,33.4,86.7,37.7,89.7z"/>
	<path class="family-st0" d="M78.7,71.7L78.7,71.7C76,80.3,68.2,92.6,54.1,93.9c-4.3,0.4-5.6,4.7-4.9,9c0.6,3.7,3.9,5.2,7.8,5.2
		c31-2.1,40.6-29.1,41-44.7c0-10.4-8.4-17-18.7-17H67.6c-2,0-5.2,0.2-7.9,0.8"/>
	<path class="family-st0" d="M56,49.5c0,6.9-5.6,12.4-12.4,12.4c-6.9,0-12.4-5.6-12.4-12.4c0-6.9,5.6-12.4,12.4-12.4
		C50.5,37,56,42.6,56,49.5z"/>
	<line class="family-st0" x1="49.6" y1="104.5" x2="40.1" y2="103"/>
	<path class="family-st0" d="M58,107.9l7.7,9.4c0.6,0.7,3.5,2.6,6.6,0.4c2.7-1.9,3.1-5,1.8-6.7l-3.8-5.9"/>
	<path class="family-st0" d="M39.6,76.9c4.3,7.4,11.8,13.3,20.4,14.9c2.6,0.5,5.6-1.9,6.1-4.5c0.5-2.6-1.2-5.5-3.8-6
		c-3.9-0.7-6.3-2.1-8.7-4.7c-3.4-3.7-4.2-7.8-6.7-10.3c-1.2-1.2-3.3-3.2-7.3-3.2c-4.7,0-9.1,3.4-10.8,7.9c-2,5.2-3.4,12.7-3.4,19.8"
		/>
</g>
</svg>
