<?xml version="1.0" encoding="utf-8"?>
<!-- Generator: Adobe Illustrator 26.3.1, SVG Export Plug-In . SVG Version: 6.00 Build 0)  -->
<svg version="1.1" id="Layer_1" xmlns="http://www.w3.org/2000/svg" xmlns:xlink="http://www.w3.org/1999/xlink" x="0px" y="0px"
	 viewBox="0 0 120.6 122.4" style="enable-background:new 0 0 120.6 122.4;" xml:space="preserve">
<style type="text/css">
	.implant-st0{fill:none;stroke:var(--icon-color,#243133);stroke-width:2;stroke-linecap:round;stroke-linejoin:round;stroke-miterlimit:10;}
</style>
<g>
	<line class="implant-st0" x1="30.3" y1="69.8" x2="70.5" y2="29.5"/>
	<line class="implant-st0" x1="57.2" y1="96.7" x2="89.4" y2="48.4"/>
	<line class="implant-st0" x1="69.4" y1="108.9" x2="101.5" y2="60.5"/>
	<line class="implant-st0" x1="83.7" y1="117.9" x2="111.6" y2="75.9"/>
	<path class="implant-st0" d="M41.1,25.8c0,0-8.4,9.5-28.8,11.1c-10.1,0.8-9.2,18.5,1.8,27.3c3.3,2.6,7.4,4.1,11.5,4.6
		c4,0.5,10.9,2.2,16.6,7.8c0.9,0.9,1.9,1.8,2.9,2.6L80,44.4c-0.9-1.2-1.5-1.8-2.6-2.9c-5.7-5.7-7.4-12.6-7.8-16.6
		c-0.5-4.2-2-8.3-4.6-11.5c-8.8-11-26.4-11.8-27.3-1.8c-1.1,12-12.6,23-12.6,23"/>
	<polygon class="implant-st0" points="114.5,91 115.3,106.4 107.2,114.6 91.8,113.7 48.6,75.7 76.5,47.9 	"/>
</g>
</svg>
