<?xml version="1.0" encoding="utf-8"?>
<!-- Generator: Adobe Illustrator 26.5.0, SVG Export Plug-In . SVG Version: 6.00 Build 0)  -->
<svg version="1.1" id="Layer_1" xmlns="http://www.w3.org/2000/svg" xmlns:xlink="http://www.w3.org/1999/xlink" x="0px" y="0px"
	 viewBox="0 0 120.6 122.4" style="enable-background:new 0 0 120.6 122.4;" xml:space="preserve">
<style type="text/css">
	.team-st0{fill:none;stroke:var(--icon-color,#243133);stroke-width:2;stroke-linejoin:round;stroke-miterlimit:10;}
</style>
<g>
	<path class="team-st0" d="M42.6,31.4c5.7,0,10.3-4.6,10.3-10.3c0-5.7-4.6-10.3-10.3-10.3c-5.7,0-10.3,4.6-10.3,10.3
		C32.3,26.8,37,31.4,42.6,31.4z"/>
	<path class="team-st0" d="M78,31.4c5.7,0,10.3-4.6,10.3-10.3c0-5.7-4.6-10.3-10.3-10.3c-5.7,0-10.3,4.6-10.3,10.3
		C67.7,26.8,72.3,31.4,78,31.4z"/>
	<path class="team-st0" d="M28.8,55c5.9,0,10.7-4.8,10.7-10.7c0-5.9-4.8-10.7-10.7-10.7c-5.9,0-10.7,4.8-10.7,10.7
		C18.1,50.2,22.9,55,28.8,55z"/>
	<path class="team-st0" d="M18,68.8c2.9-1.9,3.4-5.1,1.8-8.1c-1-2-1.8-2.8-3.5-2.5c-1.3,0.2-2.7,1.2-4.2,2.3c-2.8,2-4.7,3.3-2.9,6.6
		C10,68.5,13.8,71.5,18,68.8z"/>
	<path class="team-st0" d="M60.3,53.1c5.9,0,10.7-4.8,10.7-10.7c0-5.9-4.8-10.7-10.7-10.7c-5.9,0-10.7,4.8-10.7,10.7
		C49.6,48.3,54.4,53.1,60.3,53.1z"/>
	<path class="team-st0" d="M72.4,111.5V72.1c0-5.8,2.6-9.1,4-11.2c-2.3-2-5.4-2.5-10-2.5L60.3,64l-6.2-5.5c-4.5,0-7.7,0.5-10,2.5
		c0,0,4,4.3,4,11.2v39.4"/>
	<path class="team-st0" d="M48.1,77.2c0,0-5.2-1.3-7.1-2v36.2"/>
	<path class="team-st0" d="M16.7,111.5c0,0,0-10.3,0-10.3c-3.6,0-6.3-2-6.3-5.6V75c0-1.7,0.2-3.3,0.6-4.7c0.1-0.4,0.2-0.8,0.4-1.2"/>
	<path class="team-st0" d="M20.2,61.4c1-0.3,2.1-0.4,3.3-0.4l5.9,5.1l5.9-6.3c3.1,0,6.6,0.4,8.8,1.2"/>
	<path class="team-st0" d="M91.8,55c-5.9,0-10.7-4.8-10.7-10.7c0-5.9,4.8-10.7,10.7-10.7c5.9,0,10.7,4.8,10.7,10.7
		C102.5,50.2,97.7,55,91.8,55z"/>
	<path class="team-st0" d="M102.6,68.8c-2.9-1.9-3.4-5.1-1.8-8.1c1-2,1.8-2.8,3.5-2.5c1.3,0.2,2.7,1.2,4.2,2.3c2.8,2,4.7,3.3,2.9,6.6
		C110.6,68.5,106.8,71.5,102.6,68.8z"/>
	<path class="team-st0" d="M72.5,77.2c0,0,5.2-1.3,7.1-2v36.2"/>
	<path class="team-st0" d="M103.9,111.5c0,0,0-10.3,0-10.3c3.6,0,6.3-2,6.3-5.6V75c0-1.7-0.2-3.3-0.6-4.7c-0.1-0.4-0.2-0.8-0.4-1.2"/>
	<path class="team-st0" d="M100.4,61.4c-1-0.3-2.1-0.4-3.3-0.4L91.2,66l-5.9-6.3c-3.1,0-6.6,0.4-8.8,1.2"/>
</g>
</svg>
