<?xml version="1.0" encoding="utf-8"?>
<!-- Generator: Adobe Illustrator 26.3.1, SVG Export Plug-In . SVG Version: 6.00 Build 0)  -->
<svg version="1.1" id="Layer_1" xmlns="http://www.w3.org/2000/svg" xmlns:xlink="http://www.w3.org/1999/xlink" x="0px" y="0px"
	 viewBox="0 0 163.9 163.9" style="enable-background:new 0 0 163.9 163.9;" xml:space="preserve">
<style type="text/css">
	.dental-chair-st0{fill:none;stroke:var(--icon-color, #313131);stroke-width:1.8;stroke-linecap:round;stroke-linejoin:round;stroke-miterlimit:10;}
</style>
<g id="NewChair">
	<g>
		<g>
			<g>
				<path class="dental-chair-st0" d="M124.8,110.9c-1.3,0-2.7-0.3-4-1.1L94.1,94.5H62.6c-2.8,0-5.3-1.4-6.8-3.7l-23.5-38
					c-2.3-3.7-1.1-8.5,2.7-10.7s8.6-1.1,10.9,2.6l21.2,34.2h29.2c1.4,0,2.8,0.4,4,1.1l28.6,16.4c3.8,2.2,5.1,6.9,2.9,10.7
					C130.2,109.5,127.6,110.9,124.8,110.9z"/>
			</g>
			<rect x="74.6" y="94.6" class="dental-chair-st0" width="11.9" height="21.1"/>
			<polygon class="dental-chair-st0" points="100.7,129.6 60.3,129.6 74.6,115.7 86.5,115.7 			"/>
			<path class="dental-chair-st0" d="M56.8,129.6"/>
			<path class="dental-chair-st0" d="M81.2,40.2c0.3-1.4,1-2.7,2-3.6c1.4-1.4,3.3-2.2,5.4-2.2c4.2,0,7.6,3.3,7.6,7.5v37.1"/>
			<path class="dental-chair-st0" d="M68.3,46.4c1.8-5.2,7.5-8,12.8-6.3s8.2,7.4,6.4,12.6L68.3,46.4z"/>
		</g>
	</g>
</g>
</svg>
