<?xml version="1.0" encoding="utf-8"?>
<!-- Generator: Adobe Illustrator 26.3.1, SVG Export Plug-In . SVG Version: 6.00 Build 0)  -->
<svg version="1.1" id="Layer_1" xmlns="http://www.w3.org/2000/svg" xmlns:xlink="http://www.w3.org/1999/xlink" x="0px" y="0px"
	 viewBox="0 0 163.9 163.9" style="enable-background:new 0 0 163.9 163.9;" xml:space="preserve">
<style type="text/css">
	.family-st0{fill:none;stroke:var(--icon-color, #313131);stroke-width:1.8;stroke-linecap:round;stroke-linejoin:round;stroke-miterlimit:10;}
</style>
<g id="Layer_4_copy_5">
</g>
<g id="In">
	<g>
		<g>
			<path class="family-st0" d="M65.5,49.9c6.2,0,11.3-5.5,11.3-12.3s-5.1-12.3-11.3-12.3s-11.3,5.5-11.3,12.3
				C54.2,44.4,59.2,49.9,65.5,49.9z"/>
			<path class="family-st0" d="M112.5,83.1c5.2,0,9.4-4.6,9.4-10.2s-4.2-10.2-9.4-10.2s-9.4,4.6-9.4,10.2S107.3,83.1,112.5,83.1z"/>
		</g>
		<g>
			<g>
				<path class="family-st0" d="M119.7,138.5c-1.7,0-3.2-1.2-3.6-2.8l-3.9-15.3l-4,15.3c-0.4,1.7-1.9,2.8-3.6,2.8c-2,0-3.7-1.6-3.7-3.7
					c0-0.1,0-0.4,0-0.4l3.4-30.1l-2.8-2c-4.8,2.2-6.1,2.3-6.3,2.3c-0.8,0-3.1-1.2-6.6-3.7l-1.7-0.3c-0.4,0.1-0.8,0.2-1.2,0.2
					c-3.8,0-6.9-14.2-10-24.6l-1.4,57.6c0,2.6-2.1,4.6-4.6,4.6c-2.2,0-4.1-1.6-4.5-3.7c0-0.2-5.8-30-5.8-30l-5.9,30
					c-0.4,2.1-2.3,3.7-4.5,3.7c-2.5,0-4.6-2.1-4.6-4.6l0.5-58c0,0-8,24.9-11.9,24.9c-1.6,0-2.7-0.7-3.2-2.1
					c-0.5-1.2-0.5-2.5-0.5-3.5c0-1,1.7-8.8,3.8-16.8c3.8-13.8,6.3-17.8,7.4-19c1.8-1.8,5.6-5.6,18.8-5.6s17,3.8,18.8,5.6
					c1.2,1.2,3.7,5.1,7.4,19C87.1,84.2,88.5,90,89,93l1.4,1.5c1.7,0.5,3.3,0.8,4.8,0.8c1.7,0,3.4-1.5,5.3-3.2c2.2-2,4.8-4.3,7.9-4.3
					h0.3c2,0,3.7,0,5.1,0c1.5,0,2.6,0,3.4,0c3.3,0.1,6.4,2.1,8,5.1l9.2,17.6c0.3,0.5,0.4,1.1,0.4,1.7c0,2-1.6,3.7-3.7,3.7
					c-1.3,0-2.4-0.7-3.2-1.8l-7.3-10.7l2.8,31c0,0.1,0,0.2,0,0.4C123.4,136.9,121.7,138.5,119.7,138.5z"/>
			</g>
		</g>
		<path class="family-st0" d="M90.4,94.5c0,0-4.6-0.3-2.4,6.1"/>
	</g>
</g>
</svg>
