<?xml version="1.0" encoding="utf-8"?>
<!-- Generator: Adobe Illustrator 26.3.1, SVG Export Plug-In . SVG Version: 6.00 Build 0)  -->
<svg version="1.1" id="Layer_1" xmlns="http://www.w3.org/2000/svg" xmlns:xlink="http://www.w3.org/1999/xlink" x="0px" y="0px"
	 viewBox="0 0 163.9 163.9" style="enable-background:new 0 0 163.9 163.9;" xml:space="preserve">
<style type="text/css">
	.financial-st0{fill:none;stroke:var(--icon-color, #313131);stroke-width:1.8;stroke-linecap:round;stroke-linejoin:round;stroke-miterlimit:10;}
</style>
<g id="Layer_4_copy_5">
</g>
<g id="In">
	<g>
		<g>
			<g>
				<path class="financial-st0" d="M105.3,91.6c0,0,11.1-8.4,18.7-14.1c6.9-5.2,12.5-4,17.1-0.3c1.1,0.9,1.2,2.6,0.1,3.6l-34.5,32.5
					c-1,1-2.4,1.5-3.8,1.5H56"/>
				<path class="financial-st0" d="M38.5,97.3c8.9-10.9,16.1-15,25-15c7.7,0,11.8,0.9,18.4,5.3c5,0,11.8,0,14.1,0c2.1,0,8.7,0.9,9.7,9.9
					c0.1,1.1-0.8,2.2-1.9,2.2H76.1"/>
				<polyline class="financial-st0" points="21.9,103 33,91.9 64.7,123.5 53.5,134.6 				"/>
				<polyline class="financial-st0" points="21.9,103 33,91.9 64.7,123.5 53.5,134.6 				"/>
				<polyline class="financial-st0" points="21.9,103 33,91.9 64.7,123.5 53.5,134.6 				"/>
			</g>
			<circle class="financial-st0" cx="34.6" cy="108.6" r="2.9"/>
		</g>
		<g>
			<g>
				<circle class="financial-st0" cx="93.1" cy="51.6" r="22.3"/>
				<circle class="financial-st0" cx="93.1" cy="51.6" r="22.3"/>
			</g>
			<g>
				<path class="financial-st0" d="M99.6,45.9c-2.2-5.7-11.8-5-11.9,0.9c0,2.7,3.1,3.9,5.7,4.3c9.5,1.5,6.9,10.5,0,10.1
					c-5.2-0.3-6.7-3.8-6.9-4.6"/>
				<line class="financial-st0" x1="93.6" y1="37.2" x2="93.6" y2="42"/>
				<line class="financial-st0" x1="93.6" y1="61.3" x2="93.6" y2="66.1"/>
			</g>
		</g>
	</g>
</g>
</svg>
