<?xml version="1.0" encoding="utf-8"?>
<!-- Generator: Adobe Illustrator 26.3.1, SVG Export Plug-In . SVG Version: 6.00 Build 0)  -->
<svg version="1.1" id="Layer_1" xmlns="http://www.w3.org/2000/svg" xmlns:xlink="http://www.w3.org/1999/xlink" x="0px" y="0px"
	 viewBox="0 0 163.9 163.9" style="enable-background:new 0 0 163.9 163.9;" xml:space="preserve">
<style type="text/css">
	.heart-st0{fill:none;stroke:var(--icon-color, #313131);stroke-width:2.2677;stroke-linecap:round;stroke-linejoin:round;stroke-miterlimit:10;}
</style>
<g id="Keeping_Safe">
	<g>
		<g>
			<polygon class="heart-st0" points="35.5,110.2 48.3,110.2 48.3,75.3 36,75.3 			"/>
			<path class="heart-st0" d="M72.2,102.8h23.1c6.2,0,6.2-10.1,0-10.1h-7.8c-5.3,0-10.3-1.8-14.8-4.6c-5.8-3.6-18.5-4.4-24-2.1l-0.4,17.8
				l26.5,10.7l8.1,3.2c2.3,0.9,4.8,0.8,7-0.3l4.3-2.2l31.6-16.4c2.3-1.2,3.3-4.1,2.1-6.4l0,0c-1.1-2.1-3.5-3.2-5.8-2.4l-21,6.7"/>
		</g>
		<g>
			<path class="heart-st0" d="M92.3,51.7c-10.6-16.8-38,3.5,0,29.3"/>
			<path class="heart-st0" d="M92.3,51.7c10.6-16.8,38,3.5,0,29.3"/>
		</g>
	</g>
</g>
</svg>
