<?xml version="1.0" encoding="utf-8"?>
<!-- Generator: Adobe Illustrator 26.3.1, SVG Export Plug-In . SVG Version: 6.00 Build 0)  -->
<svg version="1.1" id="Layer_1" xmlns="http://www.w3.org/2000/svg" xmlns:xlink="http://www.w3.org/1999/xlink" x="0px" y="0px"
	 viewBox="0 0 163.9 163.9" style="enable-background:new 0 0 163.9 163.9;" xml:space="preserve">
<style type="text/css">
	.insurance-st0{fill:none;stroke:var(--icon-color, #313131);stroke-width:1.8;stroke-linecap:round;stroke-linejoin:round;stroke-miterlimit:10;}
</style>
<g id="In">
	<g>
		<path class="insurance-st0" d="M102.9,32.4c-2,0-3.9,0.9-5.1,2.6l-6.1,8.4c-2.3,3.1-6,4.9-9.8,4.9c-1.2,0-2.4-0.2-3.6-0.6
			c-2.4-0.8-4.5-2.3-6-4.4c0-0.1-0.1-0.1-0.1-0.2L66.2,35c-1.2-1.7-3.2-2.6-5.1-2.6c-1.3,0-2.6,0.4-3.7,1.2c-1.4,1-2.3,2.5-2.5,4.1
			c-0.3,1.7,0.1,3.3,1.1,4.7l15.6,21.5c2.6,3.6,6.4,5.6,10.4,5.6c4,0,7.8-2.1,10.4-5.6L108,42.4c2.1-2.8,1.4-6.8-1.4-8.8
			C105.5,32.8,104.2,32.4,102.9,32.4L102.9,32.4z"/>
		<path class="insurance-st0" d="M82,28c-3.6,0-6.7,2.3-7.8,5.7c-0.7,2.1-0.5,4.3,0.5,6.3s2.7,3.4,4.8,4.1c0.8,0.3,1.7,0.4,2.6,0.4
			c3.6,0,6.7-2.3,7.8-5.7c1.4-4.3-1-9-5.3-10.4l0,0C83.7,28.1,82.8,28,82,28L82,28z"/>
		<path class="insurance-st0" d="M43.5,82.5L43.5,82.5L43.5,82.5 M47.1,42.5c-1.3,0-2.6,0.4-3.7,1.2c-1.4,1-2.3,2.5-2.5,4.1
			c-0.3,1.7,0.1,3.3,1.1,4.7l6.1,8.4c2.2,3.1,2.8,7.1,1.7,10.7c-0.4,1.2-1,2.3-1.7,3.4c-1.5,2.1-3.6,3.6-6.1,4.4
			c-0.1,0-0.1,0.1-0.2,0.1l-9.5,3.1c-1.6,0.5-2.9,1.6-3.7,3.1s-0.9,3.2-0.4,4.8c0.9,2.7,3.4,4.4,6,4.4c0.6,0,1.3-0.1,2-0.3l25.2-8.2
			c4.2-1.4,7.3-4.4,8.6-8.2s0.5-8.1-2.1-11.7L52.2,45.1C51,43.4,49.1,42.5,47.1,42.5L47.1,42.5z"/>
		<path class="insurance-st0" d="M38.3,59.7c-2.6,0-5.1,1.2-6.7,3.4c-0.5,0.7-0.9,1.5-1.2,2.3c-1.1,3.4,0.1,7.1,3,9.2c1.5,1.1,3.2,1.6,4.8,1.6
			c2.6,0,5.1-1.2,6.7-3.4c0.5-0.7,0.9-1.5,1.2-2.3c1.1-3.4-0.1-7.1-3-9.2C41.7,60.2,40,59.7,38.3,59.7L38.3,59.7z"/>
		<path class="insurance-st0" d="M67.3,90.1c-1.5,0-3,0.2-4.5,0.7L37.6,99c-3.3,1.1-5.1,4.7-4.1,8c0.9,2.7,3.3,4.4,6,4.4c0.7,0,1.3-0.1,2-0.3
			l9.9-3.2c1.2-0.4,2.4-0.6,3.6-0.6c2.5,0,5,0.8,7.1,2.3c1,0.8,1.9,1.6,2.7,2.7c1.5,2.1,2.3,4.6,2.3,7.1c0,0.1,0,0.1,0,0.2v10
			c0,3.5,2.8,6.3,6.3,6.3c3.5,0,6.3-2.8,6.3-6.3v-26.5c0-4.4-1.9-8.3-5.1-10.7C72.4,90.9,69.9,90.1,67.3,90.1L67.3,90.1z"/>
		<path class="insurance-st0" d="M55,111.1c-1.7,0-3.4,0.5-4.9,1.6c-3.7,2.7-4.5,7.8-1.8,11.5l0,0c0.5,0.7,1.1,1.3,1.8,1.8
			c1.5,1.1,3.2,1.6,4.8,1.6s3.4-0.5,4.8-1.6c1.8-1.3,3-3.2,3.3-5.4c0.3-2.2-0.2-4.4-1.5-6.1c-0.5-0.7-1.1-1.3-1.8-1.8
			C58.4,111.6,56.7,111.1,55,111.1L55,111.1z"/>
		<path class="insurance-st0" d="M96.7,90.1c-2.7,0-5.2,0.8-7.3,2.3c-3.3,2.4-5.2,6.3-5.2,10.7v26.5c0,3.5,2.8,6.3,6.3,6.3
			c3.5,0,6.3-2.8,6.3-6.3v-10.4c0-3.8,1.9-7.4,5-9.7c1-0.7,2.2-1.3,3.4-1.7c1.2-0.4,2.4-0.6,3.7-0.6c1.3,0,2.6,0.2,3.8,0.6
			c0.1,0,0.1,0,0.2,0l9.6,3.1c0.6,0.2,1.3,0.3,2,0.3c1,0,2-0.2,2.9-0.7c1.5-0.8,2.6-2.1,3.1-3.7c1.1-3.3-0.7-6.9-4.1-8l-25.2-8.2
			C99.7,90.3,98.2,90.1,96.7,90.1L96.7,90.1z"/>
		<path class="insurance-st0" d="M109,111.1c-0.8,0-1.7,0.1-2.6,0.4c-0.8,0.3-1.6,0.7-2.3,1.2c-2.9,2.1-4.1,5.8-3,9.2c0.7,2.1,2.1,3.8,4.1,4.8
			c1.2,0.6,2.4,0.9,3.7,0.9c0.9,0,1.7-0.1,2.6-0.4l0,0c0.8-0.3,1.6-0.7,2.3-1.2c2.9-2.1,4.1-5.8,3-9.2
			C115.7,113.3,112.4,111.1,109,111.1L109,111.1z"/>
		<path class="insurance-st0" d="M116.8,42.5c-2,0-3.9,0.9-5.1,2.6L96.1,66.6c-2.6,3.6-3.4,7.8-2.1,11.7c1.2,3.8,4.4,6.8,8.6,8.2l25.2,8.2
			c0.6,0.2,1.3,0.3,1.9,0.3c2.7,0,5.1-1.7,6-4.4l0,0c1.1-3.3-0.8-6.9-4.1-8l-9.9-3.2c-3.6-1.2-6.5-4.1-7.7-7.7
			c-0.4-1.2-0.6-2.5-0.6-3.7c0-2.6,0.8-5,2.3-7.1c0-0.1,0.1-0.1,0.1-0.2l5.9-8.1c2.1-2.8,1.4-6.8-1.4-8.8
			C119.4,42.9,118.1,42.5,116.8,42.5L116.8,42.5z"/>
		<path class="insurance-st0" d="M125.7,59.7c-4.6,0-8.2,3.7-8.2,8.2c0,0.9,0.1,1.7,0.4,2.6c1.1,3.4,4.3,5.7,7.8,5.7c0,0,0,0,0,0
			c2.2,0,4.3-0.9,5.8-2.4c1.6-1.6,2.4-3.6,2.4-5.8l0,0c0-0.9-0.1-1.7-0.4-2.6C132.4,62,129.2,59.7,125.7,59.7L125.7,59.7z"/>
	</g>
</g>
</svg>
