<?xml version="1.0" encoding="utf-8"?>
<!-- Generator: Adobe Illustrator 26.3.1, SVG Export Plug-In . SVG Version: 6.00 Build 0)  -->
<svg version="1.1" id="Layer_1" xmlns="http://www.w3.org/2000/svg" xmlns:xlink="http://www.w3.org/1999/xlink" x="0px" y="0px"
	 viewBox="0 0 163.9 163.9" style="enable-background:new 0 0 163.9 163.9;" xml:space="preserve">
<style type="text/css">
	.medication-st0{fill:none;stroke:var(--icon-color, #313131);stroke-width:1.8;stroke-linejoin:round;stroke-miterlimit:10;}
	.medication-st1{fill:none;stroke:var(--icon-color, #313131);stroke-width:1.8;stroke-linecap:round;stroke-linejoin:round;stroke-miterlimit:10;}
</style>
<g id="Layer_4_copy_5">
</g>
<g id="In">
	<g>
		<g>
			<path class="medication-st0" d="M93.4,88c2.3-0.3,4.7-0.5,7.2-0.5c13.4,0,24.3,4.6,24.3,10.3"/>
			<path class="medication-st1" d="M93.4,88"/>
			<path class="medication-st1" d="M76.4,97.8"/>
			<path class="medication-st1" d="M124.9,97.5v14.9c0,5.6-10.9,10.7-24.3,10.7c-13.4,0-24.3-5.1-24.3-10.7v-6.1"/>
			<path class="medication-st1" d="M79.7,102.7c4.2,3.2,12,5.4,21,5.4c13.4,0,24.3-5.1,24.3-10.7"/>
			<line class="medication-st1" x1="92.7" y1="88.9" x2="110.8" y2="107.1"/>
		</g>
		<g>
			<path class="medication-st1" d="M91,90.4l21.7-19.8c3.6-3.6,4.7-8.3,4.7-13c0-4.3-1.4-8.6-4.7-11.9l0,0c-3.4-3.3-7.7-4.9-12.1-4.9
				c-4.4,0-9.3,1.4-12.8,4.9L66,67.7"/>
			<path class="medication-st1" d="M79.7,102.7l12-12.9"/>
			<path class="medication-st1" d="M90.8,90.6c-7-7-24.8-22.9-24.8-22.9L44.1,89.6c-3.6,3.6-5.1,8.3-5.1,13c0,4.3,1.8,8.6,5.1,11.9l0,0
				c3.2,3.2,7.4,4.9,11.7,4.9c4.7,0,9.5-1.3,13.2-4.9l10.7-11.7"/>
		</g>
	</g>
</g>
</svg>
