<?xml version="1.0" encoding="utf-8"?>
<!-- Generator: Adobe Illustrator 26.3.1, SVG Export Plug-In . SVG Version: 6.00 Build 0)  -->
<svg version="1.1" id="Layer_1" xmlns="http://www.w3.org/2000/svg" xmlns:xlink="http://www.w3.org/1999/xlink" x="0px" y="0px"
	 viewBox="0 0 163.9 163.9" style="enable-background:new 0 0 163.9 163.9;" xml:space="preserve">
<style type="text/css">
	.restoration-st0{fill:none;stroke:var(--icon-color, #313131);stroke-width:2.2677;stroke-linecap:round;stroke-linejoin:round;stroke-miterlimit:10;}
</style>
<g id="New_Restorations">
	<g>
		<path class="restoration-st0" d="M101.7,99.5V85.2c0-3.2-8.8-5.9-19.7-5.9c-10.9,0-19.7,2.6-19.7,5.9v14.3c-3.2,1.4-5,3-4.9,4.7
			c0.2,2.9,0.5,7.8,0.5,10.2c0,20.1,8.1,22.5,11.1,21.4c3.3-1.1,1.3-8.2,3.4-16.7c1-4.2,5.2-7.9,9.7-7.9s8.7,3.8,9.7,7.9
			c2.2,8.5,0.1,15.6,3.4,16.7c3,1,11.1-1.3,11.1-21.4c0-2.4,0.3-7.3,0.5-10.1C106.7,102.6,104.8,100.9,101.7,99.5z"/>
		<path class="restoration-st0" d="M68.9,90.2c3.2,1.1,7.8,1.8,13,1.8c5.1,0,9.7-0.7,12.8-1.7"/>
		<path class="restoration-st0" d="M110.9,41.7C108.2,27,91,26.1,82,29.9c-9-3.8-26.2-2.9-29,11.8c-1.7,8.9,3.2,17.1,4.1,25.3
			c0.4,4.1,11.1,7.4,24.9,7.4c13.7,0,24.4-3.3,24.9-7.4C107.7,59,112.7,51,110.9,41.7z"/>
	</g>
</g>
</svg>
