<?xml version="1.0" encoding="utf-8"?>
<!-- Generator: Adobe Illustrator 26.3.1, SVG Export Plug-In . SVG Version: 6.00 Build 0)  -->
<svg version="1.1" id="Layer_1" xmlns="http://www.w3.org/2000/svg" xmlns:xlink="http://www.w3.org/1999/xlink" x="0px" y="0px"
	 viewBox="0 0 163.9 163.9" style="enable-background:new 0 0 163.9 163.9;" xml:space="preserve">
<style type="text/css">
	.shining-tooth-st0{fill:none;stroke:var(--icon-color, #313131);stroke-width:1.8;stroke-linecap:round;stroke-linejoin:round;stroke-miterlimit:10;}
</style>
<g id="Layer_4_copy_5">
</g>
<g id="In">
	<g>
		<g>
			<line class="shining-tooth-st0" x1="70.9" y1="41.1" x2="79.6" y2="45.4"/>
			<g id="XMLID_00000108284235348583356180000014452830115278876091_">
				<g>
					<path class="shining-tooth-st0" d="M99,59.2c0.9-4.7,0.7-9.5-1.7-13.6c-8-13.7-26.4-4.4-26.4-4.4s-18.4-9.3-26.5,4.4
						c-5.7,9.8,1.2,23.7,5.7,30.8c1.8,2.9,2.3,6.3,1.2,9.5c-2.7,7.8-6.4,23.8,0.7,38.4c0.8,1.7,3.8,1.3,4.1-0.4
						c2.1-10.4,7.3-31.6,14.7-31.3c7.4-0.2,12.6,20.9,14.7,31.3c0.3,1.8,3.3,2.1,4.1,0.4c6.8-13.9,3.7-29,1.1-37.1
						c-0.1-0.4-0.3-0.8-0.4-1.2c-0.7-2.1-0.8-4.3-0.2-6.3c0.3-1.1,0.8-2.2,1.4-3.2c1.4-2.2,3-5.1,4.5-8.4"/>
				</g>
			</g>
		</g>
		<polygon class="shining-tooth-st0" points="116.1,80.2 105.6,74.9 95.3,80.6 97.1,68.9 88.6,60.8 100.2,59 105.2,48.3 110.6,58.8 122.3,60.3 
			114,68.7 		"/>
	</g>
</g>
</svg>
