<?xml version="1.0" encoding="utf-8"?>
<!-- Generator: Adobe Illustrator 26.3.1, SVG Export Plug-In . SVG Version: 6.00 Build 0)  -->
<svg version="1.1" id="Layer_1" xmlns="http://www.w3.org/2000/svg" xmlns:xlink="http://www.w3.org/1999/xlink" x="0px" y="0px"
	 viewBox="0 0 163.9 163.9" style="enable-background:new 0 0 163.9 163.9;" xml:space="preserve">
<style type="text/css">
	.tmj-st0{fill:none;stroke:var(--icon-color, #313131);stroke-width:2.2677;stroke-linecap:round;stroke-linejoin:round;stroke-miterlimit:10;}
</style>
<g id="TMJ">
	<g>
		<g>
			<path class="tmj-st0" d="M106.8,130c-0.6-3.4-1.6-13.1-1.6-16.4c0-0.7,0-1.2,0-1.8c-0.1-3.4-0.1-5.1,1.7-8.7c0.8-1.4,1.8-3.3,3.1-5.3
				c3.5-5.8,8.2-13.8,9.9-21.1c2-9,1.1-17.7-2.6-25.1c-3.4-6.9-9.2-12.2-16.1-14.9c-7.2-2.8-14.4-3.7-21.2-2.6
				c-7.3,1.2-14,4.6-20,10.2c-9.3,8.7-7.7,18.5-7.1,22.2c0.1,0.5,0.2,1,0.2,1.2c0,1-0.8,2-1.9,3.5c-0.3,0.4-0.6,0.8-0.9,1.2
				c-0.9,1.3-2.1,2.7-3.3,4c-2.7,3.1-4.5,5.2-3.7,6.7c0.8,1.5,2.8,2.4,4.4,3.2c0.7,0.3,1.7,0.8,2,1.2c-0.1,1.6-1.1,2.4-1.9,3.1
				c-0.7,0.6-1.5,1.3-1.4,2.4c0.1,1.1,1.3,2.4,2.3,3.2c-0.6,0.5-1.2,1.1-1.6,2.1c-0.9,2.1,0.4,3.6,1.3,4.5c0.3,0.3,0.7,0.8,0.7,1
				c0,0.7-0.2,1.4-0.4,2.2c-0.5,1.9-1.1,4.2,0.4,7c1.1,2.1,4.5,2.4,8.1,2.4c7.5,0.1,9.5,2.6,10.1,3.5c0.1,0.1,0.1,0.1,0.2,0.2
				c1.2,1.4,1.5,9,1.5,11.5L106.8,130z"/>
		</g>
		<circle class="tmj-st0" cx="88.2" cy="95.9" r="14.1"/>
		<circle class="tmj-st0" cx="88.2" cy="95.9" r="9"/>
	</g>
</g>
</svg>
