<?xml version="1.0" encoding="utf-8"?>
<!-- Generator: Adobe Illustrator 23.0.2, SVG Export Plug-In . SVG Version: 6.00 Build 0)  -->
<svg version="1.1" id="logos" xmlns="http://www.w3.org/2000/svg" xmlns:xlink="http://www.w3.org/1999/xlink" x="0px" y="0px"
	 viewBox="0 0 40 53.7" style="enable-background:new 0 0 40 53.7;" xml:space="preserve">
<style type="text/css">
	.st0{fill-rule:evenodd;clip-rule:evenodd;fill:#FFFFFF;}
</style>
<g>
	<path class="st0" d="M4.4,25.2l10.4,5.1c2,1,1.7,3.9-0.5,4.5L3.1,37.6c-1.4,0.4-2.8-0.6-3-2.1c-0.4-3.1,0-6.1,0.9-8.9
		C1.5,25.2,3.1,24.6,4.4,25.2z"/>
	<path class="st0" d="M8.6,46.7l7.8-8.6c1.5-1.7,4.3-0.5,4.2,1.7l-0.4,11.6c-0.1,1.4-1.4,2.5-2.8,2.3c-3-0.5-5.8-1.7-8.3-3.4
		C7.8,49.5,7.6,47.8,8.6,46.7z"/>
	<path class="st0" d="M27,35.2l11.1,3.6c1.4,0.4,2,2,1.4,3.3c-1.3,2.7-3.2,5.1-5.5,7.1c-1.1,0.9-2.8,0.7-3.6-0.6l-6.2-9.9
		C23.1,36.9,24.9,34.5,27,35.2z"/>
	<path class="st0" d="M38.3,28.2l-11.2,3.2c-2.1,0.6-3.9-1.8-2.6-3.6l6.5-9.6c0.8-1.2,2.5-1.4,3.6-0.5c2.2,2,4.1,4.4,5.3,7.3
		C40.4,26.2,39.7,27.8,38.3,28.2z"/>
	<path class="st0" d="M12.2,1c-2,0.5-3.9,1.3-5.7,2.1c-1.3,0.6-1.7,2.2-1,3.4l10.9,18.9c1.2,2.1,4.5,1.3,4.5-1.2V2.4
		c0-1.4-1.2-2.5-2.6-2.4C16.2,0.2,14.2,0.5,12.2,1z"/>
</g>
</svg>
