<?xml version="1.0" encoding="utf-8"?>
<!-- Generator: Adobe Illustrator 26.1.0, SVG Export Plug-In . SVG Version: 6.00 Build 0)  -->
<svg version="1.1" xmlns="http://www.w3.org/2000/svg" xmlns:xlink="http://www.w3.org/1999/xlink" x="0px" y="0px"
	 viewBox="0 0 163.9 163.9" style="enable-background:new 0 0 163.9 163.9;" xml:space="preserve">
<style type="text/css">
	.icon-fill{fill:var(--icon-color-primary, #e1ecf3);}
	.crown-st1{fill:none;stroke:#333333;stroke-width:1.5;stroke-miterlimit:10;}
</style>
<g id="Layer_20_copy">
	<path class="icon-fill" d="M118,118.6L118,118.6l-0.2-0.9c-0.1-0.3-0.1-0.6-0.2-0.9L96.7,38.1c-0.2-1.3-0.6-2.6-1-3.8l0,0l0,0
		C92.6,26,84.4,20.6,75.3,21.4C69.8,22,65,24.7,61.7,28.7l0,0L7.6,82.8l0,0.1C3.1,86.9,0.5,93,1.1,99.5c0.8,8.1,6.3,14.6,13.6,17
		l0,0l0.2,0.1c0,0,0,0,0,0l75.8,24.4c1.2,0.5,2.4,0.9,3.7,1.2l0,0l0,0c1.9,0.4,4,0.5,6,0.3c10.9-1,18.9-10.7,17.9-21.7
		C118.3,120.1,118.2,119.3,118,118.6z"/>
</g>
<g id="Restoration_00000074443139145896279750000001305142426830109077_">
	<g>
		<path class="crown-st1" d="M132.7,99.5V85.2c0-3.2-8.8-5.9-19.7-5.9c-10.9,0-19.7,2.6-19.7,5.9v14.3c-3.1,1.4-5,3-4.9,4.7
			c0.2,2.9,0.5,7.8,0.5,10.2c0,20.1,8.1,22.5,11.1,21.4c3.3-1.1,1.3-8.2,3.4-16.7c1-4.2,5.2-7.9,9.7-7.9c4.5,0,8.6,3.8,9.7,7.9
			c2.2,8.5,0.1,15.6,3.4,16.7c3,1,11.1-1.3,11.1-21.4c0-2.4,0.3-7.3,0.5-10.1C137.7,102.5,135.8,100.9,132.7,99.5z"/>
		<path class="crown-st1" d="M99.9,90.2c3.2,1.1,7.8,1.8,13,1.8c5.1,0,9.7-0.7,12.8-1.7"/>
		<path class="crown-st1" d="M141.9,41.7C139.2,27,122,26.1,113,29.9c-9-3.8-26.2-2.9-28.9,11.8c-1.7,8.9,3.2,17.1,4.1,25.3
			c0.4,4.1,11.1,7.4,24.9,7.4c13.7,0,24.4-3.3,24.9-7.4C138.7,59,143.6,51.1,141.9,41.7z"/>
	</g>
</g>
</svg>
