<?xml version="1.0" encoding="utf-8"?>
<!-- Generator: Adobe Illustrator 26.1.0, SVG Export Plug-In . SVG Version: 6.00 Build 0)  -->
<svg version="1.1" xmlns="http://www.w3.org/2000/svg" xmlns:xlink="http://www.w3.org/1999/xlink" x="0px" y="0px"
	 viewBox="0 0 163.9 163.9" style="enable-background:new 0 0 163.9 163.9;" xml:space="preserve">
<style type="text/css">
	.icon-fill{fill:var(--icon-color-primary, #e1ecf3);}
	.dental-tools-st1{fill:none;stroke:#313131;stroke-width:1.5;stroke-linecap:round;stroke-linejoin:round;stroke-miterlimit:10;}
</style>
<g id="Layer_20_copy">
	<path class="icon-fill" d="M118,118.6L118,118.6l-0.2-0.9c-0.1-0.3-0.1-0.6-0.2-0.9L96.7,38.1c-0.2-1.3-0.6-2.6-1-3.8l0,0l0,0
		C92.6,26,84.4,20.6,75.3,21.4C69.8,22,65,24.7,61.7,28.7l0,0L7.6,82.8l0,0.1C3.1,86.9,0.5,93,1.1,99.5c0.8,8.1,6.3,14.6,13.6,17
		l0,0l0.2,0.1c0,0,0,0,0,0l75.8,24.4c1.2,0.5,2.4,0.9,3.7,1.2l0,0l0,0c1.9,0.4,4,0.5,6,0.3c10.9-1,18.9-10.7,17.9-21.7
		C118.3,120.1,118.2,119.3,118,118.6z"/>
</g>
<g id="Preventative">
	<g>
		<polyline class="dental-tools-st1" points="92.4,80.3 92.4,59.7 79.7,47 92.4,34.3 		"/>
		<line class="dental-tools-st1" x1="137.7" y1="80.3" x2="137.7" y2="59.7"/>
		<path class="dental-tools-st1" d="M150.1,48.7c-0.7,5.7-5.3,10.2-11,10.9c-8.3,1-15.2-6-14.2-14.3c0.7-5.6,5.3-10.2,10.9-10.9
			C144.2,33.4,151.1,40.4,150.1,48.7z"/>
		<path class="dental-tools-st1" d="M100.2,126.5c0,1.7-1.4,3.1-3.1,3.1h-9.3c-1.7,0-3.1-1.4-3.1-3.1V83.4c0-1.7,1.4-3.1,3.1-3.1h9.3
			c1.7,0,3.1,1.4,3.1,3.1V126.5z"/>
		<path class="dental-tools-st1" d="M145.3,126.5c0,1.7-1.4,3.1-3.1,3.1h-9.3c-1.7,0-3.1-1.4-3.1-3.1V83.4c0-1.7,1.4-3.1,3.1-3.1h9.3
			c1.7,0,3.1,1.4,3.1,3.1V126.5z"/>
	</g>
</g>
</svg>
