<?xml version="1.0" encoding="utf-8"?>
<!-- Generator: Adobe Illustrator 26.1.0, SVG Export Plug-In . SVG Version: 6.00 Build 0)  -->
<svg version="1.1" xmlns="http://www.w3.org/2000/svg" xmlns:xlink="http://www.w3.org/1999/xlink" x="0px" y="0px"
	 viewBox="0 0 163.9 163.9" style="enable-background:new 0 0 163.9 163.9;" xml:space="preserve">
<style type="text/css">
	.icon-fill{fill:var(--icon-color-primary, #e1ecf3);}
	.dental-chair-st1{fill:none;stroke:#333333;stroke-width:1.5;stroke-miterlimit:10;}
</style>
<g id="Layer_20_copy">
	<path class="icon-fill" d="M118,118.6L118,118.6l-0.2-0.9c-0.1-0.3-0.1-0.6-0.2-0.9L96.7,38.1c-0.2-1.3-0.6-2.6-1-3.8l0,0l0,0
		C92.6,26,84.4,20.6,75.3,21.4C69.8,22,65,24.7,61.7,28.7l0,0L7.6,82.8l0,0.1C3.1,86.9,0.5,93,1.1,99.5c0.8,8.1,6.3,14.6,13.6,17
		l0,0l0.2,0.1c0,0,0,0,0,0l75.8,24.4c1.2,0.5,2.4,0.9,3.7,1.2l0,0l0,0c1.9,0.4,4,0.5,6,0.3c10.9-1,18.9-10.7,17.9-21.7
		C118.3,120.1,118.2,119.3,118,118.6z"/>
</g>
<g id="Preventative_00000082364635790348002270000011044247084748590753_">
	<g>
		<g>
			<g>
				<path class="dental-chair-st1" d="M153.8,110.9c-1.4,0-2.7-0.3-4-1.1l-26.8-15.3H91.6c-2.8,0-5.3-1.4-6.8-3.7l-22.5-37
					c-3.6-6.6-4.9-7.3,1.6-11.7c2.4-1.7,10.6,6.9,12.9,10.6l19.2,26.2h29.2c1.4,0,2.8,0.4,4,1.1c0,0,33.7,23.3,31.5,27.1
					C159.2,109.5,156.6,110.9,153.8,110.9z"/>
			</g>
			<rect x="103.6" y="94.6" class="dental-chair-st1" width="11.9" height="21.1"/>
			<polygon class="dental-chair-st1" points="129.7,129.6 89.4,129.6 103.6,115.7 115.5,115.7 			"/>
			<path class="dental-chair-st1" d="M110.2,40.2c0.3-1.4,1-2.7,2-3.6c1.4-1.4,3.3-2.2,5.4-2.2c4.2,0,7.6,3.4,7.6,7.5v37.1"/>
			<path class="dental-chair-st1" d="M97.3,46.4c1.8-5.2,7.5-8,12.8-6.3s8.2,7.4,6.4,12.6L97.3,46.4z"/>
		</g>
	</g>
</g>
</svg>
