<?xml version="1.0" encoding="utf-8"?>
<!-- Generator: Adobe Illustrator 26.1.0, SVG Export Plug-In . SVG Version: 6.00 Build 0)  -->
<svg version="1.1" xmlns="http://www.w3.org/2000/svg" xmlns:xlink="http://www.w3.org/1999/xlink" x="0px" y="0px"
	 viewBox="0 0 163.9 163.9" style="enable-background:new 0 0 163.9 163.9;" xml:space="preserve">
<style type="text/css">
	.icon-fill{fill:var(--icon-color-primary, #e1ecf3);}
	.dentures-st1{fill:none;}
	.dentures-st2{fill:none;stroke:#313131;stroke-width:1.5;stroke-linecap:round;stroke-linejoin:round;stroke-miterlimit:10;}
</style>
<g id="Layer_20_copy">
	<path class="icon-fill" d="M118,118.6L118,118.6l-0.2-0.9c-0.1-0.3-0.1-0.6-0.2-0.9L96.7,38.1c-0.2-1.3-0.6-2.6-1-3.8l0,0l0,0
		C92.6,26,84.4,20.6,75.3,21.4C69.8,22,65,24.7,61.7,28.7l0,0L7.6,82.8l0,0.1C3.1,86.9,0.5,93,1.1,99.5c0.8,8.1,6.3,14.6,13.6,17
		l0,0l0.2,0.1c0,0,0,0,0,0l75.8,24.4c1.2,0.5,2.4,0.9,3.7,1.2l0,0l0,0c1.9,0.4,4,0.5,6,0.3c10.9-1,18.9-10.7,17.9-21.7
		C118.3,120.1,118.2,119.3,118,118.6z"/>
</g>
<g id="Dentures">
	<path class="dentures-st1" d="M154.5,89.8c0-1.3,0-2.5-0.2-3.4c-0.1-0.7-0.7-1.2-1.6-1.4c0,0,0,0,0,0c0,0,0,0,0,0l0.1-1.4
		c0.6-0.3,1-0.6,1.1-1c0.1-1.4,0.1-2.8,0-4.1l0.5,0.2c6.1-1,9.3-20.7,2.6-22.9c-6.2-2-3.5,2.8-13,0.6l-0.8-0.2
		c-0.6-0.2-1.2-0.3-1.9-0.5l0.1,0.1l-4.7-1.2c0,0-9.4-7.3-31.9-7.3c-22.5,0-31.9,7.3-31.9,7.3l0,0c-1.5,0.2-3,0.6-4.6,1.1
		c-12.7,3.8-8.9-2.1-15.7,0.1c-6.8,2.2-3.5,21.9,2.6,22.9l0.5-0.2c-0.1,1.3-0.1,2.7,0,4.1c0,0.4,0.6,0.8,1.5,1.2l-0.1,1.2
		c-0.9,0.2-1.6,0.7-1.7,1.5c-0.1,0.9-0.2,2.1-0.2,3.4h-1c0,0-4.3,7.2-3.8,13c0.4,5.8,16.8,14,54.4,14c37.6,0,53.9-8.2,54.4-14
		c0.4-5.8-3.8-13-3.8-13H154.5z"/>
	<g>
		<path class="dentures-st2" d="M102.3,91.4c1.1-0.2,1.9-1.1,1.9-2.2c0.1-2.3,0-6.3-1-10.3c-1.5-6-4.4-7-7.9-7c-3.5,0-7,3.4-7.1,16.8
			C88.3,92.9,98.1,92,102.3,91.4z"/>
		<path class="dentures-st2" d="M88.3,88.8C81.7,91.4,76,88,75.6,87.3c-0.4-0.7-0.1-6.2,1-11.1c1.6-7.3,10.3-4.9,11.2,0.8
			C88.4,81.3,88.3,88.8,88.3,88.8z"/>
		<path class="dentures-st2" d="M75.2,78.4c0.1-3-1.1-6.4-4.7-7.1c-3.6-0.7-6.1,6.8-5.3,13.5c0.2,1.7,8.6,3,9.3,1.5
			C75.1,84.8,75,81.9,75.2,78.4z"/>
		<path class="dentures-st2" d="M65,76.6c0.1-2.7-1-5.9-4.2-6.5c-3.2-0.6-5.5,6.2-4.8,12.4c0.2,1.6,7.7,2.8,8.3,1.4
			C64.9,82.4,64.8,79.8,65,76.6z"/>
		<path class="dentures-st2" d="M104.2,93.9c0,2.8-0.1,10.4-4.1,10.6c-4,0.2-5.3-8.4-5.3-11.3C94.8,91.6,104.2,91,104.2,93.9z"/>
		<path class="dentures-st2" d="M94.1,93.8c-0.2,2.8-0.8,10.7-4.8,10.6c-4-0.1-4.4-9.6-4.7-12.5c-0.2-1.4,2.5-1,5-0.6
			C92,91.8,94.2,92.4,94.1,93.8z"/>
		<path class="dentures-st2" d="M83.8,91.9c-0.2,2.8-2.3,12.1-6.3,12.1c-4-0.1-3.8-10.3-3.7-13.6c0-1.4,2.1-1.8,4.5-1.4
			C80.6,89.4,83.8,90.5,83.8,91.9z"/>
		<path class="dentures-st2" d="M73.1,88.8c-0.2,2.8-1.1,11.2-5.1,11.1c-4-0.1-4.3-8.3-3.8-11.7c0.2-1.4,2.1-2,4.6-1.6
			C71.1,87.1,73.2,87.4,73.1,88.8z"/>
		<path class="dentures-st2" d="M63.9,86.9c-0.2,2.6-1,10.3-4.8,10.3c-3.8,0-4.1-7.7-3.6-10.8c0.2-1.3,2-1.9,4.3-1.5
			C62.1,85.3,64,85.6,63.9,86.9z"/>
		<path class="dentures-st2" d="M105,59.3c-7.3,0-20-8.8-36.5-3.8c-12.7,3.8-8.9-2.1-15.7,0.1c-6.8,2.2-3.5,21.9,2.6,22.9"/>
		<path class="dentures-st2" d="M73.1,54.5c0,0,9.4-7.3,31.9-7.3"/>
		<path class="dentures-st2" d="M107.7,91.4c-1.1-0.2-1.9-1.1-1.9-2.2c-0.1-2.3,0-6.3,1-10.3c1.5-6,4.4-7,7.9-7c3.5,0,7,3.4,7.1,16.8
			C121.7,92.9,111.8,92,107.7,91.4z"/>
		<path class="dentures-st2" d="M121.7,88.8c6.6,2.6,12.3-0.8,12.7-1.4c0.4-0.7,0.1-6.2-1-11.1c-1.6-7.3-10.3-4.9-11.2,0.8
			C121.5,81.3,121.7,88.8,121.7,88.8z"/>
		<path class="dentures-st2" d="M134.8,78.4c-0.1-3,1.1-6.4,4.7-7.1c3.6-0.7,6.1,6.8,5.3,13.5c-0.2,1.7-8.6,3-9.3,1.5
			C134.8,84.8,134.9,81.9,134.8,78.4z"/>
		<path class="dentures-st2" d="M145,76.6c-0.1-2.7,1-5.9,4.2-6.5c3.2-0.6,5.5,6.2,4.8,12.4c-0.2,1.6-7.7,2.8-8.3,1.4
			C145,82.4,145.1,79.8,145,76.6z"/>
		<path class="dentures-st2" d="M105.7,93.9c0,2.8,0.1,10.4,4.1,10.6c4,0.2,5.3-8.4,5.3-11.3C115.1,91.6,105.7,91,105.7,93.9z"/>
		<path class="dentures-st2" d="M115.8,93.8c0.2,2.8,0.8,10.7,4.8,10.6c4-0.1,4.4-9.6,4.7-12.5c0.2-1.4-2.5-1-5-0.6
			C118,91.8,115.8,92.4,115.8,93.8z"/>
		<path class="dentures-st2" d="M126.2,91.9c0.2,2.8,2.3,12.1,6.3,12.1c4-0.1,3.8-10.3,3.7-13.6c0-1.4-2.1-1.8-4.5-1.4
			C129.3,89.4,126.1,90.5,126.2,91.9z"/>
		<path class="dentures-st2" d="M136.9,88.8c0.2,2.8,1.1,11.2,5.1,11.1c4-0.1,4.3-8.3,3.8-11.7c-0.2-1.4-2.1-2-4.6-1.6
			C138.8,87.1,136.8,87.4,136.9,88.8z"/>
		<path class="dentures-st2" d="M146,86.9c0.2,2.6,1,10.3,4.8,10.3c3.8,0,4.1-7.7,3.6-10.8c-0.2-1.3-2-1.9-4.3-1.5
			C147.8,85.3,145.9,85.6,146,86.9z"/>
		<path class="dentures-st2" d="M105,59.3c7.3,0,20-8.8,36.5-3.8c12.7,3.8,8.9-2.1,15.7,0.1c6.8,2.2,3.5,21.9-2.6,22.9"/>
		<path class="dentures-st2" d="M136.9,54.5c0,0-9.4-7.3-31.9-7.3"/>
		<path class="dentures-st2" d="M155.5,89.8c0,0,4.3,7.2,3.8,13c-0.4,5.8-16.8,14-54.4,14c-37.6,0-53.9-8.2-54.4-14c-0.4-5.8,3.8-13,3.8-13"
			/>
	</g>
</g>
</svg>
