<?xml version="1.0" encoding="utf-8"?>
<!-- Generator: Adobe Illustrator 26.1.0, SVG Export Plug-In . SVG Version: 6.00 Build 0)  -->
<svg version="1.1" xmlns="http://www.w3.org/2000/svg" xmlns:xlink="http://www.w3.org/1999/xlink" x="0px" y="0px"
	 viewBox="0 0 163.9 163.9" style="enable-background:new 0 0 163.9 163.9;" xml:space="preserve">
<style type="text/css">
	.icon-fill{fill:var(--icon-color-primary, #e1ecf3);}
	.endodontics-st1{fill:none;stroke:#313131;stroke-width:1.5;stroke-linecap:round;stroke-linejoin:round;stroke-miterlimit:10;}
</style>
<g id="Layer_20_copy">
	<path class="icon-fill" d="M118,118.6L118,118.6l-0.2-0.9c-0.1-0.3-0.1-0.6-0.2-0.9L96.7,38.1c-0.2-1.3-0.6-2.6-1-3.8l0,0l0,0
		C92.6,26,84.4,20.6,75.3,21.4C69.8,22,65,24.7,61.7,28.7l0,0L7.6,82.8l0,0.1C3.1,86.9,0.5,93,1.1,99.5c0.8,8.1,6.3,14.6,13.6,17
		l0,0l0.2,0.1c0,0,0,0,0,0l75.8,24.4c1.2,0.5,2.4,0.9,3.7,1.2l0,0l0,0c1.9,0.4,4,0.5,6,0.3c10.9-1,18.9-10.7,17.9-21.7
		C118.3,120.1,118.2,119.3,118,118.6z"/>
</g>
<g id="Endo">
	<g>
		<path class="endodontics-st1" d="M97.7,97.8c0.7-3.6,1.6-6.6,2.3-8.8c1.9-5.7,1.2-11.8-2-17c-7.6-12.5-10-23.6-6.4-29.7c2.3-4,5.1-4.6,7.7-4.6
			c4.2,0,8.7,1.8,10.1,2.5l4.6,2.3l4.6-2.3c1.4-0.7,5.9-2.5,10.1-2.5c2.6,0,5.4,0.6,7.7,4.6c3.5,6.2,1.1,17.3-6.4,29.7
			c-3.2,5.2-3.9,11.3-2,17c0.7,2.2,1.6,5.2,2.3,8.8c0.1,0.6,0.2,1.3,0.4,2C124,87,117.1,87,114.1,87h-0.3c-3,0-9.9,0-16.5,12.8
			C97.4,99.1,97.6,98.4,97.7,97.8z"/>
		<path class="endodontics-st1" d="M95.1,133.8c0.8-0.2,1.6-0.7,1.8-1.6c2.3-12.1,8.4-38,17.1-37.7c8.7-0.3,14.8,25.6,17.1,37.7
			c0.2,0.9,0.9,1.4,1.7,1.6c1,0.2,2.1-0.2,2.6-1.1c8.5-17.3,4.3-36.3,1.1-45.7c-1.3-3.8-0.8-7.9,1.3-11.5
			c5.1-8.5,13.2-24.9,6.5-36.5c-9.3-16.2-30.5-5.3-30.5-5.3S92.7,22.8,83.5,39c-6.6,11.6,1.4,28,6.6,36.5c2.2,3.5,2.6,7.7,1.3,11.5
			c-3.1,9.4-7.4,28.4,1.1,45.7C93,133.6,94.1,134,95.1,133.8z"/>
		<path class="endodontics-st1" d="M130.3,97.8c0.1,0.6,0.2,1.3,0.4,2C124,87,117.1,87,114.1,87h-0.3c-3,0-9.9,0-16.5,12.8
			c0.1-0.7,0.2-1.3,0.4-2c0.7-3.6,1.6-6.6,2.3-8.8c1.9-5.7,1.2-11.8-2-17c-7.6-12.5-10-23.6-6.4-29.7c2.3-4,5.1-4.6,7.7-4.6
			c4.2,0,8.7,1.8,10.1,2.5l4.6,2.3l4.6-2.3c1.4-0.7,5.9-2.5,10.1-2.5c2.6,0,5.4,0.6,7.7,4.6c3.5,6.2,1.1,17.3-6.4,29.7
			c-3.2,5.2-3.9,11.3-2,17C128.7,91.2,129.6,94.2,130.3,97.8z"/>
		<path class="endodontics-st1" d="M130.2,48.8c0.4,3-0.9,6.1-2.4,8.3c-1.2,2-3,3.6-5,5h0c-4.3,3.2-4.9,8.1-4.2,12.4c0.6,4.1,2.4,8,5.2,11.4
			c1.8,2.2,4.4,6.1,6.4,12c2.8,8,4.7,19.7,2.6,36"/>
		<path class="endodontics-st1" d="M120.6,52.8c-0.8-1.2-2-2.3-3.5-3"/>
		<path class="endodontics-st1" d="M122.9,62.1c0,0,0.5-5.4-2.3-9.4"/>
		<path class="endodontics-st1" d="M120.6,52.8C120.6,52.8,120.6,52.8,120.6,52.8c0-0.2,0.6-6.2,3.7-7.6"/>
		<path class="endodontics-st1" d="M95.1,133.8c-2.2-16.3-0.2-28,2.6-36c2.1-5.9,4.6-9.7,6.4-11.9c2.7-3.4,4.6-7.3,5.2-11.4
			c0.6-4.3,0.1-9.2-4.2-12.4c-1.9-1.5-3.7-3.1-5-5c-1.4-2.3-2.7-5.3-2.3-8.3"/>
		<path class="endodontics-st1" d="M105.1,62.1c0,0-0.5-5.4,2.3-9.4c0.8-1.2,2-2.3,3.5-3"/>
		<path class="endodontics-st1" d="M107.3,52.8C107.3,52.8,107.3,52.8,107.3,52.8c0-0.2-0.6-6.2-3.7-7.6"/>
	</g>
</g>
</svg>
