<?xml version="1.0" encoding="utf-8"?>
<!-- Generator: Adobe Illustrator 26.1.0, SVG Export Plug-In . SVG Version: 6.00 Build 0)  -->
<svg version="1.1" xmlns="http://www.w3.org/2000/svg" xmlns:xlink="http://www.w3.org/1999/xlink" x="0px" y="0px"
	 viewBox="0 0 163.9 163.9" style="enable-background:new 0 0 163.9 163.9;" xml:space="preserve">
<style type="text/css">
	.icon-fill{fill:var(--icon-color-primary, #e1ecf3);}
	.hands-st1{fill:none;stroke:#333333;stroke-width:1.5;stroke-miterlimit:10;}
</style>
<g id="Layer_20_copy">
	<path class="icon-fill" d="M118,118.6L118,118.6l-0.2-0.9c-0.1-0.3-0.1-0.6-0.2-0.9L96.7,38.1c-0.2-1.3-0.6-2.6-1-3.8l0,0l0,0
		C92.6,26,84.4,20.6,75.3,21.4C69.8,22,65,24.7,61.7,28.7l0,0L7.6,82.8l0,0.1C3.1,86.9,0.5,93,1.1,99.5c0.8,8.1,6.3,14.6,13.6,17
		l0,0l0.2,0.1c0,0,0,0,0,0l75.8,24.4c1.2,0.5,2.4,0.9,3.7,1.2l0,0l0,0c1.9,0.4,4,0.5,6,0.3c10.9-1,18.9-10.7,17.9-21.7
		C118.3,120.1,118.2,119.3,118,118.6z"/>
</g>
<g id="Caring">
	<g>
		<g>
			<g>
				<path class="hands-st1" d="M148.4,46c-2,0.2-4,1.7-4.1,4.4c-0.2,4.3-0.3,12.3-0.3,19.7"/>
				<g>
					<path class="hands-st1" d="M117.5,123.7c0,0,0.2-9.3,0.4-13c0,0-0.6-3.4-0.7-4.4c0,0-0.2-2.2-0.1-3.4c0.2-3.2,0.7-4.7,1.5-6.6
						c1.6-3.9,3.5-5.6,8.3-9.3C129.2,85,140.2,74,142,72c0.8-0.9,1.4-1.5,2.3-2.1c0.4-0.3,0.9-0.6,1.3-0.7c1.9-0.6,3.5-0.3,4.8,1.3
						c1.1,1.3,1.5,3.4,0.9,5.4c-0.2,0.7-0.7,1.4-1.1,2.1c0,0-10.2,13.4-15.2,18.2"/>
					<path class="hands-st1" d="M148.4,69.2l0.1-23.6l0,0c0.1-3.1,2.4-5.3,4.9-5.6c2.5-0.3,5.2,1.6,5.6,4.9c3.4,17.6-0.2,42.5-0.2,42.5
						l0,0c-0.6,3-2,5.8-4.2,8c-3.6,3.7-10,9-14.3,13c-0.9,0.8-1.3,2.4-1.5,3.8c-0.2,1.2-0.3,2.5-0.4,3.7l-0.3,8"/>
				</g>
			</g>
		</g>
		<g>
			<g>
				<path class="hands-st1" d="M81.5,46c2,0.2,4,1.7,4.1,4.4c0.2,4.3,0.3,12.3,0.3,19.7"/>
				<g>
					<path class="hands-st1" d="M112.4,123.7c0,0-0.2-9.3-0.4-13c0,0,0.6-3.4,0.7-4.4c0,0,0.2-2.2,0.1-3.4c-0.2-3.2-0.7-4.7-1.5-6.6
						c-1.6-3.9-3.5-5.6-8.3-9.3C100.7,85,89.7,74,87.9,72c-0.8-0.9-1.4-1.5-2.3-2.1c-0.4-0.3-0.9-0.6-1.3-0.7
						c-1.9-0.6-3.5-0.3-4.8,1.3c-1.1,1.3-1.5,3.4-0.9,5.4c0.2,0.7,0.7,1.4,1.1,2.1c0,0,10.2,13.4,15.2,18.2"/>
					<path class="hands-st1" d="M81.6,69.2l-0.1-23.6l0,0c-0.1-3.1-2.4-5.3-4.9-5.6c-2.5-0.3-5.2,1.6-5.6,4.9c-3.4,17.6,0.2,42.5,0.2,42.5
						l0,0c0.6,3,2,5.8,4.2,8c3.6,3.7,10,9,14.3,13c0.9,0.8,1.3,2.4,1.5,3.8c0.2,1.2,0.3,2.5,0.4,3.7l0.3,8"/>
				</g>
			</g>
		</g>
	</g>
</g>
</svg>
