<?xml version="1.0" encoding="utf-8"?>
<!-- Generator: Adobe Illustrator 26.1.0, SVG Export Plug-In . SVG Version: 6.00 Build 0)  -->
<svg version="1.1" xmlns="http://www.w3.org/2000/svg" xmlns:xlink="http://www.w3.org/1999/xlink" x="0px" y="0px"
	 viewBox="0 0 163.9 163.9" style="enable-background:new 0 0 163.9 163.9;" xml:space="preserve">
<style type="text/css">
	.icon-fill{fill:var(--icon-color-primary, #e1ecf3);}
	.implant-st1{fill:none;stroke:#313131;stroke-width:1.5;stroke-linecap:round;stroke-linejoin:round;stroke-miterlimit:10;}
</style>
<g id="Layer_20_copy">
	<path class="icon-fill" d="M118,118.6L118,118.6l-0.2-0.9c-0.1-0.3-0.1-0.6-0.2-0.9L96.7,38.1c-0.2-1.3-0.6-2.6-1-3.8l0,0l0,0
		C92.6,26,84.4,20.6,75.3,21.4C69.8,22,65,24.7,61.7,28.7l0,0L7.6,82.8l0,0.1C3.1,86.9,0.5,93,1.1,99.5c0.8,8.1,6.3,14.6,13.6,17
		l0,0l0.2,0.1c0,0,0,0,0,0l75.8,24.4c1.2,0.5,2.4,0.9,3.7,1.2l0,0l0,0c1.9,0.4,4,0.5,6,0.3c10.9-1,18.9-10.7,17.9-21.7
		C118.3,120.1,118.2,119.3,118,118.6z"/>
</g>
<g id="Implants">
	<g>
		<polyline class="implant-st1" points="95.8,82 102.2,133.5 123.7,133.5 130.1,82 		"/>
		<path class="implant-st1" d="M134.6,82c2,0,3.7-1.3,4.2-3.3c2-7.6,6.5-15.8,6.5-29c0-15.8-10.4-19.3-14.5-19.3c-7.3,0-9.8,2.7-17.7,2.7
			s-10.4-2.7-17.7-2.7c-4.1,0-14.5,3.5-14.5,19.3c0,13.1,4.5,21.4,6.5,29c0.5,1.9,2.2,3.3,4.2,3.3H134.6z"/>
		<line class="implant-st1" x1="93.7" y1="90.6" x2="132.3" y2="90.6"/>
		<line class="implant-st1" x1="94.7" y1="99.1" x2="131.2" y2="99.1"/>
		<line class="implant-st1" x1="95.8" y1="107.7" x2="130.1" y2="107.7"/>
		<line class="implant-st1" x1="96.9" y1="116.3" x2="129.1" y2="116.3"/>
		<line class="implant-st1" x1="97.9" y1="124.9" x2="128" y2="124.9"/>
	</g>
</g>
</svg>
