<?xml version="1.0" encoding="utf-8"?>
<!-- Generator: Adobe Illustrator 26.1.0, SVG Export Plug-In . SVG Version: 6.00 Build 0)  -->
<svg version="1.1" xmlns="http://www.w3.org/2000/svg" xmlns:xlink="http://www.w3.org/1999/xlink" x="0px" y="0px"
	 viewBox="0 0 163.9 163.9" style="enable-background:new 0 0 163.9 163.9;" xml:space="preserve">
<style type="text/css">
	.icon-fill{fill:var(--icon-color-primary, #e1ecf3);}
	.medication-st1{fill:none;stroke:#313131;stroke-width:1.5;stroke-linecap:round;stroke-linejoin:round;stroke-miterlimit:10;}
</style>
<g id="Layer_20_copy">
	<path class="icon-fill" d="M118,118.6L118,118.6l-0.2-0.9c-0.1-0.3-0.1-0.6-0.2-0.9L96.7,38.1c-0.2-1.3-0.6-2.6-1-3.8l0,0l0,0
		C92.6,26,84.4,20.6,75.3,21.4C69.8,22,65,24.7,61.7,28.7l0,0L7.6,82.8l0,0.1C3.1,86.9,0.5,93,1.1,99.5c0.8,8.1,6.3,14.6,13.6,17
		l0,0l0.2,0.1c0,0,0,0,0,0l75.8,24.4c1.2,0.5,2.4,0.9,3.7,1.2l0,0l0,0c1.9,0.4,4,0.5,6,0.3c10.9-1,18.9-10.7,17.9-21.7
		C118.3,120.1,118.2,119.3,118,118.6z"/>
</g>
<g id="Sedation">
	<g>
		<path class="medication-st1" d="M111.4,103.9c0-5.7,10.9-10.3,24.3-10.3c13.4,0,24.3,4.6,24.3,10.3"/>
		<path class="medication-st1" d="M159.9,103.5v14.9c0,5.6-10.9,10.7-24.3,10.7c-13.4,0-24.3-5.1-24.3-10.7v-14.9"/>
		<path class="medication-st1" d="M111.4,103.5c0,5.6,10.9,10.7,24.3,10.7c13.4,0,24.3-5.1,24.3-10.7"/>
		<line class="medication-st1" x1="127" y1="94.3" x2="145.8" y2="113.1"/>
	</g>
	<g>
		<path class="medication-st1" d="M116,90.5l21.7-19.8c3.6-3.6,4.7-8.3,4.7-13c0-4.3-1.5-8.6-4.7-11.9l0,0c-3.4-3.4-7.7-4.9-12.1-4.9
			c-4.4,0-9.3,1.4-12.8,4.9L91,67.7"/>
		<path class="medication-st1" d="M115.8,90.6c-7-7-24.8-22.9-24.8-22.9L69.1,89.6c-3.6,3.6-5.1,8.3-5.1,13c0,4.3,1.9,8.6,5.1,11.9l0,0
			c3.2,3.2,7.4,4.9,11.7,4.9c4.7,0,9.5-1.3,13.2-4.9l21.1-23"/>
	</g>
</g>
</svg>
