<?xml version="1.0" encoding="utf-8"?>
<!-- Generator: Adobe Illustrator 26.1.0, SVG Export Plug-In . SVG Version: 6.00 Build 0)  -->
<svg version="1.1" xmlns="http://www.w3.org/2000/svg" xmlns:xlink="http://www.w3.org/1999/xlink" x="0px" y="0px"
	 viewBox="0 0 163.9 163.9" style="enable-background:new 0 0 163.9 163.9;" xml:space="preserve">
<style type="text/css">
	.icon-fill{fill:var(--icon-color-primary, #e1ecf3);}
	.mouth-guard-st1{fill:none;stroke:#333333;stroke-width:1.5;stroke-miterlimit:10;}
</style>
<g id="Layer_20_copy">
	<path class="icon-fill" d="M118,118.6L118,118.6l-0.2-0.9c-0.1-0.3-0.1-0.6-0.2-0.9L96.7,38.1c-0.2-1.3-0.6-2.6-1-3.8l0,0l0,0
		C92.6,26,84.4,20.6,75.3,21.4C69.8,22,65,24.7,61.7,28.7l0,0L7.6,82.8l0,0.1C3.1,86.9,0.5,93,1.1,99.5c0.8,8.1,6.3,14.6,13.6,17
		l0,0l0.2,0.1c0,0,0,0,0,0l75.8,24.4c1.2,0.5,2.4,0.9,3.7,1.2l0,0l0,0c1.9,0.4,4,0.5,6,0.3c10.9-1,18.9-10.7,17.9-21.7
		C118.3,120.1,118.2,119.3,118,118.6z"/>
</g>
<g id="Mouth_Guard">
	<g>
		<path class="mouth-guard-st1" d="M96.5,65.1c-8,11-15.5,30.3-13.4,44c2.1,13.6,11.9,11.2,11.9,11.2c-7.5-53.9,1.3-61.7,15.3-61.7
			s22.8,7.8,15.3,61.7c0,0,9.8,2.4,11.9-11.2c2.1-13.6-5.4-33-13.4-44"/>
		<path class="mouth-guard-st1" d="M92.3,89.5c0.6-12.6,13.4-17.7,18-17.7s17.4,5.1,18,17.7"/>
		<path class="mouth-guard-st1" d="M110.3,37.4c19.9,0,49.5,23.6,49.5,71.8c0,0-5.2,2.3-9.6-7.6c-4.4-9.8-6-58.8-39.9-58.8s-35.5,49-39.9,58.8
			c-4.4,9.8-9.6,7.6-9.6,7.6C60.8,61,90.4,37.4,110.3,37.4z"/>
		<path class="mouth-guard-st1" d="M125.6,120.3c0,4.4,34.2,3.5,34.2-11.1"/>
		<path class="mouth-guard-st1" d="M95,120.3c0,4.4-34.2,3.5-34.2-11.1"/>
	</g>
</g>
</svg>
