<?xml version="1.0" encoding="utf-8"?>
<!-- Generator: Adobe Illustrator 26.1.0, SVG Export Plug-In . SVG Version: 6.00 Build 0)  -->
<svg version="1.1" xmlns="http://www.w3.org/2000/svg" xmlns:xlink="http://www.w3.org/1999/xlink" x="0px" y="0px"
	 viewBox="0 0 163.9 163.9" style="enable-background:new 0 0 163.9 163.9;" xml:space="preserve">
<style type="text/css">
	.icon-fill{fill:var(--icon-color-primary, #e1ecf3);}
	.periodontics-st1{fill:none;}
	.periodontics-st2{fill:none;stroke:#313131;stroke-width:1.5;stroke-linecap:round;stroke-linejoin:round;stroke-miterlimit:10;}
</style>
<g id="Layer_20_copy">
	<path class="icon-fill" d="M118,118.6L118,118.6l-0.2-0.9c-0.1-0.3-0.1-0.6-0.2-0.9L96.7,38.1c-0.2-1.3-0.6-2.6-1-3.8l0,0l0,0
		C92.6,26,84.4,20.6,75.3,21.4C69.8,22,65,24.7,61.7,28.7l0,0L7.6,82.8l0,0.1C3.1,86.9,0.5,93,1.1,99.5c0.8,8.1,6.3,14.6,13.6,17
		l0,0l0.2,0.1c0,0,0,0,0,0l75.8,24.4c1.2,0.5,2.4,0.9,3.7,1.2l0,0l0,0c1.9,0.4,4,0.5,6,0.3c10.9-1,18.9-10.7,17.9-21.7
		C118.3,120.1,118.2,119.3,118,118.6z"/>
</g>
<g id="Perio">
	<g>
		<g>
			<g>
				<line class="periodontics-st1" x1="130.2" y1="32" x2="136.8" y2="37"/>
				<g id="XMLID_00000119115768915901741790000015543742294442430367_">
					<g>
						<path class="periodontics-st1" d="M107.7,60.7C107.7,60.8,107.7,60.8,107.7,60.7c1.1,2.9,1,6-0.4,8.7c-3.4,6.7-8.9,20.4-5.2,34.6
							c0.4,1.6,2.9,1.7,3.5,0.2c3.3-9.1,10.8-27.3,17-26.1c6.2,0.8,7.3,20.6,7.5,30.2c0,1.6,2.4,2.3,3.4,1
							c7.7-11.5,7.5-25.5,6.5-33.2c0-0.4-0.1-0.8-0.2-1.1c-0.3-2,0-3.9,0.8-5.7c0.4-0.9,1-1.8,1.6-2.6c4.8-5.8,12.7-17.3,9.4-26.9
							c-4.6-13.4-21.3-7.7-21.3-7.7s-13.9-10.9-22.6,0.3C101.4,40.2,105.1,53.7,107.7,60.7z"/>
					</g>
				</g>
			</g>
			<g>
				<line class="periodontics-st2" x1="130.9" y1="31.5" x2="137.4" y2="36.6"/>
				<g id="XMLID_00000077314605059689131320000006297055479317649290_">
					<g>
						<path class="periodontics-st2" d="M108.3,60.3C108.3,60.3,108.3,60.3,108.3,60.3c1.1,2.9,1,6-0.4,8.7c-3.4,6.7-8.9,20.4-5.2,34.6
							c0.4,1.6,2.9,1.7,3.5,0.2c3.3-9.1,10.8-27.3,17-26.1c6.2,0.8,7.3,20.6,7.5,30.2c0,1.6,2.4,2.3,3.4,1
							c7.7-11.5,7.5-25.5,6.5-33.2c0-0.4-0.1-0.8-0.2-1.1c-0.3-2,0-3.9,0.8-5.7c0.4-0.9,1-1.8,1.6-2.6c4.8-5.8,12.7-17.3,9.4-26.9
							c-4.6-13.4-21.3-7.7-21.3-7.7s-13.9-10.9-22.6,0.3C102,39.8,105.7,53.3,108.3,60.3z"/>
					</g>
				</g>
			</g>
			<g>
				<path class="periodontics-st2" d="M94.2,135.1h44.7c5.7,0,10.5-4.6,11.3-10.9c2.2-16.6,6.2-43.8,6.5-48.4c0.1-2.1-0.6-4-2-5.2
					c-0.8-0.7-1.7-1-2.7-1c-2.8,0-5,4.7-5.3,7.2c-0.1,0.8-0.2,1.8-0.3,2.8c-0.8,8.9-2.1,23.8-11.2,33.1c-9.1,9.3-12.9,5.6-15.6,2.9
					c-0.9-0.9-1.8-1.7-2.6-1.7c-1.4,0-2.5,0.4-3.6,0.8c-3.7,1.5-6.4,1.8-13.2-9.2c0,0,0,0,0,0c-0.9-1.2-1.8-2.6-2.5-4.1c0,0,0,0,0,0
					c-2.2-3.2-4.1-8.9-6-14.9c-2.5-7.6-5.2-16.2-8.4-16.9c-0.5-0.1-1.1-0.1-1.7,0.1c-2.8,0.8-4.6,4-4.1,7.4
					c1.7,10,4.1,31.9,5.5,46.6C83.5,130.2,88.4,135.1,94.2,135.1z"/>
			</g>
		</g>
	</g>
</g>
</svg>
