<?xml version="1.0" encoding="utf-8"?>
<!-- Generator: Adobe Illustrator 26.1.0, SVG Export Plug-In . SVG Version: 6.00 Build 0)  -->
<svg version="1.1" xmlns="http://www.w3.org/2000/svg" xmlns:xlink="http://www.w3.org/1999/xlink" x="0px" y="0px"
	 viewBox="0 0 163.9 163.9" style="enable-background:new 0 0 163.9 163.9;" xml:space="preserve">
<style type="text/css">
	.icon-fill{fill:var(--icon-color-primary, #e1ecf3);}
	.restoration-st1{fill:none;stroke:#313131;stroke-width:1.5;stroke-linecap:round;stroke-linejoin:round;stroke-miterlimit:10;}
</style>
<g id="Layer_20_copy">
	<path class="icon-fill" d="M118,118.6L118,118.6l-0.2-0.9c-0.1-0.3-0.1-0.6-0.2-0.9L96.7,38.1c-0.2-1.3-0.6-2.6-1-3.8l0,0l0,0
		C92.6,26,84.4,20.6,75.3,21.4C69.8,22,65,24.7,61.7,28.7l0,0L7.6,82.8l0,0.1C3.1,86.9,0.5,93,1.1,99.5c0.8,8.1,6.3,14.6,13.6,17
		l0,0l0.2,0.1c0,0,0,0,0,0l75.8,24.4c1.2,0.5,2.4,0.9,3.7,1.2l0,0l0,0c1.9,0.4,4,0.5,6,0.3c10.9-1,18.9-10.7,17.9-21.7
		C118.3,120.1,118.2,119.3,118,118.6z"/>
</g>
<g id="Restoration">
	<g>
		<path class="restoration-st1" d="M137.4,79.3c-0.3,1.5-0.4,3-0.1,4.6c0.1,0.7,0.3,1.5,0.6,2.2c3.3,9.2,7.9,28-2.1,44.7
			c-0.3,0.5-0.9,0.8-1.5,0.8c-0.8,0-1.6-0.4-1.7-1.1c-2.1-10.5-8.5-37.5-18-37.2c-9.4-0.3-15.8,26.7-18,37.2
			c-0.1,0.7-0.9,1.1-1.7,1.1c-0.6,0-1.2-0.2-1.5-0.8c-9.9-16.7-5.4-35.5-2.1-44.7c0.3-0.7,0.4-1.4,0.6-2.2c0.3-1.5,0.2-3.1-0.1-4.6
			c-0.3-1.4-0.9-2.8-1.8-4.1c-2.1-3.2-4.8-7.7-6.7-12.6l0,0L97,59.3l2.7-6.2l6.3-5.6l-0.8-14.6c5.3,1,9.3,2.8,9.3,2.8
			s21.9-10.4,31.4,5c6.8,10.9-1.5,26.4-6.7,34.4C138.3,76.5,137.7,77.9,137.4,79.3z"/>
		<path class="restoration-st1" d="M105.2,32.9L105.2,32.9c5.3,1,9.3,2.8,9.3,2.8s21.9-10.4,31.4,5c6.8,10.9-1.5,26.4-6.7,34.4
			c-0.9,1.3-1.5,2.7-1.8,4.1c-0.3,1.5-0.4,3-0.1,4.6c0.1,0.7,0.3,1.5,0.6,2.2c3.3,9.2,7.9,28-2.1,44.7c-0.3,0.5-0.9,0.8-1.5,0.8
			c-0.8,0-1.6-0.4-1.7-1.1c-2.1-10.5-8.5-37.5-18-37.2c-9.4-0.3-15.8,26.7-18,37.2c-0.1,0.7-0.9,1.1-1.7,1.1c-0.6,0-1.2-0.2-1.5-0.8
			c-9.9-16.7-5.4-35.5-2.1-44.7c0.3-0.7,0.4-1.4,0.6-2.2c0.3-1.5,0.2-3.1-0.1-4.6c-0.3-1.4-0.9-2.8-1.8-4.1
			c-2.1-3.2-4.8-7.7-6.7-12.6"/>
		<polyline class="restoration-st1" points="83.2,62.6 97,59.3 99.7,53.1 106,47.5 105.2,32.9 105.2,32.9 		"/>
		<polyline class="restoration-st1" points="106,47.5 111,56.7 125.6,57.3 128.4,67.6 		"/>
	</g>
</g>
</svg>
