<?xml version="1.0" encoding="utf-8"?>
<!-- Generator: Adobe Illustrator 26.1.0, SVG Export Plug-In . SVG Version: 6.00 Build 0)  -->
<svg version="1.1" xmlns="http://www.w3.org/2000/svg" xmlns:xlink="http://www.w3.org/1999/xlink" x="0px" y="0px"
	 viewBox="0 0 163.9 163.9" style="enable-background:new 0 0 163.9 163.9;" xml:space="preserve">
<style type="text/css">
	.icon-fill{fill:var(--icon-color-primary, #e1ecf3);}
	.shining-tooth-st1{fill:none;}
	.shining-tooth-st2{fill:none;stroke:#313131;stroke-width:1.5;stroke-linecap:round;stroke-linejoin:round;stroke-miterlimit:10;}
</style>
<g id="Layer_20_copy">
	<path class="icon-fill" d="M118,118.6L118,118.6l-0.2-0.9c-0.1-0.3-0.1-0.6-0.2-0.9L96.7,38.1c-0.2-1.3-0.6-2.6-1-3.8l0,0l0,0
		C92.6,26,84.4,20.6,75.3,21.4C69.8,22,65,24.7,61.7,28.7l0,0L7.6,82.8l0,0.1C3.1,86.9,0.5,93,1.1,99.5c0.8,8.1,6.3,14.6,13.6,17
		l0,0l0.2,0.1c0,0,0,0,0,0l75.8,24.4c1.2,0.5,2.4,0.9,3.7,1.2l0,0l0,0c1.9,0.4,4,0.5,6,0.3c10.9-1,18.9-10.7,17.9-21.7
		C118.3,120.1,118.2,119.3,118,118.6z"/>
</g>
<g id="Whitening">
	<g id="XMLID_00000142869284632286133760000010227343896939757732_">
		<g>
			<path class="shining-tooth-st1" d="M74.5,76.9C74.5,76.9,74.5,76.9,74.5,76.9c1.8,2.9,2.3,6.3,1.2,9.5c-2.7,7.8-6.4,23.8,0.7,38.4
				c0.8,1.6,3.8,1.3,4.1-0.4c2.1-10.4,7.3-31.6,14.7-31.3c7.4-0.2,12.6,20.9,14.7,31.3c0.4,1.7,3.3,2.1,4.1,0.4
				c6.8-13.9,3.7-29,1.1-37.1c-0.1-0.4-0.3-0.8-0.4-1.2c-0.7-2.1-0.8-4.3-0.2-6.3c0.3-1.1,0.8-2.2,1.4-3.2
				c4.4-7.1,11.4-21.1,5.7-30.8c-8-13.7-26.5-4.4-26.5-4.4s-18.4-9.2-26.4,4.4C63.1,55.9,70.1,69.8,74.5,76.9z"/>
		</g>
	</g>
	<g>
		<line class="shining-tooth-st2" x1="95.9" y1="41.1" x2="104.6" y2="45.4"/>
		<g id="XMLID_00000108284235348583356180000014452830115278876091_">
			<g>
				<path class="shining-tooth-st2" d="M75.2,76.4C75.2,76.4,75.2,76.4,75.2,76.4c1.8,2.9,2.3,6.3,1.2,9.5c-2.7,7.8-6.4,23.8,0.7,38.4
					c0.8,1.6,3.8,1.3,4.1-0.4c2.1-10.4,7.3-31.6,14.7-31.3c7.4-0.2,12.6,20.9,14.7,31.3c0.4,1.7,3.3,2.1,4.1,0.4
					c6.8-13.9,3.7-29,1.1-37.1c-0.1-0.4-0.3-0.8-0.4-1.2c-0.7-2.1-0.8-4.3-0.2-6.3c0.3-1.1,0.8-2.2,1.4-3.2
					c4.4-7.1,11.4-21.1,5.7-30.8c-8-13.7-26.5-4.4-26.5-4.4s-18.4-9.2-26.4,4.4C63.7,55.3,70.7,69.2,75.2,76.4z"/>
			</g>
		</g>
	</g>
	<polygon class="shining-tooth-st2" points="156.1,80.2 145.6,74.9 135.3,80.6 137.1,68.9 128.6,60.9 140.2,59 145.2,48.3 150.6,58.8 162.3,60.3
		154,68.7 	"/>
</g>
</svg>
