<?xml version="1.0" encoding="utf-8"?>
<!-- Generator: Adobe Illustrator 26.1.0, SVG Export Plug-In . SVG Version: 6.00 Build 0)  -->
<svg version="1.1" xmlns="http://www.w3.org/2000/svg" xmlns:xlink="http://www.w3.org/1999/xlink" x="0px" y="0px"
	 viewBox="0 0 163.9 163.9" style="enable-background:new 0 0 163.9 163.9;" xml:space="preserve">
<style type="text/css">
	.icon-fill{fill:var(--icon-color-primary, #e1ecf3);}
	.skip-rope-st1{fill:none;stroke:#313131;stroke-width:1.5;stroke-linecap:round;stroke-linejoin:round;stroke-miterlimit:10;}
</style>
<g id="Layer_20_copy">
	<path class="icon-fill" d="M118,118.6L118,118.6l-0.2-0.9c-0.1-0.3-0.1-0.6-0.2-0.9L96.7,38.1c-0.2-1.3-0.6-2.6-1-3.8l0,0l0,0
		C92.6,26,84.4,20.6,75.3,21.4C69.8,22,65,24.7,61.7,28.7l0,0L7.6,82.8l0,0.1C3.1,86.9,0.5,93,1.1,99.5c0.8,8.1,6.3,14.6,13.6,17
		l0,0l0.2,0.1c0,0,0,0,0,0l75.8,24.4c1.2,0.5,2.4,0.9,3.7,1.2l0,0l0,0c1.9,0.4,4,0.5,6,0.3c10.9-1,18.9-10.7,17.9-21.7
		C118.3,120.1,118.2,119.3,118,118.6z"/>
</g>
<g id="Children">
	<g>
		<path class="skip-rope-st1" d="M146.9,79.7c-1.5-0.7-12-6.8-21-16.8c-3-3.3-7.3-4.7-11.9-4.7c-4.8,0-9.1,1.8-11.6,4.7
			C93.5,73.1,82.6,79,81,79.7c-2.8,1.3-4.2,3.3-3.4,5.9c0.8,2.5,2.8,3.5,6.3,2.9c4.9-0.8,11.9-4.7,19.3-10.4l-2,31.1
			c0.2,3.2,2.1,5.2,5.7,5.2c5.9,0,6.1-7.4,6-9.8l1.4,25.7c0.4,3.2,2.4,5.4,5.4,5.4c3,0,5-2.3,5.4-5.5l-0.6-52.1
			c7.3,5.7,14.5,9.6,19.3,10.4c3.5,0.6,5.6-0.5,6.3-2.9C151.1,83,149.7,81,146.9,79.7z"/>
		<path class="skip-rope-st1" d="M114,53.2c6.9,0,12.5-5.6,12.5-12.5c0-6.9-5.6-12.5-12.5-12.5c-6.9,0-12.5,5.6-12.5,12.5
			C101.5,47.6,107.1,53.2,114,53.2z"/>
		<path class="skip-rope-st1" d="M125.2,129.3c12.4-4.3,21.3-16.2,21.3-30.1V88.6"/>
		<path class="skip-rope-st1" d="M82.8,88.6v10.6c0,17.6,14.3,31.9,31.9,31.9"/>
	</g>
</g>
</svg>
