<?xml version="1.0" encoding="utf-8"?>
<!-- Generator: Adobe Illustrator 26.1.0, SVG Export Plug-In . SVG Version: 6.00 Build 0)  -->
<svg version="1.1" xmlns="http://www.w3.org/2000/svg" xmlns:xlink="http://www.w3.org/1999/xlink" x="0px" y="0px"
	 viewBox="0 0 163.9 163.9" style="enable-background:new 0 0 163.9 163.9;" xml:space="preserve">
<style type="text/css">
	.icon-fill{fill:var(--icon-color-primary, #e1ecf3);}
	.tmj-st1{fill:none;stroke:#333333;stroke-width:1.5;stroke-miterlimit:10;}
</style>
<g id="Layer_20_copy">
	<path class="icon-fill" d="M118,118.6L118,118.6l-0.2-0.9c-0.1-0.3-0.1-0.6-0.2-0.9L96.7,38.1c-0.2-1.3-0.6-2.6-1-3.8l0,0l0,0
		C92.6,26,84.4,20.6,75.3,21.4C69.8,22,65,24.7,61.7,28.7l0,0L7.6,82.8l0,0.1C3.1,86.9,0.5,93,1.1,99.5c0.8,8.1,6.3,14.6,13.6,17
		l0,0l0.2,0.1c0,0,0,0,0,0l75.8,24.4c1.2,0.5,2.4,0.9,3.7,1.2l0,0l0,0c1.9,0.4,4,0.5,6,0.3c10.9-1,18.9-10.7,17.9-21.7
		C118.3,120.1,118.2,119.3,118,118.6z"/>
</g>
<g id="TMJ">
	<g>
		<g>
			<path class="tmj-st1" d="M134.8,130c-0.6-3.4-1.5-13.1-1.6-16.4c0-0.7,0-1.3,0-1.8c-0.1-3.4-0.1-5.1,1.7-8.6c0.7-1.5,1.8-3.3,3.1-5.4
				c3.5-5.8,8.2-13.8,9.9-21.1c2-9,1.1-17.7-2.6-25.1c-3.4-6.9-9.2-12.2-16.1-14.9c-7.3-2.8-14.4-3.7-21.2-2.6
				c-7.3,1.2-14,4.6-19.9,10.2c-9.3,8.7-7.7,18.5-7.1,22.2c0.1,0.5,0.2,1,0.2,1.2c-0.1,1-0.8,2-1.9,3.5c-0.3,0.4-0.6,0.8-0.9,1.2
				c-0.9,1.3-2.1,2.7-3.3,4c-2.7,3.1-4.5,5.2-3.6,6.7c0.8,1.5,2.8,2.4,4.4,3.2c0.7,0.3,1.7,0.8,2,1.1c-0.1,1.6-1.1,2.4-1.9,3.1
				c-0.7,0.6-1.5,1.3-1.4,2.4c0.1,1.1,1.3,2.4,2.3,3.2c-0.6,0.5-1.3,1.1-1.6,2.1c-0.9,2.1,0.4,3.6,1.3,4.5c0.3,0.3,0.7,0.8,0.7,1
				c0,0.6-0.2,1.4-0.4,2.2c-0.5,1.9-1.1,4.2,0.4,7c1.1,2.1,4.6,2.4,8.1,2.4c7.5,0.1,9.5,2.6,10.1,3.5c0.1,0.1,0.1,0.1,0.2,0.2
				c1.2,1.4,1.5,9,1.5,11.5L134.8,130z"/>
		</g>
		<circle class="tmj-st1" cx="116.2" cy="95.9" r="14.1"/>
		<circle class="tmj-st1" cx="116.2" cy="95.9" r="9"/>
	</g>
</g>
</svg>
