<?xml version="1.0" encoding="utf-8"?>
<!-- Generator: Adobe Illustrator 26.1.0, SVG Export Plug-In . SVG Version: 6.00 Build 0)  -->
<svg version="1.1" xmlns="http://www.w3.org/2000/svg" xmlns:xlink="http://www.w3.org/1999/xlink" x="0px" y="0px"
	 viewBox="0 0 163.9 163.9" style="enable-background:new 0 0 163.9 163.9;" xml:space="preserve">
<style type="text/css">
	.icon-fill{fill:var(--icon-color-primary, #e1ecf3);}
	.veneer-st1{fill:none;}
	.veneer-st2{fill:none;stroke:#010101;stroke-width:1.5;stroke-linecap:round;stroke-linejoin:round;stroke-miterlimit:10;}
</style>
<g id="Layer_20_copy">
	<path class="icon-fill" d="M118,118.6L118,118.6l-0.2-0.9c-0.1-0.3-0.1-0.6-0.2-0.9L96.7,38.1c-0.2-1.3-0.6-2.6-1-3.8l0,0l0,0
		C92.6,26,84.4,20.6,75.3,21.4C69.8,22,65,24.7,61.7,28.7l0,0L7.6,82.8l0,0.1C3.1,86.9,0.5,93,1.1,99.5c0.8,8.1,6.3,14.6,13.6,17
		l0,0l0.2,0.1c0,0,0,0,0,0l75.8,24.4c1.2,0.5,2.4,0.9,3.7,1.2l0,0l0,0c1.9,0.4,4,0.5,6,0.3c10.9-1,18.9-10.7,17.9-21.7
		C118.3,120.1,118.2,119.3,118,118.6z"/>
</g>
<g id="Cosmetic">
	<g>
		<g>
			<path class="veneer-st1" d="M147.8,78.8l0.4,0.4c5.8-0.1,11.6-1.7,11.6-4.6c0-19.1-3-34.7-11.6-34.7c-8.5,0-13.1,17.9-13.1,25.4l0.1,0.1
				c-0.4-0.1-0.9-0.1-1.4-0.1l0.2-0.1c-1.1-11-4.7-25.3-16.7-25.3c-13.5,0-15.4,20.4-15.4,31.4c0-11-1.9-31.4-15.4-31.4
				c-15.3,0-16.9,23.5-17,33.6c0,3.4,2.4,6.1,5.9,6.5c6.7,0.8,17.3,2.2,22.8,1c2-0.4,3.6-2.2,3.7-4.2c0.1,2,1.7,3.8,3.7,4.2
				c3.5,0.8,9.2,0.5,14.5,0l-1.5-0.7l1.8,0.4c-1.2,5.4-1.6,11.3-1.6,16l0,0l0,0c0,0.9,0,1.7,0,2.5l0,0l0,0.2l0,0c0,0.3,0,0.5,0,0.7
				l0,1l0,0c0,1,0,2,0.1,2.8c0.1,2.1,1.6,3.9,3.7,4.4c5.5,1.2,15.6,1.1,22.4,0.3c1.6-0.2,2.9-0.9,3.9-1.9h0l0.2-23.3l0,0l0,0
				C148.7,81.8,148.3,80.3,147.8,78.8z"/>
			<path class="veneer-st1" d="M56.1,39.9c-8.8,0-11.9,15.9-11.9,35.4c0,4.3,13.4,4.1,19.4,3.8c1.9-0.1,3.6-1.3,4.2-3.1
				c0.8-2.2,1.8-5.7,1.8-9.9C69.6,58.4,64.9,39.9,56.1,39.9z"/>
		</g>
		<g>
			<path class="veneer-st2" d="M148.9,106.7c-1,1-2.4,1.7-3.9,1.9c-6.8,0.9-16.8,1-22.4-0.3c-2.1-0.5-3.6-2.3-3.7-4.4
				c-0.1-1.2-0.1-2.8-0.1-4.5"/>
			<path class="veneer-st2" d="M118.8,99.3c0-11.5,1.3-33.9,14.9-33.9c8.9,0,13.3,9,15.4,18"/>
			<path class="veneer-st2" d="M102,72.5c0,1.7-0.1,3.1,0,4.3c0.1,2,1.7,3.8,3.7,4.2c3.5,0.8,9.2,0.5,14.5,0"/>
			<path class="veneer-st2" d="M102,76.9c-0.1,2-1.7,3.8-3.7,4.2c-5.5,1.2-16.1-0.2-22.8-1c-3.5-0.4-5.9-3.1-5.9-6.5
				c0.1-10.1,1.7-33.6,17-33.6c13.5,0,15.4,20.4,15.4,31.4c0-11,1.9-31.4,15.4-31.4c11.9,0,15.6,14.3,16.7,25.3"/>
			<path class="veneer-st2" d="M129.7,100l-13.7,4.6c-3.5,1.2-6.7,3.1-9.4,5.7L90,132"/>
			<polyline class="veneer-st2" points="101.6,132 118.2,116.2 126.1,109.2 			"/>
			<path class="veneer-st2" d="M130.2,74.6c0,0-1.3,2.8-1.4,3.6"/>
			<line class="veneer-st2" x1="128" y1="85.4" x2="127.4" y2="93.8"/>
			<line class="veneer-st2" x1="152.8" y1="88.5" x2="152.8" y2="90.8"/>
			<line class="veneer-st2" x1="152.8" y1="100" x2="152.8" y2="102.3"/>
			<line class="veneer-st2" x1="159.8" y1="95.4" x2="157.4" y2="95.4"/>
			<line class="veneer-st2" x1="148.2" y1="95.4" x2="145.9" y2="95.4"/>
		</g>
	</g>
</g>
</svg>
