<?xml version="1.0" encoding="utf-8"?>
<!-- Generator: Adobe Illustrator 26.1.0, SVG Export Plug-In . SVG Version: 6.00 Build 0)  -->
<svg version="1.1" xmlns="http://www.w3.org/2000/svg" xmlns:xlink="http://www.w3.org/1999/xlink" x="0px" y="0px"
	 viewBox="0 0 163.9 163.9" style="enable-background:new 0 0 163.9 163.9;" xml:space="preserve">
<style type="text/css">
	.icon-fill{fill:var(--icon-color-primary, #e1ecf3);}
	.wisdom-teeth-st1{fill:none;}
	.wisdom-teeth-st2{fill:none;stroke:#313131;stroke-width:1.5;stroke-linecap:round;stroke-linejoin:round;stroke-miterlimit:10;}
</style>
<g id="Layer_20_copy">
	<path class="icon-fill" d="M118,118.6L118,118.6l-0.2-0.9c-0.1-0.3-0.1-0.6-0.2-0.9L96.7,38.1c-0.2-1.3-0.6-2.6-1-3.8l0,0l0,0
		C92.6,26,84.4,20.6,75.3,21.4C69.8,22,65,24.7,61.7,28.7l0,0L7.6,82.8l0,0.1C3.1,86.9,0.5,93,1.1,99.5c0.8,8.1,6.3,14.6,13.6,17
		l0,0l0.2,0.1c0,0,0,0,0,0l75.8,24.4c1.2,0.5,2.4,0.9,3.7,1.2l0,0l0,0c1.9,0.4,4,0.5,6,0.3c10.9-1,18.9-10.7,17.9-21.7
		C118.3,120.1,118.2,119.3,118,118.6z"/>
</g>
<g id="Wisdom">
	<g>
		<g>
			<line class="wisdom-teeth-st1" x1="70.3" y1="38.2" x2="77.9" y2="42.3"/>
			<g id="XMLID_00000076563576013555862260000004808439003483384993_">
				<g>
					<path class="wisdom-teeth-st1" d="M52.1,71.7C52.1,71.7,52.1,71.7,52.1,71.7c1.6,2.8,2,6,1.1,9c-2.3,7.4-5.6,22.6,0.6,36.4
						c0.7,1.6,3.3,1.3,3.6-0.4c1.8-9.9,6.4-30,12.9-29.7c6.5-0.2,11.1,19.9,12.9,29.7c0.3,1.7,2.9,2,3.6,0.4
						c5.9-13.2,3.3-27.5,1-35.3c-0.1-0.4-0.2-0.8-0.4-1.2c-0.6-2-0.7-4-0.2-6c0.3-1,0.7-2,1.2-3c3.9-6.8,10-20,5-29.3
						c-7-13-23.2-4.2-23.2-4.2s-16.1-8.8-23.2,4.2C42,51.7,48.2,64.9,52.1,71.7z"/>
				</g>
			</g>
		</g>
		<g>
			<line class="wisdom-teeth-st2" x1="70.6" y1="38.3" x2="78.2" y2="42.4"/>
			<g id="XMLID_00000180330246675843230670000018386569198577533834_">
				<g>
					<path class="wisdom-teeth-st2" d="M38.6,71.8h13.8c0,0,0,0,0,0c1.6,2.8,2,6,1.1,9c-2.3,7.4-5.6,22.6,0.6,36.4c0.7,1.6,3.3,1.3,3.6-0.4
						c1.8-9.9,6.4-30,12.9-29.7c6.5-0.2,11.1,19.9,12.9,29.7c0.3,1.7,2.9,2,3.6,0.4c5.9-13.2,3.3-27.5,1-35.3
						c3.2,8.2,14.9,13.7,21.5,16.2c2.9,1.1,5.2,3.1,6.4,5.6c3.1,6.3,10.4,18.3,23.4,24.6c1.5,0.7,3.1-0.8,2.2-2.1
						c-5-7.7-14.6-23.7-10-26.9c4.3-3.4,20.1,8,27.7,13.8c1.3,1,3.2-0.1,2.7-1.5c-4.5-12.6-16.3-21.3-22.6-25.2
						c-2.6-1.6-4.3-4-5-6.7c-0.8-3.2-2.1-7.6-4.4-11.8c0,0,12.6-17.1,35.3-16"/>
				</g>
				<g>
					<path class="wisdom-teeth-st2" d="M52.4,71.8C52.4,71.8,52.4,71.8,52.4,71.8c1.6,2.8,2,6,1.1,9c-2.3,7.4-5.6,22.6,0.6,36.4
						c0.7,1.6,3.3,1.3,3.6-0.4c1.8-9.9,6.4-30,12.9-29.7c6.5-0.2,11.1,19.9,12.9,29.7c0.3,1.7,2.9,2,3.6,0.4
						c5.9-13.2,3.3-27.5,1-35.3c-0.1-0.4-0.2-0.8-0.4-1.2c-0.6-2-0.7-4-0.2-6c0.3-1,0.7-2,1.2-3c3.9-6.8,10-20,5-29.3
						c-7-13-23.2-4.2-23.2-4.2s-16.1-8.8-23.2,4.2C42.3,51.8,48.5,65,52.4,71.8z"/>
					<path class="wisdom-teeth-st2" d="M88.1,82c3.2,8.2,14.9,13.7,21.5,16.2c2.9,1.1,5.2,3.1,6.4,5.6c3.1,6.3,10.4,18.3,23.4,24.6
						c1.5,0.7,3.1-0.8,2.2-2.1c-5-7.7-14.6-23.7-10-26.9c4.3-3.4,20.1,8,27.7,13.8c1.3,1,3.2-0.1,2.7-1.5
						c-4.5-12.6-16.3-21.3-22.6-25.2c-2.6-1.6-4.3-4-5-6.7c-0.8-3.2-2.1-7.6-4.4-11.8c-2.4-4.5-5.9-8.8-10.7-10.8
						c-13-5.3-18.5,8.8-18.5,8.8s-11.1,1.4-13.3,8.8c-0.5,1.6-0.5,3.6,0.1,5.8C87.7,81.1,87.9,81.5,88.1,82z"/>
					<line class="wisdom-teeth-st2" x1="100.8" y1="66.1" x2="108.6" y2="65"/>
					<path class="wisdom-teeth-st2" d="M165.4,52c-22.6-1.1-35.3,16-35.3,16"/>
					<line class="wisdom-teeth-st2" x1="52.4" y1="71.8" x2="38.6" y2="71.8"/>
				</g>
			</g>
		</g>
	</g>
</g>
</svg>
