<?xml version="1.0" encoding="utf-8"?>
<!-- Generator: Adobe Illustrator 26.4.1, SVG Export Plug-In . SVG Version: 6.00 Build 0)  -->
<svg version="1.1" id="Layer_1" xmlns="http://www.w3.org/2000/svg" xmlns:xlink="http://www.w3.org/1999/xlink" x="0px" y="0px"
	 viewBox="0 0 234.3 57.9" style="enable-background:new 0 0 234.3 57.9;" xml:space="preserve">
<style type="text/css">
	.st0{fill:#231F20;}
</style>
<g>
	<path class="st0" d="M0,1h13v45.4H41V57H0V1z"/>
	<path class="st0" d="M58.8,54.2c-4.7-2.5-8.3-6-11-10.4c-2.6-4.4-4-9.3-4-14.8c0-5.5,1.3-10.4,4-14.8c2.6-4.4,6.3-7.9,11-10.4
		C63.4,1.3,68.7,0,74.5,0c5.8,0,11,1.3,15.7,3.8c4.6,2.5,8.3,6,11,10.4c2.7,4.4,4,9.3,4,14.8c0,5.5-1.3,10.4-4,14.8
		c-2.7,4.4-6.3,7.9-11,10.4c-4.6,2.5-9.9,3.8-15.7,3.8C68.7,57.9,63.4,56.7,58.8,54.2z M83.4,44.6c2.7-1.5,4.8-3.6,6.3-6.4
		c1.5-2.7,2.3-5.8,2.3-9.3c0-3.5-0.8-6.6-2.3-9.3c-1.5-2.7-3.6-4.8-6.3-6.4c-2.7-1.5-5.7-2.3-9-2.3c-3.3,0-6.3,0.8-9,2.3
		c-2.7,1.5-4.8,3.6-6.3,6.4C57.7,22.4,57,25.5,57,29c0,3.5,0.8,6.6,2.3,9.3c1.5,2.7,3.6,4.8,6.3,6.4c2.7,1.5,5.7,2.3,9,2.3
		C77.8,46.9,80.8,46.1,83.4,44.6z"/>
	<path class="st0" d="M152.7,28.1h11.8v22.7c-3,2.3-6.6,4.1-10.6,5.3c-4,1.2-8,1.8-12.1,1.8c-5.8,0-11-1.2-15.7-3.7
		c-4.6-2.5-8.3-5.9-10.9-10.3s-4-9.4-4-14.9c0-5.5,1.3-10.5,4-14.9s6.3-7.8,11-10.3c4.7-2.5,10-3.7,15.8-3.7c4.9,0,9.4,0.8,13.4,2.5
		c4,1.7,7.4,4.1,10.1,7.2l-8.3,7.7c-4-4.2-8.8-6.3-14.5-6.3c-3.6,0-6.7,0.7-9.5,2.2c-2.8,1.5-4.9,3.6-6.5,6.3
		c-1.5,2.7-2.3,5.8-2.3,9.4c0,3.5,0.8,6.6,2.3,9.3c1.5,2.7,3.7,4.8,6.4,6.4c2.7,1.5,5.9,2.3,9.4,2.3c3.7,0,7.1-0.8,10.1-2.4V28.1z"
		/>
	<path class="st0" d="M188,54.2c-4.7-2.5-8.3-6-11-10.4c-2.6-4.4-4-9.3-4-14.8c0-5.5,1.3-10.4,4-14.8c2.6-4.4,6.3-7.9,11-10.4
		c4.7-2.5,9.9-3.8,15.7-3.8c5.8,0,11,1.3,15.7,3.8c4.6,2.5,8.3,6,11,10.4c2.7,4.4,4,9.3,4,14.8c0,5.5-1.3,10.4-4,14.8
		c-2.7,4.4-6.3,7.9-11,10.4c-4.6,2.5-9.9,3.8-15.7,3.8C197.9,57.9,192.6,56.7,188,54.2z M212.6,44.6c2.7-1.5,4.8-3.6,6.3-6.4
		c1.5-2.7,2.3-5.8,2.3-9.3c0-3.5-0.8-6.6-2.3-9.3c-1.5-2.7-3.6-4.8-6.3-6.4c-2.7-1.5-5.7-2.3-9-2.3c-3.3,0-6.3,0.8-9,2.3
		c-2.7,1.5-4.8,3.6-6.3,6.4c-1.5,2.7-2.3,5.8-2.3,9.3c0,3.5,0.8,6.6,2.3,9.3c1.5,2.7,3.6,4.8,6.3,6.4c2.7,1.5,5.7,2.3,9,2.3
		C207,46.9,210,46.1,212.6,44.6z"/>
</g>
</svg>
